<?xml version="1.0" encoding="iso-8859-1"?>
<!-- Generator: Adobe Illustrator 16.0.2, SVG Export Plug-In . SVG Version: 6.00 Build 0)  -->
<!DOCTYPE svg PUBLIC "-//W3C//DTD SVG 1.1//EN" "http://www.w3.org/Graphics/SVG/1.1/DTD/svg11.dtd">
<svg version="1.1" id="&#x5716;&#x5C64;_1" xmlns="http://www.w3.org/2000/svg" xmlns:xlink="http://www.w3.org/1999/xlink" x="0px"
	 y="0px" width="155.485px" height="275.009px" viewBox="0 0 155.485 275.009" style="enable-background:new 0 0 155.485 275.009;"
	 xml:space="preserve">
<g>
	<g>
		<g>
			<path style="fill:#E9E1EE;stroke:#000000;stroke-miterlimit:10;" d="M123.25,40.276c-0.258-0.736-0.416-1.473-0.234-2.209
				c-4.225-4.708-12.264-6.981-17.805-9.547c-4.632-2.145-10.057-1.788-14.957-0.962c-3.36,0.566-8.496,2.891-11.893,1.589
				c-2.841-1.089-3.965-7.089-4.34-9.56c-0.602-3.97-0.912-7.819-3.848-10.859c-5.59-5.789-16.573-8.513-24.353-8.205
				c-4.151,0.165-9.14,1.154-12.748,3.357c-4.891,2.987-6.749,7.471-6.286,13.073c5.662-1.429,16.317-9.71,17.924,2.064
				c0.936,6.855-4.789,12.516-9.135,16.996c-5.804,5.982-12.042,11.587-17.287,18.089C1.879,74.452,2.462,105.65,7.521,129.924
				c3.048,14.629,7.538,28.863,14.814,41.97c9.273,16.704,29.324,36.839,43.625,49.124c7.554,6.49,47.258,40.424,67.767,40.32
				c0.804-0.004,6.821,0.479,7.358-0.32l13.625-20c-3.587-1.319-18.1-4.368-21.002-5.861c-8.857-4.555-17.383-10.186-24.583-17.186
				c-2.04-1.982-3.976-4.074-5.778-6.275c-2.219-2.706-4.23-5.598-6.035-8.596c-5.236-8.696-8.718-18.464-11.717-28.121
				c-0.877-2.824-1.699-5.666-2.482-8.518c-0.773-2.816-1.547-5.633-2.39-8.43c-4.264-14.143,7.628-19.849,19.729-14.996
				c0,0,25.352,0.754,26.925,0.316l0.073-47.871L123.25,40.276z"/>
			<path style="fill:#D9E0D1;" d="M137.967,257.479c-1.094,0-2.315,0.04-3.123,0c-0.525-0.025-0.92,0.057-1.105,0.057h-0.104
				c-12.061,0-36.385-14.81-65.067-39.452c-14.171-12.175-33.867-32.108-42.735-48.081c-6.338-11.418-11.047-24.804-14.395-40.869
				c-2.995-14.368-8.019-50.207,9.965-72.506c3.529-4.376,7.489-8.299,11.682-12.445c1.766-1.746,3.591-3.554,5.362-5.378
				l0.374-0.387c4.653-4.789,11.027-11.349,9.854-19.939c-1.193-8.74-6.953-9.684-9.374-9.684c-2.526,0-5.107,0.868-7.521,1.864
				c0.73-1.328,1.846-2.427,3.378-3.363c2.572-1.57,6.618-2.607,10.822-2.774C46.323,4.507,46.673,4.5,47.031,4.5
				c6.708,0,15.823,2.407,20.265,7.007c1.688,1.748,2.091,4.019,2.608,7.579l0.162,1.1c1.09,7.19,3.335,11.343,6.863,12.696
				c1.135,0.435,2.416,0.655,3.808,0.655c2.53,0,5.081-0.706,7.331-1.329c1.074-0.297,2.088-0.578,2.85-0.707
				c2.387-0.402,4.327-0.589,6.107-0.589c2.58,0,4.708,0.405,6.506,1.237c1.455,0.674,3.004,1.301,4.644,1.965
				c3.83,1.551,9.815,2.585,12.536,4.921c0.067,0.486,2.471,0.628,2.587,1.019l4.072,53.512l-16.659,29.701
				c-1.436,0.547-4.394,2.014-5.5,2.844l-0.5,0.375c-3.141,3.664-4.299,7.013-4.844,11.938c-1.839-0.414-5.951-1.088-7.716-1.088
				c-5.688,0-10.599,2.219-13.474,6.088c-2.121,2.855-4.152,7.908-1.784,15.762c0.821,2.723,1.592,5.534,2.34,8.254
				c0.871,3.176,1.695,6.002,2.541,8.725c2.818,9.074,6.461,19.615,12.11,28.999c1.953,3.245,4.096,6.296,6.368,9.068
				c1.857,2.267,3.904,4.491,6.084,6.608c6.87,6.678,15.464,12.691,25.542,17.874c1.937,0.996,6.226,2.103,13.06,3.808
				c1.127,0.281,2.266,0.565,3.336,0.838l-9.611,14.109C138.469,257.475,138.238,257.479,137.967,257.479z"/>
		</g>
		<g>
			<path style="fill:#E9E1EE;stroke:#000000;stroke-miterlimit:10;" d="M122.242,141.896c1.922-1.834,2.313-6.777,2.219-8.878
				c-0.162-3.583-2.639-6.939-5.506-9.201c-3.331-2.627-7.105-0.466-10.494,1.007c-3.655,1.589-5.301,3.781-6.445,7.25
				c-0.588,1.782-1.279,3.678-1.561,5.438c-1.459,9.15,1.244,20.072,10.867,22.882c8.02,2.344,15.033-4.454,19.389-10.127
				c8.576-11.168,8.284-24.801,5.5-38c-0.646-3.061-6.473-13.766-9.373-17.926"/>
			<path style="fill:#D9E0D1;" d="M128.936,99.718c-1.17-1.676-2.737-2.443-3.379-3.513l-14.846,27.063
				c3.389-1.473,3.749-1.826,7.688-0.25c6.25,2.5,9,13.5,3.844,18.878c0,0,1.566-10.582-1.031-13.378c-3-5-10.355-3.25-14.355-0.25
				c-4.145,5.75-5.395,17.375-2.645,24.25c5,8,15,7,21,1c8-9,10.125-19.875,10.125-31.875
				C135.336,114.307,132.121,106.852,128.936,99.718z"/>
		</g>
		<g>
			<path style="fill:#E9E1EE;stroke:#000000;stroke-miterlimit:10;" d="M118.825,71.785c1.415,0.235,3.542-2.664,3.919-3.642
				c0.7-1.813,0.744-4.07,0.461-6c-0.288-1.951-1.584-3.234-3.246-3.939c-2.184-0.927-4.997-0.854-6.994,0.036
				c-4.27,1.901-5.229,4.834-5.872,9.153c-0.673,4.521,0.198,9.171,1.236,13.501c0.937,3.909,4.604,9.007,8.128,10.906
				c1.787,0.963,3.46,2.193,5.379,2.941c4.57,1.781,9.603,1.509,12.383-2.904c2.438-3.868,3.541-8.825,3.979-13.332
				c1.434-14.728-6.307-30.322-15.879-41.157"/>
			<path style="fill:#D9E0D1;" d="M122.055,39.674l-2.043,18.058c1.662,0.706,3.037,2.367,3.324,4.317
				c0.284,1.93,0.262,4.344-0.438,6.156c-0.432,1.117-3.302,4.681-4.629,3.271c4.711-2.89,4.906-10.231,1.454-11.765
				c-0.165-0.073-0.33-0.149-0.513-0.194c-2-1-4.75-0.125-6.75,0.875c-5.5,4.813-5.511,11.143-3.312,17.201
				c1,2.754,2.144,6.076,3.749,8.549c1.375,2.119,3.133,3.473,5.25,5c5.111,3.686,12.3,5.063,15.063-0.625
				C141.711,73.018,128.011,44.711,122.055,39.674z"/>
		</g>
		<g>
			<path style="fill:#9CB098;" d="M66.544,59.185c6.303-4.862,16.669-0.9,21.258,5.407c2.807,3.857,5.207,20.671-2.541,20.643
				c-0.299,5.19-0.726,10.423-3.969,14.707c-2.618,3.459-6.276,6.011-9.498,8.827c-7.454,6.514-14.259,15.415-15.657,25.083
				c-1.374,9.499,3.492,21.544,6.74,30.334c3.32,8.984,6.6,18.809,11.093,27.573c4.507,8.794,12.2,14.649,18.249,22.435
				c5.614,7.227,12.502,15.125,19.575,21.074c5.524,4.646,27.974,10.924,28.101,15.25c0.104,3.558-2.548,7.516-4.508,10.357
				c-1.595-1.275-12.335-2.713-14.842-3.432c-5.228-1.496-9.673-4.318-14.668-6.674c-9.625-4.542-19.802-8.443-28.748-14.176
				c-9.309-5.966-17.517-11.58-26.27-18.734c-8.981-7.342-28.419-45.245-30.982-50.998c-3.9-8.756-8.36-38.797-9.334-45.343
				c-0.83-5.574,0.241-11.553,1.325-17.009c2.281-11.487,6.559-21.539,12.594-31.658c2.39-4.006,16.337-19.711,18.415-21.332
				c3.461-2.7,10.179-4.771,14.25-2.918C61.612,50.642,66.544,59.185,66.544,59.185z"/>
		</g>
		<path style="fill:#8A7C74;" d="M48.381,94.021c-5.087,9.707-3.021,19.351-2.503,30.164c0.976,20.349,4.38,40.224,13.499,58.501
			c8.031,16.097,17.014,30.51,27.332,45.369c1.948,2.805,16.249,17.104,14.031,19.659c-3.395,3.912-20.298-9.781-23.398-12.36
			c-14.355-11.941-21.257-30.684-29.447-46.521c-4.581-8.858-7.219-15.633-9.684-25.029c-2.798-10.671-4.347-23.303-4.333-34.285
			c0.022-17.514,4.833-53.112,30.097-50.15C59.383,79.471,50.338,90.285,48.381,94.021z"/>
	</g>
	<g>
		<path style="fill:#E9E1EE;stroke:#000000;stroke-miterlimit:10;" d="M7.341,76.406c1.169,10.862-2.1,22.05-2.13,33.112
			c-0.03,11.064,3.227,20.578,6.759,30.667c3.94,11.252,9.595,25.439,18.035,34.125c4.976,5.121,9.241,10.926,14.646,15.628
			c4.664,4.058,10.524,6.21,16.157,8.532c17.463,7.199,28.066,23.819,41.935,35.787c4.338,3.742,10.185,7.646,15.469,10.012
			c4.463,1.998,9.307,2.795,14.125,3.408c4.949,0.629,13.002-0.808,12.281,6.508c-0.479,4.847-0.307,10.5-2.076,14.98
			c-2.035,5.157-8.18,3.869-13.002,4.352c-12.979,1.299-27.094-7.246-38.369-12.514c-12.725-5.947-24.334-13.908-34.696-23.387
			c-5.821-5.324-11.159-11.227-16.015-17.441c-15.853-20.291-25.177-44.707-32.87-69.027c-2.113-6.68-4.035-13.407-5.38-20.29
			c-1.883-9.631-2.128-19.589-1.144-29.339C1.922,93.053,5.26,84.685,7.341,76.406z"/>
		<path style="fill:#94A4CF;" d="M143.619,254.186c-0.479,4.847-0.307,10.5-2.076,14.98c-2.035,5.157-8.18,3.869-13.002,4.352
			c-12.979,1.299-26.094-7.246-37.369-12.514c-12.725-5.947-24.334-13.908-34.696-23.387c-5.821-5.324-9.909-11.134-14.765-17.35
			c-15.853-20.291-26.427-44.799-34.12-69.119c-2.113-6.68-4.035-13.407-5.38-20.29c-1.883-9.631-2.128-19.589-1.144-29.339
			c0.855-8.467,3.311-13.918,5.519-22.001c0,0-4.345,21.771-4.375,32.833c-0.03,11.064,2.227,20.745,5.759,30.834
			c3.94,11.252,9.595,25.439,18.035,34.125c4.976,5.121,9.241,10.926,14.646,15.628c4.664,4.058,10.524,6.21,16.157,8.532
			c17.463,7.199,28.066,23.819,41.935,35.787c4.338,3.742,10.185,7.646,15.469,10.012c4.463,1.998,9.307,2.795,14.125,3.408
			C133.287,251.307,143.619,254.186,143.619,254.186z"/>
		<path style="fill:#5E5264;" d="M25.961,198.268c9,7,20.75,25,27.03,29.179c16.182,10.767,32.137,23.438,49.171,32.534
			c9.517,5.081,18.813,8.328,29.471,10.035c-3.59,6.802-9.251,5.436-15.614,3.007c-9.124-3.483-16.333-7.704-25.847-12.019
			c-9.908-4.494-17.544-9.939-25.961-16.736c-12.874-10.396-27.924-21.811-35.896-37.561c-1.434-2.833-0.898-6.805-3.604-8.939"/>
	</g>
</g>
<line id="direct" style="fill:none;stroke:#FF0000;stroke-miterlimit:10;" x1="143.358" y1="257.683" x2="77.742" y2="57.68"/>
</svg>
