<?xml version="1.0" encoding="iso-8859-1"?>
<!-- Generator: Adobe Illustrator 16.0.2, SVG Export Plug-In . SVG Version: 6.00 Build 0)  -->
<!DOCTYPE svg PUBLIC "-//W3C//DTD SVG 1.1//EN" "http://www.w3.org/Graphics/SVG/1.1/DTD/svg11.dtd">
<svg version="1.1" id="&#x5716;&#x5C64;_1" xmlns="http://www.w3.org/2000/svg" xmlns:xlink="http://www.w3.org/1999/xlink" x="0px"
	 y="0px" width="204.749px" height="190.243px" viewBox="0 0 204.749 190.243" style="enable-background:new 0 0 204.749 190.243;"
	 xml:space="preserve">
<g>
	<path style="fill:#E9E1EE;stroke:#000000;stroke-miterlimit:10;" d="M171.025,69.921c6.672-0.441,17.8,0.228,24.027,3.474
		c7.169,3.737,10.069,12.487,8.971,20.137c-0.55,3.828-2.539,7.061-2.51,11.011c0.027,3.581,1.633,7.688,2.012,11.488
		c0.972,9.736-2.137,12.381-6.377,20.624c-3.576,6.955,5.772,13.253,3.363,20.862c-2.051,6.475-11.986,9.977-17.961,10.54
		c-9.361,0.883-14.977-2.645-21.537-8.552c-6.377-5.742-12.635-11.037-19.377-16.086c-5.977-4.475-13.852-10.484-17.611-16.889
		c-9.17-15.619,5.002-33.455,17.109-42.376C141.134,84.156,163.281,70.434,171.025,69.921z"/>
	<path style="fill:#ABB8AD;" d="M179.785,164.193c-6.38,0-10.578-2.692-16.095-7.659c-7.181-6.465-13.427-11.649-19.656-16.314
		c-4.896-3.666-13.09-9.802-16.56-15.712c-8.168-13.915,6.76-30.249,15.905-37.037c8.266-5.108,23.025-13.235,27.909-13.558
		c1.135-0.075,2.367-0.113,3.664-0.113c5.908,0,13.805,0.826,18.251,3.143c5.855,3.053,7.661,10.445,6.86,16.021
		c-0.184,1.273-0.603,2.573-1.047,3.949c-0.715,2.215-1.525,4.727-1.504,7.661c0.019,2.443,0.587,4.87,1.137,7.218
		c0.387,1.654,0.753,3.217,0.895,4.638c0.651,6.526-0.646,8.831-3.492,13.88c-0.739,1.312-1.576,2.798-2.461,4.518
		c-2.748,5.342-0.481,10.174,1.34,14.057c1.529,3.261,2.412,5.389,1.766,7.428c-1.23,3.885-8.641,7.21-14.521,7.765
		C181.352,164.153,180.548,164.193,179.785,164.193z"/>
	<path style="fill:#73776C;" d="M144.424,98.685c0.952-0.777,5.62-3.039,6.941-3.239c3.044-0.459,6.108-0.193,9.168-0.053
		c3.024,0.139,11.485,3.847,12.778,4.849c3.353,2.598,6.266,7.795,1.51,10.754c-2.672,1.662-19.833,3.518-22.814,3.407
		c-3.318-0.124-7.749-0.89-10.439-2.979C137.048,107.913,141.144,101.366,144.424,98.685z"/>
</g>
<g>
	<path style="fill:#E9E1EE;stroke:#000000;stroke-miterlimit:10;" d="M98.012,31.251c-4.9-6.507-12.304-12.881-19.303-16.774
		c-5.245-2.917-13.125-7.203-23.781,2.829C52.334,9.977,35.138,4.086,30.18,4.481C22.13,5.125,9.909,10.967,5.104,17.124
		c-6.96,8.917-4.806,18-1.499,28.177c3.744,11.518,0.131,15.328-1.082,26.502C1.597,80.331,4.616,89.61,11.74,94.75
		c4.689,3.383,16.104,4.248,18.663,4.666c7.698,1.257,13.638-10.464,19.052-11.201c5.759-0.784,21.811,7.281,35.018,3.771
		c7.611-2.022,20.669-8.48,17.484-16.477c-2.676-6.718-3.513-9.312-0.423-15.362C106.259,50.891,104.087,39.318,98.012,31.251z"/>
	<path style="fill:#ABB8AD;" d="M83.445,88.121c-7.389,1.963-16.182-0.292-23.248-2.103c-4.699-1.206-8.411-2.157-11.283-1.766
		c-0.345,0.047-0.689,0.116-1.035,0.208c-3.074,0.817-5.62,3.222-8.316,5.769c-2.263,2.138-4.827,4.561-7.04,5.148
		c-0.522,0.139-1.005,0.168-1.477,0.091c-0.447-0.073-1.142-0.16-2.016-0.268c-3.241-0.398-11.85-1.457-14.951-3.694
		C8.631,87.575,5.655,80.01,6.5,72.234c0.35-3.221,0.907-5.767,1.446-8.229c1.283-5.866,2.392-10.931-0.537-19.941
		c-3.143-9.67-4.922-17.087,0.848-24.479c3.122-4,10.845-8.443,17.965-10.335c1.57-0.417,3.008-0.68,4.276-0.781
		c3.732-0.298,18.9,5.201,20.66,10.172l2.046,5.782l4.466-4.204c2.707-2.548,5.345-4.177,7.841-4.84
		c4.459-1.185,8.069,0.823,11.254,2.595c6.623,3.684,13.54,9.694,18.052,15.685c5.614,7.456,6.882,17.37,3.154,24.671
		C94.117,65.876,95.34,69.71,98.24,76.99c0.318,0.797,0.27,1.501-0.159,2.354C96.305,82.875,89.245,86.579,83.445,88.121z"/>
	<path style="fill:#73776C;" d="M74.494,33.017c-3.229-2.419-12.945-3.286-24.313,1.632c-5.273,2.281-12.528,7.917-14.932,10.503
		c-4.539,4.881-7.997,11.518-8.417,18.255c-0.198,3.167,0.228,6.897,1.768,9.706c1.845,3.362,5.247,4.684,8.96,4.442
		c3.083-0.201,15.194-2.719,21.925-7.035c5.913-3.791,13.41-14.754,14.746-17.216C76.694,48.765,77.531,35.292,74.494,33.017z"/>
</g>
<g>
	<path style="fill:#E9E1EE;stroke:#000000;stroke-miterlimit:10;" d="M169.208,44.2c-3.065-7.547-8.583-15.608-14.348-21.168
		c-4.319-4.166-10.835-10.332-23.71-3.374c-0.625-7.75-15.732-17.859-20.625-18.75c-7.944-1.446-21.257,1.062-27.482,5.778
		c-9.017,6.831-9.268,16.162-8.685,26.847c0.66,12.093-3.81,14.847-7.852,25.336c-3.084,8.004-2.55,17.748,3.015,24.545
		c3.663,4.474,14.473,8.241,16.839,9.302c7.117,3.191,15.867-6.611,21.289-5.933c5.768,0.721,19.209,12.638,32.875,12.638
		c7.875,0,22.153-2.889,21.129-11.435c-0.861-7.18-1.004-9.901,3.536-14.955C172.135,65.299,173.007,53.556,169.208,44.2z"/>
	<path style="fill:#ABB8AD;" d="M140.525,95.42c-7.646,0-15.564-4.437-21.928-8.002c-4.232-2.372-7.574-4.245-10.451-4.604
		c-0.345-0.043-0.695-0.064-1.054-0.064c-3.181,0-6.259,1.671-9.518,3.44c-2.736,1.485-5.837,3.168-8.126,3.168
		c-0.54,0-1.014-0.095-1.451-0.291c-0.413-0.185-1.063-0.448-1.88-0.776c-3.03-1.217-11.078-4.451-13.501-7.41
		c-4.257-5.199-5.19-13.274-2.377-20.573c1.165-3.023,2.357-5.341,3.511-7.582c2.747-5.339,5.119-9.95,4.603-19.41
		c-0.554-10.153-0.369-17.778,7.106-23.44C89.502,6.811,98.108,4.5,105.475,4.5c1.624,0,3.082,0.115,4.333,0.343
		c3.684,0.67,16.931,9.88,17.355,15.136l0.492,6.113l5.396-2.916c3.27-1.768,6.238-2.664,8.82-2.664
		c4.614,0,7.588,2.868,10.211,5.397c5.455,5.262,10.596,12.847,13.418,19.794c3.512,8.647,2.191,18.555-3.287,24.654
		c-5.662,6.304-5.465,10.324-4.533,18.104c0.104,0.852-0.124,1.52-0.758,2.234C154.3,93.653,146.526,95.42,140.525,95.42z"/>
	<path style="fill:#73776C;" d="M146.025,39.866c-2.5-3.167-11.666-6.5-23.916-4.667c-5.684,0.851-14.142,4.435-17.129,6.316
		c-5.64,3.552-10.687,9.078-12.823,15.481c-1.004,3.01-1.551,6.724-0.784,9.834c0.919,3.723,3.869,5.874,7.519,6.594
		c3.031,0.598,15.383,1.274,22.996-1.168c6.688-2.145,16.75-10.816,18.673-12.852C144.107,55.651,148.375,42.844,146.025,39.866z"/>
</g>
<g>
	<path style="fill:#E9E1EE;stroke:#000000;stroke-miterlimit:10;" d="M178.125,162.909c-5.379-4.278-6.361-10.575-8.963-16.488
		c-5-11.367-15.344-21.799-26.137-27.889c3.749-8.738-12.314-34.336-16.155-38.364c-8.829-9.26-42.138-25.064-73.307,1.654
		c-6.179,5.296-9.075,13.664-10.36,21.461c-0.996,6.042-1.016,12.128-0.697,18.288c1.02,19.711,20.032,44.809,32.104,51.211
		c7.888,4.184,18.875,19.391,34.83,16.628c4.586-0.794,19.92-12.011,20.572-18.938c8.874,7.736,15.805,18.643,28.902,10.424
		c5.352-3.357,9.34-6.486,15.611-7.837c6.199-1.336,12.389-1.857,18.45-0.628C189.25,167.554,182.81,166.636,178.125,162.909z"/>
	<path style="fill:#ABB8AD;" d="M104.295,186.13c-7.399,0-13.901-5.659-19.638-10.652c-2.989-2.601-5.57-4.848-8.175-6.229
		c-11.168-5.924-29.044-29.732-29.983-47.885c-0.368-7.103-0.167-12.479,0.649-17.431c1.177-7.142,4.508-14.042,9.38-19.428
		c4.038-4.464,26.111-13.803,42.292-12.99c10.287,0.517,21.687,8.494,25.457,11.7c3.943,3.354,17.684,27.65,15.07,33.74
		l-1.415,3.298l3.126,1.764c10.662,6.016,20.028,15.984,24.44,26.016c0.61,1.389,1.129,2.812,1.677,4.318
		c1.673,4.594,3.568,9.8,8.457,13.689c1.064,0.846,2.168,1.553,3.283,2.181c-1.68,0.228-3.419,0.536-5.235,0.928
		c-5.939,1.28-10.028,3.929-14.358,6.733c-0.818,0.531-1.658,1.074-2.536,1.625c-2.482,1.559-4.683,2.314-6.726,2.314
		c-4.482,0-18.787-10.371-20.537-12.289C127.941,170.616,115.435,186.13,104.295,186.13z"/>
	<path style="fill:#73776C;" d="M104.098,107.532c19.032,9.094,42.105,47.434,37.525,50.382
		c-4.476-3.89-28.341-12.956-33.095-14.384c-10.508-3.154-21.674-5.223-31.303-10.758c-4.868-2.8-3.296-3.258-5.799-8.186
		c-4.233-8.337-4.787-17.397,3.182-22.379C79.934,98.88,99.426,105.301,104.098,107.532z"/>
</g>
<line id="direct" style="fill:none;stroke:#FF0000;stroke-miterlimit:10;" x1="43.202" y1="103.283" x2="171.025" y2="69.921"/>
</svg>
