<?xml version="1.0" encoding="iso-8859-1"?>
<!-- Generator: Adobe Illustrator 16.0.2, SVG Export Plug-In . SVG Version: 6.00 Build 0)  -->
<!DOCTYPE svg PUBLIC "-//W3C//DTD SVG 1.1//EN" "http://www.w3.org/Graphics/SVG/1.1/DTD/svg11.dtd">
<svg version="1.1" id="&#x5716;&#x5C64;_1" xmlns="http://www.w3.org/2000/svg" xmlns:xlink="http://www.w3.org/1999/xlink" x="0px"
	 y="0px" width="92.016px" height="116.81px" viewBox="0 0 92.016 116.81" style="enable-background:new 0 0 92.016 116.81;"
	 xml:space="preserve">
<g>
	<path style="fill:#E9E1EE;stroke:#000000;stroke-miterlimit:10;" d="M80.064,61.931c3.539,4.803,6.511,20.876,6.747,25.719
		c0.306,6.266-1.299,12.248-5.125,17.281c-4.258,5.602-9.673,9.563-16.757,10.504c-5.822,0.772-12.614,1.676-18.243-0.41
		c-7.417-2.748-11.031-10.428-13.007-17.561c-0.596-2.152-0.895-5.359-0.116-7.498c-1.78-1.404-4.294-0.142-6.224,0.041
		c-1.944,0.186-3.919,0.061-5.831-0.335C13.21,87.955,7.482,81.225,5.668,73.129c-0.846-3.776-1.537-8.04-0.441-11.831
		c1.71-5.92,8.396-8.982,13.743-10.941c2.476-0.907,0.719-3.702,0.802-5.775c0.192-4.815,1.657-10.459,5.567-13.577
		c3.553-2.833,8.645-3.69,13.07-3.951c6.93-0.409,13.356,2.868,17.934,7.969c2.462,2.743,4.356,6.074,5.218,9.676
		c0.396,1.66,1.668,4.225,1.668,4.225C69.02,51.536,74.688,54.635,80.064,61.931z"/>
	<path style="fill:#D9E0D1;" d="M54.959,112.31c-2.751,0-5.003-0.339-6.883-1.035c-4.814-1.785-8.263-6.651-10.542-14.878
		c-0.49-1.769-0.585-4.039-0.212-5.063l0.99-2.718l-2.272-1.792c-1.273-1.005-2.804-1.514-4.55-1.514
		c-1.256,0-2.417,0.267-3.351,0.48c-0.447,0.103-0.909,0.208-1.178,0.234c-0.46,0.044-0.932,0.065-1.403,0.065
		c-1.072,0-2.162-0.113-3.24-0.336c-6.289-1.301-11.174-6.475-12.748-13.5c-0.723-3.227-1.348-6.92-0.502-9.847
		c1.193-4.13,6.653-6.603,11.275-8.296c3.295-1.207,4.509-4.007,3.608-8.321c-0.073-0.349-0.184-0.877-0.185-1.063
		c0.19-4.753,1.709-8.719,4.063-10.596c2.231-1.778,5.768-2.788,10.813-3.085c0.311-0.019,0.621-0.027,0.93-0.027
		c4.958,0,9.984,2.433,13.792,6.675c2.146,2.391,3.635,5.135,4.304,7.935c0.478,1.999,1.729,4.575,1.975,5.071l0.636,1.281
		l1.303,0.589c5.222,2.355,10.317,5.025,15.262,11.734c2.668,3.621,5.72,18.377,5.972,23.541c0.273,5.605-1.178,10.54-4.314,14.666
		c-4.031,5.304-8.644,8.234-14.099,8.958C61.284,111.883,58.072,112.31,54.959,112.31z"/>
	<path style="fill:#ABB8AD;" d="M68.937,80.983c-0.78,3.658-1.938,6.666-5.333,9.666c-2.529,2.235-4.956,4.445-8.246,5.232
		c-1.832,0.438-3.709-0.128-5.526-0.375c-2.569-0.351-9.198-5.57-9.509-7.09c-0.278-1.367-0.979-2.613-1.965-3.599
		c-2.007-2.007-5.131-2.502-7.837-2.502c-2.982,0-5.58-0.003-8.079-1.747c-1.757-1.227-3.089-2.939-4.278-4.698
		c-1.2-1.776-2.451-3.597-3.375-5.534c-1.137-2.383-1.135-4.742-0.183-7.166c1.036-2.638,2.569-4.283,4.727-6.019
		c3.527-2.837,7.867-4.542,11.46-7.146c3.331-2.415,8.964-0.696,12.727-0.106c7.946,1.245,18.44,10.718,20.833,13.943
		C66.437,66.649,69.434,78.652,68.937,80.983z"/>
	<path style="fill:#73776C;" d="M48.562,64.399c3.823,0.813,7.477,3.666,8.882,7.619c1.209,3.4,0,7.826-3.632,9.287
		c-3.521,1.416-8.196,1.109-11.53-0.628c-3.024-1.575-5.634-3.742-8.966-4.406c-1.793-0.356-4.005-0.161-5.656-1.216
		c-1.831-1.17-2.364-3.189-1.753-5.158c1.159-3.732,5.891-4.182,9.156-4.741c2.172-0.372,4.364-0.551,6.625-0.757
		C42.79,64.3,46.88,64.042,48.562,64.399z"/>
</g>
<g>
	<path style="fill:#E9E1EE;stroke:#000000;stroke-miterlimit:10;" d="M58.854,32.566c-2.014-4.99-9.836-3.809-12.675-0.324
		c-3.238,3.973-2.805,9.776-1.066,14.065c3.226,7.961,11.821,16.523,20.759,16.961c10.174,0.496,21.178-4.46,24.397-15.027
		c3.395-11.14-0.568-19.441-6.748-29.007c-2.754-4.263-6.271-7.555-11.326-9.083c-5.765-1.742-11.819,1.049-17.949,0.69
		C45.309-12.536,10.284,8.758,6.187,25.233C4.617,31.543,6.649,36.577,7.804,42.5c-6.385,5.743-9.392,18.506-5.701,26.149
		c2.854,5.908,14.438,16.617,21.766,12.066c0.002,0-0.039,0.02-0.033,0.016c2.097-0.344,4.311-7.68,4.447-8.99
		c0.951-9.182,1.435-18.613,2.731-22.888c2.074-6.844,3.672-11.828,13.404-13.222"/>
	<path style="fill:#94A4CF;" d="M57.312,33.025c-1.438-1.086-3.878,0.271-5.375,0.875c-2.384,0.961-3.409,2.519-3.996,5
		c-0.923,3.895,1.509,7.494,3.496,10.622c2.158,3.397,4.263,6.068,8.03,7.597c3.657,1.484,9.294,1.373,13.095,0.409
		c4.318-1.095,7.654-3.371,10.595-6.531c3.407-3.663,4.772-7.634,4.53-12.597c-0.229-4.682-2.41-8.695-4.344-12.994
		c-2.048-4.551-4.961-7.729-9.031-10.503c-3.718-2.534-8.34-1.58-12.5-1.006c-2.135,0.295-10.529,1.967-12.278,0.912
		c-1.929-1.164-1.684-4.718-3.525-6.034c-3.8-2.714-11.617-5.927-20.953-0.719c-4.192,2.338-7.411,5.151-10.244,8.969
		c-2.604,3.509-5.78,8.313-4.868,12.75c0.407,1.981,0.864,4.059,0.965,6.125c0.085,1.749,1.023,4.401,0.434,5.906
		c-0.451,1.149-2.049,1.811-2.809,2.819C3.556,51.23,1.827,61.898,6.016,69.31c2.078,3.678,5.245,6.923,9.003,8.859
		c3.444,1.774,6.948,0.927,10.601-0.85c4.494-2.186,2.868-20.632,6.192-31.669c2.827-9.389,10.794-11.564,12.5-13.616
		c1.487-1.789,2.985-2.184,5.25-2.634c3.197-0.635,5.082-0.914,7.842,1.166c1.5,1.131,2.358,3.932-0.217,2.209"/>
	<path style="fill:#5E5264;" d="M51.187,28.775c-1.515-1.199-2.234-2.75-4.402-3.097c-1.95-0.312-4.269,0.679-6.098,1.25
		c-4.947,1.544-9.034,3.767-12,8.188c-3.333,4.968-5.118,10.746-5.125,16.659c-0.005,4.25,1.273,9.304,5.125,11.762
		c1.392-1.056,0.179-5.419,0.125-6.915c-0.096-2.65,0.211-5.666,0.747-8.222c0.872-4.162,3.028-7.624,6.656-9.966
		c2.397-1.547,5.327-2.976,8.204-2.803c0.31-2.605,3.079-5.08,5.472-5.854c-0.179-0.09-0.221-0.276-0.328-0.378"/>
</g>
<line id="direct" style="fill:none;stroke:#FF0000;stroke-miterlimit:10;" x1="7.887" y1="79.149" x2="80.064" y2="61.931"/>
</svg>
