<?xml version="1.0" encoding="iso-8859-1"?>
<!-- Generator: Adobe Illustrator 16.0.2, SVG Export Plug-In . SVG Version: 6.00 Build 0)  -->
<!DOCTYPE svg PUBLIC "-//W3C//DTD SVG 1.1//EN" "http://www.w3.org/Graphics/SVG/1.1/DTD/svg11.dtd">
<svg version="1.1" id="&#x5716;&#x5C64;_1" xmlns="http://www.w3.org/2000/svg" xmlns:xlink="http://www.w3.org/1999/xlink" x="0px"
	 y="0px" width="101.209px" height="83.532px" viewBox="0 0 101.209 83.532" style="enable-background:new 0 0 101.209 83.532;"
	 xml:space="preserve">
<g>
	<path style="fill:#E9E1EE;stroke:#000000;stroke-miterlimit:10;" d="M29.401,4.501c7.986-4.089,18.018-4.612,26.596-3.481
		c12.183,1.606,26.581,20.879,21.535,31.632c18.166,6.636,28.166,25.333,20.666,45.833c-2.651-3.086-7.684-4.486-11-6.466
		c-2.034-1.214-7.349,0.229-10.333,1.966c-8.795,5.115-14.59,9.551-25.5,9C37.35,82.277,8.144,78.849,8.063,58.583
		c-10.954-4.678-9.928-37.306,2.549-41.047C11.948,13.152,24.324,7.101,29.401,4.501z"/>
	<path style="fill:#ABB8AD;" d="M53.171,79.032c-0.521,0-1.056-0.014-1.604-0.042c-14.727-0.743-39.439-4.386-39.504-20.423
		l-0.011-2.63l-2.418-1.033C6.732,53.665,4.042,46.854,4.562,37.6c0.466-8.295,3.494-15.122,7.198-16.232l2.053-0.616l0.625-2.05
		c0.538-1.207,3.724-3.992,15.744-10.109l1.042-0.532C35.775,5.731,41.64,4.5,48.185,4.5c2.392,0,4.844,0.163,7.288,0.486
		c5.442,0.717,12.496,6.652,16.408,13.805c2.607,4.767,3.366,9.313,2.029,12.162l-1.856,3.957l4.105,1.5
		c8.012,2.927,14.304,8.494,17.717,15.678c2.879,6.058,3.576,12.818,2.082,19.798c-1.138-0.608-2.292-1.14-3.393-1.647
		c-1.237-0.57-2.407-1.109-3.318-1.652c-1.128-0.674-2.535-1.015-4.183-1.015c-3.522,0-7.763,1.532-10.211,2.958
		c-1.082,0.629-2.119,1.248-3.127,1.849C65.255,76.24,60.579,79.032,53.171,79.032z"/>
	<path style="fill:#73776C;" d="M37.252,34.753c2.725-0.581,5.63-0.73,8.112-1.096c2.885-0.426,4.899-0.854,7.667,0.365
		c2.541,1.119,4.551,3.033,6.822,4.572c3.497,2.371,7.257,5.129,9.791,8.655c1.725,2.4,2.375,6.735,0.887,9.069
		c-2.667-2.333-13.586-2.817-15.975-2.541c-5.279,0.61-10.647,1.872-15.982,1.166c-2.697-0.357-5.281-1.296-7.324-3.148
		c-3.455-3.134-4.268-8.534-1.65-12.524C31.349,36.604,34.186,35.406,37.252,34.753z"/>
</g>
<line id="direct" style="display:none;stroke:#FF0000;stroke-miterlimit:10;" x1="0.687" y1="35.823" x2="99.057" y2="75.854"/>
</svg>
