<?xml version="1.0" encoding="iso-8859-1"?>
<!-- Generator: Adobe Illustrator 16.0.2, SVG Export Plug-In . SVG Version: 6.00 Build 0)  -->
<!DOCTYPE svg PUBLIC "-//W3C//DTD SVG 1.1//EN" "http://www.w3.org/Graphics/SVG/1.1/DTD/svg11.dtd">
<svg version="1.1" id="&#x5716;&#x5C64;_1" xmlns="http://www.w3.org/2000/svg" xmlns:xlink="http://www.w3.org/1999/xlink" x="0px"
	 y="0px" width="63.618px" height="68.979px" viewBox="0 0 63.618 68.979" style="enable-background:new 0 0 63.618 68.979;"
	 xml:space="preserve">
<g>
	<path style="fill:#E9E1EE;stroke:#000000;stroke-miterlimit:10;" d="M1.068,62.987c1.091,3.029,6.348,3.206,9.018,3.693
		c13.038,2.377,28.108,3.773,39.298-4.953c8.088-6.308,13.619-16.641,13.732-26.95c0.06-5.421-1.099-13.33-3.98-18.04
		C54.239,8.732,47.474,2.772,38.318,0.932c-8.306-1.669-20.165,1.672-26.75,7.108c-9.129,7.536-10.092,21.746-5.25,31.027
		c1.794,3.438,5.25,8.42,10.887,9.379c4.437,0.754,12.416,0.049,16.312-2.434c-0.015,1.434-3.725,4.576-5.011,5.663
		c-2.527,2.137-5.908,2.68-8.943,3.306c-5.977,1.23-13.487,1.738-19.013-1.399L1.068,62.987z"/>
	<path style="fill:#94A4CF;" d="M26.897,64.479c-5.832,0-11.664-0.927-16.094-1.734c-0.484-0.088-1.046-0.169-1.651-0.254
		c-1.011-0.143-7.233-0.791-8.181-1.252L0.55,53.582c1.88,0.384,8.948,2.347,11.109,2.347c2.912,0,5.48-0.168,8.826-0.857
		c0,0,4.91-0.766,8.021-3.396c4.722-3.991,5.673-2.312,5.697-4.726l-0.01-2.213c-1.936,1.233-7.517,1.533-11.625,1.533
		c-1.225,0-3.807-1.617-4.692-1.768c-3.817-0.648-6.464-4.32-8.012-7.287c-3.96-7.591-3.461-19.725,4.251-26.091
		C18.84,7.224,26.878,4.5,33.663,4.5c1.399,0,2.701,0.119,3.867,0.353c7.299,1.467,13.42,6.168,18.193,13.972
		c2.301,3.761,3.448,10.85,3.393,15.909c-0.097,8.781-4.882,18.138-12.192,23.839C41.828,62.547,35.277,64.479,26.897,64.479z"/>
	<path style="fill:#5E5264;" d="M29.834,31.385c-3.06,0.445-0.599-5.481,2-7.397c3.425-2.526,7.429-4.643,11.484-3.083
		c3.372,1.297,6.086,6.933,6.417,10.417c0.666,7-4.139,13.887-7,17.833c-2.417,3.333-8.981,7.952-12.702,9.413
		c-3.212,1.26-29.591,1.178-29.483-1.163c0.082-1.786,8.079-1.343,9.735-1.615c3.727-0.614,7.312,0.005,10.84-1.274
		c2.917-1.057,5.977-1.901,8.466-3.838c4.581-3.563,13.87-10.783,13.228-16.689c-0.415-3.817-2.231-8.809-5.583-8
		C34.818,26.571,32.568,30.987,29.834,31.385z"/>
</g>
<line id="direct" style="display:none;stroke:#FF0000;stroke-miterlimit:10;" x1="0.972" y1="61.239" x2="56.946" y2="13.483"/>
</svg>
