<?xml version="1.0" encoding="iso-8859-1"?>
<!-- Generator: Adobe Illustrator 16.0.2, SVG Export Plug-In . SVG Version: 6.00 Build 0)  -->
<!DOCTYPE svg PUBLIC "-//W3C//DTD SVG 1.1//EN" "http://www.w3.org/Graphics/SVG/1.1/DTD/svg11.dtd">
<svg version="1.1" id="&#x5716;&#x5C64;_1" xmlns="http://www.w3.org/2000/svg" xmlns:xlink="http://www.w3.org/1999/xlink" x="0px"
	 y="0px" width="107.076px" height="71.828px" viewBox="0 0 107.076 71.828" style="enable-background:new 0 0 107.076 71.828;"
	 xml:space="preserve">
<g>
	<path style="fill:#E9E1EE;stroke:#000000;stroke-miterlimit:10;" d="M92.41,52.587c-7.908,4.057-16.25,5.727-23.157,10.418
		c-8.218,5.582-13.833,8.141-24.186,8.318C25.271,71.661,10.169,53.814,2.266,38.071C-1.56,30.451,1.37,23.02,5.922,15.179
		C11.916,4.85,19.604,5.002,29.729,5.166c8.73,0.141,18.728-5.286,27.455-4.607c11.731,0.912,16.969,5.323,24.044,12.535
		c6.202,6.321,15.105,8.538,23.647,5.75C108.49,17.664,107.212,44.993,92.41,52.587z"/>
	<path style="fill:#ABB8AD;" d="M44.514,67.328c-21.42,0-35.017-23.768-38.673-31.052c-2.912-5.801-0.805-11.605,3.54-19.089
		c4.003-6.897,8.386-8.062,16.695-8.062c1.135,0,2.303,0.019,3.506,0.039l0.484,0.005c4.583,0,9.24-1.251,13.744-2.461
		C48.037,5.572,52.03,4.5,55.631,4.5c0.418,0,0.832,0.015,1.244,0.046c10.113,0.787,14.512,4.228,21.498,11.348
		c5.146,5.245,11.951,8.134,19.16,8.134c1.694,0,3.39-0.16,5.069-0.479c0.091,6.105-2.697,20.696-12.018,25.478
		c-3.1,1.59-6.394,2.837-9.578,4.042c-4.713,1.783-9.585,3.627-14.001,6.626c-7.573,5.145-12.547,7.467-22.007,7.628L44.514,67.328z
		"/>
	<path style="fill:#73776C;" d="M64.914,32.19c1.688,0.748,3.144,1.758,4.807,2.566c1.101,0.535,3.097,3.469,3.097,3.469
		s-2.95,2.808-4.196,3.564c-3.365,2.047-7.029,4.797-10.916,5.602c-2.29,0.475-4.717-0.15-6.987-0.346
		c-2.578-0.221-5.235-1.168-7.63-2.082c-5.368-2.047-10.816-5.757-10.516-12.12c0.322-6.852,9.999-7.368,14.989-6.538
		c2.278,0.379,4.992,0.981,7.063,1.766C56.099,28.632,63.772,31.685,64.914,32.19z"/>
</g>
<line id="direct" style="display:none;stroke:#FF0000;stroke-miterlimit:10;" x1="2.266" y1="38.071" x2="106.38" y2="21.125"/>
</svg>
