<?xml version="1.0" encoding="iso-8859-1"?>
<!-- Generator: Adobe Illustrator 16.0.2, SVG Export Plug-In . SVG Version: 6.00 Build 0)  -->
<!DOCTYPE svg PUBLIC "-//W3C//DTD SVG 1.1//EN" "http://www.w3.org/Graphics/SVG/1.1/DTD/svg11.dtd">
<svg version="1.1" id="&#x5716;&#x5C64;_1" xmlns="http://www.w3.org/2000/svg" xmlns:xlink="http://www.w3.org/1999/xlink" x="0px"
	 y="0px" width="83px" height="75.159px" viewBox="0 0 83 75.159" style="enable-background:new 0 0 83 75.159;"
	 xml:space="preserve">
<g>
	<path style="fill:#E9E1EE;stroke:#000000;stroke-miterlimit:10;" d="M73.108,46.877c-3.386,5.655-9.615,8.431-13,13.611
		c-4.027,6.165-7.17,9.489-14.375,12.401c-13.779,5.569-29.922-3.004-40.361-12.025c-5.053-4.367-5.309-10.418-4.556-17.195
		c0.992-8.928,6.433-10.891,13.584-13.5c6.166-2.25,11.489-8.784,17.821-10.653c8.512-2.513,13.558-0.799,20.762,2.403
		c6.315,2.808,13.249,1.98,18.374-2.294c3.79-3.161,9.043-7.206,5.376-16.624C86.15,15.086,83.393,29.703,73.108,46.877z"/>
	<path style="fill:#ABB8AD;" d="M36.364,70.659c-12.222,0-23.916-8.966-28.377-12.82c-3.14-2.714-4.006-6.435-3.195-13.728
		c0.681-6.127,3.339-7.396,10.923-10.163c3.537-1.291,6.567-3.544,9.497-5.723c2.831-2.105,5.505-4.094,8.143-4.872
		c2.374-0.701,4.478-1.042,6.43-1.042c3.577,0,6.704,1.099,11.574,3.264c2.959,1.315,6.039,1.982,9.155,1.982
		c4.958,0,9.594-1.681,13.405-4.86l0.288-0.239c1.232-1.025,2.81-2.337,4.22-4.046c0.354,7.388-2.55,16.056-8.75,26.41
		c-1.435,2.396-3.651,4.283-5.999,6.281c-2.452,2.087-4.988,4.245-6.918,7.197c-3.642,5.576-6.188,8.32-12.525,10.882
		C41.811,70.162,39.162,70.659,36.364,70.659z"/>
	<path style="fill:#73776C;" d="M47.481,39.835c1.416,0.075,2.751,0.398,4.169,0.523c0.938,0.082,3.25,1.623,3.25,1.623
		s-1.196,2.783-1.834,3.654c-1.724,2.354-3.438,5.289-5.914,6.905c-1.458,0.952-3.354,1.163-5.007,1.636
		c-1.877,0.537-4.035,0.582-6,0.58c-4.4-0.005-9.375-1.166-11.144-5.752c-1.905-4.939,4.722-7.91,8.479-8.666
		c1.715-0.344,3.807-0.648,5.502-0.65C40.192,39.689,46.522,39.785,47.481,39.835z"/>
</g>
<line id="direct" style="display:none;stroke:#FF0000;stroke-miterlimit:10;" x1="0" y1="54.757" x2="78.455" y2="0"/>
</svg>
