<?xml version="1.0" encoding="utf-8"?>
<!-- Generator: Adobe Illustrator 16.0.2, SVG Export Plug-In . SVG Version: 6.00 Build 0)  -->
<!DOCTYPE svg PUBLIC "-//W3C//DTD SVG 1.1//EN" "http://www.w3.org/Graphics/SVG/1.1/DTD/svg11.dtd">
<svg version="1.1" id="圖層_1" xmlns="http://www.w3.org/2000/svg" xmlns:xlink="http://www.w3.org/1999/xlink" x="0px" y="0px"
	 width="159.986px" height="199.125px" viewBox="0 0 159.986 199.125" enable-background="new 0 0 159.986 199.125"
	 xml:space="preserve">
<g>
	<g>
		<path fill="#E9E1EE" stroke="#000000" stroke-miterlimit="10" d="M94.973,56.238c-4.737,3.701-17.62,23.672-18.627,32.141
			c5.188,4.1,12.712,11.567,16.422,17.357c2.846-16.545,19.593-25.529,24.93-26.219c-0.548,8.233,0.246,12.604,7.406,18.706
			c14.206,12.101,32.776,0.141,33.689-15.26C160.527,53.74,115.455,40.238,94.973,56.238z"/>
		<path fill="#94A4CF" d="M133.966,55.625c-11.545-4.172-25.212-7.397-36.629-1.333c-4.872,2.587-19.459,24.533-20.991,34.086
			c4.211,3.385,13.504,12.494,16.422,17.357c0.202-9.519,14.678-27.335,25.509-27.776c3.509-11.415,11.591-10.543,17.452-6.962
			c-14.054-1.95-20.487,11.099-10.19,21.34c11.022,11.119,22.891,6.438,27.577-2.405C160.594,75.576,148.412,62.274,133.966,55.625z
			"/>
	</g>
	<g>
		<path fill="#E9E1EE" stroke="#000000" stroke-miterlimit="10" d="M100.094,19.01c-2.466,1.826-4.796,3.831-6.973,5.987
			c3.952,4.316,5.913,10.625,8.466,16.34c7.467-3.485,15.758-3.135,18.194,0.054c-1.25,7.512-1.005,11.617,4.408,17.982
			c10.737,12.624,27.441,3.584,29.687-10.481C158.137,22.202,119.999,4.27,100.094,19.01z"/>
		<path fill="#94A4CF" d="M135.703,21.136c-9.27-5.053-20.41-9.459-30.557-5.087c-4.329,1.866-8.325,4.638-11.923,8.059
			c3.202,3.556,5.09,8.425,7.068,13.205c6.558-4.497,14.723-6.884,21.936-1.033c3.285-5.954,8.91-4.733,13.476-0.822
			c-11.586-3.275-18.229,8.046-10.586,18.548c8.167,11.386,18.558,8.333,23.334,0.695C156.094,42.289,147.167,28.774,135.703,21.136
			z"/>
	</g>
	<g>
		<path fill="#E9E1EE" stroke="#000000" stroke-miterlimit="10" d="M118.679,11.898c-3.923-4.817-7.885-8.868-14.313-10.835
			C99.991-0.275,88.063,0.85,82.23,3.604c-3.948,1.865-7.58,7.252-9.94,10.968c-0.944,1.486-4.017,5.618-4.507,7.223L82.23,35.665
			l2.857-0.749c-0.162-3.275,3.636-8.318,6.549-10.17c0.252-0.16,0.543-0.298,0.854-0.423c-1.12-1.1-2.393-2.048-3.873-2.788
			c1.48,0.74,2.753,1.688,3.873,2.788c2.719-1.095,7.415-0.865,9.753,0.318c-2.338-1.183-7.034-1.413-9.753-0.318
			c4.934,4.846,6.867,12.692,10.127,19.212c-3.26-6.52-5.193-14.366-10.127-19.212c-0.311,0.125-0.602,0.263-0.854,0.423
			c-2.913,1.852-3.603,6.08-3.441,9.355c0.199,4.077,2.685,7.296,5.732,9.794c4.816,3.947,11.892,7.104,17.959,3.816
			c2.605-1.413,5.577-4.08,7.487-6.384c2.194-2.649,3.425-8.22,3.943-11.774C124.112,24.1,121.042,14.801,118.679,11.898z"/>
		<path fill="#94A4CF" d="M116.221,13.936c-4.045-4.969-7.433-8.166-12.778-9.8c-0.418-0.128-1.679-0.426-4.351-0.426
			c-5.462,0-12.132,1.205-15.514,2.802c-3.416,1.613-7.189,7.556-8.61,9.792c-0.267,0.419-0.692,1.04-1.185,1.754
			c-0.49,0.711-1.381,2.003-2.065,3.083l13.37,13.393c1.12-4.202,3.501-7.852,6.549-9.79c0.246-0.156,0.533-0.3,0.842-0.434
			c-1.117-1.096-2.386-2.04-3.861-2.778c1.476,0.738,2.744,1.682,3.861,2.778c1.086-0.468,2.495-0.778,3.801-0.778
			c3.758,0,5.964,1.106,5.964,1.106c-3.698,0.117-6.229,0.996-7.787,1.968c3.552,4.81,5.374,11.351,8.161,16.925
			c-2.787-5.575-4.609-12.115-8.161-16.925c-0.452,0.282-0.834,0.571-1.124,0.853c-1.389,1.349-2.075,4.139-1.96,6.481
			c0.129,2.61,1.619,5.05,4.561,7.46c3.467,2.841,7.275,4.471,10.45,4.471c1.461,0,2.77-0.324,3.998-0.991
			c2.029-1.099,4.725-3.408,6.554-5.615c1.291-1.559,2.562-5.556,3.235-10.183C120.814,24.667,118.139,16.292,116.221,13.936z"/>
	</g>
	<g>
		<path fill="#E9E1EE" stroke="#000000" stroke-miterlimit="10" d="M98.679,22.898c-3.923-4.817-7.885-8.868-14.313-10.835
			c-4.374-1.338-16.303-0.213-22.135,2.542c-3.948,1.865-7.58,7.252-9.94,10.968c-0.944,1.486-4.017,5.618-4.507,7.223L62.23,46.665
			l2.857-0.749c-0.162-3.275,3.636-8.318,6.549-10.17c0.252-0.16,0.543-0.298,0.854-0.423c-1.12-1.1-2.393-2.048-3.873-2.788
			c1.48,0.74,2.753,1.688,3.873,2.788c2.719-1.095,7.415-0.865,9.753,0.318c-2.338-1.183-7.034-1.413-9.753-0.318
			c4.934,4.846,6.867,12.692,10.127,19.212c-3.26-6.52-5.193-14.366-10.127-19.212c-0.311,0.125-0.602,0.263-0.854,0.423
			c-2.913,1.852-3.603,6.08-3.441,9.355c0.199,4.077,2.685,7.296,5.732,9.794c4.816,3.947,11.892,7.104,17.959,3.816
			c2.605-1.413,5.577-4.08,7.487-6.384c2.194-2.649,3.425-8.22,3.943-11.774C104.112,35.1,101.042,25.801,98.679,22.898z"/>
		<path fill="#94A4CF" d="M96.221,24.936c-4.045-4.969-7.433-8.166-12.778-9.8c-0.418-0.128-1.679-0.426-4.351-0.426
			c-5.462,0-12.132,1.205-15.514,2.802c-3.416,1.613-7.189,7.556-8.61,9.792c-0.267,0.419-0.692,1.04-1.185,1.754
			c-0.49,0.711-1.381,2.003-2.065,3.083l13.37,13.393c1.12-4.202,3.501-7.852,6.549-9.79c0.246-0.156,0.533-0.3,0.842-0.434
			c-1.117-1.096-2.386-2.04-3.861-2.778c1.476,0.738,2.744,1.682,3.861,2.778c1.086-0.468,2.495-0.778,3.801-0.778
			c3.758,0,5.964,1.106,5.964,1.106c-3.698,0.117-6.229,0.996-7.787,1.968c3.552,4.81,5.374,11.351,8.161,16.925
			c-2.787-5.575-4.609-12.115-8.161-16.925c-0.452,0.282-0.834,0.571-1.124,0.853c-1.389,1.349-2.075,4.139-1.96,6.481
			c0.129,2.61,1.619,5.05,4.561,7.46c3.467,2.841,7.275,4.471,10.45,4.471c1.461,0,2.77-0.324,3.998-0.991
			c2.029-1.099,4.725-3.408,6.554-5.615c1.291-1.559,2.562-5.556,3.235-10.183C100.814,35.667,98.139,27.292,96.221,24.936z"/>
	</g>
	<g>
		<path id="_x36__1_" fill="#E9E1EE" stroke="#000000" stroke-miterlimit="10" d="M39.343,31.261
			C18.687,46.564,7.221,73.798,12.816,99.432C16.304,96.281,28.95,90.5,28.95,90.5s-3.129-12.162-1.329-19.962
			C31.859,52.16,55.45,48.808,59.95,54.702c-1.308,7.868-1.052,12.167,4.615,18.833c11.239,13.221,28.725,3.754,31.075-10.977
			C100.101,34.604,60.179,15.823,39.343,31.261z"/>
		<path id="_x32__1_" fill="#94A4CF" d="M76.617,34.535c-9.703-5.292-21.364-9.907-31.986-5.328
			C21.45,39.202,7.221,73.798,12.816,99.432C16.304,96.281,28.95,90.5,28.95,90.5s-2.908-13.153-1.329-20.962
			c0.329-3.42,1.172-4.798,1.913-8.503C35.7,52.952,50.392,40.56,62.512,50.396c3.438-6.236,9.326-4.958,14.105-0.861
			c-9,0-19,5-11,16c6,9,18,11,23,3C96.617,55.535,88.617,42.535,76.617,34.535z"/>
		<path id="_x31_" fill="#5E5264" d="M28.2,59.118c-1.494,3.471-1.621,7.75-0.676,10.883c0.655-6.226,12.905-22.529,30.434-16.837
			c0.797,0.259,1.98,1.403,2.578,0.819s2.317-4.415,1.184-5.21C48.584,39.564,33.367,47.118,28.2,59.118z"/>
	</g>
	<g id="B">
		<path id="_x36_" fill="#E9E1EE" stroke="#000000" stroke-miterlimit="10" d="M46.95,95.535c0.312,0.414,0.701,0.799,1.032,1.199
			c-2.461-3.04-3.648-6.933-8.365-6.533c-4.537,0.384-8.02,2.687-8.018,7.667c0.002,2.787,1.018,5.302,2.647,7.333
			c3.693,4.603,10.538,6.722,15.868,3.896c11.745-6.225,14.982-23.121,4.094-31.828c-4.782-3.822-12.749-4.083-18.566-3.735
			c-6.182,0.37-12.762,2.049-18.191,5c-10.267,5.582-16.159,18.917-16.84,30.5c-1.039,17.68,5.255,37.89,16.924,51.336
			c6.981,8.045,16.635,12.996,25.056,19.35c10.026,7.564,35.674,18.902,53.169,18.9c10.226-0.002,20.505,0.152,30.671-1.178
			c6.246-0.818,27.267-5.998,29.598-6.408c-5.536-0.438-46.931-4.21-53.911-7.063c-18.146-7.416-35-22.344-44.866-39.239
			c-3.444-5.898-11.134-18.323-9.682-34.642c0.034-0.009,0.068-0.018,0.104-0.027"/>
		<path id="_x32_" fill="#94A4CF" d="M1.266,123.245C1.264,98.868,9.539,86.777,20.284,80.702c7-3.958,13.38-4.667,19.333-4.667
			c5.182,0,10.685,1.649,13,3.5c5.049,4.037,6.126,9.708,5.584,14.042c-1.016,8.119-3.75,11.333-11.125,13.083
			c-5.074,1.204-14.25-7-12.144-10.108c2.51-3.703,5.811-3.934,11.757,0.062c0.071-2.721-1.405-5.868-7.072-6.412
			c-5.146-0.494-8.02,2.687-8.018,7.667c0.002,2.789,2.299,7.01,2.299,7.01c-9.459,5.728-10.565,21.167-8.263,29.99
			c2.891,11.076,9,22.081,15.648,31.667c3.62,5.22,20.417,22.438,24.336,25.178c-13.023-5.553-41.104-23.297-48.085-31.341
			c-8.62-9.934-14.307-23.558-16.271-37.126"/>
		<path id="_x34__1_" fill="#AEC5ED" d="M100.604,187.675c-45.005-16.381-60.332-64.311-58.32-75.431l-9.343-7.329
			c-9.502,5.691-9.608,21.131-7.306,29.953c2.891,11.076,9,22.081,15.648,31.667c3.62,5.22,20.106,22.947,24.336,25.178
			c6.89,3.634,20.984,6.909,30.14,6.908c10.226-0.001,20.505,0.152,30.671-1.178c3.039-0.398,15.753-3.239,15.753-3.239v0
			C130.281,193.658,109.619,190.956,100.604,187.675z"/>
	</g>
</g>
<line id="direct" fill="none" stroke="#FF0000" stroke-miterlimit="10" x1="26.922" y1="50.94" x2="123.443" y2="27.334"/>
</svg>
