<?xml version="1.0" encoding="iso-8859-1"?>
<!-- Generator: Adobe Illustrator 16.0.2, SVG Export Plug-In . SVG Version: 6.00 Build 0)  -->
<!DOCTYPE svg PUBLIC "-//W3C//DTD SVG 1.1//EN" "http://www.w3.org/Graphics/SVG/1.1/DTD/svg11.dtd">
<svg version="1.1" xmlns="http://www.w3.org/2000/svg" xmlns:xlink="http://www.w3.org/1999/xlink" x="0px"
	 y="0px" width="1341.583px" height="1971.504px" viewBox="0 0 1341.583 1971.504">
<image style="overflow:visible;" width="1789" height="2629" xlink:href="background-image/new_00209.png"  transform="matrix(0.7499 0 0 0.7499 4.882813e-004 0)">
</image>
<polygon class="bounding1 A6"  points="74.484,779.346 204.484,779.346 220.484,771.68 
	231.151,759.68 235.484,748.013 235.484,739.346 374.484,739.346 375.818,822.013 351.818,873.013 307.818,909.347 242.818,934.68 
	156.484,946.347 74.484,945.013 "/>
<polygon class="bounding2"  points="74.886,941.666 74.886,782.748 205.257,782.748 
	222.572,774.451 234.117,761.462 238.886,748.624 238.886,742.748 371.137,742.748 372.404,821.278 349.064,870.875 
	306.073,906.376 241.96,931.363 156.283,942.941 "/>
<polygon class="bounding3"  points="74.886,939.536 74.886,787.366 206.03,786.149 
	224.659,777.223 237.083,763.245 242.287,749.235 242.287,746.149 367.79,746.149 368.99,820.544 346.311,868.737 304.329,903.405 
	241.103,928.047 156.082,939.536 "/>
<polygon class="bounding4"  points="74.886,935.347 74.886,789.924 206.803,789.55 
	226.747,779.994 240.05,765.028 245.688,749.847 245.688,749.55 364.443,749.55 365.576,819.81 343.558,866.6 302.584,900.435 
	240.246,924.73 155.881,936.131 "/>
<polygon class="bounding5 A6" points="74.886,932.726 74.886,794.051 207.576,792.952 
	228.834,782.766 243.016,766.811 248.164,752.952 361.096,752.952 362.162,819.075 340.804,864.462 300.839,897.464 
	239.388,921.414 155.68,932.726 "/>
<polygon class="bounding6 A6" points="74.886,929.32 74.886,797.394 208.349,796.353 
	230.921,785.537 245.982,768.593 250.529,756.353 357.749,756.353 358.748,818.341 338.051,862.324 299.095,894.493 
	238.531,918.098 155.479,929.32 "/>
<polygon class="bounding8" points="74.484,925.915 74.484,800.737 209.122,799.754 
	233.009,788.309 248.949,770.376 252.894,759.754 354.401,759.754 355.333,817.606 335.297,860.187 297.35,891.522 237.673,914.781 
	155.277,925.915 "/>
<polygon id="bounding" class="bounding9" points="74.484,922.51 74.484,804.08 209.895,803.156 
	235.096,791.08 251.915,772.159 255.259,763.156 351.054,763.156 351.919,816.872 332.544,858.049 295.605,888.552 236.816,911.465 
	155.076,922.51 "/>
</svg>
