<?xml version="1.0" encoding="utf-8"?>
<!-- Generator: Adobe Illustrator 16.0.2, SVG Export Plug-In . SVG Version: 6.00 Build 0)  -->
<!DOCTYPE svg PUBLIC "-//W3C//DTD SVG 1.1//EN" "http://www.w3.org/Graphics/SVG/1.1/DTD/svg11.dtd">
<svg version="1.1" id="圖層_1" xmlns="http://www.w3.org/2000/svg" xmlns:xlink="http://www.w3.org/1999/xlink" x="0px" y="0px"
	 width="1341.583px" height="1971.504px" viewBox="0 0 1341.583 1971.504" enable-background="new 0 0 1341.583 1971.504"
	 xml:space="preserve">
	 <g><image></image>
	</g>
<g>
	<polygon class="bounding1 A6"  points="74.484,779.346 204.484,779.346 220.484,771.68 
	231.151,759.68 235.484,748.013 235.484,739.346 374.484,739.346 375.818,822.013 351.818,873.013 307.818,909.347 242.818,934.68 
	156.484,946.347 74.484,945.013 "/>
<polygon class="bounding2"  points="74.886,941.666 74.886,782.748 205.257,782.748 
	222.572,774.451 234.117,761.462 238.886,748.624 238.886,742.748 371.137,742.748 372.404,821.278 349.064,870.875 
	306.073,906.376 241.96,931.363 156.283,942.941 "/>
<polygon class="bounding3"  points="74.886,939.536 74.886,787.366 206.03,786.149 
	224.659,777.223 237.083,763.245 242.287,749.235 242.287,746.149 367.79,746.149 368.99,820.544 346.311,868.737 304.329,903.405 
	241.103,928.047 156.082,939.536 "/>
<polygon class="bounding4"  points="74.886,935.347 74.886,789.924 206.803,789.55 
	226.747,779.994 240.05,765.028 245.688,749.847 245.688,749.55 364.443,749.55 365.576,819.81 343.558,866.6 302.584,900.435 
	240.246,924.73 155.881,936.131 "/>
<polygon class="bounding5 A6" points="74.886,932.726 74.886,794.051 207.576,792.952 
	228.834,782.766 243.016,766.811 248.164,752.952 361.096,752.952 362.162,819.075 340.804,864.462 300.839,897.464 
	239.388,921.414 155.68,932.726 "/>
<polygon class="bounding6 A6" points="74.886,929.32 74.886,797.394 208.349,796.353 
	230.921,785.537 245.982,768.593 250.529,756.353 357.749,756.353 358.748,818.341 338.051,862.324 299.095,894.493 
	238.531,918.098 155.479,929.32 "/>
<polygon class="bounding8" points="74.484,925.915 74.484,800.737 209.122,799.754 
	233.009,788.309 248.949,770.376 252.894,759.754 354.401,759.754 355.333,817.606 335.297,860.187 297.35,891.522 237.673,914.781 
	155.277,925.915 "/>
<polygon id="bounding" class="bounding9" points="74.484,922.51 74.484,804.08 209.895,803.156 
	235.096,791.08 251.915,772.159 255.259,763.156 351.054,763.156 351.919,816.872 332.544,858.049 295.605,888.552 236.816,911.465 
	155.076,922.51 "/>
</g>
<g>
	<polygon class="bounding1 A6" fill="none" stroke="#000000" stroke-miterlimit="10" points="665.483,657.013 80.457,651.017 79.124,239.683 
		665.483,239.683 	"/>
	<rect class="bounding3" x="79.483" y="253.679" fill="none"  stroke-miterlimit="10" width="586" height="394"/>
	<rect class="bounding4" x="79.483" y="261.012" fill="none"  stroke-miterlimit="10" width="585.333" height="380"/>
	<rect class="bounding5 A6" x="79.483" y="266.346" fill="none"  stroke-miterlimit="10" width="585.333" height="369.333"/>
	<rect class="bounding7 A6" x="79.483" y="272.346" fill="none"  stroke-miterlimit="10" width="585.333" height="356"/>
	<rect class="bounding8" x="79.483" y="279.012" fill="none"  stroke-miterlimit="10" width="585.333" height="344.362"/>
	<rect class="bounding9" class="bounding3" x="79.483" y="285.012" stroke-miterlimit="10" width="585.333" height="332.51"/>
	<rect class="bounding9" x="79.483" y="289.679" stroke-miterlimit="10" width="585.333" height="320.838"/>
</g>
<g>
	<path class="bounding1 A6" stroke-miterlimit="10" d="M235.484,739.346c2.667-27.333-21.333-53.333-26.333-55.333
		c-1-16-0.131-82-0.131-82h193.131l0.066,84.311c-16.177,10.785-27.732,38.578-27.732,53.023
		C347.567,739.346,235.484,739.346,235.484,739.346z"/>
	<path class="bounding3" stroke-miterlimit="10" d="M241.345,733.677c-0.623-24.041-17.699-45.708-26.671-52.771
		c-0.618-15.794-0.222-57.973-0.051-73.223h181.863l0.06,75.693c-18.556,13.64-25.05,33.38-26.204,50.302H241.345z"/>
	<path class="bounding4" stroke-miterlimit="10" d="M244.038,730.842c-1.764-23.405-17.825-43.847-26.577-51.315
		c-0.522-15.837-0.195-53.746-0.034-69.01h176.227l0.056,71.443c-18.625,14.298-24.499,33.933-25.976,48.882H244.038z"/>
	<path class="bounding5 A6" stroke-miterlimit="10" d="M247.853,726.59c-2.969-21.118-16.511-40.087-26.196-49.022
		c-0.404-15.229-0.182-46.238-0.021-62.8h167.769l0.051,65.136c-17.206,14.03-23.446,32.403-25.49,46.686H247.853z"/>
	<path class="bounding7 A6" stroke-miterlimit="10" d="M249.314,724.89c-3.577-21.898-15.855-39.748-24.164-47.627
		c-0.364-14.87-0.159-42.802,0-59.741l161.5,0.984v59.756c-16.918,14.113-21.994,33.219-24.147,46.627H249.314z"/>
	<path class="bounding8" stroke-miterlimit="10" d="M253.971,720.513c-4.334-18.75-15.565-35.247-25.014-44.835
		c-0.263-13.723-0.288-39.515-0.158-55.165l155.103,1.5v54.75c-14.962,13.393-23.305,30.831-26.097,43.75H253.971z"/>
	<path class="bounding9" stroke-miterlimit="10" d="M256.193,717.678c-5.694-21.918-19.202-37.699-24.423-43.171
		c-0.23-13.188-0.261-35.74-0.158-51.133l149.455,1.445v50.689c-12.28,11.34-21.666,26.875-25.51,42.169H256.193z"/>
</g>
</svg>
