<?xml version="1.0" encoding="iso-8859-1"?>
<!-- Generator: Adobe Illustrator 16.0.2, SVG Export Plug-In . SVG Version: 6.00 Build 0)  -->
<!DOCTYPE svg PUBLIC "-//W3C//DTD SVG 1.1//EN" "http://www.w3.org/Graphics/SVG/1.1/DTD/svg11.dtd">
<svg version="1.1" id="&#x5716;&#x5C64;_1" xmlns="http://www.w3.org/2000/svg" xmlns:xlink="http://www.w3.org/1999/xlink" x="0px"
	 y="0px" width="32.52px" height="66.119px" viewBox="0 0 32.52 66.119" style="enable-background:new 0 0 32.52 66.119;"
	 xml:space="preserve">
<g>
	<path style="fill:#E9E1EE;stroke:#000000;stroke-miterlimit:10;" d="M0.74,30.759c-1.288,10.006,2.47,29.07,14.478,34.79
		c9.94-6.236,16.202-20.274,16.766-32.066c0.608-12.759-6.433-25.954-18.71-32.881C7.237,5.436,2.565,16.587,0.74,30.759z"/>
	<path style="fill:#ABB8AD;" d="M14.664,61.457C3.252,51.04,5.151,34.41,5.376,31.929C6.442,20.206,11.25,9.922,14.449,5.44
		c7.721,6.185,13.805,19.679,12.564,29.284C25.395,47.267,20.297,56.269,14.664,61.457z"/>
	<path style="fill:#73776C;" d="M14.922,59.597c6.154-6.572,2.618-33.078,0.38-35.587C7.721,29.267,10.493,56.648,14.922,59.597z"/>
</g>
<line id="direct" style="display:none;fill:none;stroke:#FF0000;stroke-miterlimit:10;" x2="13.273" y2="0.602" x1="15.218" y1="65.549"/>
</svg>
