<?xml version="1.0" encoding="iso-8859-1"?>
<!-- Generator: Adobe Illustrator 16.0.2, SVG Export Plug-In . SVG Version: 6.00 Build 0)  -->
<!DOCTYPE svg PUBLIC "-//W3C//DTD SVG 1.1//EN" "http://www.w3.org/Graphics/SVG/1.1/DTD/svg11.dtd">
<svg version="1.1" id="&#x5716;&#x5C64;_1" xmlns="http://www.w3.org/2000/svg" xmlns:xlink="http://www.w3.org/1999/xlink" x="0px"
	 y="0px" width="70.77px" height="107.416px" viewBox="0 0 70.77 107.416" style="enable-background:new 0 0 70.77 107.416;"
	 xml:space="preserve">
<g>
	<path style="fill:#E9E1EE;stroke:#000000;stroke-miterlimit:10;" d="M55.985,17.451c3.279,8.261,4.142,16.724,8.148,24.05
		c4.768,8.715,6.775,14.55,5.96,24.872C68.53,86.11,49.317,99.431,32.888,105.787c-7.953,3.076-15.068-0.553-22.437-5.836
		C0.746,92.994,1.635,85.355,2.77,75.293c0.978-8.677-3.465-19.148-1.953-27.771c2.034-11.59,6.927-16.38,14.784-22.73
		c6.887-5.567,9.948-14.217,7.992-22.987C22.766-1.906,49.846,1.989,55.985,17.451z"/>
	<path style="fill:#ABB8AD;" d="M66.063,66.54c-2.055,21.321-27.018,32.575-34.619,35.516c-6.053,2.343-11.628-0.313-18.662-5.354
		C6.301,92.055,5.563,87.58,6.36,79.31c0.109-1.13,0.24-2.291,0.375-3.486l0.051-0.481c0.439-4.563-0.359-9.318-1.131-13.917
		c-0.725-4.316-1.41-8.394-1.064-11.978c0.04-0.416,0.094-0.827,0.166-1.234c1.753-9.991,5.6-14.039,13.358-20.31
		c5.714-4.62,9.243-11.116,9.934-18.292c0.163-1.687,0.166-3.389,0.01-5.092c6.086,0.495,20.342,4.67,24.207,14.406
		c1.285,3.238,2.211,6.636,3.104,9.922c1.323,4.862,2.691,9.889,5.253,14.572c4.394,8.032,6.229,13.206,5.481,22.637L66.063,66.54z"
		/>
	<path style="fill:#73776C;" d="M33.044,42.863c0.906-1.608,2.051-2.96,3.016-4.539c0.638-1.044,3.75-2.75,3.75-2.75
		s2.512,3.206,3.146,4.519c1.715,3.546,4.101,7.457,4.528,11.403c0.253,2.325-0.603,4.681-1.015,6.922
		c-0.467,2.545-1.664,5.1-2.804,7.396c-2.553,5.146-6.769,10.214-13.073,9.304c-6.789-0.978-6.375-10.659-5.07-15.547
		c0.596-2.231,1.456-4.875,2.436-6.862C28.657,51.296,32.432,43.951,33.044,42.863z"/>
</g>
<line id="direct" style="display:none;fill:none;stroke:#FF0000;stroke-miterlimit:10;" x2="23.593" y2="1.805" x1="43.414" y1="100.863"/>
</svg>
