<?xml version="1.0" encoding="iso-8859-1"?>
<!-- Generator: Adobe Illustrator 16.0.2, SVG Export Plug-In . SVG Version: 6.00 Build 0)  -->
<!DOCTYPE svg PUBLIC "-//W3C//DTD SVG 1.1//EN" "http://www.w3.org/Graphics/SVG/1.1/DTD/svg11.dtd">
<svg version="1.1" id="&#x5716;&#x5C64;_1" xmlns="http://www.w3.org/2000/svg" xmlns:xlink="http://www.w3.org/1999/xlink" x="0px"
	 y="0px" width="206.282px" height="106.533px" viewBox="0 0 206.282 106.533" style="enable-background:new 0 0 206.282 106.533;"
	 xml:space="preserve">
<g>
	<g>
		<path style="fill:#F7F5F1;stroke:#000000;stroke-miterlimit:10;" d="M18.747,60.339c-2.201-23.171,5.94-51.971,45.796-58.176
			c26.476-4.122,40.446-0.039,53.815,6.304c14.366,6.817,94.307,60.091,86.946,66.355c-27.073-17.85-120.328-23.545-143.945-2.635
			c-9.851,8.721-13.537,12.361-20.521,22.633C33.359,91.041,19.266,65.798,18.747,60.339z"/>
		<path style="fill:#D9E0D1;" d="M39.97,88.992c-6.839-6.93-16.896-25.408-17.243-29.055C21.402,45.984,22.881,12.819,65.14,6.239
			c6.989-1.088,13.182-1.616,18.931-1.616c14.604,0,24.307,3.647,32.615,7.589c6.334,3.007,27.63,16.445,48.061,30.925
			c13.784,9.767,22.459,16.642,27.902,21.369c-17.806-6.082-43.813-9.824-69.954-9.824c-30.315,0-53.621,5.24-63.941,14.377
			C49.848,76.943,45.83,80.785,39.97,88.992z"/>
		<path style="fill:#9CB098;" d="M37.026,73.792c-2.8-4.666-6.865-10.926-6.667-16.531c0.182-5.126,2.598-14.319,7.874-21.224
			c7.021-9.189,15.469-15.317,29.236-19.159c6.235-1.739,12.411-1.77,17.557-1.77c12.906,0,25.183,3.208,32.047,5.611
			c8.953,3.134,42.286,20.97,52.286,32.87c-6.722-0.473-30.558-4.231-43-5.929c-19.307-2.636-53.783,8.554-72.657,17.251
			C48.69,67.22,39.936,70.837,37.026,73.792z"/>
		<path style="fill:#73776C;" d="M35.359,64.912c0.426-3.232,7.445-18.463,10.667-22.316c6.25-7.473,14.271-10.354,24.579-13.778
			c5.93-1.97,14.469-3.465,18.754-3.465c13.023,0,24.334,2.125,29.667,3.742c7.729,2.342,29.622,11.381,31.785,12.595
			C112.1,29.095,44.526,57.714,35.359,64.912z"/>
		<path style="fill:#8A7C74;" d="M43.203,55.875c17.823-17.574,51.323-29.255,91.99-18.948
			C97.693,29.884,67.573,40.878,43.203,55.875z"/>
	</g>
	<g>
		<path style="fill:#F7F5F1;stroke:#000000;stroke-miterlimit:10;" d="M54.145,74.808c0.075-0.08,0.545-0.592,0.137-0.162
			c-4.377,4.775-12.519,5.934-17.689,2.74c-5.121-3.162-6.669-9.41-3.595-14.809c1.572-2.762,3.707-5.457,6.204-7.555
			c2.376-1.998,6.362-2.735,9.265-3.999c9.015-3.928,13.591,1.568,21.105,3.877c6.81,2.092,10.219,8.305,11.298,14.074
			c2.004,10.705-6.006,27.072-18.511,32.814c-13.886,6.377-30.837,5.26-42.688-1.307c-2.34-1.297-4.563-2.84-6.024-4.875
			c-1.451-2.021-1.599-4.654-3.277-6.537c-1.444-1.617-4.003-2.258-5.514-3.844c-1.492-1.566-2.426-3.568-3.1-5.512
			c-4.104-11.844,2.581-23.803,9.561-34.851c2.241-3.546,4.349-7.508,6.653-11.172c2.398-3.811,5.305-7.358,8.199-10.939
			c1.652-2.045,3.547-4.432,6.859-6.096c-1.221,1.461-4.122,6.548-4.52,7.187c-2.715,4.353-5.608,8.71-7.315,13.36
			c-4.554,12.403,1.4,26.718,9.471,36.156c0.961,1.123,2.257,1.895,3.345,2.998C39.359,81.779,48.723,80.56,54.145,74.808z"/>
		<path style="fill:#869BC7;" d="M51.89,75.667c-8.921,1.221-22.357-8.469-10.407-18.17c5.376-4.361,23.494-3.992,30.104,3.463
			c7.596,8.566,5.859,22.273-1.225,30.307c-4.474,5.072-16.695,10.432-21.077,10.996c-21.523,2.773-31.865-8.93-36.27-14.057
			c-5.811-6.764-9.167-15.875-7.656-24.697c0.695-4.063,10.322-19.584,13.409-21.82c-1.528,5.103,5.127,22.691,6.304,24.892
			c1.277,2.387,3.365,4.662,5.33,6.559c2.331,2.252,5.492,3.861,8.668,5.17C43.157,79.996,49.46,78.726,51.89,75.667z"/>
		<path style="fill:#545276;" d="M51.89,75.667c-5.408-0.439-11.756-7.938-6.15-12.748c5.962-5.117,14.419-0.529,18.173,3.016
			c5.695,5.375,4.246,12.545-0.927,18.852c-2.936,3.58-7.563,7.088-12.326,8.818c-16.627,6.045-29.175-8.557-30.733-11.76
			c-2.452-5.041-2.213-12.881-1.85-16.695c0.183-1.939,1.903-5.648,3.303-8.178c0.937,3.697,1.889,6.02,3.065,8.223
			c1.276,2.385,10.711,11.572,13.888,12.881C42.417,79.761,47.303,79.337,51.89,75.667z"/>
	</g>
</g>
<line id="direct" style="display:none;fill:none;stroke:#FF0000;stroke-miterlimit:10;" x1="205.304" y1="74.822" x2="17.969" y2="33.693"/>
<polygon id="collider" style="display:none;" points="24.687,8.368000000000002 22.881,12.819 11.317000000000004,44.86200000000001 4.337000000000004,55.91000000000001 -2.347999999999996,67.86900000000001 1.7560000000000042,79.71300000000001 2.430000000000004,81.65700000000001 3.3640000000000043,83.659 15.108000000000008,97.641 17.331000000000007,99.18400000000001 27.76200000000001,105.03599999999999 31.52200000000001,107.04800000000002 48.47300000000001,108.165 62.35900000000001,101.78800000000001 74.864,96.046 82.87400000000001,79.679 80.87,68.974 122.69500000000001,54.682 138.80100000000002,49.358000000000004 148.836,54.682 162.637,53.11600000000001 169.359,53.589000000000006 174.843,58.424 187.20600000000002,59.778999999999996 192.649,64.506 205.304,74.822 212.66500000000002,68.55799999999999 178.531,52.903999999999996 164.747,43.137 144.316,28.657 132.724,15.283999999999997 118.358,8.466999999999997 104.989,2.1239999999999966 91.019,-1.9590000000000032 64.543,2.1629999999999967 24.687,8.368000000000002" fill="none" stroke="red" stroke-width="3"></polygon>
</svg>
