<?xml version="1.0" encoding="iso-8859-1"?>
<!-- Generator: Adobe Illustrator 16.0.2, SVG Export Plug-In . SVG Version: 6.00 Build 0)  -->
<!DOCTYPE svg PUBLIC "-//W3C//DTD SVG 1.1//EN" "http://www.w3.org/Graphics/SVG/1.1/DTD/svg11.dtd">
<svg version="1.1" id="&#x5716;&#x5C64;_1" xmlns="http://www.w3.org/2000/svg" xmlns:xlink="http://www.w3.org/1999/xlink" x="0px"
	 y="0px" width="68.718px" height="107.998px" viewBox="0 0 68.718 107.998" style="enable-background:new 0 0 68.718 107.998;"
	 xml:space="preserve">
<g>
	<path style="fill:#E9E1EE;stroke:#000000;stroke-miterlimit:10;" d="M52.277,107.498c3.217,0.146,9.744-31.692,10.785-35.258
		c3.715-12.722,6.514-31.69,2.711-45.362C63.024,16.996,55.58,7.944,46.094,3.91c-4.99-2.122-12.743-4.066-18.196-3.197
		C18.631,2.188,10.542,6.17,5.35,13.933c-4.709,7.042-6.141,19.28-3.625,27.44c3.486,11.312,16.256,17.618,26.683,16.68
		c3.862-0.348,9.786-1.644,12.821-6.488c2.389-3.814,4.777-11.461,3.969-16.008c1.319,0.56-0.01,6.754-0.381,8.396
		c-0.82,3.628-3.852,7.539-4.43,10.583c-1.14,5.995-10.75,32.667-0.938,42.917L52.277,107.498z"/>
	<path style="fill:#94A4CF;" d="M42.163,94.498c-6.392-7.114-1.233-26.293,0.979-34.524c0.537-1.994,5.047-12.802,5.575-15.139
		c1.267-5.601-2.655-15.595-6.322-13.428c-5.237,3.095-0.703,4.592-0.189,7.08c0.592,3.33-2.333,7.708-4.367,10.956
		c-2.056,3.281-6.458,4.327-9.79,4.627c-0.558,0.051-1.135,0.076-1.715,0.076c-7.993,0-17.994-4.889-20.787-13.949
		c-2.215-7.184-0.783-18.191,3.127-24.039C12.814,9.968,19.493,6.101,28.527,4.663C29.204,4.555,29.972,4.5,30.81,4.5
		c4.762,0,10.366,1.664,13.717,3.09c8.082,3.437,16.195,10.712,19.025,19.54c5.165,16.109-0.99,40.943-5.666,56.667
		c-1.575,5.296-4.561,15.602-6.051,20.506L42.163,94.498z"/>
	<path style="fill:#5E5264;" d="M28.58,36.492c-4.227,1.481-7.185-0.918-8.685-6.752c-1.433-5.573,0.667-10.167,5.5-13.833
		c2.878-2.184,8.647-3,12.854-1.69c6.714,2.09,11.917,9.148,14.146,14.023c1.969,4.305,1.853,11.669,1.833,15.667
		c-0.031,6.302-12.083,29.833-14.471,31.912c0.054-6.579,2.734-13.303,3.385-15.846c0.936-3.658,6.486-14.111,5.771-18.68
		c-1.24-7.931-5.2-14.068-10.519-17.886c-3.119-2.239-8.167-1.833-8.667,1C29.166,27.593,35.008,34.24,28.58,36.492z"/>
</g>
<line id="direct" style="display:none;fill:#FF0000;stroke:#FF0000;stroke-miterlimit:10;" x1="52.277" y1="107.498" x2="15.972" y2="4.5"/>
</svg>
