<?xml version="1.0" encoding="iso-8859-1"?>
<!-- Generator: Adobe Illustrator 16.0.2, SVG Export Plug-In . SVG Version: 6.00 Build 0)  -->
<!DOCTYPE svg PUBLIC "-//W3C//DTD SVG 1.1//EN" "http://www.w3.org/Graphics/SVG/1.1/DTD/svg11.dtd">
<svg version="1.1" id="&#x5716;&#x5C64;_1" xmlns="http://www.w3.org/2000/svg" xmlns:xlink="http://www.w3.org/1999/xlink" x="0px"
	 y="0px" width="85.857px" height="89.192px" viewBox="0 0 85.857 89.192" style="enable-background:new 0 0 85.857 89.192;"
	 xml:space="preserve">
<g>
	<path style="fill:#E9E1EE;stroke:#000000;stroke-miterlimit:10;" d="M73.708,33.057l-0.007-0.002
		c4.19-7.46,4.686-16.893-1.748-23.688c-7.678-8.105-16.821-9.04-28.208-8.846c-5.072,0.087-9.726,1.25-13.688,4.479
		c-4.519,3.686-5.338,9.812-8.874,14.459c-24.577-4.378-24.94,33.57-13.099,44.833c4.534,4.313,9.884,5.174,15.525,7.154
		c1.517,7.825,10.727,17.243,19.219,17.244c12.604,0.001,18.481-3.923,22.604-10.476c1.072-1.705,2.095-10.145,3.375-10.479
		c12.875-3.368,14.375-6.512,15.625-10.666C86.32,50.793,86.432,38.883,73.708,33.057z"/>
	<path style="fill:#D9E0D1;" d="M41.651,27.872c-1.682,0.602-1.813,3.184-2.09,4.656c-0.44,2.345,0.344,3.913,2.143,5.583
		c2.824,2.627,7.164,2.471,10.87,2.436c4.024-0.042,7.403-0.396,10.688-2.613c3.189-2.153,6.065-6.642,7.249-10.103
		c1.347-3.934,1.17-7.668,0.035-11.524c-1.317-4.466-3.973-7.479-8.318-9.71c-4.1-2.106-8.659-2.347-13.332-2.923
		c-4.946-0.61-9.182,0.132-13.686,1.979c-4.114,1.688-5.739,5.791-7.442,9.343c-0.876,1.826-2.723,6.926-4.539,7.788
		c-2.005,0.95-6.147,0.001-8.238,0.809c-4.31,1.666-11.066,7.587-11.56,17.473c-0.224,4.439,0.471,8.344,2.222,12.437
		c1.609,3.761,4.018,8.603,8.269,10.052c1.899,0.646,3.906,1.3,5.716,2.229c1.53,0.786,4.279,1.342,5.247,2.538
		c0.737,0.918,0.458,2.498,0.916,3.586c2.989,7.14,11.144,13.706,19.649,14.029c4.222,0.157,8.647-0.751,12.274-2.762
		c3.322-1.844,6.517-11.777,8.026-15.285c2.515-5.842,13.697-3.449,16.348-11.979c2-6.438-1.334-14.97-4.5-16.617
		c-3.113-1.619-8.333-2.695-11.263,0.035c-4.586,4.272-12.387,5.375-14.256,5.379c-9.806,0.026-17.278-4.749-18.123-7.093
		c-0.734-2.042-0.282-3.414,0.527-5.415c1.147-2.825,1.903-4.446,5.126-5.6c1.751-0.629,4.583,0.064,1.764,1.248"/>
	<path style="fill:#9CB098;" d="M39.61,26.601c-4.616,0.437-9.326,2.133-11.903,11.375c-1.294,4.648-1.561,8.946,0.634,13.439
		c2.465,5.045,6.436,9.27,11.457,12.16c3.606,2.077,8.577,3.539,12.695,1.705c12.772-0.537,9.982-12.004,8.272-16.105
		c-1.532-3.673-7.225-4.58-13.027-5.059c-3.206-0.265-14.244-3.774-14.03-7.371C33.965,32.429,35.432,28.217,39.61,26.601z"/>
	<path style="fill:none;stroke:#000000;stroke-miterlimit:10;" d="M41.432,26.196c-3.254,0.22-6.827,4.743-7.381,7.41
		c-0.854,4.107,1.184,6.737,5.131,8.676c3.564,1.751,7.39,2.32,11.5,2.314c4.28-0.006,10.935-2.236,14.271-4.145
		c2.826-1.617,7.896-5.685,8.756-7.394"/>
</g>
<line id="direct" style="display:none;fill:none;stroke:#FF0000;stroke-miterlimit:10;" x1="-0.068" y1="46.859" x2="85.932" y2="46.859"/>
<polygon id="collider" style="display:none;" points="-3.394000000000016,15.081 -3.7570000000000157,53.028999999999996 12.617999999999984,68.605 34.335999999999984,88.689 42.82799999999999,88.69 55.43199999999999,88.691 61.30899999999999,84.767 81.68199999999999,64.367 83.18199999999999,61.223 84.43199999999999,57.069 86.32,50.793 86.432,38.883 78.387,16.162 71.95299999999999,9.367 64.27499999999999,1.2620000000000005 55.13199999999999,0.32700000000000173 43.74499999999999,0.5210000000000008 38.67299999999999,0.6080000000000008 34.01899999999999,1.7710000000000008 -3.394000000000016,15.081" fill="none" stroke="red" stroke-width="3"></polygon>
</svg>
