<?xml version="1.0"?>
<svg width="174.494" height="287.801" xmlns="http://www.w3.org/2000/svg" xmlns:svg="http://www.w3.org/2000/svg">
 <g>
  <title>Layer 1</title>
  <g id="SvgjsG1684" transform="matrix(0.23418695639317533,0.32338192863451865,-0.32338192863451865,0.23418695639317533,497.80554659655854,-34.4799249993751) ">
   <g id="svg_1">
    <g id="svg_2">
     <path fill="#E9E1EE" stroke="#000000" stroke-miterlimit="10" d="m-454.213,786.558c-0.623,7.449 0.516,14.706 -0.818,21.477c-1.592,8.057 -1.808,13.27 0.912,21.842c5.213,16.386 21.67,24.722 34.696,27.615c6.304,1.401 10.623,-2.726 14.779,-8.28c5.475,-7.317 6.27,-13.669 5.278,-23.103c-0.786,-7.533 -2.251,-14.356 -6.661,-21.548c-5.326,-8.694 -10.968,-13.705 -17.884,-17.874c-6.062,-3.659 -10.041,-10.485 -10.467,-18.162c-0.178,-3.252 -18.672,4.09 -19.835,18.033z" id="svg_3"/>
     <path fill="#94A4CF" d="m-449.874,828.529c-2.462,-7.738 -2.246,-12.087 -0.779,-19.511c0.875,-4.428 0.804,-8.912 0.736,-13.249c-0.043,-2.882 -0.089,-5.863 0.151,-8.739c0.589,-7.039 7.353,-12.051 11.521,-13.907c0.227,1.058 0.507,2.107 0.848,3.133c2.04,6.103 6.042,11.206 11.276,14.357c7.125,4.296 11.857,9.027 16.331,16.326c1.551,2.531 2.75,5.096 3.665,7.843c1.104,3.306 1.82,6.923 2.324,11.733c0.972,9.287 -0.094,14.113 -4.404,19.876c-4.228,5.653 -6.937,7.388 -10.348,6.633c-5.864,-1.299 -25.448,-6.887 -31.192,-24.099l-0.129,-0.396z" id="svg_4"/>
     <path fill="#5E5264" d="m-419.68,825.221c-0.496,-1.488 -1.19,-2.788 -1.73,-4.26c-0.355,-0.97 -2.435,-2.814 -2.435,-2.814s-2.131,2.437 -2.722,3.488c-1.592,2.828 -3.705,5.887 -4.405,9.216c-0.413,1.959 -0.03,4.085 0.046,6.055c0.082,2.24 0.693,4.579 1.287,6.682c1.333,4.722 3.876,9.583 8.52,9.577c5.003,-0.007 5.666,-8.351 5.209,-12.704c-0.206,-1.986 -0.567,-4.354 -1.076,-6.179c-0.363,-1.296 -2.361,-8.052 -2.694,-9.061z" id="svg_5"/>
    </g>
    <g id="svg_6">
     <path fill="#E5DFDE" stroke="#000000" stroke-miterlimit="10" d="m-349.453,853.87c-0.31,-6.276 -6.153,-16.052 -10.48,-20.333c-13.16,-13.027 -37.388,-10.557 -50.434,1.406c-11.017,10.105 -15.648,25.697 -13.259,40.4l21.07,10.566c-0.575,-2.017 -4.085,-19.954 0.571,-27.224c4.514,-7.047 14.929,-8.009 21.378,-2.607c3.121,2.61 4.3,7.475 5.915,10.885c1.92,4.06 3.813,10.848 9.762,10.452c12.935,-0.858 15.886,-15.221 15.477,-23.545z" id="svg_7"/>
     <path fill="#ABB8AD" d="m-353.451,854.068c-0.168,-3.492 -2.993,-9.651 -6.716,-14.648c-0.899,-1.207 -1.79,-2.257 -2.581,-3.041c-11.716,-11.601 -33.766,-8.713 -44.916,1.512c-9.2,8.436 -13.812,21.627 -12.292,34.819l6.031,3.027c-2.373,-11.72 2.979,-27.697 12.135,-31.769c4.919,-2.187 9.397,-3.613 14.662,-2.078c7.418,2.171 13.711,8.552 13.104,16.46c0.714,1.423 1.292,2.874 1.826,4.221c0.388,0.976 0.756,1.9 1.123,2.68c0.293,0.629 0.589,1.309 0.897,2.027c0.724,1.684 1.473,3.422 2.402,4.675c1.08,1.44 1.868,1.516 2.58,1.47c12.508,-0.829 11.783,-18.603 11.745,-19.355z" id="svg_8"/>
     <path fill="#73776C" d="m-386.455,841.123c-5.391,-2.219 -11.385,-0.816 -16.007,1.943c-11.652,6.963 -13.835,20.947 -11.458,32.669l6.114,3.069c-0.843,-6.952 -1.145,-16.659 2.452,-22.274c2.632,-4.11 7.047,-6.91 12.119,-7.688c5.486,-0.841 11.021,0.679 15.194,4.166c0.796,0.661 1.536,1.457 2.21,2.361c0.705,0.945 1.29,1.955 1.809,2.977c0.604,-7.903 -5.347,-14.127 -12.433,-17.223z" id="svg_9"/>
    </g>
    <g id="svg_10">
     <path fill="#E5DFDE" stroke="#000000" stroke-miterlimit="10" d="m-495.779,839.037c0.625,-6.251 6.963,-15.716 11.503,-19.772c13.804,-12.338 37.876,-8.64 50.298,3.973c10.487,10.651 12.906,31.258 9.768,45.818l-21.582,9.484c0.68,-1.99 6.514,-24.521 2.233,-32.018c-4.149,-7.269 -14.5,-8.755 -21.221,-3.693c-3.246,2.445 -4.673,7.246 -6.458,10.567c-2.127,3.961 -4.362,10.642 -10.282,9.942c-12.875,-1.514 -15.092,-16.008 -14.259,-24.301z" id="svg_11"/>
     <path fill="#ABB8AD" d="m-491.799,839.437c0.347,-3.475 3.483,-9.484 7.455,-14.285c0.959,-1.16 1.904,-2.166 2.734,-2.906c12.294,-10.992 34.168,-6.983 44.781,3.795c8.759,8.898 12.229,30.091 10.039,43.188l-6.143,2.726c2.971,-11.583 -1.135,-35.604 -10.071,-40.137c-4.8,-2.437 -9.202,-4.091 -14.535,-2.825c-7.527,1.791 -14.129,7.839 -13.927,15.77c-0.785,1.382 -1.439,2.805 -2.04,4.122c-0.436,0.959 -0.851,1.866 -1.254,2.619c-0.331,0.612 -0.66,1.28 -1.002,1.98c-0.81,1.642 -1.646,3.344 -2.641,4.544c-1.145,1.387 -1.938,1.423 -2.652,1.341c-12.446,-1.469 -10.819,-19.177 -10.744,-19.932z" id="svg_12"/>
     <path fill="#73776C" d="m-458.175,828.195c5.5,-1.942 11.412,-0.24 15.888,2.754c11.278,7.545 12.319,29.426 9.353,41.007l-6.265,2.753c1.192,-6.898 2.421,-24.381 -0.884,-30.169c-2.423,-4.237 -6.689,-7.26 -11.711,-8.294c-5.435,-1.121 -11.047,0.117 -15.389,3.387c-0.827,0.621 -1.609,1.377 -2.327,2.246c-0.748,0.908 -1.388,1.888 -1.956,2.884c-0.202,-7.931 6.056,-13.841 13.291,-16.568z" id="svg_13"/>
    </g>
   </g>
   <g id="svg_14">
    <path fill="#E9E1EE" stroke="#000000" stroke-miterlimit="10" d="m-448.11,1011.79c0,0 -44.701,-44.405 -38.497,-82.423c4.934,-30.226 39.874,-49.665 67.163,-33.799c37.176,21.613 20.389,67.359 20.526,66.607l31.985,14.019c7.202,-30.57 -5.198,-121.423 -95.033,-107.185c-29.481,4.676 -61.531,32.07 -66.11,63.184c-3.954,26.879 2.463,52.538 15.104,75.499c6.106,11.084 18.327,33.943 31.886,30.861c13.294,-3.024 32.976,-26.763 32.976,-26.763z" id="svg_15"/>
    <path fill="#ABB8AD" d="m-508.547,923.296c8.895,-26.57 31.355,-43.293 58.163,-45.798c21.009,-1.926 39.589,2.941 54.538,17.994c20.352,19.347 23.001,48.462 19.815,74.191c1.997,0.601 4.011,1.171 6.053,1.69c4.781,-24.405 -0.75,-49.362 -15.406,-69.053c-17.965,-24.123 -46.33,-35.091 -75.856,-29.356c-26.791,5.204 -58.494,29.589 -62.947,59.866c-3.573,24.289 1.28,48.9 14.571,73.042c1.537,2.789 3.341,5.905 5.499,8.802c0,0.003 0,0.003 0.002,0.001c6.861,9.218 18.686,18.772 25.828,22.032c3.145,-2.896 5.002,-5.579 8.622,-8.218c-30.107,-24.411 -50.8,-65.528 -38.882,-105.193z" id="svg_16"/>
    <path fill="#73776C" d="m-419.442,895.569c7.639,4.445 12.177,8.245 16.466,14.008c12.271,16.478 8.768,33.311 4.055,52.601c6.363,2.452 16.494,5.567 22.889,7.504c3.186,-25.729 0.539,-54.842 -19.815,-74.191c-14.949,-15.053 -33.529,-19.92 -54.538,-17.994c-26.807,2.505 -49.267,19.228 -58.163,45.798c-11.918,39.666 8.777,80.78 38.885,105.19c1.409,-1.03 3.121,-2.366 4.515,-3.362c5.329,-3.808 13.105,-9.474 17.037,-13.334c-2.737,-4.027 -7.349,-10.552 -10.548,-14.902c-14.905,-20.252 -31.995,-39.178 -28.577,-65.944c2.051,-16.04 10.674,-28.537 25.985,-36.093c14.835,-7.321 28.203,-7.189 41.809,0.719z" id="svg_17"/>
   </g>
   <g id="svg_18">
    <g id="svg_19">
     <path fill="#E9E1EE" stroke="#000000" stroke-miterlimit="10" d="m-513.499,1012.548c-0.675,-2.848 -0.245,-5.952 0.059,-8.811c0.728,-6.82 8.392,-26.319 13.737,-31.548l-11.927,-2.737c-3.683,0.425 -16.373,16.119 -17.83,18.905c-4.661,8.907 -5.524,19.76 -3.992,30.234" id="svg_20"/>
     <path fill="#F8ECCF" d="m-513.861,1004.719c0.41,-3.819 1.119,-6.655 2.13,-9.83c0.748,-2.354 10.953,-20.744 12.028,-22.699l-11.927,-2.737c-0.833,0.916 -20.409,27.323 -20.388,38.306c0.007,3.152 1.233,7.12 1.334,9.859c5.723,-2.067 11.37,-4.281 17.154,-5.066c-0.966,-3.727 -0.331,-7.833 -0.331,-7.833z" id="svg_21"/>
     <path fill="#D9E0D1" d="m-512.621,1006.015c-0.171,-4.165 0.896,-8.374 1.517,-12.587c0.276,-1.872 9.148,-21.659 7.229,-22.197c-0.448,-0.128 -3.254,-0.85 -3.254,-0.85s-15.101,33.894 -15.247,42.458c-0.011,0.53 0.052,1.134 0.162,1.793c3.033,-0.975 6.611,-2.17 9.695,-2.546c-0.346,-2.267 -0.008,-3.762 -0.102,-6.071z" id="svg_22"/>
    </g>
    <g id="svg_23">
     <path fill="#E9E1EE" stroke="#000000" stroke-miterlimit="10" d="m-445.173,1026.929c4.823,-4.546 0.009,-13.988 -5.242,-16.189c-5.983,-2.518 -12.438,0.354 -16.586,4.275c-7.692,7.276 -13.698,21.59 -10.241,33.092c3.934,13.093 14.482,25.055 28.012,24.906c14.266,-0.154 22.022,-8.5 30.246,-20.157c3.665,-5.194 5.881,-10.973 5.394,-17.988c-0.558,-8.002 -6.432,-14.557 -8.735,-22.47c22.827,-20.677 -17.07,-56.542 -37.761,-55.143c-7.922,0.532 -12.788,5.123 -19.063,8.956c-9.405,-5.793 -25.356,-4.495 -32.479,3.241c-5.507,5.98 -11.853,23.961 -6.05,33.572c0.004,0.003 4.473,8.225 9.315,9.213c11.507,2.351 26.738,-14.003 32.211,-14.071c8.755,-0.107 15.175,-0.078 21.077,11.697" id="svg_24"/>
     <path fill="#94A4CF" d="m-446.38,1025.158c0.606,-2.255 -2.03,-4.804 -3.384,-6.458c-2.156,-2.64 -4.394,-3.315 -7.497,-3.065c-4.872,0.389 -7.917,4.909 -10.621,8.679c-2.939,4.096 -5.066,7.831 -5.147,13.217c-0.083,5.227 2.538,12.326 5.325,16.757c3.165,5.034 7.25,8.352 12.17,10.813c5.706,2.852 10.859,2.993 16.436,0.702c5.263,-2.162 8.896,-6.534 12.965,-10.705c4.309,-4.417 6.661,-9.379 8.038,-15.644c1.256,-5.728 -1.884,-11.206 -4.383,-16.247c-1.279,-2.587 -6.914,-12.554 -6.478,-15.194c0.478,-2.909 4.662,-4.023 5.353,-6.88c1.429,-5.902 1.648,-17.092 -8.448,-26.84c-4.535,-4.377 -9.183,-7.329 -14.812,-9.392c-5.171,-1.896 -12.079,-4.003 -16.762,-1.068c-2.088,1.305 -4.264,2.716 -6.587,3.673c-1.968,0.81 -4.593,3.058 -6.577,2.914c-1.514,-0.115 -2.98,-1.875 -4.473,-2.433c-9.77,-3.666 -22.759,-1.587 -29.395,6.686c-3.292,4.106 -5.608,9.416 -6.165,14.953c-0.51,5.076 2.013,9.176 5.667,13.094c4.494,4.822 12.184,13.875 26.298,13.672c12.009,-0.172 30.749,-9.444 33.856,-8.103c2.709,1.167 3.826,2.909 5.341,5.598c2.143,3.799 3.297,6.075 2.136,10.404c-0.636,2.354 -3.462,4.562 -2.627,0.607" id="svg_25"/>
     <path fill="#5E5264" d="m-444.227,1015.698c0.705,-2.4 2.164,-3.932 1.601,-6.816c-0.505,-2.597 -2.664,-5.139 -4.128,-7.229c-3.96,-5.649 -8.318,-9.94 -14.693,-11.93c-7.165,-2.238 -14.574,-2.186 -21.352,0.171c-4.872,1.693 -10.098,5.335 -11.205,11.198c1.822,1.344 6.284,-1.939 7.976,-2.604c2.993,-1.185 6.585,-2.002 9.748,-2.344c5.154,-0.562 10.073,0.787 14.365,4.448c2.832,2.419 5.764,5.56 6.84,9.275c3.124,-0.652 7.181,1.87 9.129,4.591c0.024,-0.263 0.221,-0.393 0.287,-0.565" id="svg_26"/>
    </g>
    <g id="svg_27">
     <path fill="#E9E1EE" stroke="#000000" stroke-miterlimit="10" d="m-504.385,1017.844c-4.054,0.256 -9.682,14.587 -10.978,16.888c-6.316,11.238 -2.273,26.541 5.729,38.783c5.783,8.851 14.667,15.327 27.495,17.918c6.744,1.363 17.338,3.222 23.948,1.748c11.244,-2.502 20.413,-7.192 25.067,-15.044c4.218,-7.119 3.105,-18.672 -1.978,-25.95c-7.041,-10.091 -24.511,-14.392 -37.328,-12.247c-4.747,0.793 -11.849,2.722 -14.496,7.597c-2.082,3.838 -3.253,11.239 -1.161,15.364c-1.786,-0.357 -4.745,-4.481 -5.77,-5.906c-2.014,-2.805 -1.824,-5.999 -1.821,-8.901c0.004,-5.71 6.236,-21.884 11.57,-26.132l-20.277,-4.118z" id="svg_28"/>
     <path fill="#F8ECCF" d="m-512.982,1052.078c1.502,-5.284 12.629,-32.501 13.449,-33.248l15.425,3.132c-0.964,1.612 -10.16,16.786 -10.718,18.743c-0.749,2.64 -1.203,5.005 -1.204,8.203c0,0 -0.31,4.634 2.171,8.086c3.759,5.241 1.419,5.696 4.423,6.302l2.761,0.526c-1.038,-2.05 0.021,-7.178 1.081,-10.901c0.315,-1.11 2.996,-3.061 3.406,-3.824c1.795,-3.302 7.054,-4.812 11.15,-5.5c10.483,-1.755 25.478,1.627 31.432,10.152c3.647,5.223 4.973,13.165 3.228,19.312c-0.36,1.264 -0.845,2.417 -1.436,3.415c-3.707,6.26 -11.143,10.669 -22.1,13.11c-5.283,1.178 -14.415,0.505 -20.707,-0.769c-10.921,-2.208 -21.354,-8.8 -26.577,-16.804c-3.646,-5.57 -7.937,-12.344 -5.784,-19.935z" id="svg_29"/>
    </g>
    <g id="svg_30">
     <path fill="#E9E1EE" stroke="#000000" stroke-miterlimit="10" d="m-512.023,1015.028c-3.73,1.611 -4.195,16.999 -4.634,19.601c-2.161,12.71 6.814,25.75 18.472,34.58c8.43,6.38 18.984,9.478 31.93,7.589c6.809,-0.991 17.407,-2.813 23.133,-6.431c9.74,-6.152 16.789,-13.659 18.522,-22.62c1.565,-8.126 -3.377,-18.626 -10.618,-23.761c-10.035,-7.125 -27.932,-5.279 -39.273,1.063c-4.199,2.35 -10.234,6.561 -11.083,12.044c-0.661,4.314 0.73,11.675 4.093,14.854c-1.801,0.266 -5.981,-2.613 -7.427,-3.612c-2.841,-1.961 -3.739,-5.033 -4.716,-7.767c-1.924,-5.376 -1.515,-22.704 2.075,-28.505l-20.474,2.965z" id="svg_31"/>
     <path fill="#F8ECCF" d="m-508.567,1050.154c-0.365,-5.48 0.924,-34.859 1.448,-35.835l15.575,-2.256c-0.363,1.845 -3.902,19.231 -3.765,21.263c0.183,2.735 0.557,5.115 1.631,8.127c0,0 1.273,4.464 4.772,6.884c5.307,3.665 3.257,4.883 6.291,4.435l2.776,-0.435c-1.669,-1.58 -2.403,-6.765 -2.661,-10.627c-0.078,-1.15 1.786,-3.889 1.918,-4.75c0.575,-3.711 5.016,-6.912 8.642,-8.937c9.274,-5.188 24.533,-7.066 33.012,-1.049c5.198,3.686 9.122,10.716 9.551,17.09c0.087,1.316 0.022,2.562 -0.196,3.702c-1.381,7.142 -6.892,13.804 -16.385,19.798c-4.572,2.889 -13.397,5.334 -19.75,6.26c-11.023,1.608 -23.071,-1.08 -30.69,-6.848c-5.306,-4.025 -11.634,-8.952 -12.169,-16.822z" id="svg_32"/>
     <path fill="#D9E0D1" d="m-446.02,1048.167c5.41,2.1 -2.274,7.274 -5.35,10.446c-2.579,2.656 -9.629,6.493 -13.979,7.477c-8.744,1.978 -15.776,1.848 -20.908,-0.079c-4.341,-1.625 -12.962,-7.303 -14.642,-10.679c-3.229,-6.488 -0.637,-37.231 -0.637,-37.231s3.253,-0.443 3.777,-0.505c2.247,-0.269 0.672,17.703 1.124,19.205c1.006,3.383 0.453,6.872 2.279,9.94c1.515,2.537 2.77,5.249 5.359,7.212c4.759,3.618 15.153,8.92 22.525,7.174c4.763,-1.126 18.046,-13.895 20.452,-12.96z" id="svg_33"/>
    </g>
    <g id="svg_34">
     <path fill="#E9E1EE" stroke="#000000" stroke-miterlimit="10" d="m-520.177,1033.034c-1.255,3.401 9.351,14.506 10.909,16.607c7.618,10.252 22.611,13.974 36.345,13.1c9.929,-0.631 18.894,-4.865 25.866,-14.055c3.664,-4.836 9.177,-12.563 10.287,-18.588c1.893,-10.243 1.101,-19.81 -4.134,-27.164c-4.75,-6.671 -15.362,-11.052 -23.644,-10.268c-11.482,1.086 -21.663,13.257 -24.448,24.609c-1.032,4.208 -1.921,10.836 1.42,15.207c2.629,3.438 8.736,7.773 13.148,7.969c-0.97,1.279 -5.692,1.794 -7.323,1.968c-3.214,0.348 -5.965,-1.273 -8.526,-2.599c-5.045,-2.615 -17.055,-15.053 -18.86,-21.316l-11.04,14.53z" id="svg_35"/>
     <path fill="#F8ECCF" d="m-493.077,1055.645c-4.117,-3.628 -24.1,-25.081 -24.457,-26.088l8.399,-11.052c1.068,1.517 11.116,15.902 12.643,17.246c2.057,1.816 3.98,3.263 6.807,4.727c0,0 3.977,2.369 7.934,1.94c6.001,-0.646 5.549,1.455 7.182,-0.697l1.473,-1.995c-2.192,-0.099 -6.336,-3.302 -9.236,-5.858c-0.864,-0.765 -1.609,-3.823 -2.132,-4.51c-2.261,-2.96 -1.676,-7.909 -0.787,-11.538c2.278,-9.285 10.739,-19.875 20.441,-20.798c5.942,-0.562 13.438,1.995 18.232,6.218c0.986,0.877 1.828,1.789 2.495,2.728c4.175,5.862 5.356,13.896 3.508,23.881c-0.885,4.813 -4.817,11.895 -8.232,16.403c-5.94,7.832 -15.574,13.258 -24.547,13.83c-6.256,0.4 -13.805,0.779 -19.723,-4.437z" id="svg_36"/>
     <path fill="#D9E0D1" d="m-460.895,1019.614c4.106,-0.137 8.348,0.453 10.171,4.379c1.514,3.268 -0.335,10.019 -2.431,13.357c-4.207,6.704 -11.23,10.799 -15.667,13.731c-3.807,2.513 -13.129,6.742 -16.599,5.389c-6.662,-2.599 -28.339,-31.877 -28.339,-31.877s1.778,-2.291 2.067,-2.652c1.25,-1.553 12.972,12.045 14.322,12.833c3.045,1.767 5.16,4.555 8.509,5.604c2.764,0.864 5.492,2.011 8.542,1.822c5.62,-0.351 17.008,-1.055 20.498,-6.76c2.261,-3.69 4.315,-9.305 1.405,-10.663c-2.097,-0.982 -5.592,-5.059 -2.478,-5.163z" id="svg_37"/>
    </g>
    <g id="svg_38">
     <path fill="#E9E1EE" stroke="#000000" stroke-miterlimit="10" d="m-533.449,1018.591c0.806,5.524 2.269,10.941 4.218,15.91c4.08,10.396 11.257,17.87 22.474,20.587c5.895,1.43 15.199,3.336 21.338,1.383c10.435,-3.318 19.287,-9.189 24.471,-18.698c4.703,-8.629 3.592,-21.751 -0.846,-29.911c-5.911,-10.873 -17.871,-17.484 -29.679,-14.547c-4.376,1.086 -10.223,3.837 -14.925,8.494c-3.685,3.649 -6.643,7.737 -6.167,12.768c0.184,1.93 1.214,6.418 8.426,14.642" id="svg_39"/>
     <path fill="#F8ECCF" d="m-464.956,1035.928c0.663,-1.214 1.24,-2.599 1.727,-4.124c2.352,-7.393 0.795,-15.701 -1.823,-21.831c-4.275,-9.999 -16.873,-15.332 -25.119,-13.296c-3.776,0.932 -9.676,3.227 -13.155,6.053c-3.064,2.489 -5.353,5.978 -5.775,7.311c-2.001,6.285 2.663,14.887 4.958,19.179c-2.933,-1.596 -5.85,-4.98 -8.298,-11.412c-0.223,-0.578 -1.137,-5.565 -1.293,-6.164c-5.782,0.783 -11.242,3.177 -16.966,5.244c0.2,5.589 2.124,11.353 3.851,15.75c3.687,9.398 12.242,16.964 21.793,19.279c5.503,1.334 13.637,1.873 18.541,0.309c10.172,-3.233 17.425,-8.719 21.559,-16.298z" id="svg_40"/>
     <path fill="#D9E0D1" d="m-484.482,1038.194c6.381,-6.815 6.466,-11.944 3.177,-16.353c-2.105,-2.82 -6.389,-3.66 -9.425,-1.462c-2.529,1.832 0.744,7.922 -6.668,10.325c-6.702,2.17 -12.415,-6.717 -14.902,-12.531c-1.319,-3.093 -0.996,-5.511 -0.65,-6.876c-3.083,0.373 -6.357,1.403 -9.392,2.379c0.817,4.879 4.757,13.71 7.225,16.768c3.312,4.111 9.162,11.077 17.038,12.115c3.917,0.518 10.706,-1.279 13.597,-4.365z" id="svg_41"/>
    </g>
   </g>
   <g id="svg_42">
    <path fill="#E9E1EE" stroke="#000000" stroke-miterlimit="10" d="m-421.543,995.851c0.395,43.775 44.804,68.18 73.44,65.435c11.246,-20.871 18.821,-36.797 5.244,-68.13c-4.897,-11.289 -44.357,-37.734 -68.023,-37.224c-8.969,11.353 -10.737,31.644 -10.661,39.919z" id="svg_43"/>
    <path fill="#94A4CF" d="m-392.697,968.128c21.002,7.641 40.114,23.373 42.222,27.677c10.954,25.273 6.536,38.252 -3.26,56.839c-53.901,-7.951 -60.881,-67.52 -52.226,-87.786c3.833,0.408 8.35,1.481 13.261,3.268c-0.002,0.005 0.001,0.001 0.003,0.002z" id="svg_44"/>
    <path fill="#5E5264" d="m-359.527,1032.01c5.991,-4.555 1.942,-18.434 -0.077,-23.553c-1.419,-3.596 -9.745,-16.861 -20.068,-13.349c-14.884,5.063 -0.694,26.414 2.33,29.065c4.977,4.371 12.763,11.68 17.815,7.837z" id="svg_45"/>
   </g>
   <g id="svg_46">
    <g id="svg_47">
     <path fill="#E9E1EE" stroke="#000000" stroke-miterlimit="10" d="m-193.799,960.655c3.154,-2.602 11.045,-2.523 15.084,-0.963c3.409,1.315 7.431,7.012 8.07,10.622l0,0c-0.639,-3.609 -4.662,-9.301 -8.07,-10.622c-4.039,-1.56 -8.787,0.89 -11.935,3.491c-3.925,3.233 -5.278,8.137 -5.487,13.071c-0.326,7.796 1.83,17.282 9.675,20.952c3.37,1.577 8.265,2.591 12.003,2.804c4.295,0.241 10.785,-2.662 14.728,-4.784c6.052,-3.257 13.035,-13.275 14.162,-17.817c1.869,-7.543 2.94,-14.552 0.082,-22.505c-1.951,-5.405 -12.03,-16.6 -19.166,-20.433c-4.825,-2.594 -12.938,-2.249 -18.426,-1.862c-2.193,0.151 -8.631,0.128 -10.601,0.827l-3.014,24.893l2.895,2.326z" id="svg_48"/>
     <path fill="#94A4CF" d="m-188.759,990.288c-2.386,-3.202 -3.619,-8.256 -3.38,-13.869c0.198,-4.761 1.514,-8.078 4.031,-10.151c2.253,-1.86 5.561,-3.244 7.95,-2.844c2.22,0.37 5.775,2.189 9.512,6.888c0,0 -0.554,-3.047 -3.373,-6.839c-1.262,-1.687 -3.161,-3.183 -4.7,-3.778c-4.225,-1.634 -9.658,-1.323 -14.698,0.674l3.345,-23.451c1.59,-0.111 3.554,-0.174 4.633,-0.209c1.085,-0.036 2.018,-0.066 2.642,-0.11c3.301,-0.23 12.074,-0.847 16.255,1.396c4.136,2.222 10.347,8.055 14.446,13.566c2.009,2.693 2.656,4.188 2.843,4.704c2.379,6.609 1.729,12.401 -0.199,20.18c-0.915,3.686 -7.276,12.62 -12.175,15.257c-5.131,2.765 -10.076,4.456 -12.607,4.315c-3.579,-0.206 -7.909,-1.204 -10.532,-2.433c-1.588,-0.745 -2.899,-1.822 -3.993,-3.296z" id="svg_49"/>
    </g>
    <g id="svg_50">
     <g id="svg_51">
      <g id="svg_52">
       <path fill="#E5DFDE" stroke="#000000" stroke-miterlimit="10" d="m-297.418,868.337c3.411,-0.181 8.306,-1.589 11.683,-1.632c5.321,-0.073 10.968,0.339 16.288,0.966c12.488,1.476 24.19,5.77 34.923,12.022c7.265,4.234 11.408,8.618 15.942,15.555c1.636,2.501 4.564,12.135 4.564,12.135s0.961,1.143 2.397,1.325c5.592,0.722 10.321,4.123 14.56,7.609c3.8,3.126 7.067,7.044 8.991,11.602c2.067,4.91 2.898,9.993 2.169,15.184c-2.133,15.222 -11.2,26.973 -26.922,29.932c-4.536,0.853 -8.887,5.148 -13.494,4.578c-3.381,-0.419 -6.686,-1.224 -10.002,-1.983c-5.564,-1.281 -11.184,-2.392 -16.656,-4.035c-2.187,-0.66 -4.06,-2.058 -6.226,-2.77c-1.395,-0.455 -3.114,-0.449 -3.677,-2.047c-0.487,-1.367 0.458,-3.183 1.184,-4.3c3.402,-5.225 4.153,-11.832 5.847,-17.72c0.686,-2.39 1.492,-4.856 1.7,-7.339c0.18,-2.159 -0.644,-3.806 -1.182,-5.826c-1.401,-5.273 -3.515,-10.452 -6.062,-15.473c-2.555,-5.039 -5.148,-10.13 -8.154,-14.928c-3.341,-5.336 -7.39,-9.954 -11.955,-14.287c-5.976,-5.663 -12.385,-11.137 -20.473,-13.479c-1.162,-0.328 -2.356,-0.577 -3.483,-0.995c-0.391,-0.144 -2.958,-2.196 -3.055,-2.182c0.001,0.003 7.097,-1.695 11.093,-1.912z" id="svg_53"/>
       <path fill="#94A4CF" d="m-260.954,966.193c-0.012,-0.015 -0.025,-0.042 -0.037,-0.075c-0.095,-0.262 0.087,-1.181 0.969,-2.541c2.671,-4.099 0.969,-5.725 2.054,-10.314c0.397,-1.682 0.977,-4.299 1.422,-5.856l0.7,-2.646c0.637,-2.172 1.361,-3.846 1.559,-6.203c0.169,-1.997 0.189,-2.961 -0.289,-4.486c-0.148,-0.457 -0.42,-1.288 -0.55,-1.776c-1.341,-5.048 -3.484,-10.689 -6.262,-16.173c-2.534,-4.994 -4.678,-9.373 -7.765,-14.302c-0.906,-1.447 -1.871,-2.95 -2.916,-4.353c-2.6,-3.495 -5.743,-7.064 -9.429,-10.555c-5.722,-5.424 -11.157,-10.779 -19.897,-13.304c-0.416,-0.12 -3.641,-1.067 -4.059,-1.176c-0.08,-0.021 -2.981,-2.159 -3.054,-2.182c1.926,-0.357 7.509,-1.635 9.071,-1.717c1.721,-0.095 4.514,-0.445 6.473,-0.809c2.1,-0.388 17.387,1.237 23.283,1.931c11.616,1.376 24.571,6.174 35.615,12.607c5.452,3.175 12.682,13.521 13.546,14.847c1.077,1.644 5.18,12.769 5.18,12.769s10.33,2.83 14.388,6.174c2.09,1.719 6.53,5.417 8.013,7.415c1.25,1.678 2.27,3.438 3.027,5.23c1.999,4.739 2.746,10.492 2.098,15.126c-2.149,15.331 -11.218,23.923 -25.149,26.542c-2.164,0.408 -4.4,2.141 -6.346,3.135c-2.401,1.227 -4.669,2.386 -6.76,2.129c-2.963,-0.37 -5.972,-1.063 -8.878,-1.737l-0.923,-0.21c-1.353,-0.315 -2.713,-0.612 -4.073,-0.914c-4.12,-0.918 -8.381,-1.865 -12.451,-3.086c-0.96,-0.29 -1.898,-0.771 -2.892,-1.285c-1.029,-0.528 -2.092,-1.074 -3.288,-1.469c-0.363,-0.118 -0.739,-0.209 -1.119,-0.303c-0.43,-0.103 -1.146,-0.271 -1.261,-0.433z" id="svg_54"/>
      </g>
      <path fill="#725C90" d="m-223.589,913.655c-1.135,-3.256 -2.926,-7.15 -4.821,-9.839c-4.652,-6.612 -9.039,-12.592 -15.574,-17.288c-5.867,-4.219 -12.06,-8.184 -18.424,-11.633c-6.619,-3.585 -15.427,-4.528 -22.776,-5.967c-7.065,-1.39 -13.656,-2.05 -19.972,1.868c-0.687,-0.208 -1.324,-0.603 -2.059,-0.561c10.079,3.18 19.741,7.586 26.89,15.596c4.772,5.34 9.234,11.114 13.409,16.928c2.983,4.159 4.934,8.465 6.986,13.104c2.175,4.927 5.466,9.297 7.431,14.32c1.986,5.062 1.539,9.679 -0.657,14.569c-3.75,8.373 -10.847,19.124 -1.242,26.255c4.686,3.478 12.49,6.272 18.095,3.773c4.947,-2.209 8.291,-4.771 11.079,-8.562c1.092,-1.486 2.635,-6.058 4.579,-6.408c2.3,-0.412 4.677,-0.158 6.965,-0.7c2.533,-0.606 4.925,-1.664 7.014,-3.231c4.05,-3.028 7.003,-7.733 8.143,-12.645c2.118,-9.09 -4.302,-18.764 -11.735,-23.567c-4.063,-2.623 -8.018,-2.382 -12.463,-1.005c0.035,-1.708 -0.3,-3.388 -0.868,-5.007z" id="svg_55"/>
      <path fill="#5E5264" d="m-292.487,868.822c5.158,-0.438 11.299,2.082 16.231,3.8c11.345,3.952 20.313,10.471 28.964,18.862c7.399,7.17 14.002,18.789 17.963,28.392c1.727,4.18 2.752,9.688 0.349,13.872c-4.037,7.03 -7.307,1.781 -9.028,-1.797c-2.389,-4.955 -1.945,-10.269 -4.047,-15.481c-2.296,-5.697 -7.587,-14.965 -11.53,-19.674c-7.602,-9.075 -16.718,-16.323 -28.344,-19.632c-8.27,-2.359 -25.402,-6.159 -26.58,-6.91c-0.001,-0.002 12.516,-1.132 16.022,-1.432z" id="svg_56"/>
     </g>
     <g id="svg_57">
      <path fill="#E5DFDE" stroke="#000000" stroke-miterlimit="10" d="m-216.795,977.184c2.832,-4.925 3.434,-12.099 2.777,-17.902c-0.627,-5.455 -6.519,-11.467 -11.684,-11.976c-3.434,-0.337 -7.789,1.517 -10.043,5.555c2.592,-1.928 5.96,-3.034 9.107,-2.573c7.589,1.83 10.562,10.838 8.939,17.031c-4.646,12.187 -18.482,23.736 -29.868,18.498c-9.485,-4.368 -16.852,-16.371 -14.962,-28.344c-0.842,0.164 -1.667,0.804 -2.387,1.98c-1.607,2.647 -1.02,5.845 -0.92,8.798c0.208,6.317 4.515,12.094 8.673,16.609c4.085,4.438 12.345,6.597 17.943,6.586c5.554,-0.014 17.351,-5.441 22.425,-14.262z" id="svg_58"/>
      <path fill="#94A4CF" d="m-247.32,986.986c9.92,4.351 27.109,-5.276 30.068,-19.482c1.623,-6.193 -0.593,-15.661 -9.103,-17.947c-3.144,-0.459 -7.984,1.152 -10.146,3.886c-1.31,2.349 -1.158,4.851 -0.447,8.676c0,0 5.602,-3.082 8.202,-1.537c2.198,1.302 0.636,5.093 -0.322,7.099c-1.549,3.227 -5.309,4.575 -8.583,5.362c-4.751,1.137 -7.813,0.78 -12.193,-1.105c-5.46,-2.341 -6.711,-8.049 -9.456,-12.495c-0.926,-1.504 -2.087,-2.188 -3.231,-1.965c-5.37,11.481 5.651,25.309 15.211,29.508z" id="svg_59"/>
     </g>
     <g id="svg_60">
      <path fill="#E5DFDE" stroke="#000000" stroke-miterlimit="10" d="m-279.961,973.314c7.08,0.283 13.861,-2.609 19.614,-8.668c5.68,-5.979 7.801,-15.484 8.716,-23.645c0.539,-4.858 0.076,-10.291 -0.926,-15.051c-2.174,-10.368 -6.971,-21.803 -12.54,-31.035c-5.343,-8.846 -13.617,-17.743 -23.027,-22.256c-2.461,-1.184 -5.185,-2.118 -7.883,-2.592c-3.053,-0.544 -6.441,-0.624 -9.516,-0.187c-3.801,0.539 -7.69,1.522 -11.315,2.792c-2.9,1.01 -5.749,2.19 -8.526,3.495c-3.403,1.6 -6.219,3.306 -9.052,5.796c-1.32,1.158 -4.167,4.26 -6.193,3.058c3.36,1.992 15.502,-5.389 20.989,-4.985c4.381,0.322 8.26,2.648 11.544,5.418c3.577,3.013 7.555,7.234 9.21,11.689c1.435,3.884 0.55,8.05 -0.519,11.903c-1.425,5.158 -3.443,10.123 -5.538,15.039c-1.915,4.502 -4.156,9.136 -4.098,14.137c0.148,13.442 9.803,34.312 29.06,35.092z" id="svg_61"/>
      <path fill="#94A4CF" d="m-297.453,958.998c-5.403,-7.253 -8.239,-15.129 -8.41,-20.477c-0.114,-3.616 0.879,-11.407 4.061,-22.13c0.603,-2.04 1.598,-4.406 2.199,-6.585l0.218,-0.76c1.08,-3.881 2.337,-6.987 0.514,-11.9c-0.751,-2.03 -1.27,-3.052 -2.782,-5.083c-2.241,-3.012 -5.308,-5.644 -7.313,-7.331c-5.112,-4.306 -8.727,-4.291 -12.626,-4.577c-1.049,-0.077 -15.737,5.013 -19.018,4.866c0.579,-0.414 12.222,-7.444 13.485,-7.985c2.467,-1.058 5.547,-3.442 8.342,-4.42c3.86,-1.348 8.975,-2.113 12.094,-2.56c2.967,-0.419 8.293,-0.414 10.683,0.006c2.308,0.409 5.736,1.563 7.883,2.592c6.075,2.92 14.829,10.763 20.202,17.982c1.04,1.393 4.106,6.663 5.366,8.748c5.582,9.249 7.939,16.747 10,26.563c1.02,4.851 0.505,9.6 0.052,13.675c-1.134,10.135 -6.74,18.052 -10.746,22.272c-4.848,5.108 -10.376,7.573 -16.426,7.329c-6.956,-0.28 -12.932,-3.72 -17.778,-10.225z" id="svg_62"/>
      <path fill="#725C90" d="m-292.998,950.465c-3.987,-5.357 -2.447,-12.951 -2.495,-17.165c-0.027,-2.055 6.077,-15.24 7.688,-21.062c1.021,-3.682 3.139,-11.334 0.195,-19.27c-1.003,-2.708 -3.037,-5.122 -4.515,-8.114c-1.7,-3.442 -20.086,-11.997 -23.14,-13.248c0,0 6.011,-1.439 8.579,-1.548c13.811,-3.081 29.494,6.792 35.069,14.76c1.028,1.469 6.853,9.064 7.819,10.518c6.735,10.15 10.565,21.071 12.544,31.099c0.775,3.961 -3.111,10.346 -4.529,14.229c-2.931,8.03 -10.211,14.801 -12.33,16.504c-3.901,3.136 -7.546,4.211 -11.241,4.066c-4.482,-0.185 -10.265,-6.233 -13.644,-10.769z" id="svg_63"/>
     </g>
    </g>
    <g id="svg_64">
     <path fill="#E5DFDE" stroke="#000000" stroke-miterlimit="10" d="m-296.591,911.335c-2.488,1.599 -4.525,6.659 -2.652,9.072c4.451,5.742 24.003,-1.491 23.767,-15.439c-0.099,-6.008 -6.772,-8.878 -5.832,-12.709c0.613,-2.504 0.489,-6.513 -2.44,-10.724c-6.71,-9.655 -20.079,-10.881 -31.124,-9.554c-26.225,3.15 -48.901,27.828 -53.06,53.318c-1.503,9.197 -0.871,17.851 0.568,26.974c1.974,12.567 23.929,55.566 30.892,63.163c8.15,8.892 34.334,33.507 44.392,40.09c10.545,6.906 38.095,11.534 51.511,6.984c1.162,-0.397 -13.471,-15.234 -18.746,-20.261c-5.161,-4.915 -10.968,-9.109 -16.195,-13.957c-8.669,-8.047 -15.406,-17.885 -20.815,-28.361c-3.041,-5.886 -5.663,-11.977 -8.004,-18.177c-2.561,-6.771 -2.38,-12.752 -0.592,-19.701c1.023,-3.964 -1.784,-6.323 -3.319,-9.917c-2.961,-6.922 -4.385,-14.724 -2.798,-22.145c1.793,-8.378 7.454,-14.16 14.447,-18.656z" id="svg_65"/>
     <path fill="#D9E0D1" d="m-336.267,1012.51c-7.802,-10.475 -27.292,-48.881 -29.124,-60.542c-1.67,-10.661 -1.84,-18.539 -0.567,-26.345c4.179,-25.584 27.205,-48.759 51.327,-51.656c7.805,-0.937 21.939,-1.114 28.895,8.236c0.117,0.151 0.231,0.312 0.343,0.478c2.919,4.197 2.47,7.762 2.141,9.1c-0.557,2.284 0.466,4.221 1.681,5.705c2.121,2.593 4.066,5.572 4.097,7.515c0.117,7.103 -5.806,12.381 -11.727,14.465c-3.755,1.321 -7.315,1.202 -8.462,-0.281c-0.314,-0.421 -0.396,-1.169 -0.229,-2.075c0.329,-1.815 3.746,-7.446 3.746,-7.446s-2.874,-0.281 -3.778,-0.012c-9.626,2.886 -13.388,12.066 -15.069,19.92c-1.947,9.111 0.51,17.727 2.913,23.351c0.507,1.183 1.135,2.235 1.685,3.165c1.311,2.218 2.029,3.565 1.541,5.464c-2.061,7.996 -1.866,14.249 0.654,20.912c2.576,6.8 5.226,12.814 8.099,18.386c3.155,6.108 6.608,11.701 10.268,16.61c3.397,4.562 7.085,8.7 10.96,12.298c2.525,2.342 5.202,4.547 7.792,6.682c2.815,2.322 5.728,4.722 8.388,7.252c4.246,4.047 13.366,13.273 17.001,17.59c-13.764,2.891 -40.472,-2.94 -47.286,-7.427c-10.06,-6.629 -40.703,-35.18 -45.289,-41.345z" id="svg_66"/>
     <path fill="#9CB098" d="m-302.006,885.042c1.713,1.029 4.163,4.549 4.776,6.424c1.32,4.061 -1.057,6.748 -4.668,8.216c-3.69,1.495 -7.435,2.697 -10.393,5.471c-11.547,10.844 -13.761,28.181 -13.017,43.191c0.218,4.428 0.694,9.085 1.8,13.389c3.543,13.818 5.14,28.485 12.448,41.019c3.273,5.614 5.93,11.609 9.673,16.917c17.878,25.322 41.252,29.844 40.145,34.556c-0.961,4.075 -8.237,6.416 -11.999,6.234c-1.481,-0.07 -9.557,-1.944 -18.588,-7.18c-8.248,-4.783 -17.283,-12.661 -23.034,-18.608c-1.989,-2.051 -14.315,-14.16 -18.149,-18.458c-11.075,-12.399 -17.115,-28.943 -21.456,-44.933c-1.231,-4.534 -2.896,-9.055 -3.035,-13.752c-0.399,-13.383 1.457,-25.459 7.272,-38.443c1.491,-3.323 4.241,-7.915 6.57,-10.71c3.095,-3.707 7.42,-8.753 11.146,-11.829c5.517,-4.557 12.23,-7.239 18.77,-10.234c1.421,-0.65 2.977,-0.948 4.43,-1.249c-0.001,0 5.606,-1.037 7.309,-0.021z" id="svg_67"/>
     <path fill="#8A7C74" d="m-307.94,891.894c-32.467,11.651 -36.993,47.033 -28.441,77.609c2.296,8.21 6.894,20.412 8.752,26.831c2.272,7.83 7.974,19.153 6.914,19.684c-1.102,0.549 -11.367,-17.593 -13.482,-21.184c-3.925,-6.659 -6.648,-13.959 -8.728,-21.552c-4.221,-15.42 -7.577,-30.401 -2.756,-46.448c2.567,-8.553 8.052,-17.374 13.949,-23.739c3.165,-3.416 7.941,-6.721 12.009,-8.939c3.046,-1.66 12.002,-5.562 12.643,-3.606c0.148,0.455 -0.86,1.344 -0.86,1.344z" id="svg_68"/>
    </g>
    <g id="svg_69">
     <path fill="#E5DFDE" stroke="#000000" stroke-miterlimit="10" d="m-331.786,1020.054c-6.188,0.236 -17.548,-6.264 -22.063,-10.379c-10.04,-9.161 -16.85,-15.838 -16.929,-29.992c-0.022,-4.208 2.723,-14.728 4.168,-18.688c3.511,-9.633 13.304,-20.752 23.807,-21.051c5.42,-0.152 10.098,-2.139 13.986,2.096c3.039,3.306 3.577,11.819 2.615,16.299c-1.304,6.068 -4.019,10.721 -8.683,14.567c-3.752,3.099 -6.25,4.443 -12.244,3.092c-2.637,-0.593 -3.877,-4.879 -4.219,-7.404c-0.273,-2.034 -0.58,-6.182 -3.167,-3.918c-8.283,7.253 -2.038,19.688 2.037,27.428c4.496,8.559 9.235,17.457 16.365,24.154c1.385,1.297 4.327,3.796 4.327,3.796z" id="svg_70"/>
     <path fill="#D9E0D1" d="m-363.148,997.216c-3.855,-5.177 -5.594,-10.586 -5.629,-17.545c-0.024,-3.925 2.645,-14.156 4.042,-17.989c3.388,-9.288 12.757,-19.474 21.991,-19.739c1.37,-0.034 2.66,-0.181 3.915,-0.323c3.999,-0.45 6.369,-0.588 8.538,1.774c0.096,0.106 0.19,0.216 0.278,0.334c2.142,2.88 2.759,9.995 1.857,14.191c-1.218,5.677 -3.761,9.947 -8.002,13.448c-3.42,2.82 -5.329,3.854 -10.532,2.682c-0.376,-0.085 -0.732,-0.47 -0.963,-0.782c-0.943,-1.269 -1.511,-3.456 -1.708,-4.939l-0.056,-0.433c-0.231,-1.847 -0.491,-3.466 -1.332,-4.595c-0.697,-0.933 -1.545,-1.203 -2.131,-1.265c-0.977,-0.104 -1.938,8.931 -1.539,10.167c3.165,9.86 4.169,13.74 8.104,21.216c2.933,5.573 3.958,7.831 8.128,13.43c0,0 3.094,7.284 3.507,7.565c1.801,1.214 -2.053,1.098 -0.327,2.849c-4.178,1.082 -14.59,-6.416 -17.492,-9.062c-4.375,-3.995 -7.937,-7.335 -10.649,-10.984z" id="svg_71"/>
    </g>
   </g>
   <g id="svg_72">
    <g id="svg_73">
     <path fill="#E9E1EE" stroke="#000000" stroke-miterlimit="10" d="m-319.431,1212.761c-0.241,4.077 4.487,10.401 8.133,12.739c3.072,1.971 10.043,1.853 13.335,0.235l0,0c-3.291,1.618 -10.263,1.736 -13.335,-0.235c-3.646,-2.338 -4.47,-7.613 -4.236,-11.698c0.292,-5.073 3.448,-9.057 7.306,-12.14c6.099,-4.869 15.03,-8.732 22.623,-4.572c3.263,1.786 6.972,5.139 9.352,8.032c2.735,3.321 4.224,10.276 4.836,14.706c0.945,6.806 -3.01,18.364 -6.009,21.954c-4.98,5.963 -10.008,10.971 -18.111,13.353c-5.517,1.622 -20.502,0.101 -27.804,-3.393c-4.948,-2.363 -9.46,-9.109 -12.392,-13.767c-1.172,-1.86 -4.991,-7.042 -5.594,-9.043l18.308,-17.133l3.588,0.962z" id="svg_74"/>
     <path fill="#94A4CF" d="m-292.53,1197.324c-4.442,-0.037 -9.703,2.114 -14.448,5.902c-4.133,3.301 -6.34,6.899 -6.558,10.694c-0.102,1.759 -0.164,7.666 3.313,9.895c1.096,0.697 3.141,1.13 5.48,1.148c2.318,0.018 5.975,-0.529 7.294,-1.174l-0.515,1.949c-2.343,1.151 -5.266,1.1 -9.085,1.073c-1.58,-0.012 -3.191,-0.632 -4.25,-1.312c-3.724,-2.389 -7.312,-7.651 -8.133,-12.739l-3.029,1.255l-16.458,15.399c0.837,1.542 2.473,3.929 3.448,5.36c0.597,0.873 1.111,1.626 1.43,2.132c2.028,3.226 6.894,10.534 11.552,13.025c5.967,3.204 18.785,5.136 26.455,3.268c7.627,-1.863 12.233,-6.905 17.073,-12.701c2.708,-3.239 6.279,-14.309 5.565,-20.395c-0.935,-7.916 -2.189,-11.022 -4.401,-13.714c-2.464,-2.989 -7.808,-9.299 -14.733,-9.065z" id="svg_75"/>
    </g>
    <g id="svg_76">
     <g id="svg_77">
      <path fill="#E5DFDE" stroke="#000000" stroke-miterlimit="10" d="m-453.732,1204.083c2.363,2.463 4.975,6.837 7.411,9.181c3.832,3.687 8.235,7.25 12.545,10.426c10.125,7.459 21.605,12.321 33.707,15.1c8.2,1.873 14.22,1.501 22.275,-0.457c2.902,-0.707 11.627,-5.743 11.627,-5.743s1.483,-0.173 2.652,0.67c4.576,3.302 10.35,4.05 15.832,4.399c4.908,0.317 9.969,-0.312 14.489,-2.324c4.87,-2.163 8.948,-5.309 11.964,-9.594c8.848,-12.572 10.262,-27.351 0.812,-40.252c-2.734,-3.725 -2.97,-9.833 -6.721,-12.565c-2.758,-2.003 -5.718,-3.682 -8.657,-5.391c-4.936,-2.868 -9.798,-5.9 -14.914,-8.442c-2.051,-1.017 -4.368,-1.273 -6.44,-2.235c-1.331,-0.623 -2.579,-1.798 -4.08,-1.019c-1.292,0.671 -1.845,2.638 -2.076,3.947c-1.091,6.144 -5.056,11.477 -7.845,16.934c-1.132,2.218 -2.231,4.563 -3.777,6.517c-1.342,1.697 -3.07,2.34 -4.842,3.448c-4.632,2.894 -9.712,5.225 -15,7.144c-5.312,1.933 -10.688,3.881 -16.159,5.33c-6.086,1.611 -12.201,2.211 -18.49,2.25c-8.236,0.051 -16.654,-0.332 -24.156,-4.155c-1.076,-0.547 -2.115,-1.187 -3.226,-1.654c-0.382,-0.162 -3.662,-0.417 -3.721,-0.496c-0.001,0.002 4.019,6.093 6.79,8.981z" id="svg_78"/>
      <path fill="#94A4CF" d="m-360.229,1157.583c-0.021,0.003 -0.048,0.014 -0.081,0.032c-0.245,0.13 -0.745,0.922 -1.027,2.517c-0.85,4.817 -3.204,4.837 -5.551,8.929c-0.86,1.503 -2.223,3.808 -2.962,5.251l-1.301,2.41c-1.02,2.019 -1.633,3.737 -3.101,5.591c-1.244,1.576 -1.884,2.293 -3.28,3.072c-0.423,0.238 -1.186,0.657 -1.616,0.926c-4.426,2.762 -9.847,5.42 -15.624,7.517c-5.264,1.913 -9.825,3.648 -15.448,5.138c-1.647,0.438 -3.383,0.872 -5.105,1.183c-4.281,0.771 -9.018,1.231 -14.094,1.256c-7.887,0.051 -15.51,0.24 -23.614,-3.886c-0.387,-0.199 -3.387,-1.713 -3.77,-1.921c-0.066,-0.038 -3.648,-0.461 -3.72,-0.495c1.162,1.584 4.364,6.331 5.448,7.46c1.194,1.245 2.989,3.412 4.175,5.01c1.265,1.714 13.533,10.984 18.31,14.504c9.418,6.941 22.155,12.293 34.612,15.145c6.151,1.408 18.5,-1.204 20.04,-1.577c1.911,-0.467 12.506,-5.78 12.506,-5.78s9.474,4.992 14.721,5.328c2.702,0.175 8.466,0.508 10.922,0.07c2.059,-0.375 4.004,-0.963 5.783,-1.755c4.701,-2.092 9.175,-5.776 11.869,-9.605c8.909,-12.661 8.167,-25.126 -0.211,-36.563c-1.306,-1.779 -1.751,-4.572 -2.491,-6.629c-0.914,-2.534 -1.784,-4.934 -3.478,-6.167c-2.421,-1.759 -5.088,-3.31 -7.667,-4.809l-0.822,-0.474c-1.203,-0.702 -2.4,-1.406 -3.597,-2.116c-3.634,-2.148 -7.389,-4.373 -11.198,-6.261c-0.898,-0.445 -1.911,-0.732 -2.99,-1.042c-1.114,-0.318 -2.262,-0.642 -3.404,-1.175c-0.342,-0.16 -0.682,-0.352 -1.02,-0.543c-0.38,-0.212 -1.021,-0.576 -1.214,-0.541z" id="svg_79"/>
     </g>
     <path fill="#725C90" d="m-368.87,1221.477c-3.051,1.596 -7.025,3.214 -10.246,3.886c-7.911,1.642 -15.202,3.009 -23.181,1.969c-7.164,-0.927 -14.397,-2.264 -21.398,-4.102c-7.282,-1.906 -14.356,-7.24 -20.702,-11.211c-6.107,-3.819 -11.368,-7.84 -13.3,-15.019c-0.647,-0.32 -1.38,-0.462 -1.888,-0.999c9.531,4.571 19.597,7.959 30.292,7.004c7.13,-0.641 14.334,-1.798 21.354,-3.193c5.017,-0.996 9.391,-2.805 14.054,-4.791c4.958,-2.111 10.343,-3.049 15.216,-5.372c4.91,-2.342 7.739,-6.016 9.48,-11.081c2.982,-8.676 5.151,-21.37 17.037,-20.013c5.797,0.662 13.403,3.96 15.785,9.613c2.1,4.994 2.79,9.153 2.235,13.825c-0.217,1.833 -2.218,6.221 -1.038,7.807c1.396,1.875 3.305,3.309 4.606,5.271c1.436,2.172 2.454,4.583 2.909,7.15c0.885,4.98 -0.173,10.429 -2.699,14.8c-4.667,8.083 -15.964,10.759 -24.673,9.178c-4.761,-0.863 -7.481,-3.741 -9.784,-7.783c-1.145,1.269 -2.535,2.261 -4.059,3.061z" id="svg_80"/>
     <g id="svg_81">
      <path fill="#E5DFDE" stroke="#000000" stroke-miterlimit="10" d="m-320.483,1179.747c-1.3,5.533 -5.765,11.181 -10.211,14.961c-4.185,3.558 -12.596,3.921 -16.714,0.758c-2.737,-2.097 -4.648,-6.431 -3.536,-10.92c0.58,3.18 2.281,6.291 4.889,8.103c6.795,3.855 15.119,-0.69 18.167,-6.322c4.941,-12.065 2.734,-29.958 -9.155,-33.914c-9.91,-3.296 -23.494,0.429 -30.296,10.457c-0.501,-0.689 -0.666,-1.726 -0.384,-3.071c0.627,-3.034 3.247,-4.969 5.337,-7.052c4.473,-4.467 11.562,-5.741 17.681,-6.197c6.019,-0.445 13.526,3.62 17.601,7.462c4.044,3.808 8.948,15.83 6.621,25.735z" id="svg_82"/>
      <path fill="#94A4CF" d="m-336.064,1151.734c10.218,3.601 16.179,22.38 8.635,34.766c-3.055,5.63 -11.144,11.027 -18.915,6.879c-2.609,-1.811 -5.042,-6.3 -4.752,-9.771c0.649,-2.61 2.471,-4.329 5.605,-6.641c0,0 1.979,6.081 4.936,6.733c2.495,0.548 3.948,-3.286 4.618,-5.404c1.078,-3.411 -0.75,-6.969 -2.604,-9.782c-2.687,-4.078 -5.166,-5.906 -9.65,-7.529c-5.587,-2.02 -10.399,1.287 -15.443,2.66c-1.708,0.463 -3.02,0.169 -3.704,-0.774c3.928,-12.058 21.424,-14.613 31.274,-11.137z" id="svg_83"/>
     </g>
     <path fill="#E5DFDE" stroke="#000000" stroke-miterlimit="10" d="m-369.238,1139.4c5.368,4.633 8.338,11.374 8.395,19.729c0.059,8.25 -4.888,16.635 -9.802,23.218c-2.925,3.916 -6.976,7.562 -10.966,10.359c-8.673,6.076 -19.986,11.141 -30.366,14.076c-9.944,2.804 -22.071,3.643 -32.021,0.507c-2.607,-0.822 -5.233,-2.002 -7.525,-3.495c-2.599,-1.695 -5.127,-3.952 -7.073,-6.375c-2.408,-2.991 -4.574,-6.369 -6.354,-9.772c-1.422,-2.721 -2.694,-5.527 -3.829,-8.375c-1.393,-3.494 -2.281,-6.662 -2.646,-10.42c-0.173,-1.747 -0.125,-5.958 -2.429,-6.464c3.813,0.838 7.628,14.529 11.911,17.987c3.416,2.76 7.84,3.706 12.127,3.935c4.67,0.244 10.464,-0.12 14.712,-2.241c3.704,-1.85 5.908,-5.5 7.763,-9.043c2.482,-4.737 4.405,-9.741 6.237,-14.756c1.677,-4.596 3.211,-9.515 6.671,-13.125c9.298,-9.711 30.609,-18.343 45.195,-5.745z" id="svg_84"/>
     <path fill="#5E5264" d="m-449.802,1207.102c3.464,3.843 9.668,6.204 14.446,8.323c10.98,4.865 21.981,6.243 34.033,6.031c10.296,-0.175 23.06,-4.143 32.519,-8.442c4.116,-1.872 8.626,-5.192 9.734,-9.889c1.856,-7.894 -4.116,-6.293 -7.821,-4.857c-5.127,1.982 -8.436,6.163 -13.532,8.534c-5.569,2.584 -15.768,5.734 -21.865,6.476c-11.748,1.427 -23.359,0.487 -34.109,-5.045c-7.647,-3.931 -22.748,-12.868 -24.123,-13.127c-0.003,-0.002 8.361,9.383 10.718,11.996z" id="svg_85"/>
     <path fill="#94A4CF" d="m-391.786,1137.889c-8.902,1.604 -16.358,5.409 -20.139,9.2c-2.553,2.56 -7.153,8.929 -12.16,18.922c-0.957,1.904 -1.848,4.315 -2.894,6.317l-0.363,0.701c-1.866,3.571 -3.07,6.694 -7.762,9.04c-1.935,0.966 -3.013,1.358 -5.504,1.81c-3.696,0.667 -7.73,0.487 -10.349,0.348c-6.674,-0.348 -9.304,-2.833 -12.342,-5.29c-0.819,-0.66 -8.06,-14.413 -10.557,-16.547c0.14,0.699 3.834,13.787 4.387,15.045c1.073,2.462 1.695,6.301 3.069,8.927c1.893,3.624 5.106,7.678 7.08,10.134c1.876,2.334 5.765,5.975 7.796,7.301c1.966,1.279 5.251,2.782 7.527,3.494c6.428,2.028 18.18,2.282 27.04,0.69c1.708,-0.309 7.545,-2.056 9.894,-2.722c10.396,-2.938 17.243,-6.797 25.454,-12.55c4.059,-2.846 6.932,-6.664 9.384,-9.949c6.105,-8.172 7.426,-17.779 7.386,-23.599c-0.05,-7.045 -2.402,-12.62 -6.984,-16.579c-5.268,-4.554 -11.98,-6.129 -19.963,-4.693z" id="svg_86"/>
     <path fill="#725C90" d="m-394.369,1147.162c-6.573,1.186 -10.64,7.781 -13.558,10.826c-1.417,1.481 -5.977,15.276 -8.781,20.626c-1.773,3.385 -5.46,10.415 -13.031,14.197c-2.585,1.29 -5.719,1.663 -8.842,2.838c-3.596,1.349 -22.861,-4.971 -25.948,-6.144c0,0 3.402,5.158 5.207,6.99c7.974,11.691 26.165,15.207 35.683,13.2c1.753,-0.367 11.199,-1.928 12.899,-2.333c11.852,-2.802 22.114,-8.156 30.41,-14.125c3.276,-2.357 4.8,-9.675 6.421,-13.475c3.35,-7.866 2.666,-17.789 2.284,-20.482c-0.702,-4.954 -2.625,-8.231 -5.429,-10.647c-3.39,-2.935 -11.75,-2.473 -17.315,-1.471z" id="svg_87"/>
    </g>
    <g id="svg_88">
     <path fill="#E5DFDE" stroke="#000000" stroke-miterlimit="10" d="m-423.74,1173.267c-0.724,-2.87 1.247,-7.957 4.269,-8.438c7.172,-1.148 16.498,17.498 6.792,27.522c-4.177,4.317 -11.01,1.844 -12.941,5.289c-1.264,2.244 -4.097,5.084 -9.111,6.158c-11.498,2.454 -22.094,-5.787 -29.247,-14.301c-16.989,-20.224 -16.668,-53.739 -2.283,-75.187c5.191,-7.74 11.568,-13.619 18.85,-19.302c10.032,-7.825 55.451,-24.199 65.724,-24.985c12.025,-0.916 47.964,-0.984 59.805,1.083c12.413,2.167 35.688,17.619 42.374,30.119c0.575,1.078 -20.25,1.908 -27.539,1.972c-7.126,0.061 -14.23,-0.853 -21.36,-0.885c-11.83,-0.054 -23.471,2.526 -34.58,6.476c-6.242,2.217 -12.321,4.875 -18.264,7.792c-6.501,3.192 -10.459,7.682 -13.9,13.978c-1.964,3.596 -5.624,3.395 -9.201,4.966c-6.895,3.033 -13.267,7.751 -17.18,14.254c-4.419,7.336 -4.241,15.428 -2.208,23.489z" id="svg_89"/>
     <path fill="#D9E0D1" d="m-383.539,1072.297c-12.854,2.315 -53.333,17.024 -62.644,24.29c-8.504,6.634 -14.013,12.268 -18.419,18.835c-14.439,21.533 -13.474,54.184 2.154,72.789c5.055,6.019 15.252,15.808 26.722,13.741c0.19,-0.035 0.384,-0.069 0.575,-0.112c4.998,-1.07 7.109,-3.978 7.784,-5.18c1.152,-2.053 3.221,-2.765 5.123,-3.018c3.32,-0.44 6.779,-1.288 8.128,-2.684c4.942,-5.103 4.226,-13.005 1.326,-18.572c-1.836,-3.531 -4.514,-5.875 -6.367,-5.58c-0.514,0.093 -1.088,0.586 -1.583,1.36c-1,1.55 -2.355,7.991 -2.355,7.991s-2.291,-1.755 -2.768,-2.569c-5.052,-8.687 -1.527,-17.96 2.618,-24.845c4.804,-7.978 12.489,-12.59 18.086,-15.047c1.177,-0.519 2.354,-0.862 3.391,-1.165c2.475,-0.717 3.921,-1.21 4.863,-2.935c3.96,-7.243 8.38,-11.676 14.767,-14.814c6.533,-3.202 12.579,-5.781 18.484,-7.88c6.479,-2.302 12.822,-4.02 18.848,-5.107c5.598,-1.008 11.119,-1.506 16.408,-1.484c3.442,0.016 6.905,0.238 10.255,0.445c3.639,0.231 7.406,0.474 11.082,0.439c5.866,-0.05 18.825,-0.545 24.426,-1.218c-8.066,-11.513 -31.546,-25.521 -39.585,-26.9c-11.875,-2.036 -53.759,-2.142 -61.319,-0.78z" id="svg_90"/>
     <path fill="#9CB098" d="m-445.664,1188.754c1.954,0.427 6.15,-0.472 7.876,-1.423c3.742,-2.058 3.845,-5.647 2.208,-9.188c-1.669,-3.612 -3.581,-7.05 -3.841,-11.098c-1.018,-15.803 9.22,-29.972 20.021,-40.42c3.186,-3.083 6.716,-6.159 10.466,-8.547c12.03,-7.661 23.226,-17.271 37.124,-21.427c6.225,-1.861 12.263,-4.422 18.625,-5.734c30.354,-6.26 50.506,6.41 52.92,2.216c2.086,-3.629 -1.63,-10.316 -4.495,-12.752c-1.128,-0.959 -8.306,-5.112 -18.475,-7.463c-9.292,-2.145 -21.271,-2.57 -29.535,-2.165c-2.851,0.136 -20.129,0.552 -25.863,1.065c-16.558,1.487 -32.277,9.43 -46.375,18.128c-3.997,2.469 -8.306,4.633 -11.615,7.965c-9.438,9.496 -16.341,19.579 -20.969,33.029c-1.184,3.443 -2.317,8.677 -2.526,12.31c-0.277,4.824 -0.566,11.458 0.047,16.25c0.911,7.101 3.982,13.644 6.707,20.3c0.592,1.449 1.525,2.735 2.379,3.942c0,0.002 3.384,4.591 5.321,5.012z" id="svg_91"/>
     <path fill="#8A7C74" d="m-445.31,1179.697c-15.735,-30.695 5.149,-59.615 32.289,-76.087c7.287,-4.426 18.983,-10.185 24.728,-13.598c7.009,-4.162 18.913,-8.53 18.5,-9.641c-0.427,-1.158 -20.319,5.068 -24.317,6.244c-7.418,2.178 -14.397,5.642 -21.103,9.764c-13.622,8.375 -26.315,17.018 -33.765,32.019c-3.972,8.001 -5.997,18.185 -6.041,26.863c-0.026,4.656 1.198,10.332 2.652,14.736c1.09,3.29 4.958,12.263 6.761,11.271c0.423,-0.228 0.296,-1.571 0.296,-1.571z" id="svg_92"/>
    </g>
    <g id="svg_93">
     <path fill="#E5DFDE" stroke="#000000" stroke-miterlimit="10" d="m-375.113,1069.856c-4.353,-4.406 -17.091,-7.431 -23.2,-7.509c-13.588,-0.173 -23.123,0.042 -32.859,10.325c-2.89,3.05 -8.078,12.608 -9.731,16.484c-4.02,9.431 -4.473,24.239 2.992,31.637c3.852,3.819 5.907,8.463 11.639,8.036c4.477,-0.34 10.691,-6.188 13.048,-10.107c3.197,-5.319 4.395,-10.575 3.621,-16.575c-0.625,-4.825 -1.52,-7.511 -6.825,-10.623c-2.329,-1.369 -6.166,0.907 -8.138,2.523c-1.588,1.299 -4.651,4.112 -4.989,0.697c-1.091,-10.961 11.97,-15.765 20.231,-18.634c9.135,-3.172 18.672,-6.43 28.456,-6.441c1.899,0.001 5.755,0.187 5.755,0.187z" id="svg_94"/>
     <path fill="#D9E0D1" d="m-413.616,1065.084c-6.348,1.143 -11.315,3.906 -16.101,8.96c-2.699,2.853 -7.744,12.145 -9.346,15.896c-3.876,9.094 -4.001,22.931 2.56,29.434c0.977,0.967 1.819,1.958 2.631,2.914c2.617,3.067 4.251,4.788 7.45,4.547c0.142,-0.012 0.285,-0.032 0.428,-0.055c3.535,-0.638 8.845,-5.408 11.058,-9.09c2.988,-4.975 4.054,-9.832 3.349,-15.283c-0.566,-4.399 -1.259,-6.459 -5.852,-9.157c-0.336,-0.195 -0.859,-0.157 -1.237,-0.089c-1.56,0.28 -3.466,1.488 -4.629,2.437l-0.331,0.276c-1.433,1.191 -2.731,2.193 -4.118,2.442c-1.144,0.208 -1.947,-0.175 -2.418,-0.531c-0.784,-0.592 4.69,-7.84 5.828,-8.475c9.049,-5.031 12.436,-7.175 20.415,-9.945c5.949,-2.067 8.242,-3.006 15.11,-4.245c0,0 7.238,-3.202 7.733,-3.122c2.142,0.343 -0.745,-2.207 1.707,-2.303c-2.308,-3.65 -15.035,-5.295 -18.961,-5.345c-5.919,-0.076 -10.8,-0.072 -15.276,0.734z" id="svg_95"/>
    </g>
   </g>
   <g id="svg_96">
    <path fill="#E9E1EE" stroke="#000000" stroke-miterlimit="10" d="m-329.552,1058.139c-3.357,6.176 -18.615,9.827 -25.758,6.647c-4.772,-2.124 -15.227,-7.524 -17.056,-12.206c-2.051,-5.242 2.088,-12.817 6.809,-12.581c-1.015,-5.268 3.582,-15.932 17.525,-11.806c10.19,3.018 22.388,22.753 18.48,29.946z" id="svg_97"/>
    <path fill="#F8ECCF" d="m-368.247,1051.772c-0.261,-0.352 -0.361,-0.569 -0.392,-0.643c-0.61,-1.571 -0.249,-4.07 1.126,-5.741c2.231,-2.712 6.847,-1.138 6.847,-1.138l-0.963,-5.004c-0.305,-1.592 0.791,-5.754 3.499,-7.779c0.788,-0.586 3.159,-2.36 8.259,0.28c1.528,0.79 9.852,5.824 14.149,11.599c5.955,7.996 3.146,11.981 2.65,12.887c-2.118,3.902 -14.799,7.49 -20.609,4.9c-5.475,-2.44 -12.365,-6.405 -14.566,-9.361z" id="svg_98"/>
   </g>
   <g id="svg_99">
    <path fill="#98ABBA" d="m-303.306,1048.883c4.568,-0.933 9.047,-1.453 12.016,-2.014c6.016,-1.139 12.073,-2.032 18.11,-3.059c9.001,-1.539 18.276,-3.374 27.419,-1.989c13.206,2.008 26.051,11.69 36.853,19.211c7.543,5.251 15.26,10.574 22.03,16.805c9.403,8.658 25.059,23.106 17.751,37.213c-3.927,7.587 -10.234,14.295 -17.805,18.273c-8.504,4.462 -18.204,2.46 -27.04,0.234c-17.873,-4.494 -36.882,-4.562 -54.906,-8.965c-11.192,-2.733 -21.667,-7.854 -29.532,-16.431c-6.735,-7.342 -10.519,-16.898 -14.385,-25.936c-2.862,-6.678 -9.429,-15.773 -7.606,-23.355c1.619,-6.741 11.368,-8.819 17.095,-9.987z" id="svg_100"/>
    <g id="svg_101">
     <path fill="#E9E1EE" stroke="#000000" stroke-miterlimit="10" d="m-190.668,1008.22c-20.917,-11.699 -46.445,-13.184 -69.03,-4.179c-7.083,2.825 -14.165,6.925 -20.293,11.45c-6.788,5.007 -13.112,10.604 -19.62,15.96c-4.401,3.619 -10.994,12.016 -17.179,6.892c-6.766,-5.607 1.309,-12.95 0.541,-19.352c-1.987,-16.593 -23.516,-19.174 -32.363,-5.632c-6.421,9.826 12.064,40.806 24.063,44.573c12.268,3.85 24.734,-0.621 36.613,-4.661c10.521,-3.578 23.531,-6.46 35.278,-3.407c19.31,5.015 27.754,7.482 42.117,23.084c9.39,10.194 27.699,25.694 38.872,33.876c6.541,4.791 14.056,8.404 19.503,-0.214c4.183,-6.61 3.479,-14.712 2.65,-22.125c-3.315,-29.694 -13.591,-60.841 -41.152,-76.265z" id="svg_102"/>
     <path fill="#A5B0D4" d="m-200.441,1007.249c-18.822,-10.532 -44.414,-5.203 -64.745,2.904c-6.369,2.538 -9.519,5.874 -15.035,9.949c-6.109,4.508 -12.346,9.311 -17.85,14.536c-6.085,5.776 -14.451,9.54 -20.02,4.93c-6.092,-5.049 -0.373,-14.643 -1.057,-20.405c-1.793,-14.93 -19.488,-16.685 -27.456,-4.494c-5.776,8.841 11.177,37.186 22.387,38.754c20.1,2.821 27.117,0.537 38.564,-4.344c18.294,-7.8 56.134,-1.065 77.456,20.772c4.603,4.711 9.858,9.144 14.418,13.884c8.817,9.175 18.263,17.653 30.291,21.918c2.315,0.819 6.481,2.459 8.235,-0.312c3.757,-5.946 3.377,-21.055 2.632,-27.725c-2.983,-26.723 -23.013,-56.485 -47.82,-70.367z" id="svg_103"/>
    </g>
    <g id="svg_104">
     <path fill="#E9E1EE" stroke="#000000" stroke-miterlimit="10" d="m-320.319,1142.625c-3.504,-6.768 -6.454,-17.439 -7.764,-24.943c-1.456,-8.308 0.508,-17.588 0.548,-26.615c0.024,-5.699 1.171,-11.539 -6.837,-12.099c-8.774,-0.611 -11.176,5.961 -16.145,10.063c-12.89,10.633 -30.256,-2.351 -27.312,-18.262c1.655,-8.915 13.124,-12.598 20.622,-14.624c7.892,-2.133 19.825,-4.825 27.552,-1.02c10.147,4.993 18.809,11.87 22.399,22.475c3.826,11.311 8.639,24.227 17.618,32.004c9.002,7.79 23.159,8.259 34.738,10.269c8.558,1.489 17.249,0.684 25.874,0.416c13.66,-0.427 26.957,2.04 40.358,4.336c8.219,1.41 19.639,2.868 17.359,14.232c-1.54,7.665 -7.321,11.786 -14.196,14.683c-13.241,5.583 -22.19,11.239 -31.636,15.726c-8.014,3.806 -20.001,10.855 -28.12,13.893c-18.094,6.77 -56.123,-3.934 -75.058,-40.534z" id="svg_105"/>
     <path fill="#A5B0D4" d="m-342.849,1056.545c-6.715,0.349 -23.611,4.796 -28.433,8.702c-6.347,5.145 -6.39,11.094 -2.417,18.008c4.159,7.246 12.525,8.506 18.818,5.83c5.209,-2.213 12.325,-12.893 19.803,-12.052c15.649,1.763 8.32,21.227 8.221,31.882c-0.113,12.547 4.879,27.013 10.589,37.755c6.402,12.044 18.51,24.207 31.661,29.412c12.663,5.015 26.716,5.801 39.442,3.057c7.787,-1.678 14.571,-4.955 21.217,-8.945c10.084,-6.048 22.154,-8.795 32.446,-14.438c5.738,-3.153 14.421,-8.005 17.223,-14.233c1.215,-2.695 0.507,-6.814 -1.505,-9.056c-8.138,-9.058 -21.6,-8.032 -32.629,-8.728c-8.502,-0.54 -17.047,-2.068 -25.58,-1.161c-5.444,0.578 -11.113,0.384 -16.624,0.358c-9.71,-0.041 -30.162,-0.496 -47.535,-19.466c-10.703,-11.694 -6.311,-25.226 -21.82,-38.055c-8.304,-6.875 -16.352,-9.209 -22.877,-8.87z" id="svg_106"/>
    </g>
   </g>
   <g id="svg_107">
    <g id="svg_108">
     <path fill="#E9E1EE" stroke="#000000" stroke-miterlimit="10" d="m-241.55,1163.473c-8.091,-5.866 -18.826,-8.023 -28.359,-9.237c-3.616,-0.457 -10.946,-0.71 -14.598,-0.35c-4.799,0.472 -18.152,0.737 -24.498,-1.087c-2.532,-0.728 -7.883,-4.154 -7.883,-4.154c0.176,6.774 8.227,17.572 9.856,19.141c2.768,2.681 10.607,8.032 16.507,10.806c11.435,5.385 32.853,7.36 42.296,5.529c5.442,-1.06 14.029,-5.649 20.954,-10.808c-3.307,-4.444 -11.401,-7.762 -14.275,-9.84z" id="svg_109"/>
     <path fill="#F8ECCF" d="m-242.678,1163.797c-7.285,-5.278 -17.953,-7.535 -26.536,-8.623c-3.255,-0.413 -10.263,-0.52 -13.548,-0.199c-4.322,0.424 -18.129,1.016 -23.788,0.986c-3.272,-0.02 -7.973,-4.038 -7.973,-4.038c3.226,6.794 8.205,12.9 9.437,14.091c2.491,2.411 11.782,8.019 17.093,10.518c10.291,4.846 30.94,7.199 39.437,5.549c4.899,-0.952 11.766,-5.539 18.513,-8.484c-2.981,-4.004 -10.054,-7.931 -12.635,-9.8z" id="svg_110"/>
    </g>
    <g id="svg_111">
     <path fill="#E9E1EE" stroke="#000000" stroke-miterlimit="10" d="m-198.741,1159.12c0,0 -5.431,-5.669 -6.197,-6.354c-3.646,-3.247 -7.534,-6.543 -12.02,-8.339c-4.737,-1.903 -10.082,-4.118 -15.147,-4.721c-7.333,-0.874 -13.846,0.947 -21.042,2.156c-4.094,0.686 -16.187,2.257 -19.036,1.583c-2.257,-0.532 -12.195,-2.224 -12.195,-2.224c1.176,4.255 0.047,6.336 4.007,12.704c3.508,5.636 7.457,11.199 12.954,14.934c3.172,2.158 6.82,4.051 10.444,5.344c5.357,1.91 12.231,5.294 17.951,5.036c6.806,-0.308 13.543,-0.662 20.472,-2.073c4.383,-0.89 10.467,-4.895 15.196,-6.939c2.036,-0.881 7.566,-6.365 9.622,-7.21c2.178,-0.899 -5.009,-3.897 -5.009,-3.897z" id="svg_112"/>
     <path fill="#F8ECCF" d="m-274.666,1158.82c-1.243,-1.661 -2.512,-3.553 -4.005,-5.953c-2.507,-4.029 -2.771,-6.048 -3.073,-8.392c-0.036,-0.259 -0.069,-0.521 -0.106,-0.79c3.098,0.54 7.786,1.369 9.204,1.704c4.007,0.948 19.673,-1.529 19.83,-1.554c1.494,-0.253 2.965,-0.529 4.415,-0.801c5.421,-1.03 10.543,-1.998 16.058,-1.344c4.565,0.543 9.559,2.55 13.962,4.319l0.683,0.274c4.157,1.666 7.924,4.854 11.426,7.979c0.518,0.46 4.008,4.074 6.089,6.245l0.288,0.299l0.387,0.162c1.053,0.439 2.145,0.97 2.982,1.441c-0.92,0.678 -2.026,1.592 -3.389,2.737c-1.477,1.235 -3.495,2.929 -4.234,3.248c-1.768,0.764 -3.727,1.798 -5.622,2.793c-3.269,1.724 -6.655,3.51 -9.179,4.022c-6.562,1.339 -13.014,1.716 -20.161,2.036c-4.059,0.183 -9.063,-1.78 -13.477,-3.508c-1.289,-0.505 -2.536,-0.994 -3.715,-1.416c-3.395,-1.208 -6.848,-2.975 -9.992,-5.11c-2.902,-1.981 -5.645,-4.725 -8.371,-8.391l0,0z" id="svg_113"/>
    </g>
    <g id="svg_114">
     <path fill="#E9E1EE" stroke="#000000" stroke-miterlimit="10" d="m-232.553,1038.442c0,0 6.818,-3.892 7.754,-4.332c10.625,-5.001 22.848,-6.211 34.214,-3.247c9.795,2.558 19.534,7.545 27.177,14.209c5.197,4.537 8.903,10.228 11.995,16.333c5.693,11.237 8.717,18.374 8.201,35.25c0,0 -14.704,-14.611 -23.211,-19.152c-7.735,-4.14 -23.112,-7.092 -31.504,-9.998c-6.438,-2.228 -10.708,-6.293 -14.98,-11.44c-3.29,-3.965 -6.929,-7.603 -10.879,-10.91c-1.704,-1.421 -3.467,-2.771 -5.246,-4.095c-0.448,-0.339 -3.521,-2.618 -3.521,-2.618z" id="svg_115"/>
     <path fill="#F8ECCF" d="m-228.899,1038.666c2.228,-1.261 4.514,-2.541 4.95,-2.745c10.307,-4.85 21.978,-5.96 32.862,-3.121c9.713,2.534 19.074,7.429 26.365,13.784c2.117,1.847 4.04,3.946 5.875,6.411c1.96,2.627 3.806,5.674 5.648,9.315c4.913,9.7 7.88,16.258 8.035,29.688c-4.906,-4.634 -14.092,-12.929 -20.317,-16.259c-5.143,-2.752 -13.458,-4.981 -20.797,-6.944c-4.13,-1.107 -8.033,-2.151 -10.996,-3.18c-5.955,-2.06 -9.937,-5.819 -14.095,-10.823c-3.326,-4.016 -7.072,-7.773 -11.136,-11.169c-1.847,-1.543 -3.73,-2.973 -5.328,-4.167c-0.146,-0.111 -0.563,-0.42 -1.066,-0.79z" id="svg_116"/>
    </g>
    <g id="svg_117">
     <path fill="#E9E1EE" stroke="#000000" stroke-miterlimit="10" d="m-260.503,1101.42c1.757,3.797 4.551,7.337 7.565,10.183c5.43,5.146 12.018,8.975 18.053,13.369c9.886,7.199 51.773,20.086 66.679,21.378c0.492,0.047 33.699,-14.1 26.511,-9.962c-1.755,-11.158 -2.831,-21.486 -27.197,-30.453c-14.391,-5.294 -33.162,-9.351 -48.297,-10.57c-11.036,-0.89 -22.44,1.23 -33.414,-1.007c-4.279,-0.873 -8.12,-2.8 -11.435,-5.152c-0.099,1.682 0.47,9.915 1.535,12.214z" id="svg_118"/>
     <path fill="#F8ECCF" d="m-255.723,1105.489c-1.213,-1.624 -2.206,-3.28 -2.965,-4.911c-0.528,-1.141 -0.98,-4.75 -1.209,-7.643c2.902,1.637 5.883,2.769 8.895,3.382c6.717,1.37 13.584,1.161 20.219,0.964c4.441,-0.136 9.036,-0.275 13.434,0.077c15.052,1.212 33.797,5.318 47.764,10.455c10.168,3.74 16.94,8.016 20.703,13.078c3.337,4.482 4.192,9.323 4.996,14.435c2.256,-1.247 -30.672,8.468 -24.147,9.033c14.393,1.243 -56.07,-14.01 -65.672,-21c-1.893,-1.38 -3.862,-2.715 -5.763,-4.01c-4.16,-2.829 -8.462,-5.754 -12.099,-9.197c-1.546,-1.465 -2.943,-3.032 -4.156,-4.663l0,0z" id="svg_119"/>
    </g>
    <g id="svg_120">
     <path fill="#E9E1EE" stroke="#000000" stroke-miterlimit="10" d="m-253.233,1113.978c18.58,0.935 33.161,1.284 52.513,8.694c5.766,2.205 32.28,14.727 40.245,22.403c-4.161,5.713 -23.565,15.152 -26.99,16.353c-16.508,5.79 -39.315,-0.513 -55.297,-7.972c-8.815,-4.116 -16.38,-11.859 -22.959,-18.958c-6.404,-6.915 -12.214,-12.958 -17.242,-20.471c2.558,-0.958 20.84,-0.496 29.73,-0.049z" id="svg_121"/>
     <path fill="#F8ECCF" d="m-250.227,1116.666c16.723,0.843 32.937,4.009 47.772,8.86c6.903,2.26 31.011,12.977 38.177,19.882c-8.767,4.971 -23.241,12.84 -30.479,14.044c-15.529,2.582 -31.662,-0.543 -46.049,-7.256c-7.932,-3.7 -14.745,-10.672 -20.661,-17.061c-5.762,-6.223 -10.992,-11.66 -15.515,-18.426c2.303,-0.861 18.753,-0.445 26.755,-0.043z" id="svg_122"/>
    </g>
    <g id="svg_123">
     <path fill="#E9E1EE" stroke="#000000" stroke-miterlimit="10" d="m-240.935,998.332c5.006,-0.216 12.72,-1.418 17.745,-1.156c8.894,0.456 17.878,2.214 25.965,6.017c14.246,6.693 39.213,24.683 52.628,54.106c2.886,6.336 4.777,13.086 5.027,20.068c0.261,7.304 -1.289,18.14 -3.927,23.404c-1.344,-0.55 -7.837,-24.435 -16.641,-36.79c-7.028,-9.861 -12.98,-15.796 -23.224,-21.24c-11.185,-5.944 -28.388,-7.681 -38.479,-15.376c-7.923,-6.04 -12.914,-14.83 -20.138,-21.396c-1.968,-1.794 -5.946,-2.711 -7.405,-4.656c0.386,-0.056 6.358,-2.888 8.449,-2.981z" id="svg_124"/>
     <path fill="#F8ECCF" d="m-245.253,1001.776c1.645,-0.669 3.621,-1.412 4.405,-1.442c1.927,-0.084 4.195,-0.308 6.593,-0.541c3.913,-0.379 7.967,-0.777 10.963,-0.619c9.544,0.492 18.029,2.451 25.215,5.831c11.157,5.241 27.589,16.905 40.253,33.916c4.525,6.073 8.363,12.537 11.407,19.21c2.994,6.571 4.621,13.064 4.85,19.306c0.182,5.169 -0.61,12.586 -2.116,18.042c-0.319,-0.853 -0.655,-1.773 -0.986,-2.683c-2.942,-8.08 -7.878,-21.602 -13.845,-29.975c-0.567,-0.797 -1.134,-1.57 -1.691,-2.323c-6.834,-9.183 -13.067,-14.657 -22.223,-19.524c-4.942,-2.625 -11.036,-4.465 -16.932,-6.24c-7.751,-2.345 -15.77,-4.764 -21.274,-8.956c-4.263,-3.25 -7.761,-7.481 -11.148,-11.57c-2.743,-3.315 -5.581,-6.741 -8.853,-9.721c-1.102,-0.997 -2.548,-1.7 -3.946,-2.38c-0.222,-0.107 -0.45,-0.218 -0.672,-0.331z" id="svg_125"/>
    </g>
    <g id="svg_126">
     <path fill="#E9E1EE" stroke="#000000" stroke-miterlimit="10" d="m-250.737,1050.139c5.026,7.517 10.838,13.556 17.242,20.471c6.573,7.103 14.145,14.846 22.954,18.96c15.984,7.456 58.876,25.381 65.129,22.801c6.368,-16.382 -4.378,-36.376 -13.294,-46.832c-13.445,-15.77 -43.719,-14.514 -62.3,-15.449c-8.894,-0.444 -27.172,-0.912 -29.731,0.049z" id="svg_127"/>
     <path fill="#F8ECCF" d="m-247.207,1051.699c5.4,-0.263 16.994,-0.069 26.101,0.39c2.389,0.123 4.953,0.204 7.666,0.291c17.749,0.581 42.058,1.377 53.213,14.455c0.871,1.024 1.744,2.12 2.596,3.263c8.216,11.035 15.219,27.353 10.708,40.574c-6.866,0.524 -41.297,-12.893 -62.769,-22.916c-8.45,-3.939 -15.959,-11.623 -22.336,-18.507l-1.75,-1.883c-4.598,-4.949 -8.943,-9.629 -12.803,-14.81c0,0.001 -0.421,-0.57 -0.626,-0.857z" id="svg_128"/>
    </g>
    <g id="svg_129">
     <path fill="#E9E1EE" stroke="#000000" stroke-miterlimit="10" d="m-228.278,1070.468c18.581,0.936 32.935,1.903 52.512,8.693c14.822,5.141 33.021,23.816 31.007,43.068c-15.535,-5.241 -57.069,-4.824 -73.054,-12.287c-8.812,-4.112 -15.485,-12.803 -22.956,-18.956c-4.63,-3.818 -11.396,-5.437 -22.083,-9.326c14.876,-7.646 20.584,-11.896 34.574,-11.192z" id="svg_130"/>
     <path fill="#F8ECCF" d="m-256.416,1080.555c10.958,-5.774 16.464,-8.673 28.037,-8.089c19.794,0.992 33.167,2.071 51.955,8.586c7.76,2.691 16.16,9.172 21.923,16.915c3.771,5.056 8.017,12.757 7.894,21.625c-7.221,-1.913 -17.998,-3.008 -29.331,-4.155c-15.936,-1.617 -32.413,-3.288 -41.026,-7.309c-5.582,-2.605 -10.432,-7.313 -15.124,-11.871c-2.394,-2.319 -4.863,-4.723 -7.409,-6.821c-3.803,-3.128 -8.779,-4.841 -15.67,-7.199c-0.85,-0.296 -1.749,-0.602 -2.688,-0.927c0.493,-0.257 0.971,-0.508 1.439,-0.755z" id="svg_131"/>
    </g>
   </g>
   <g id="svg_132">
    <g id="svg_133">
     <g id="svg_134">
      <path fill="#E9E1EE" stroke="#000000" stroke-miterlimit="10" d="m-92.99,1229.461c-1.303,-3.489 -22.308,-24.097 -26.072,-24.93c-18.383,-4.048 -39.744,-7.226 -56.428,1.275c-12.058,6.134 -20.811,17.027 -21.841,28.475c-0.539,6.024 0.448,14.944 4.157,20.489c6.306,9.432 15.446,16.785 28.34,19.822c11.695,2.75 28.884,0.313 38.724,-5.018c13.643,-7.396 16.215,-23.091 10.097,-33.933c-2.269,-4.014 -6.776,-9.926 -14.729,-11.603c-6.258,-1.316 -22.131,0.745 -25.465,5.047c0.141,-1.595 9.504,-7.335 11.578,-8.073c5.189,-1.844 17.579,-0.539 21.706,0.985c9.947,3.661 29.475,14.36 36.267,20.251l-6.334,-12.787z" id="svg_135"/>
      <path fill="#94A4CF" d="m-143.21,1205.166c8.313,0.63 16.55,2.292 22.79,3.667c0.684,0.148 1.479,0.301 2.335,0.462c1.432,0.267 24.388,17.305 25.699,17.922l-0.044,8.559c-2.644,-0.628 -20.134,-11.971 -26.341,-14.383c-7.425,-2.883 -22.323,-4.47 -26.981,-1.882c-7.067,3.929 -12.109,9.899 -11.204,10.643c0.684,0.556 11.45,-5.527 18.385,-4.271c6.318,1.142 14.982,3.198 19.009,10.565c4.89,8.935 1.611,23.179 -9.918,29.424c-7.062,3.831 -18.746,5.987 -28.416,5.253c-1.994,-0.149 -3.84,-0.419 -5.484,-0.809c-10.275,-2.416 -18.609,-8.306 -24.755,-17.492c-2.962,-4.434 -3.997,-12.437 -3.49,-18.058c0.873,-9.753 8.478,-19.638 19.377,-25.189c7.593,-3.872 17.099,-5.314 29.038,-4.411z" id="svg_136"/>
     </g>
     <g id="svg_137">
      <path fill="#E9E1EE" stroke="#000000" stroke-miterlimit="10" d="m-184.014,1299.675c-4.987,-3.364 -19.23,-22.385 -20.826,-30.764c4.891,-4.452 10.559,-11.445 13.848,-17.479c4.001,16.309 22.649,23.118 28.024,23.435c-1.124,-8.173 -0.638,-12.596 6.081,-19.181c13.325,-13.063 32.685,-2.425 34.674,12.877c3.77,29.03 -40.251,45.64 -61.801,31.112z" id="svg_138"/>
      <path fill="#94A4CF" d="m-145.071,1297.567c-11.23,4.965 -24.632,9.135 -36.454,3.884c-5.036,-2.245 -21.122,-23.117 -23.312,-32.537c3.964,-3.673 11.813,-12.826 14.386,-17.881c0.862,9.485 17.334,25.662 28.17,25.344c4.294,11.142 12.298,9.715 17.89,5.729c-13.88,2.928 -21.21,-9.643 -11.652,-20.581c10.22,-11.853 22.388,-8.013 27.676,0.48c8.465,13.8 -2.762,27.919 -16.704,35.562z" id="svg_139"/>
      <path fill="none" stroke="#000000" stroke-miterlimit="10" d="m-144.39,1282.106c-12.884,9.326 -20.124,-3.521 -18.788,-16.031" id="svg_140"/>
     </g>
     <g id="svg_141">
      <path fill="#7B5A62" d="m-49.417,1356.86l0.291,-1.328c6.347,-16.842 -14.893,-76.129 -25.396,-93.256c-9.331,-15.222 -27.31,-33.646 -42.753,-43.809c-24.02,-15.808 -56.145,-24.161 -69.913,-5.149c-2.873,3.968 -4.906,9.056 -6.039,15.128c-2.226,11.914 0.504,16.055 4.639,22.321c1.012,1.534 2.084,3.161 3.157,5.002c1.949,3.343 6.643,9.416 8.121,10.983l1.704,1.805l-46.839,45.043l-1.737,-1.801c-2.572,-2.666 -6.105,-6.941 -9.452,-11.438c-2.205,-2.964 -5.376,-7.425 -7.957,-11.852c-13.028,-22.343 -24.634,-66.323 -3.212,-95.903c0.628,-0.867 1.288,-1.725 1.973,-2.565c42.678,-52.448 97.953,-55.864 155.642,-9.615c3.454,2.77 7.338,5.676 11.449,8.756c15.735,11.778 35.32,26.438 47.331,46.048c8.238,13.431 19.336,39.052 26.34,56.912c17.372,44.278 13.915,65.84 13.915,65.84l-61.264,-1.122z" id="svg_142"/>
      <path fill="#E9E1EE" d="m-4.401,1293.054c-6.973,-17.785 -18.009,-43.254 -26.142,-56.518c-14.834,-24.211 -41.368,-40.654 -58.213,-54.157c-53.76,-43.1 -108.191,-44.762 -152.133,9.24c-23.205,28.52 -11.838,72.818 1.461,95.627c2.141,3.674 4.95,7.785 7.803,11.618c3.355,4.507 6.772,8.63 9.245,11.195l43.248,-41.589c-1.592,-1.688 -6.404,-7.911 -8.463,-11.441c-5.552,-9.523 -11.068,-13.131 -8.095,-29.046c7.519,-40.257 50.639,-30.794 79.791,-11.61c14.623,9.623 33.45,28.177 43.511,44.592c10.135,16.529 32.511,77.122 25.604,95.449l59.865,-0.825c-0.067,-4.608 -0.261,-18.643 -17.482,-62.535z" id="svg_143"/>
      <path fill="#D9E0D1" d="m-44.919,1354.977l55.14,-0.764c-0.279,-6.145 -2.196,-21.379 -17.283,-59.834c-6.945,-17.707 -17.917,-43.047 -25.984,-56.201c-2.47,-4.029 -5.335,-8.237 -8.509,-12.503c-14.769,-19.846 -40.932,-34.643 -54.285,-45.352c-52.769,-42.309 -101.152,-39.87 -144.296,13.158c-22.566,27.733 -11.387,71.022 1.639,93.359c1.96,3.365 4.614,7.315 7.676,11.426c2.67,3.585 5.447,7.016 7.715,9.537l40.42,-38.859c-0.932,-1.131 -2.097,-2.618 -3.233,-4.151c-1.052,-1.408 -2.995,-4.087 -4.199,-6.161c-5.578,-9.569 -7.503,-22.457 -6.368,-30.054c1.199,-8.028 24.495,-49.371 80.891,-13.28c12.962,8.297 28.371,23.382 38.608,37.127c2.058,2.771 3.912,5.49 5.503,8.089c8.944,14.595 31.309,72.074 26.565,94.463z" id="svg_144"/>
      <path fill="#9CB098" d="m0.111,1344.579c-2.367,-11.284 -7.413,-26.794 -15.087,-46.346c-7.33,-18.692 -17.969,-42.833 -25.197,-54.627c-2.311,-3.772 -5.005,-7.725 -8.003,-11.758c-14.21,-19.084 -33.02,-36.904 -45.887,-47.225c-48.557,-38.926 -97.179,-33.468 -136.915,15.372c-19.226,23.626 -8.661,62.843 2.516,82.011c1.75,3.004 4.256,6.733 7.062,10.498c0.194,0.258 0.384,0.52 0.582,0.781l26.197,-25.191c-0.97,-1.388 -1.957,-2.87 -2.739,-4.215c-6.721,-11.535 -9.32,-30.081 -6.703,-39.833c7.083,-26.395 58.115,-41.401 95.358,-16.894c13.954,9.178 30.099,24.69 41.13,39.507c2.242,3.009 4.267,5.983 6.018,8.837c6.519,10.64 27.197,58.697 28.541,89.542l33.127,-0.459z" id="svg_145"/>
      <path fill="#8A7C74" d="m-14.921,1355.979c-0.266,-19.707 -27.888,-85.89 -39.491,-104.813c-12.128,-19.781 -33.979,-41.808 -50.263,-54.86c-41.733,-33.462 -80.256,-29.093 -114.491,12.986c-13.233,16.264 -5.479,47.723 3.931,63.857c1.61,2.764 3.819,5.969 6.029,8.938c2.695,3.618 5.392,6.882 6.997,8.552l2.877,-2.772c-2.723,-2.829 -9.078,-10.95 -12.45,-16.735c-8.845,-15.175 -16.323,-44.514 -4.287,-59.316c17.954,-22.061 37.154,-33.415 57.071,-33.747c16.375,-0.269 33.81,6.915 51.822,21.357c16.009,12.838 37.473,34.457 49.358,53.833c11.125,18.149 38.642,84.026 38.9,102.776l3.997,-0.056z" id="svg_146"/>
     </g>
     <g id="svg_147">
      <path fill="#E9E1EE" stroke="#000000" stroke-miterlimit="10" d="m-181.952,1325.626c-2.236,-2.108 -4.308,-4.376 -6.214,-6.774c4.432,-3.818 7.127,-9.85 10.342,-15.223c7.004,4.348 15.271,4.983 18.072,2.108c-0.352,-7.612 0.381,-11.652 6.51,-17.33c12.154,-11.262 27.672,-0.305 28.23,13.927c1.065,27.004 -38.929,40.288 -56.94,23.292z" id="svg_148"/>
      <path fill="#94A4CF" d="m-146.348,1327.737c-9.801,3.918 -21.386,6.971 -30.941,1.426c-4.078,-2.367 -7.715,-5.593 -10.884,-9.416c3.601,-3.154 6.055,-7.761 8.586,-12.273c5.974,5.245 13.801,8.581 21.659,3.627c2.551,6.302 8.284,5.758 13.283,2.417c-11.897,1.875 -17.149,-10.154 -8.312,-19.672c9.463,-10.339 19.415,-6.076 23.252,2.078c6.115,13.23 -4.351,25.588 -16.643,31.813z" id="svg_149"/>
      <path fill="none" stroke="#000000" stroke-miterlimit="10" d="m-144.646,1313.517c-11.522,7.837 -16.677,-4.443 -14.64,-15.905" id="svg_150"/>
     </g>
     <g id="svg_151">
      <path fill="#E9E1EE" stroke="#000000" stroke-miterlimit="10" d="m-158.34,1332.911c-4.466,4.315 -8.882,7.87 -15.494,9.061c-4.505,0.808 -16.219,-1.723 -21.677,-5.153c-3.705,-2.315 -6.667,-8.099 -8.572,-12.066c-0.762,-1.591 -3.32,-6.058 -3.615,-7.71l15.985,-12.057l2.748,1.084c-0.545,3.229 2.627,8.691 5.301,10.878c0.232,0.189 0.504,0.356 0.797,0.517c-1.244,0.959 -2.622,1.752 -4.179,2.31c1.557,-0.557 2.933,-1.349 4.179,-2.31c2.57,1.414 7.258,1.738 9.724,0.842c-2.466,0.896 -7.154,0.572 -9.724,-0.842c5.474,-4.223 8.324,-11.786 12.335,-17.875c-4.011,6.089 -6.865,13.649 -12.335,17.875c-0.294,-0.161 -0.566,-0.328 -0.797,-0.517c-2.674,-2.187 -2.861,-6.466 -2.307,-9.7c0.676,-4.028 3.53,-6.926 6.852,-9.044c5.251,-3.348 12.65,-5.642 18.286,-1.657c2.421,1.711 5.05,4.711 6.677,7.227c1.867,2.892 2.425,8.569 2.518,12.16c0.141,5.501 -4.009,14.376 -6.702,16.977z" id="svg_152"/>
      <path fill="#94A4CF" d="m-160.539,1330.594c-4.604,4.457 -8.348,7.224 -13.85,8.216c-0.431,0.078 -1.719,0.223 -4.372,-0.092c-5.419,-0.648 -11.897,-2.636 -15.067,-4.624c-3.204,-2.006 -6.242,-8.352 -7.39,-10.745c-0.212,-0.449 -0.56,-1.112 -0.963,-1.881c-0.406,-0.765 -1.14,-2.154 -1.688,-3.306l14.861,-11.714c0.617,4.303 2.545,8.212 5.345,10.5c0.224,0.183 0.491,0.356 0.783,0.528c-1.24,0.953 -2.613,1.74 -4.167,2.301c1.553,-0.56 2.925,-1.345 4.167,-2.301c1.024,0.596 2.385,1.069 3.681,1.222c3.734,0.448 6.056,-0.389 6.056,-0.389c-3.662,-0.556 -6.067,-1.73 -7.501,-2.877c4.098,-4.358 6.681,-10.635 10.116,-15.837c-3.435,5.201 -6.019,11.48 -10.116,15.837c-0.417,-0.333 -0.759,-0.67 -1.017,-0.981c-1.216,-1.506 -1.568,-4.357 -1.181,-6.668c0.442,-2.579 2.217,-4.821 5.42,-6.868c3.778,-2.407 7.751,-3.573 10.904,-3.198c1.452,0.172 2.713,0.648 3.848,1.458c1.891,1.333 4.294,3.946 5.847,6.354c1.099,1.702 1.884,5.822 2.004,10.493c0.121,4.463 -3.532,12.46 -5.72,14.572z" id="svg_153"/>
     </g>
     <g id="svg_154">
      <path fill="#E9E1EE" stroke="#000000" stroke-miterlimit="10" d="m-175.638,1308.875c-0.096,-3.587 -0.656,-9.269 -2.521,-12.156c-1.627,-2.516 -4.26,-5.519 -6.677,-7.227c-5.636,-3.985 -13.035,-1.691 -18.285,1.655c-3.326,2.115 -6.171,5.019 -6.853,9.046c-0.548,3.233 -0.367,7.513 2.304,9.695c2.262,1.847 7.779,2.36 10.52,1.361c-2.741,0.999 -8.258,0.485 -10.52,-1.361c-2.673,-2.18 -5.845,-7.642 -5.292,-10.874l-2.748,-1.084l-15.992,12.058c0.296,1.652 2.853,6.119 3.617,7.708c1.902,3.971 4.872,9.752 8.567,12.072c5.462,3.424 17.174,5.959 21.68,5.149c6.618,-1.19 11.028,-4.745 15.497,-9.065c2.691,-2.596 6.844,-11.466 6.703,-16.977zm-4.315,-3.514c-4.921,7.471 -8.091,17.161 -16.511,20.18c8.42,-3.02 11.588,-12.716 16.511,-20.18z" id="svg_155"/>
      <path fill="#94A4CF" d="m-178.82,1308.966c-0.124,-4.674 -0.911,-8.792 -2.004,-10.493c-1.555,-2.406 -3.961,-5.022 -5.843,-6.351c-1.142,-0.809 -2.402,-1.287 -3.852,-1.461c-3.153,-0.375 -7.129,0.787 -10.907,3.202c-3.206,2.042 -4.978,4.289 -5.413,6.867c-0.392,2.31 -0.04,5.159 1.178,6.663c1.131,1.399 3.792,3.145 8.517,3.86c0,0 -2.324,0.841 -6.059,0.393c-1.662,-0.198 -3.445,-0.922 -4.465,-1.757c-2.797,-2.285 -4.724,-6.187 -5.336,-10.496l-14.868,11.716c0.55,1.15 1.284,2.539 1.684,3.303c0.403,0.769 0.753,1.437 0.967,1.884c1.144,2.39 4.192,8.74 7.389,10.747c3.169,1.987 9.649,3.974 15.073,4.623c2.649,0.312 3.94,0.172 4.371,0.094c5.501,-0.99 9.241,-3.762 13.847,-8.221c2.186,-2.11 5.833,-10.107 5.721,-14.573zm-1.133,-3.605c-4.921,7.471 -8.091,17.161 -16.511,20.18c8.42,-3.02 11.588,-12.716 16.511,-20.18z" id="svg_156"/>
     </g>
     <g id="svg_157">
      <path fill="#E9E1EE" stroke="#000000" stroke-miterlimit="10" d="m-238.76,1310.246c-22.558,-19.35 -32.677,-50.199 -22.749,-76.907c3.736,3.877 18.009,11.87 18.009,11.87s-5.278,12.605 -4.136,21.233c2.674,20.318 30.248,27.262 36.347,21.575c-0.545,-8.63 0.31,-13.205 7.895,-19.55c15.038,-12.592 34.576,0.044 35.48,16.184c1.709,30.623 -48.087,45.108 -70.846,25.595z" id="svg_158"/>
      <path fill="#94A4CF" d="m-194.088,1312.018c-12.203,4.299 -26.636,7.599 -38.656,1.178c-26.238,-14.009 -38.694,-53.15 -28.766,-79.857c3.736,3.877 18.007,11.872 18.007,11.872s-5.14,13.699 -4.263,22.3c-0.048,3.716 0.774,5.32 1.174,9.396c6.289,9.547 22.143,24.926 37.789,16.09c3.284,7.183 10.437,6.646 16.634,2.926c-10.682,-1.27 -21.915,-8.061 -11.003,-18.725c8.275,-8.808 22.778,-9.252 27.685,0.043c7.831,15.083 -3.331,27.894 -18.601,34.777z" id="svg_159"/>
      <path fill="none" stroke="#000000" stroke-miterlimit="10" d="m-192.168,1295.923c-14.284,8.723 -20.41,-5.527 -18.654,-17.109" id="svg_160"/>
      <path fill="#5E5264" d="m-248.415,1278.775c-1.33,-3.935 -0.928,-8.548 0.592,-11.772c-0.019,6.769 12.435,26.001 33.973,22.38c0.979,-0.167 2.529,-1.224 3.163,-0.515c0.638,0.712 2.189,5.067 0.738,5.762c-16.779,8.016 -33.867,-2.248 -38.466,-15.855z" id="svg_161"/>
     </g>
     <g id="svg_162">
      <path fill="#E9E1EE" stroke="#000000" stroke-miterlimit="10" d="m-229.055,1247.12c0.355,-0.374 0.789,-0.709 1.168,-1.066c-2.806,2.728 -4.447,6.449 -9.081,5.497c-4.46,-0.926 -7.647,-3.623 -7.054,-8.569c0.333,-2.766 1.638,-5.143 3.501,-6.965c4.215,-4.135 11.261,-5.425 16.216,-1.985c10.924,7.576 12.135,24.735 0.292,32.089c-5.204,3.225 -13.145,2.539 -18.882,1.504c-6.093,-1.103 -12.428,-3.547 -17.465,-7.125c-9.535,-6.757 -13.804,-20.699 -13.107,-32.279c1.063,-17.681 9.713,-37.002 22.896,-48.968c7.889,-7.161 18.059,-10.93 27.174,-16.239c10.855,-6.32 37.662,-14.535 55.038,-12.458c10.151,1.216 20.376,2.279 30.312,4.806c6.105,1.552 26.366,9.195 28.63,9.88c-5.55,-0.226 -43.665,-1.929 -50.934,0.076c-18.901,5.208 -40.842,18.571 -52.641,34.176c-4.12,5.448 -13.229,16.871 -13.722,33.247c0.03,0.013 0.066,0.026 0.096,0.042" id="svg_163"/>
      <path fill="#94A4CF" d="m-271.13,1214.186c-2.894,24.204 3.884,37.191 13.837,44.498c6.482,4.76 12.73,6.224 18.64,6.928c5.146,0.616 10.806,-0.368 13.325,-1.928c5.49,-3.411 7.233,-8.913 7.21,-13.284c-0.044,-8.179 -2.377,-11.696 -9.491,-14.308c-4.899,-1.796 -14.982,5.258 -13.259,8.593c2.049,3.975 5.301,4.597 11.68,1.335c-0.253,2.71 -2.093,5.659 -7.781,5.532c-5.169,-0.126 -7.647,-3.623 -7.054,-8.569c0.331,-2.768 3.117,-6.685 3.117,-6.685c-8.716,-6.813 -7.982,-22.275 -4.65,-30.763c4.186,-10.651 11.557,-20.854 19.298,-29.583c4.215,-4.753 22.936,-19.854 27.15,-22.112c-13.589,3.969 -43.576,18.256 -51.463,25.414c-9.739,8.84 -17.004,21.691 -20.559,34.932" id="svg_164"/>
      <path fill="#AEC5ED" d="m-164.846,1161.996c-46.636,10.927 -67.539,56.696 -66.861,67.977l-10.144,6.168c-8.764,-6.776 -7.036,-22.122 -3.705,-30.608c4.188,-10.653 11.56,-20.854 19.298,-29.583c4.215,-4.753 22.69,-20.398 27.152,-22.11c7.272,-2.794 21.653,-4.371 30.747,-3.285c10.156,1.214 20.376,2.279 30.316,4.809c2.969,0.755 15.252,5.084 15.252,5.084l0,0c-11.882,-0.873 -32.719,-0.639 -42.055,1.548z" id="svg_165"/>
     </g>
    </g>
    <g id="svg_166">
     <path fill="#E9E1EE" stroke="#000000" stroke-miterlimit="10" d="m-137.658,1180.828c30.926,-13.423 34.334,-52.732 23.422,-72.533c-18.326,-1.832 -31.996,-2.509 -49.964,16.677c-6.485,6.912 -12.885,43.267 -5.119,60.161c10.863,3.047 25.814,-1.769 31.661,-4.305z" id="svg_167"/>
     <path fill="#94A4CF" d="m-166.355,1168.371c-1.156,-17.419 4.023,-35.905 6.408,-38.714c14.506,-15.478 25.095,-16.193 41.349,-14.713c11.232,41.202 -28.84,64.11 -45.922,63.963c-0.913,-2.884 -1.564,-6.46 -1.835,-10.53c-0.001,-0.003 -0.001,-0.003 0,-0.006z" id="svg_168"/>
     <path fill="#5E5264" d="m-131.425,1125.308c-5.106,-2.949 -13.686,4.137 -16.681,7.126c-2.108,2.097 -8.909,12.078 -3.191,18.46c8.251,9.194 18.955,-7.43 19.891,-10.407c1.539,-4.894 4.288,-12.694 -0.019,-15.179z" id="svg_169"/>
    </g>
    <g id="svg_170">
     <g id="svg_171">
      <path fill="#E9E1EE" stroke="#000000" stroke-miterlimit="10" d="m-52.656,1030.133c-5.8,-1.591 -29.512,0.003 -36.906,4.251c-0.193,6.613 -1.684,17.104 -4.116,23.54c14.972,-7.597 32.176,0.471 35.92,4.342c-6.931,4.475 -9.964,7.721 -10.582,17.106c-1.225,18.621 19.461,26.378 32.357,17.912c24.476,-16.061 8.39,-60.277 -16.673,-67.151z" id="svg_172"/>
      <path fill="#94A4CF" d="m-28.88,1061.044c-3.547,-11.749 -9.123,-24.641 -20.804,-30.177c-4.988,-2.362 -31.301,-0.955 -39.879,3.518c-0.199,5.4 -1.956,18.297 -4.114,23.541c7.758,-5.525 30.691,-4.554 37.514,3.872c11.252,-4.003 15.378,3.001 16.006,9.84c-6.83,-12.436 -21.136,-9.804 -23.2,4.573c-2.34,15.482 8.506,22.207 18.396,20.684c15.981,-2.579 19.372,-20.296 16.081,-35.851z" id="svg_173"/>
     </g>
     <g id="svg_174">
      <path fill="#7B5A62" d="m17.555,1296.714c-0.03,-1.36 -0.074,-2.717 -0.122,-4.068c-2.241,-61.891 -30.315,-114.957 -66.291,-163.14c-14.021,-18.778 -49.934,-49.768 -41.356,-72.759c4.975,-13.32 18.79,-19.804 33.069,-18.421c9.194,0.89 29.432,12.859 34.205,20.464l10.934,-23.114l-77.515,-62.79c0,0 -28.044,22.579 -35.753,31.389c-16.239,18.559 -33.348,46.738 -34.451,72.943c-1.161,27.407 19.855,58.456 34.966,80.953c18.068,26.909 44.753,41.91 59.793,70.182c14.462,27.185 17.53,42.489 20.504,73.252c0.686,7.101 -4.887,55.004 -4.954,55.254c12.131,0.321 54.055,1.177 62.682,0.989c1.521,-20.199 3.774,-41.766 4.289,-61.134" id="svg_175"/>
      <path fill="#CED5D0" d="m10.763,1357.81c2.609,-20.5 4.446,-43.428 4.747,-66.128c-1.907,-52.711 -22.695,-103.979 -65.413,-161.35l-0.488,-0.661c-3.158,-4.238 -7.536,-9.202 -12.169,-14.454c-5.486,-6.219 -11.701,-13.275 -16.988,-20.377c-7.813,-10.496 -17.601,-26.04 -12.453,-39.833c4.978,-13.342 19.097,-21.267 35.133,-19.716c8.436,0.819 25.397,11.15 33.081,18.521l9.388,-18.61l-75.043,-60.783c-5.525,4.485 -27.663,22.607 -34.246,30.13c-7.626,8.713 -32.602,39.632 -33.958,71.711c-1.122,26.523 19.322,56.965 34.252,79.192l0.377,0.563c1.043,1.546 2.148,3.114 3.295,4.657c7.361,9.885 15.994,18.347 24.351,26.531c8.218,8.059 16.717,16.389 23.843,25.964c3.266,4.389 6.017,8.705 8.408,13.202c15.02,28.232 17.852,44.229 20.724,73.998c0.693,7.133 -3.875,56.458 -3.893,56.542c11.353,0.179 49.175,0.81 57.052,0.901z" id="svg_176"/>
      <path fill="#9FB9A8" d="m-2.499,1357.625c1.631,-19.707 2.74,-41.939 1.927,-64.419c1.945,14.729 -9.15,-91.957 -59.009,-142.722c-7.837,-7.735 -23.787,-20.179 -34.396,-43.469c-6.392,-14.033 -14.986,-40.997 -1.982,-55.66c8.635,-9.739 26.053,-20.717 45.825,-14.564c6.03,1.873 17.989,9.687 26.151,12.753l4.239,-12.126l-73.608,-60.62c-9.369,7.746 -29.327,24.797 -33.677,29.769c-12.72,14.537 -31.056,40.812 -32.211,68.023c-0.908,21.52 23.521,47.401 42.774,68.024c9.104,9.746 23.572,22.035 33.433,33.555c7.729,9.034 20.481,22.158 26.162,32.511c13.412,24.431 21.405,61.573 24.345,92.025c2.81,24.551 -0.494,44.659 -1.309,57.335c8.009,0.195 26.706,-0.277 31.336,-0.415z" id="svg_177"/>
      <path fill="#7C8168" d="m-14.157,1357.417c1.426,-26.288 -0.368,-50.1 -3.186,-74.397c-6.058,-52.25 -25.579,-93.016 -68.491,-135.199c-7.313,-7.199 -12.862,-15.783 -18.047,-24.611c-12.912,-21.944 -23.006,-48.792 -10.813,-72.697c7.167,-14.058 14.703,-20.523 29.994,-24.096c17.565,-4.106 30.04,-3.751 35.121,0.992l2.734,-2.924c-7.807,-7.284 -25.39,-5.088 -38.769,-1.96c-16.725,3.905 -26.484,11.877 -34.065,26.74c-12.316,24.154 -3.639,54.561 12.577,76.342c0.799,1.074 12.211,17.474 19.533,24.703c39.425,38.909 57.518,82.204 63.689,135.4c2.816,24.284 2.858,45.151 1.885,71.582c0.552,-0.03 7.021,0.153 7.838,0.125z" id="svg_178"/>
     </g>
     <g id="svg_179">
      <path fill="#E9E1EE" stroke="#000000" stroke-miterlimit="10" d="m-19.738,1012.008c-2.934,-0.886 -5.938,-1.558 -8.968,-2.019c-1.101,5.749 -4.987,11.089 -8.047,16.55c7.249,3.909 11.927,10.769 10.817,14.628c-6.768,3.482 -9.917,6.13 -11.788,14.276c-3.715,16.147 13.514,24.149 26.137,17.551c23.95,-12.523 15.561,-53.822 -8.151,-60.986z" id="svg_180"/>
      <path fill="#94A4CF" d="m-0.176,1041.841c-1.483,-10.454 -4.601,-22.019 -14.169,-27.547c-4.084,-2.359 -8.693,-3.909 -13.584,-4.752c-0.941,4.694 -3.719,9.114 -6.375,13.557c7.526,2.576 14.322,7.696 13.936,16.977c6.732,-0.923 9.115,4.318 8.702,10.318c-4.287,-11.252 -17.338,-9.82 -21.199,2.586c-4.257,13.351 4.4,19.862 13.38,19.129c14.513,-1.277 20.024,-16.511 19.309,-30.268z" id="svg_181"/>
     </g>
     <g id="svg_182">
      <path fill="#E9E1EE" stroke="#000000" stroke-miterlimit="10" d="m-2.936,1022.666c1.521,-6.02 2.404,-11.619 0.145,-17.948c-1.537,-4.308 -9.566,-13.203 -15.257,-16.237c-3.856,-2.056 -10.347,-1.75 -14.735,-1.424c-1.757,0.129 -6.904,0.134 -8.484,0.699l-2.496,19.869l2.308,1.846c2.528,-2.089 8.842,-2.052 12.066,-0.823c0.284,0.109 0.564,0.264 0.851,0.435c0.214,-1.554 0.216,-3.142 -0.08,-4.769c0.295,1.627 0.294,3.214 0.08,4.769c2.5,1.527 5.118,5.434 5.57,8.013c-0.451,-2.58 -3.069,-6.487 -5.57,-8.013c-0.942,6.855 -6.082,13.086 -9.364,19.594c3.282,-6.508 8.422,-12.739 9.364,-19.594c-0.287,-0.171 -0.567,-0.326 -0.851,-0.435c-3.223,-1.229 -7.031,0.743 -9.555,2.828c-3.154,2.596 -4.251,6.512 -4.434,10.451c-0.291,6.215 1.402,13.777 7.664,16.681c2.686,1.245 6.6,2.037 9.592,2.193c3.434,0.179 8.639,-2.163 11.799,-3.867c4.844,-2.621 10.473,-10.636 11.387,-14.268z" id="svg_183"/>
      <path fill="#94A4CF" d="m-6.037,1021.912c1.567,-6.209 2.109,-10.836 0.227,-16.101c-0.143,-0.411 -0.659,-1.601 -2.252,-3.745c-3.261,-4.379 -8.212,-9.009 -11.513,-10.765c-3.332,-1.779 -10.353,-1.258 -12.994,-1.063c-0.498,0.038 -1.25,0.067 -2.116,0.099c-0.861,0.034 -2.433,0.086 -3.706,0.185l-2.76,18.723c4.041,-1.61 8.389,-1.885 11.766,-0.593c0.269,0.104 0.558,0.247 0.847,0.414c0.218,-1.552 0.214,-3.131 -0.078,-4.755c0.291,1.624 0.295,3.203 0.078,4.755c1.027,0.592 2.117,1.539 2.898,2.588c2.24,3.011 2.671,5.444 2.671,5.444c-2.303,-2.9 -4.519,-4.402 -6.227,-5.071c-1.737,5.718 -5.898,11.088 -8.7,16.651c2.802,-5.563 6.963,-10.933 8.7,-16.651c-0.497,-0.197 -0.957,-0.33 -1.352,-0.393c-1.913,-0.31 -4.565,0.807 -6.371,2.301c-2.015,1.657 -3.084,4.308 -3.264,8.109c-0.205,4.478 0.758,8.503 2.658,11.05c0.871,1.174 1.912,2.031 3.179,2.616c2.099,0.971 5.56,1.755 8.424,1.903c2.02,0.104 5.981,-1.261 10.095,-3.482c3.929,-2.125 9.045,-9.273 9.79,-12.219z" id="svg_184"/>
     </g>
     <g id="svg_185">
      <path fill="#E9E1EE" stroke="#000000" stroke-miterlimit="10" d="m-23.703,1013.196c1.523,-6.024 2.404,-11.619 0.148,-17.952c-1.544,-4.307 -9.566,-13.203 -15.264,-16.236c-3.852,-2.053 -10.34,-1.751 -14.73,-1.427c-1.753,0.132 -6.907,0.138 -8.487,0.703l-2.496,19.869l2.31,1.848c2.532,-2.086 8.84,-2.053 12.066,-0.823c0.28,0.106 0.567,0.26 0.851,0.435c0.215,-1.56 0.214,-3.148 -0.077,-4.773c0.291,1.624 0.292,3.213 0.077,4.773c2.503,1.523 5.121,5.43 5.568,8.012c-0.446,-2.582 -3.065,-6.489 -5.568,-8.012c-0.941,6.85 -6.078,13.084 -9.364,19.594c3.286,-6.51 8.423,-12.744 9.364,-19.594c-0.284,-0.175 -0.571,-0.329 -0.851,-0.435c-3.225,-1.23 -7.028,0.739 -9.555,2.828c-3.151,2.592 -4.248,6.508 -4.435,10.444c-0.29,6.222 1.403,13.784 7.661,16.685c2.693,1.244 6.606,2.036 9.598,2.192c3.434,0.179 8.636,-2.159 11.792,-3.866c4.851,-2.623 10.478,-10.634 11.392,-14.265z" id="svg_186"/>
      <path fill="#94A4CF" d="m-26.804,1012.441c1.57,-6.213 2.112,-10.84 0.23,-16.105c-0.146,-0.408 -0.659,-1.601 -2.255,-3.741c-3.261,-4.379 -8.214,-9.011 -11.514,-10.772c-3.335,-1.775 -10.352,-1.251 -12.993,-1.057c-0.498,0.032 -1.247,0.063 -2.118,0.097c-0.861,0.029 -2.431,0.088 -3.701,0.182l-2.762,18.722c4.039,-1.611 8.388,-1.88 11.761,-0.591c0.276,0.103 0.565,0.246 0.854,0.413c0.213,-1.549 0.21,-3.134 -0.08,-4.751c0.294,1.62 0.293,3.202 0.08,4.751c1.027,0.592 2.113,1.536 2.891,2.589c2.247,3.01 2.678,5.442 2.678,5.442c-2.303,-2.9 -4.519,-4.402 -6.231,-5.074c-1.736,5.725 -5.894,11.091 -8.701,16.656c2.807,-5.565 6.965,-10.931 8.701,-16.656c-0.496,-0.19 -0.956,-0.324 -1.355,-0.389c-1.913,-0.31 -4.558,0.806 -6.369,2.297c-2.014,1.664 -3.082,4.315 -3.26,8.112c-0.209,4.475 0.755,8.507 2.655,11.054c0.872,1.169 1.915,2.027 3.182,2.612c2.093,0.972 5.556,1.752 8.417,1.904c2.024,0.107 5.985,-1.259 10.102,-3.483c3.923,-2.12 9.043,-9.266 9.788,-12.212z" id="svg_187"/>
     </g>
     <g id="svg_188">
      <path id="_x36__1_" fill="#E9E1EE" stroke="#000000" stroke-miterlimit="10" d="m-65.844,970.598c-24.61,-7.434 -53.305,-0.365 -70.521,19.431c4.609,0.916 16.801,7.607 16.801,7.607s7.887,-9.774 15.216,-12.988c17.274,-7.573 34.05,9.348 32.01,16.477c-7.095,3.65 -10.389,6.422 -12.353,14.947c-3.894,16.912 14.143,25.281 27.368,18.37c25.081,-13.116 16.303,-56.351 -8.521,-63.844z"/>
      <path id="_x32__1_" fill="#94A4CF" d="m-46.208,1002.448c-1.551,-10.944 -4.815,-23.05 -14.828,-28.839c-21.865,-12.621 -58.108,-3.373 -75.329,16.42c4.609,0.916 16.801,7.607 16.801,7.607s8.809,-10.188 16.017,-13.586c2.942,-1.777 4.551,-1.922 7.963,-3.54c10.163,0.119 28.879,4.504 28.228,20.098c7.054,-0.967 9.543,4.519 9.115,10.799c-5.379,-7.217 -15.359,-12.252 -19.405,0.733c-3.639,10.187 1.928,21.007 11.328,20.241c15.203,-1.349 20.858,-15.53 20.11,-29.933z"/>
      <path id="_x31_" fill="#5E5264" d="m-94.842,978.293c-3.678,0.876 -7.183,3.326 -9.132,5.955c5.385,-3.191 25.776,-3.101 31.68,14.359c0.266,0.796 0.055,2.426 0.88,2.558c0.825,0.133 4.926,-0.781 4.886,-2.163c-0.458,-16.034 -15.605,-23.729 -28.314,-20.709z"/>
     </g>
     <g id="B">
      <path id="_x36_" fill="#E9E1EE" stroke="#000000" stroke-miterlimit="10" d="m-112.855,1015.082c-0.143,0.494 -0.224,1.039 -0.347,1.543c0.97,-3.791 3.385,-7.067 0.245,-10.609c-3.017,-3.411 -6.943,-4.829 -10.94,-1.853c-2.229,1.665 -3.644,3.981 -4.298,6.502c-1.49,5.71 0.901,12.466 6.351,15.054c12.009,5.701 27.496,-1.789 27.974,-15.726c0.211,-6.117 -4.339,-12.661 -8.09,-17.122c-3.987,-4.736 -9.263,-9.009 -14.873,-11.604c-10.611,-4.9 -24.825,-1.665 -34.523,4.708c-14.798,9.722 -27.252,26.843 -31.069,44.233c-2.287,10.405 -0.491,21.103 -0.56,31.653c-0.08,12.559 6.143,39.902 16.593,53.932c6.111,8.2 12.126,16.536 19.264,23.898c4.384,4.522 21.089,18.292 22.813,19.915c-2.955,-4.701 -24.653,-40.158 -26.529,-47.459c-4.89,-18.985 -2.981,-41.417 4.683,-59.421c2.673,-6.285 8.044,-19.873 22.002,-28.452c0.028,0.02 0.055,0.046 0.082,0.066"/>
      <path id="_x32_" fill="#94A4CF" d="m-162.362,994.981c19.549,-14.556 34.193,-15.136 45.479,-10.146c7.358,3.251 11.731,7.946 15.29,12.722c3.092,4.154 5.059,9.552 4.955,12.515c-0.223,6.458 -4.126,10.71 -7.924,12.864c-7.126,4.032 -11.334,3.763 -17.144,-1.109c-3.993,-3.351 -2.893,-15.612 0.856,-15.778c4.471,-0.199 6.63,2.313 6.969,9.468c2.229,-1.569 3.873,-4.63 0.923,-9.502c-2.678,-4.421 -6.943,-4.829 -10.938,-1.851c-2.233,1.662 -4.249,6.031 -4.249,6.031c-10.244,-4.169 -23.287,4.167 -28.991,11.281c-7.157,8.932 -12.335,20.402 -16.053,31.462c-2.028,6.02 -5.805,29.775 -5.663,34.553c-3.324,-13.762 -5.862,-46.879 -3.575,-57.284c2.817,-12.848 10.352,-25.546 20.059,-35.222"/>
      <path id="_x34__1_" fill="#AEC5ED" d="m-154.719,1113.139c-13.737,-45.878 15.552,-86.798 25.677,-91.823l0.297,-11.87c-10.242,-4.222 -22.686,4.909 -28.389,12.025c-7.16,8.936 -12.338,20.406 -16.058,31.464c-2.026,6.022 -6.397,29.83 -5.661,34.555c1.198,7.699 6.989,20.958 12.458,28.3c6.109,8.199 12.126,16.536 19.264,23.898c2.135,2.198 12,10.701 12,10.701l0.007,-0.001c-6.675,-9.871 -16.849,-28.056 -19.595,-37.249z"/>
     </g>
    </g>
   </g>
  </g>
  <line id="direct" style="display:none" fill="none" stroke="#FF0000" x2="61.808" y2="287.8" x1="47.449" y1="267.298"/>
  <circle id="boundingCircle" fill="red" cx="87.74695" cy="107.40051" r="83.63745" stroke="#000000" data-x="33.118" data-y="-170.149"/>
 </g>
</svg>