<?xml version="1.0" encoding="utf-8"?>
<!-- Generator: Adobe Illustrator 16.0.2, SVG Export Plug-In . SVG Version: 6.00 Build 0)  -->
<!DOCTYPE svg PUBLIC "-//W3C//DTD SVG 1.1//EN" "http://www.w3.org/Graphics/SVG/1.1/DTD/svg11.dtd">
<svg version="1.1" id="圖層_1" xmlns="http://www.w3.org/2000/svg" xmlns:xlink="http://www.w3.org/1999/xlink" x="0px" y="0px"
	 width="743.267px" height="482.994px" viewBox="0 0 743.267 482.994" enable-background="new 0 0 743.267 482.994"
	 xml:space="preserve">
<g>
	<g>
		<path fill="#E9E1EE" stroke="#000000" stroke-miterlimit="10" d="M6.804,233.298c5.603,4.947,12.105,8.367,16.739,13.48
			c5.512,6.086,9.563,9.377,18.064,12.311c16.257,5.607,32.772-2.615,42.87-11.338c4.887-4.223,4.158-10.15,2.185-16.799
			c-2.599-8.759-7.22-13.193-15.379-18.033c-6.513-3.863-12.861-6.766-21.262-7.525c-10.155-0.918-17.543,0.614-25.019,3.672
			c-6.553,2.681-14.403,1.795-20.817-2.45C1.471,204.819-3.684,224.036,6.804,233.298z"/>
		<path fill="#94A4CF" d="M43.063,254.882c-7.677-2.648-11.039-5.42-16.118-11.027c-3.029-3.344-6.667-5.967-10.186-8.502
			c-2.338-1.686-4.756-3.43-6.92-5.341c-5.295-4.677-5.275-13.097-4.275-17.546c0.985,0.453,1.993,0.851,3.02,1.188
			c6.113,2.012,12.595,1.846,18.25-0.468c7.7-3.148,14.32-4.119,22.847-3.349c2.957,0.267,5.73,0.837,8.48,1.742
			c3.31,1.089,6.64,2.675,10.799,5.142c8.03,4.764,11.266,8.506,13.311,15.4c2.01,6.77,1.785,9.979-0.858,12.264
			c-4.546,3.926-20.72,16.301-37.958,10.629L43.063,254.882z"/>
		<path fill="#5E5264" d="M58.438,228.687c-1.49-0.492-2.946-0.712-4.448-1.158c-0.993-0.295-3.713,0.272-3.713,0.272
			s0.683,3.169,1.172,4.267c1.318,2.965,2.511,6.486,4.762,9.039c1.326,1.502,3.259,2.463,4.885,3.58
			c1.845,1.27,4.084,2.174,6.129,2.955c4.584,1.752,10,2.615,12.769-1.115c2.982-4.016-3.317-9.533-7.079-11.764
			c-1.717-1.019-3.832-2.147-5.599-2.826C66.058,231.454,59.446,229.021,58.438,228.687z"/>
	</g>
	<g>
		<path fill="#E5DFDE" stroke="#000000" stroke-miterlimit="10" d="M123.356,189.466c-5.217-3.502-16.549-4.65-22.568-3.737
			c-18.308,2.775-30.796,23.682-28.989,41.293c1.525,14.869,11.268,27.9,24.487,34.762l21.057-10.588
			c-1.962-0.744-18.445-8.641-21.494-16.717c-2.957-7.832,2.492-16.756,10.675-18.707c3.955-0.944,8.562,1.014,12.263,1.756
			c4.406,0.885,10.977,3.42,14.213-1.588C140.036,205.052,130.275,194.11,123.356,189.466z"/>
		<path fill="#ABB8AD" d="M121.127,192.787c-2.899-1.946-9.527-3.358-15.759-3.358c-1.503,0-2.879,0.088-3.98,0.255
			c-16.303,2.472-27.153,21.882-25.61,36.931c1.274,12.418,9.098,23.996,20.588,30.652l6.029-3.031
			c-10.819-5.094-20.435-18.926-18.234-28.701c1.183-5.254,2.714-9.697,7.089-13c6.171-4.658,15.045-5.895,21.027-0.684
			c1.568,0.275,3.077,0.678,4.476,1.055c1.017,0.273,1.977,0.532,2.82,0.701c0.678,0.137,1.404,0.309,2.161,0.488
			c1.784,0.424,3.628,0.863,5.185,0.863c1.801,0,2.332-0.588,2.721-1.189C136.443,203.241,121.756,193.209,121.127,192.787z"/>
		<path fill="#73776C" d="M91.036,211.534c-5,3-7.454,8.643-8,14c-1.375,13.5,8.54,23.607,19.359,28.701l6.113-3.074
			c-6.078-3.477-14.047-9.031-16.402-15.27c-1.723-4.564-1.333-9.779,1.071-14.311c2.602-4.902,7.128-8.438,12.417-9.699
			c1.005-0.24,2.086-0.361,3.213-0.361c1.177,0,2.338,0.133,3.469,0.33C106.295,206.64,97.75,207.698,91.036,211.534z"/>
	</g>
	<g>
		<path fill="#E5DFDE" stroke="#000000" stroke-miterlimit="10" d="M24.077,297.978c-4.641-4.236-8.449-14.971-8.992-21.035
			c-1.654-18.443,15.688-35.541,33.224-37.971c14.806-2.051,32.779,8.316,42.584,19.527l-5.283,22.971
			c-1.189-1.73-15.774-19.865-24.345-20.908c-8.309-1.012-15.683,6.402-15.635,14.814c0.022,4.066,3.019,8.076,4.62,11.494
			c1.906,4.07,5.93,9.85,1.833,14.184C43.18,310.476,30.232,303.595,24.077,297.978z"/>
		<path fill="#ABB8AD" d="M26.773,295.022c-2.579-2.354-5.525-8.457-7.006-14.512c-0.357-1.459-0.599-2.816-0.698-3.926
			c-1.473-16.424,14.805-31.574,29.789-33.65c12.365-1.713,31.438,8.16,40.634,17.738l-1.48,6.555
			c-7.518-9.299-29.239-20.354-38.21-15.893c-4.823,2.396-8.775,4.939-10.944,9.975c-3.059,7.102-2.151,16.014,4.332,20.586
			c0.639,1.459,1.389,2.83,2.087,4.098c0.508,0.924,0.987,1.795,1.352,2.572c0.294,0.627,0.634,1.291,0.988,1.984
			c0.835,1.631,1.701,3.318,2.07,4.832c0.428,1.748-0.017,2.404-0.509,2.924C40.568,307.415,27.333,295.532,26.773,295.022z"/>
		<path fill="#73776C" d="M37.835,261.339c1.726-5.57,6.624-9.295,11.698-11.098c12.787-4.543,30.96,7.688,38.478,16.986
			l-1.534,6.668c-4.821-5.076-18.109-16.498-24.728-17.305c-4.843-0.588-9.817,1.029-13.646,4.441
			c-4.144,3.691-6.503,8.928-6.472,14.365c0.006,1.033,0.145,2.113,0.413,3.207c0.28,1.145,0.685,2.24,1.146,3.291
			C36.706,277.323,35.704,268.771,37.835,261.339z"/>
	</g>
</g>
<g>
	<path fill="#E9E1EE" stroke="#000000" stroke-miterlimit="10" d="M191.111,362.905c0,0-62.313,9.338-89.102-18.344
		c-21.298-22.008-16.026-61.639,12.999-74.055c39.535-16.912,66.204,23.871,65.684,23.314l30.345-17.287
		c-20.221-24.033-100.5-68.34-142.726,12.223c-13.855,26.434-11.024,68.504,11.201,90.756c19.199,19.223,43.609,29.4,69.577,32.971
		c12.537,1.723,38.172,5.57,43.797-7.148C198.397,392.87,191.111,362.905,191.111,362.905z"/>
	<path fill="#ABB8AD" d="M84.036,358.534c-16-23-16-51-2-74c11-18,26-30,47-33c27.673-4.771,52.609,10.492,71.344,28.41
		c1.675-1.242,3.333-2.518,4.969-3.846c-16.719-18.408-40.041-28.877-64.589-28.877c-30.078,0-55.814,16.205-68.845,43.313
		c-11.823,24.596-11.198,64.588,10.426,86.24c17.35,17.371,39.99,28.177,67.292,31.931c3.155,0.434,6.731,0.847,10.343,0.847
		c0.001,0,0.001,0,0.002,0c11.489,0,26.217-3.78,33.097-7.562c-0.444-4.25-1.488-7.343-1.444-11.823
		C154.072,399.739,108.735,391.782,84.036,358.534z"/>
	<path fill="#73776C" d="M115.008,270.507c8.127-3.477,13.887-4.844,21.069-4.844c20.546,0,31.955,12.857,44.615,28.158
		c5.765-3.637,14.315-9.9,19.688-13.877c-18.734-17.918-43.67-33.182-71.344-28.41c-21,3-36,15-47,33c-14,23-14,51,2,74
		c24.699,33.248,70.036,41.201,107.595,31.629c0.017-1.746-0.033-3.918,0-5.629c0.127-6.549,0.226-16.172-0.521-21.629
		c-4.864-0.209-12.854-0.408-18.251-0.438c-25.145-0.139-50.534,2.266-69.961-16.461c-11.642-11.223-16.513-25.6-13.433-42.395
		C92.45,287.341,100.539,276.696,115.008,270.507z"/>
</g>
<g>
	<g>
		<path fill="#E9E1EE" stroke="#000000" stroke-miterlimit="10" d="M152.669,415.808c-2.688-1.16-4.918-3.357-7.032-5.311
			c-5.036-4.658-16.097-22.447-17.101-29.855l-9.319,7.93c-1.858,3.209,3.152,22.76,4.517,25.592
			c4.362,9.057,12.552,16.23,21.868,21.256"/>
		<path fill="#F8ECCF" d="M146.174,411.421c-2.819-2.609-4.673-4.871-6.615-7.576c-1.441-2.008-10.097-21.178-11.023-23.203
			l-9.319,7.93c0.237,1.215,9.729,32.686,18.551,39.229c2.532,1.877,6.447,3.262,8.705,4.82c1.76-5.826,3.356-11.678,6.181-16.785
			C149.088,414.384,146.174,411.421,146.174,411.421z"/>
		<path fill="#D9E0D1" d="M147.953,411.202c-3.444-2.35-6.182-5.721-9.19-8.736c-1.337-1.338-11.91-20.271-13.489-19.053
			c-0.368,0.283-2.622,2.104-2.622,2.104s18.169,32.352,24.95,37.584c0.419,0.324,0.941,0.637,1.534,0.941
			c1.029-3.018,2.208-6.598,3.749-9.295C150.86,413.671,149.862,412.503,147.953,411.202z"/>
	</g>
	<g>
		<path fill="#E9E1EE" stroke="#000000" stroke-miterlimit="10" d="M205.008,369.591c-0.767-6.584-11.215-8.361-16.116-5.467
			c-5.591,3.299-7.144,10.193-6.475,15.859c1.24,10.514,9.139,23.879,20.428,27.977c12.85,4.664,28.744,3.344,36.705-7.596
			c8.394-11.535,6.333-22.74,1.894-36.299c-1.979-6.041-5.289-11.268-11.208-15.066c-6.75-4.334-15.519-3.535-23.24-6.412
			c-2.954-30.658-55.547-20.076-66.78-2.645c-4.302,6.676-3.527,13.32-4.199,20.641c-10.264,4.086-18.75,17.654-16.799,27.988
			c1.509,7.986,12.142,23.816,23.318,24.9c0.003,0,9.267,1.324,12.952-1.969c8.758-7.826,4.735-29.809,7.948-34.238
			c5.143-7.092,8.999-12.221,21.969-9.924"/>
		<path fill="#94A4CF" d="M202.867,369.503c-1.448-1.834-5.066-1.242-7.202-1.146c-3.403,0.156-5.282,1.547-6.935,4.186
			c-2.597,4.137-0.79,9.281,0.62,13.703c1.53,4.799,3.255,8.738,7.525,12.021c4.145,3.189,11.405,5.324,16.623,5.736
			c5.929,0.465,11.028-0.83,15.941-3.307c5.694-2.871,8.886-6.922,10.378-12.766c1.408-5.512,0.071-11.035-0.844-16.791
			c-0.97-6.092-3.546-10.941-7.752-15.789c-3.841-4.428-10.108-5.18-15.645-6.186c-2.841-0.518-14.2-1.953-16.057-3.879
			c-2.048-2.121-0.443-6.139-2.323-8.402c-3.881-4.67-12.727-11.529-26.575-9.25c-6.218,1.023-11.363,2.986-16.378,6.27
			c-4.609,3.016-10.422,7.301-10.866,12.807c-0.198,2.457-0.367,5.045-0.988,7.479c-0.525,2.061-0.288,5.51-1.59,7.014
			c-0.995,1.148-3.282,1.273-4.622,2.137c-8.773,5.646-14.863,17.305-12.19,27.568c1.326,5.094,4.204,10.121,8.313,13.875
			c3.767,3.438,8.563,3.865,13.886,3.275c6.55-0.725,18.406-1.486,26.672-12.93c7.031-9.736,10.786-30.305,13.717-31.994
			c2.554-1.475,4.617-1.332,7.681-0.941c4.325,0.549,6.841,0.984,9.62,4.5c1.51,1.914,1.592,5.502-1.081,2.471"/>
		<path fill="#5E5264" d="M196.565,362.122c-1.504-1.998-1.863-4.082-4.513-5.355c-2.385-1.143-5.713-0.93-8.263-1.004
			c-6.897-0.197-12.94,0.734-18.344,4.66c-6.073,4.414-10.457,10.387-12.614,17.23c-1.55,4.918-1.75,11.285,2.292,15.678
			c2.166-0.662,2.197-6.201,2.672-7.955c0.839-3.107,2.328-6.477,3.942-9.221c2.627-4.469,6.646-7.609,12.145-8.865
			c3.632-0.828,7.903-1.305,11.525,0.051c1.343-2.893,5.789-4.643,9.134-4.58c-0.196-0.176-0.183-0.408-0.283-0.568"/>
	</g>
	<g>
		<path fill="#E9E1EE" stroke="#000000" stroke-miterlimit="10" d="M162.36,411.659c-2.216,3.404,5.918,16.477,6.991,18.889
			c5.24,11.779,19.93,17.674,34.528,18.568c10.551,0.648,21.053-2.613,30.791-11.354c5.121-4.594,12.94-11.984,15.705-18.166
			c4.706-10.512,6.421-20.668,2.902-29.088c-3.193-7.637-13.123-13.643-21.996-13.912c-12.299-0.377-26.182,11.066-32.116,22.627
			c-2.198,4.283-4.893,11.131-2.563,16.164c1.835,3.961,7.071,9.322,11.631,10.107c-1.354,1.219-6.428,1.133-8.184,1.102
			c-3.453-0.059-5.9-2.121-8.226-3.857c-4.58-3.412-13.831-18.068-14.052-24.885L162.36,411.659z"/>
		<path fill="#F8ECCF" d="M184.686,438.999c-3.341-4.361-18.529-29.541-18.636-30.645l11.723-10.5
			c0.717,1.734,7.397,18.174,8.635,19.789c1.669,2.178,3.296,3.955,5.859,5.865c0,0,3.531,3.016,7.783,3.088
			c6.449,0.115,5.416,2.264,7.696,0.217l2.071-1.902c-2.265-0.391-5.747-4.305-8.099-7.377c-0.702-0.916-0.666-4.229-1.031-5.018
			c-1.577-3.41,0.352-8.533,2.246-12.227c4.854-9.457,16.521-19.465,26.913-19.15c6.368,0.193,13.529,3.873,17.416,8.943
			c0.801,1.047,1.436,2.121,1.884,3.193c2.806,6.711,1.903,15.309-2.684,25.555c-2.208,4.941-8.203,11.863-12.981,16.15
			c-8.292,7.441-19.812,11.873-29.349,11.285C197.483,445.86,189.489,445.259,184.686,438.999z"/>
	</g>
	<g>
		<path fill="#E9E1EE" stroke="#000000" stroke-miterlimit="10" d="M155.54,416.103c-0.937,3.955,11.13,13.516,12.955,15.424
			c8.906,9.32,24.724,9.912,38.768,5.83c10.151-2.949,18.938-9.563,25.155-21.076c3.271-6.053,8.138-15.646,8.655-22.398
			c0.883-11.484-0.929-21.623-7.082-28.361c-5.583-6.111-16.956-8.416-25.4-5.676c-11.705,3.795-20.914,19.25-22.599,32.135
			c-0.624,4.773-0.85,12.129,3.042,16.082c3.064,3.109,9.801,6.389,14.36,5.59c-0.864,1.604-5.669,3.236-7.333,3.799
			c-3.271,1.109-6.27-0.008-9.045-0.855c-5.462-1.668-19.117-12.344-21.625-18.688L155.54,416.103z"/>
		<path fill="#F8ECCF" d="M185.78,434.308c-4.616-2.979-27.408-21.557-27.882-22.561l7.493-13.84
			c1.261,1.393,13.096,14.615,14.806,15.717c2.305,1.486,4.437,2.609,7.495,3.545c0,0,4.341,1.646,8.369,0.281
			c6.11-2.068,5.862,0.303,7.317-2.395l1.308-2.488c-2.264,0.395-6.862-2.113-10.113-4.213c-0.97-0.625-2.053-3.754-2.664-4.375
			c-2.635-2.678-2.548-8.15-2.01-12.268c1.378-10.539,8.985-23.898,18.874-27.107c6.06-1.967,14.042-0.918,19.412,2.545
			c1.107,0.715,2.067,1.512,2.851,2.369c4.905,5.371,6.957,13.77,6.095,24.963c-0.412,5.395-3.72,13.934-6.771,19.582
			c-5.295,9.803-14.645,17.861-23.821,20.527C200.142,436.448,192.414,438.581,185.78,434.308z"/>
		<path fill="#D9E0D1" d="M221.536,382.952c4.917-3.084,4.477,6.168,5.184,10.531c0.591,3.654-0.542,11.598-2.35,15.676
			c-3.633,8.195-7.938,13.758-12.548,16.725c-3.895,2.508-13.6,6.035-17.312,5.367c-7.129-1.283-30.243-21.723-30.243-21.723
			s1.589-2.875,1.851-3.33c1.126-1.965,14.602,10.031,16.075,10.566c3.315,1.213,5.784,3.74,9.336,4.107
			c2.938,0.299,5.863,0.912,8.984,0.01c5.744-1.658,16.205-6.828,19.205-13.785C221.66,402.603,219.349,384.323,221.536,382.952z"/>
	</g>
	<g>
		<path fill="#E9E1EE" stroke="#000000" stroke-miterlimit="10" d="M165.113,433.397c1.979,3.037,17.219,1.164,19.835,1.166
			c12.773,0.012,24.712-9.791,32.213-21.33c5.422-8.342,7.382-18.059,4.171-29.141c-1.688-5.826-4.595-14.861-8.763-19.35
			c-7.085-7.635-15.233-12.713-24.258-12.904c-8.188-0.174-18.039,5.719-22.356,12.832c-5.987,9.859-2.303,25.291,5.141,34.305
			c2.757,3.34,7.543,8.012,13.044,7.943c4.329-0.057,11.453-2.367,14.243-5.787c0.448,1.541-1.959,5.635-2.794,7.049
			c-1.641,2.785-4.582,4.025-7.176,5.287c-5.109,2.484-22.259,4.691-28.359,2.398L165.113,433.397z"/>
		<path fill="#F8ECCF" d="M199.434,425.163c-5.372,1.135-34.51,4.352-35.532,4.039l-3.848-13.336
			c1.856,0.047,19.394,0.578,21.384,0.156c2.683-0.566,4.993-1.246,7.855-2.635c0,0,4.276-1.777,6.295-5.207
			c3.066-5.199,4.482-3.582,3.729-6.176l-0.721-2.373c-1.386,1.699-6.43,3.109-10.215,3.908c-1.128,0.238-4.025-0.992-4.889-0.982
			c-3.726,0.047-7.345-3.377-9.724-6.258c-6.088-7.373-9.53-20.484-4.475-28.816c3.099-5.104,9.627-9.59,15.877-10.91
			c1.29-0.271,2.526-0.398,3.676-0.375c7.194,0.152,14.345,4.004,21.25,11.447c3.331,3.586,6.665,10.967,8.241,16.404
			c2.734,9.438,1.335,20.406-3.566,27.945C211.355,417.251,207.152,423.53,199.434,425.163z"/>
		<path fill="#D9E0D1" d="M189.751,377.833c2.343-3.375,5.35-6.428,9.587-5.545c3.524,0.738,7.835,6.254,9.26,9.928
			c2.866,7.379,1.956,15.455,1.658,20.766c-0.256,4.555-2.43,14.559-5.588,16.533c-6.066,3.793-42.494,3.693-42.494,3.693
			s-0.775-2.793-0.891-3.24c-0.5-1.932,17.407-3.211,18.844-3.826c3.235-1.385,6.737-1.418,9.576-3.477
			c2.346-1.703,4.894-3.205,6.564-5.766c3.075-4.715,9.311-14.268,6.818-20.477c-1.608-4.016-4.888-9.016-7.715-7.496
			C193.332,380.024,187.974,380.394,189.751,377.833z"/>
	</g>
	<g>
		<path fill="#E9E1EE" stroke="#000000" stroke-miterlimit="10" d="M145.603,435.419c4.912,2.65,10.131,4.713,15.279,6.115
			c10.777,2.938,21.058,1.643,29.934-5.73c4.668-3.875,11.753-10.197,13.853-16.289c3.57-10.354,4.147-20.959-0.384-30.795
			c-4.113-8.926-15.301-15.871-24.498-17.186c-12.25-1.75-24.696,3.896-29.392,15.121c-1.74,4.16-3.026,10.49-2.099,17.045
			c0.726,5.133,2.237,9.949,6.558,12.57c1.658,1.006,5.871,2.857,16.778,1.986"/>
		<path fill="#F8ECCF" d="M200.411,390.831c-0.577-1.254-1.344-2.547-2.277-3.848c-4.523-6.301-12.118-10.014-18.598-11.574
			c-10.576-2.543-22.375,4.375-25.667,12.209c-1.506,3.584-3.189,9.688-3,14.166c0.167,3.943,1.6,7.863,2.417,9
			c3.846,5.357,13.531,6.75,18.345,7.473c-3.033,1.402-7.488,1.719-14.113-0.156c-0.593-0.168-5.14-2.412-5.715-2.646
			c-2.824,5.107-4.164,10.916-5.924,16.742c4.604,3.178,10.375,5.074,14.932,6.316c9.74,2.654,20.919,0.313,28.48-5.965
			c4.355-3.619,9.644-9.822,11.32-14.689C204.092,407.767,204.023,398.673,200.411,390.831z"/>
		<path fill="#D9E0D1" d="M190.567,407.847c-1.656-9.188-5.718-12.32-11.218-12.313c-3.52,0.006-6.75,2.938-6.8,6.688
			c-0.042,3.121,6.8,4.135,4.3,11.514c-2.261,6.672-12.803,5.945-18.951,4.467c-3.268-0.787-5.014-2.49-5.903-3.584
			c-1.541,2.697-2.67,5.938-3.7,8.955c4.402,2.258,13.836,4.371,17.765,4.219c5.275-0.203,14.358-0.736,19.891-6.432
			C188.704,418.526,191.317,412.009,190.567,407.847z"/>
	</g>
</g>
<g>
	<path fill="#E9E1EE" stroke="#000000" stroke-miterlimit="10" d="M194.19,332.077c35.348,25.826,81.442,4.777,96.343-19.832
		c-10.026-21.482-18.276-37.07-51.515-44.887c-11.983-2.818-56.756,13.041-70.481,32.328
		C172.288,313.661,187.508,327.196,194.19,332.077z"/>
	<path fill="#94A4CF" d="M189.181,292.386c18.67-12.283,42.703-18.217,47.413-17.34c26.815,6.307,34.585,17.6,43.644,36.559
		c-38.565,38.484-90.515,8.51-101.603-10.533c2.617-2.83,6.176-5.813,10.542-8.684C189.178,292.388,189.179,292.386,189.181,292.386
		z"/>
	<path fill="#5E5264" d="M260.229,303.929c-0.076-7.527-13.629-12.566-18.938-14.004c-3.73-1.01-19.344-2.252-22.691,8.123
		c-4.827,14.959,20.771,16.328,24.705,15.488C249.781,312.153,260.292,310.274,260.229,303.929z"/>
</g>
<g>
	<g>
		<path fill="#E9E1EE" stroke="#000000" stroke-miterlimit="10" d="M301.962,128.383c-0.203-4.082,4.573-10.365,8.236-12.672
			c3.094-1.949,10.062-1.773,13.338-0.131l0,0c-3.276-1.642-10.244-1.817-13.338,0.131c-3.663,2.307-4.531,7.576-4.328,11.657
			c0.251,5.079,3.376,9.091,7.208,12.203c6.058,4.919,14.955,8.852,22.584,4.755c3.277-1.76,7.014-5.083,9.416-7.955
			c2.76-3.3,4.307-10.242,4.958-14.67c1-6.796-2.861-18.383-5.833-22c-4.933-6.003-9.915-11.05-18-13.5
			c-5.5-1.667-20.5-0.265-27.834,3.167c-4.965,2.323-9.532,9.036-12.5,13.667c-1.187,1.852-5.05,7-5.667,9l18.167,17.281
			L301.962,128.383z"/>
		<path fill="#94A4CF" d="M328.741,142.037c-3.992,0-8.782-2.03-13.142-5.57c-3.698-3.003-5.573-6.043-5.734-9.295
			c-0.146-2.918,0.718-6.395,2.465-8.075c1.623-1.561,5.206-3.328,11.206-3.516c0,0-2.774-1.378-7.5-1.378
			c-2.108,0-4.443,0.631-5.838,1.509c-3.833,2.414-6.827,6.961-8.236,12.198l-16.812-16.688c0.859-1.346,1.98-2.957,2.597-3.842
			c0.619-0.891,1.155-1.663,1.49-2.187c1.786-2.787,6.531-10.191,10.827-12.201c4.253-1.99,12.64-3.491,19.508-3.491
			c3.36,0,4.945,0.371,5.471,0.53c6.722,2.038,10.982,6.021,16.069,12.212c2.412,2.936,5.776,13.372,4.967,18.877
			c-0.849,5.765-2.445,10.745-4.069,12.687c-2.301,2.75-5.689,5.627-8.24,6.997C332.224,141.633,330.578,142.037,328.741,142.037z"
			/>
	</g>
	<g>
		<g>
			<g>
				<path fill="#E5DFDE" stroke="#000000" stroke-miterlimit="10" d="M166.036,156.368c1.89-2.843,3.685-7.61,5.667-10.349
					c3.118-4.309,6.821-8.595,10.5-12.485c8.643-9.137,19.078-15.959,30.5-20.833c7.735-3.301,13.727-4.002,22-3.5
					c2.982,0.181,12.458,3.589,12.458,3.589s1.49-0.091,2.494-1.131c3.917-4.059,9.468-5.82,14.8-7.137
					c4.775-1.179,9.868-1.459,14.672-0.281c5.175,1.27,9.748,3.642,13.475,7.323c10.935,10.803,14.949,25.096,7.935,39.469
					c-2.027,4.154-1.18,10.207-4.389,13.559c-2.356,2.461-4.974,4.636-7.565,6.84c-4.348,3.698-8.595,7.544-13.18,10.95
					c-1.836,1.364-4.074,2.028-5.939,3.343c-1.199,0.846-2.222,2.225-3.838,1.725c-1.39-0.43-2.281-2.268-2.742-3.514
					c-2.163-5.855-7.011-10.401-10.722-15.278c-1.506-1.979-3.004-4.093-4.872-5.744c-1.623-1.434-3.438-1.759-5.378-2.534
					c-5.068-2.025-10.484-3.421-16.031-4.375c-5.569-0.958-11.201-1.921-16.844-2.378c-6.275-0.508-12.398-0.016-18.597,1.062
					c-8.114,1.411-16.333,3.282-23.039,8.374c-0.959,0.729-1.871,1.54-2.881,2.199c-0.348,0.227-3.526,1.06-3.573,1.146
					C160.947,166.409,163.821,159.701,166.036,156.368z"/>
				<path fill="#94A4CF" d="M266.302,185.558c-0.019,0-0.05-0.006-0.085-0.017c-0.266-0.082-0.896-0.778-1.458-2.296
					c-1.694-4.588-4.014-4.193-7.046-7.802c-1.113-1.326-2.867-3.354-3.848-4.643l-1.704-2.14c-1.364-1.809-2.272-3.391-4.044-4.957
					c-1.502-1.328-2.263-1.92-3.774-2.443c-0.453-0.156-1.283-0.434-1.751-0.622c-4.848-1.937-10.653-3.59-16.711-4.632
					c-5.518-0.949-10.313-1.845-16.111-2.315c-1.701-0.138-3.485-0.26-5.233-0.26c-4.354,0-9.095,0.389-14.096,1.258
					c-7.769,1.351-15.309,2.516-22.551,8.016c-0.345,0.262-3.029,2.286-3.369,2.558c-0.062,0.049-3.512,1.097-3.573,1.146
					c0.863-1.763,3.172-7.004,4.038-8.307c0.955-1.437,2.339-3.885,3.22-5.671c0.943-1.914,11.373-13.21,15.452-17.522
					c8.039-8.499,19.624-16.024,31.38-21.041c5.802-2.476,18.418-2.096,20-2c1.962,0.119,13.333,3.472,13.333,3.472
					s8.438-6.593,13.543-7.854c2.629-0.649,8.247-2,10.736-2c2.093,0,4.112,0.235,6.001,0.698c4.995,1.226,10.056,4.061,13.386,7.35
					c11.012,10.879,12.489,23.28,6.271,36.021c-0.967,1.982-0.911,4.81-1.275,6.963c-0.45,2.66-0.875,5.173-2.328,6.692
					c-2.067,2.159-4.42,4.156-6.695,6.087l-0.722,0.613c-1.06,0.901-2.113,1.811-3.167,2.721c-3.193,2.759-6.496,5.612-9.909,8.146
					c-0.804,0.597-1.752,1.062-2.757,1.553c-1.04,0.509-2.114,1.035-3.143,1.761c-0.31,0.218-0.61,0.466-0.909,0.714
					C267.063,185.088,266.498,185.558,266.302,185.558z"/>
			</g>
			<path fill="#725C90" d="M246.473,124.208c-3.287-1.033-7.483-1.918-10.77-2.007c-8.083-0.218-15.499-0.27-23.167,2.167
				c-6.886,2.188-13.767,4.787-20.333,7.833c-6.829,3.168-12.844,9.671-18.387,14.703c-5.333,4.84-9.799,9.732-10.428,17.139
				c-0.579,0.429-1.275,0.7-1.68,1.319c8.569-6.188,17.872-11.308,28.57-12.26c7.13-0.634,14.426-0.772,21.582-0.646
				c5.116,0.091,9.738,1.095,14.682,2.224c5.252,1.199,10.721,1.167,15.927,2.589c5.246,1.433,8.683,4.55,11.294,9.226
				c4.473,8.01,8.86,20.121,20.316,16.676c5.589-1.68,12.49-6.271,13.831-12.261c1.184-5.285,1.125-9.5-0.25-14
				c-0.539-1.764-3.286-5.731-2.406-7.497c1.043-2.093,2.667-3.846,3.597-6.006c1.029-2.391,1.605-4.945,1.6-7.553
				c-0.013-5.059-2.024-10.234-5.282-14.087c-6.025-7.126-17.62-7.756-25.911-4.658c-4.53,1.693-6.698,5.006-8.248,9.394
				C249.658,125.456,248.113,124.724,246.473,124.208z"/>
			<path fill="#5E5264" d="M169.37,152.701c2.729-4.398,8.415-7.82,12.74-10.75c9.944-6.737,20.528-10.04,32.427-11.971
				c10.167-1.65,23.429-0.009,33.5,2.545c4.384,1.112,9.412,3.582,11.333,8.01c3.227,7.437-2.935,6.922-6.833,6.167
				c-5.4-1.047-9.397-4.574-14.833-6c-5.941-1.559-16.535-2.853-22.667-2.5c-11.817,0.679-23.076,3.661-32.674,11.009
				c-6.829,5.228-20.108,16.699-21.415,17.199C160.947,166.409,167.515,155.691,169.37,152.701z"/>
		</g>
		<g>
			<path fill="#E5DFDE" stroke="#000000" stroke-miterlimit="10" d="M301.49,156.701c-2.261-5.215-7.655-9.984-12.704-12.917
				c-4.749-2.758-13.09-1.623-16.583,2.218c-2.319,2.55-3.434,7.152-1.541,11.373c0.004-3.229,1.128-6.595,3.374-8.84c6-5,15-2,19,3
				c7,11,8,29-3,35c-9.169,5.001-23.197,3.743-31.668-4.921c-0.373,0.769-0.352,1.817,0.163,3.092
				c1.16,2.874,4.078,4.311,6.505,5.995c5.193,3.603,12.398,3.601,18.5,2.962c6-0.629,12.667-5.962,16-10.462
				C302.842,178.739,305.536,166.035,301.49,156.701z"/>
			<path fill="#94A4CF" d="M291.12,187.035c9.417-5.357,11.959-24.895,2.333-35.75c-4-5-12.917-8.875-19.833-3.417
				c-2.246,2.246-3.843,7.094-2.942,10.46c1.101,2.453,3.199,3.824,6.692,5.54c0,0,0.872-6.334,3.667-7.5
				c2.354-0.982,4.466,2.535,5.5,4.5c1.667,3.167,0.5,6.993-0.826,10.087c-1.924,4.489-4.039,6.729-8.165,9.12
				c-5.141,2.979-10.464,0.577-15.671,0.122c-1.757-0.154-2.999,0.371-3.505,1.417C264.37,192.784,282.042,192.198,291.12,187.035z"
				/>
		</g>
		<g>
			<path fill="#E5DFDE" stroke="#000000" stroke-miterlimit="10" d="M260.661,205.052c4.458-5.51,6.188-12.672,4.764-20.906
				c-1.407-8.13-7.762-15.506-13.764-21.111c-3.573-3.337-8.206-6.207-12.625-8.25c-9.614-4.444-21.647-7.426-32.381-8.471
				c-10.285-1-22.365,0.327-31.606,5.177c-2.418,1.269-4.793,2.896-6.785,4.773c-2.257,2.127-4.346,4.797-5.832,7.525
				c-1.837,3.373-3.372,7.08-4.52,10.745c-0.917,2.928-1.673,5.916-2.286,8.922c-0.75,3.684-1.062,6.962-0.757,10.723
				c0.142,1.751,0.932,5.886-1.244,6.792c3.604-1.502,4.934-15.65,8.535-19.812c2.874-3.321,7.057-5.041,11.239-6.023
				c4.554-1.07,10.317-1.739,14.876-0.403c3.974,1.165,6.786,4.364,9.24,7.521c3.284,4.224,6.063,8.808,8.756,13.422
				c2.465,4.223,4.845,8.791,8.891,11.732C226.034,215.317,248.536,220.034,260.661,205.052z"/>
			<path fill="#94A4CF" d="M238.735,210.534c-9.045,0-17.057-2.424-21.449-5.482c-2.969-2.068-8.625-7.518-15.325-16.469
				c-1.276-1.706-2.58-3.918-3.967-5.702l-0.48-0.626c-2.469-3.185-4.209-6.046-9.24-7.521c-2.075-0.608-3.207-0.806-5.738-0.806
				c-3.754,0-7.695,0.891-10.247,1.491c-6.505,1.528-8.654,4.439-11.209,7.393c-0.689,0.797-5.379,15.616-7.455,18.159
				c0.012-0.711,1.327-14.249,1.646-15.585c0.625-2.61,0.554-6.502,1.439-9.329c1.222-3.901,3.664-8.462,5.17-11.229
				c1.433-2.631,4.617-6.902,6.382-8.565c1.707-1.608,4.676-3.667,6.785-4.773c5.972-3.134,17.49-5.471,26.491-5.471
				c1.737,0,7.793,0.687,10.22,0.923c10.751,1.046,18.173,3.633,27.277,7.842c4.5,2.081,8.003,5.326,11,8.125
				c7.455,6.962,10.455,16.183,11.447,21.918c1.201,6.941-0.122,12.848-3.932,17.556
				C253.175,207.792,246.844,210.534,238.735,210.534z"/>
			<path fill="#725C90" d="M234.55,201.864c-6.678,0-11.851-5.77-15.26-8.248c-1.661-1.208-8.594-13.977-12.301-18.746
				c-2.344-3.013-7.218-9.281-15.339-11.661c-2.772-0.812-5.924-0.623-9.207-1.224c-3.776-0.691-21.615,8.945-24.445,10.646
				c0,0,2.435-5.68,3.884-7.802c5.775-12.92,23.058-19.603,32.78-19.317c1.792,0.053,11.363-0.084,13.107,0.01
				c12.163,0.658,23.21,4.108,32.435,8.513c3.64,1.738,6.439,8.67,8.708,12.125c4.692,7.145,5.775,17.032,5.875,19.75
				c0.185,5-1.126,8.566-3.454,11.442C248.51,200.839,240.205,201.864,234.55,201.864z"/>
		</g>
	</g>
	<g>
		<path fill="#E5DFDE" stroke="#000000" stroke-miterlimit="10" d="M201.018,181.381c-0.203,2.953,2.639,7.608,5.694,7.547
			c7.262-0.144,13.137-20.144,1.809-28.289c-4.878-3.507-11.166,0.135-13.679-2.91c-1.639-1.986-4.931-4.278-10.056-4.444
			c-11.753-0.382-20.719,9.607-26.249,19.256c-13.136,22.917-6.881,55.841,11.08,74.402c6.481,6.697,13.799,11.354,21.975,15.654
			c11.258,5.922,58.86,13.988,69.111,12.938c11.998-1.229,47.378-7.531,58.667-11.666c11.834-4.334,32-23.666,36.362-37.151
			c0.377-1.165-20.264,1.711-27.448,2.94c-7.024,1.203-13.855,3.361-20.865,4.658c-11.633,2.15-23.548,1.674-35.178-0.242
			c-6.538-1.076-12.991-2.612-19.36-4.432c-6.963-1.988-11.651-5.707-16.155-11.295c-2.572-3.19-6.138-2.343-9.937-3.256
			c-7.322-1.761-14.429-5.277-19.433-10.981C201.705,197.67,200.447,189.675,201.018,181.381z"/>
		<path fill="#D9E0D1" d="M258.479,273.628c-13.063,0-55.507-7.305-65.956-12.801c-9.547-5.023-15.968-9.592-21.469-15.275
			c-18.028-18.63-22.865-50.937-10.782-72.017c3.909-6.82,12.207-18.261,23.861-18.261c0.194,0,0.391,0.003,0.587,0.01
			c5.11,0.166,7.701,2.656,8.578,3.718c1.499,1.816,3.664,2.149,5.579,2.062c3.345-0.154,6.898,0.066,8.475,1.2
			c5.767,4.146,6.464,12.051,4.598,18.046c-1.182,3.798-3.402,6.582-5.278,6.619c-0.524,0-1.173-0.385-1.8-1.057
			c-1.259-1.348-3.736-7.45-3.736-7.45s-1.941,2.135-2.264,3.021c-3.437,9.443,1.68,17.945,6.979,23.985
			c6.144,7.002,14.522,10.177,20.469,11.606c1.249,0.3,2.468,0.429,3.543,0.542c2.563,0.271,4.073,0.498,5.304,2.025
			c5.184,6.43,10.316,10.008,17.163,11.963c6.995,1.997,13.401,3.463,19.584,4.482c6.786,1.117,13.332,1.684,19.455,1.684
			c5.689,0,11.212-0.488,16.412-1.449c3.384-0.627,6.752-1.456,10.011-2.258c3.543-0.873,7.207-1.775,10.828-2.396
			c5.782-0.989,18.628-2.797,24.259-3.13c-5.897,12.76-26.524,30.707-34.192,33.49C307.363,266.099,266.161,273.628,258.479,273.628
			z"/>
		<path fill="#9CB098" d="M176.694,170.026c1.848-0.766,6.134-0.626,8.004,0.004c4.047,1.365,4.784,4.876,3.802,8.651
			c-1.002,3.851-2.278,7.572-1.816,11.603c1.801,15.734,14.389,27.864,26.87,36.232c3.682,2.469,7.702,4.87,11.815,6.555
			c13.2,5.408,25.918,12.883,40.334,14.508c6.455,0.727,12.854,2.176,19.348,2.34c30.984,0.783,48.572-15.262,51.688-11.561
			c2.695,3.201,0.228,10.441-2.163,13.348c-0.941,1.146-7.268,6.502-16.86,10.619c-8.762,3.76-20.477,6.301-28.681,7.367
			c-2.833,0.369-19.907,3.025-25.644,3.535c-16.559,1.475-33.438-3.559-48.854-9.623c-4.373-1.719-8.994-3.084-12.845-5.777
			c-10.972-7.674-19.55-16.373-26.491-28.793c-1.776-3.177-3.816-8.125-4.667-11.666c-1.127-4.695-2.589-11.176-2.833-16
			c-0.363-7.15,1.498-14.133,3-21.167c0.327-1.53,1.017-2.961,1.642-4.301C172.345,175.9,174.863,170.785,176.694,170.026z"/>
		<path fill="#8A7C74" d="M178.646,178.875c-10.043,33,15.637,57.76,45.265,69.159c7.959,3.063,20.491,6.66,26.75,9
			c7.637,2.855,20.125,5.043,19.917,6.209c-0.217,1.215-20.897-1.385-25.042-1.834c-7.687-0.83-15.168-3.002-22.5-5.871
			c-14.888-5.826-28.911-12.08-38.902-25.527c-5.326-7.168-9.125-16.834-10.709-25.363c-0.851-4.58-0.651-10.385,0-14.974
			c0.487-3.432,2.705-12.949,4.656-12.292C178.536,177.535,178.646,178.875,178.646,178.875z"/>
	</g>
	<g>
		<path fill="#E5DFDE" stroke="#000000" stroke-miterlimit="10" d="M267.203,274.534c-3.505,5.107-15.501,10.34-21.5,11.5
			c-13.343,2.582-22.765,4.061-34.167-4.332c-3.386-2.492-10.187-10.979-12.5-14.5c-5.631-8.572-8.7-23.064-2.667-31.668
			c3.115-4.441,4.313-9.377,10.031-9.969c4.468-0.462,11.62,4.193,14.636,7.636c4.088,4.667,6.199,9.626,6.5,15.667
			c0.242,4.859-0.167,7.662-4.833,11.666c-2.05,1.76-6.229,0.197-8.458-1.041c-1.792-0.996-5.304-3.223-5.033,0.199
			c0.87,10.98,14.574,13.393,23.216,14.75c9.55,1.502,19.517,3.02,29.146,1.297C263.442,275.403,267.203,274.534,267.203,274.534z"
			/>
		<path fill="#D9E0D1" d="M230.157,286.056c-6.454,0-11.831-1.84-17.435-5.965c-3.16-2.326-9.774-10.578-12.014-13.986
			c-5.427-8.262-8.003-21.859-2.7-29.422c0.79-1.127,1.444-2.248,2.077-3.334c2.029-3.479,3.332-5.463,6.522-5.793
			c0.141-0.016,0.286-0.021,0.435-0.021c3.588,0,9.661,3.755,12.491,6.984c3.824,4.365,5.733,8.957,6.007,14.449
			c0.221,4.428-0.092,6.578-4.138,10.049c-0.294,0.252-0.815,0.307-1.201,0.307c-1.583,0-3.674-0.852-4.984-1.578l-0.38-0.215
			c-1.62-0.916-3.075-1.674-4.482-1.674c-1.163,0-1.885,0.52-2.287,0.953c-0.666,0.721,6.007,6.885,7.238,7.307
			c9.797,3.348,13.509,4.857,21.856,6.168c6.22,0.979,8.645,1.5,15.625,1.5c0,0,7.69,1.867,8.162,1.703
			c2.049-0.719-0.345,2.303,2.089,1.965c-1.625,4-13.858,7.873-17.713,8.619C239.511,285.196,234.703,286.056,230.157,286.056z"/>
	</g>
</g>
<g>
	<g>
		<path fill="#E9E1EE" stroke="#000000" stroke-miterlimit="10" d="M429.152,379.706c3.131,2.627,11.024,2.611,15.075,1.084
			c3.421-1.289,7.487-6.951,8.156-10.555l0,0c-0.669,3.604-4.735,9.266-8.156,10.555c-4.051,1.527-8.775-0.961-11.907-3.588
			c-3.897-3.266-5.21-8.178-5.377-13.113c-0.265-7.797,1.971-17.266,9.843-20.873c3.381-1.551,8.286-2.523,12.025-2.705
			c4.297-0.209,10.765,2.748,14.688,4.902c6.021,3.307,12.929,13.379,14.018,17.932c1.809,7.557,2.824,14.576-0.104,22.5
			c-1.991,5.391-12.164,16.504-19.327,20.277c-4.849,2.557-12.958,2.146-18.441,1.717c-2.192-0.172-8.629-0.201-10.596-0.916
			l-2.811-24.916L429.152,379.706z"/>
		<path fill="#94A4CF" d="M432.839,348.907c-2.683,3.543-4.103,9.051-3.896,15.115c0.18,5.287,1.748,9.205,4.663,11.648
			c1.349,1.131,6.049,4.707,9.915,3.248c1.215-0.459,2.783-1.844,4.194-3.709c1.398-1.846,3.144-5.105,3.412-6.553l1.257,1.578
			c-0.477,2.568-2.261,4.885-4.566,7.93c-0.953,1.258-2.407,2.18-3.59,2.625c-4.136,1.559-10.501,1.295-15.075-1.084l-0.801,3.182
			l2.526,22.398c1.736,0.246,4.628,0.361,6.358,0.432c1.052,0.041,1.964,0.078,2.565,0.127c3.794,0.297,12.564,0.758,17.346-1.488
			c6.13-2.875,15.337-12,18.417-19.27c3.063-7.232,1.765-13.936,0.008-21.277c-0.982-4.107-7.724-13.582-13.034-16.643
			c-6.903-3.979-10.145-4.828-13.63-4.66C445.039,342.696,436.786,343.216,432.839,348.907z"/>
	</g>
	<g>
		<g>
			<path fill="#E5DFDE" stroke="#000000" stroke-miterlimit="10" d="M341.993,482.249c3.388-0.426,8.455,0.092,11.789-0.461
				c5.248-0.873,10.734-2.277,15.856-3.838c12.029-3.668,22.787-9.971,32.239-18.023c6.401-5.457,9.699-10.506,12.936-18.137
				c1.166-2.752,2.338-12.754,2.338-12.754s0.745-1.295,2.123-1.729c5.379-1.699,9.429-5.883,12.983-10.07
				c3.184-3.75,5.703-8.184,6.788-13.01c1.169-5.199,1.083-10.35-0.553-15.326c-4.799-14.604-15.808-24.564-31.8-24.689
				c-4.623-0.035-9.663-3.492-14.094-2.111c-3.254,1.014-6.367,2.387-9.495,3.725c-5.247,2.244-10.583,4.334-15.676,6.922
				c-2.039,1.035-3.63,2.744-5.639,3.826c-1.292,0.697-2.982,0.998-3.254,2.668c-0.233,1.436,1.014,3.053,1.926,4.02
				c4.276,4.545,6.187,10.912,8.899,16.408c1.102,2.229,2.326,4.512,2.972,6.922c0.561,2.09,0.043,3.859-0.128,5.941
				c-0.444,5.441-1.608,10.91-3.227,16.301c-1.621,5.412-3.27,10.885-5.374,16.141c-2.342,5.844-5.511,11.107-9.237,16.176
				c-4.878,6.637-10.215,13.16-17.76,16.895c-1.08,0.535-2.213,0.988-3.253,1.6c-0.358,0.211-2.521,2.684-2.618,2.688
				C330.736,482.331,338.022,482.747,341.993,482.249z"/>
			<path fill="#94A4CF" d="M360.533,379.479c-0.009,0.018-0.018,0.047-0.022,0.084c-0.045,0.275,0.296,1.148,1.406,2.328
				c3.353,3.561,1.965,5.461,3.846,9.783c0.691,1.588,1.726,4.061,2.441,5.514l1.157,2.48c1.012,2.025,2.022,3.543,2.636,5.828
				c0.519,1.938,0.711,2.881,0.505,4.467c-0.062,0.477-0.183,1.342-0.223,1.846c-0.428,5.203-1.533,11.137-3.301,17.023
				c-1.608,5.363-2.941,10.057-5.104,15.457c-0.635,1.584-1.321,3.236-2.1,4.801c-1.939,3.896-4.4,7.969-7.407,12.059
				c-4.671,6.354-9.073,12.584-17.223,16.617c-0.389,0.193-3.396,1.695-3.79,1.877c-0.071,0.031-2.548,2.654-2.618,2.688
				c1.963,0.014,7.684,0.281,9.235,0.088c1.713-0.217,4.521-0.363,6.513-0.357c2.133,0.01,16.893-4.297,22.57-6.025
				c11.191-3.41,23.09-10.43,32.817-18.719c4.804-4.092,10.083-15.557,10.702-17.016c0.768-1.811,2.833-13.484,2.833-13.484
				s9.661-4.617,13.064-8.625c1.753-2.064,5.465-6.49,6.576-8.721c0.932-1.873,1.62-3.785,2.047-5.684
				c1.129-5.018,0.845-10.811-0.616-15.258c-4.834-14.705-15.276-21.553-29.455-21.664c-2.206-0.016-4.712-1.326-6.803-1.959
				c-2.581-0.783-5.021-1.521-7.026-0.896c-2.854,0.889-5.691,2.105-8.435,3.279l-0.87,0.375c-1.278,0.547-2.563,1.084-3.846,1.623
				c-3.893,1.629-7.918,3.314-11.708,5.242c-0.892,0.453-1.73,1.094-2.62,1.775c-0.919,0.703-1.867,1.432-2.977,2.029
				c-0.333,0.18-0.688,0.338-1.043,0.494C361.294,379.007,360.62,379.304,360.533,379.479z"/>
		</g>
		<path fill="#725C90" d="M406.622,424.565c-0.539,3.402-1.616,7.555-3.001,10.537c-3.407,7.332-6.664,13.996-12.262,19.773
			c-5.026,5.191-10.418,10.193-16.071,14.713c-5.878,4.703-14.381,7.191-21.355,9.91c-6.709,2.619-13.078,4.438-19.989,1.701
			c-0.644,0.326-1.195,0.83-1.929,0.916c9.357-4.914,18.087-10.963,23.705-20.115c3.744-6.102,7.119-12.572,10.192-19.033
			c2.198-4.621,3.359-9.207,4.551-14.135c1.267-5.236,3.731-10.119,4.778-15.414c1.054-5.336-0.205-9.799-3.227-14.221
			c-5.179-7.574-14.065-16.896-5.879-25.619c3.994-4.254,11.18-8.387,17.139-6.918c5.259,1.295,9.007,3.225,12.423,6.461
			c1.339,1.268,3.666,5.494,5.64,5.494c2.339-0.002,4.631-0.674,6.979-0.545c2.6,0.145,5.143,0.768,7.476,1.934
			c4.522,2.266,8.259,6.371,10.258,11.006c3.695,8.568-0.905,19.23-7.374,25.271c-3.534,3.303-7.467,3.766-12.084,3.199
			C406.926,421.157,406.892,422.866,406.622,424.565z"/>
		<g>
			<path fill="#E5DFDE" stroke="#000000" stroke-miterlimit="10" d="M402.046,360.833c3.661,4.348,5.526,11.303,5.903,17.129
				c0.354,5.48-4.379,12.441-9.375,13.857c-3.315,0.941-7.933-0.111-10.867-3.686c2.894,1.434,6.406,1.928,9.418,0.916
				c7.149-3.143,8.474-12.537,5.778-18.346c-6.728-11.168-22.397-20.082-32.67-12.908c-8.563,5.98-13.686,19.1-9.704,30.543
				c-0.854-0.008-1.784-0.494-2.695-1.523c-2.057-2.318-2.043-5.572-2.469-8.494c-0.913-6.254,2.301-12.703,5.591-17.883
				c3.235-5.092,10.981-8.684,16.495-9.662C382.919,349.806,395.492,353.052,402.046,360.833z"/>
			<path fill="#94A4CF" d="M370.268,356.603c8.993-6.043,27.616,0.387,33.046,13.84c2.693,5.809,2.19,15.518-5.778,19.277
				c-3.011,1.01-8.063,0.281-10.675-2.025c-1.706-2.08-1.997-4.568-1.978-8.461c0,0,6.059,2.043,8.347,0.061
				c1.929-1.67-0.28-5.127-1.578-6.93c-2.092-2.902-6.036-3.563-9.398-3.754c-4.876-0.277-7.824,0.617-11.803,3.246
				c-4.956,3.275-5.178,9.111-7.09,13.975c-0.646,1.645-1.668,2.521-2.831,2.508C353.202,377.989,361.601,362.429,370.268,356.603z"
				/>
		</g>
		<path fill="#E5DFDE" stroke="#000000" stroke-miterlimit="10" d="M340.567,375.845c6.92-1.537,14.103,0.105,20.839,5.049
			c6.653,4.883,10.425,13.857,12.769,21.729c1.396,4.686,1.901,10.111,1.762,14.979c-0.305,10.586-2.998,22.688-6.845,32.764
			c-3.687,9.654-10.258,19.877-18.716,25.988c-2.215,1.6-4.728,3.002-7.297,3.949c-2.909,1.072-6.231,1.752-9.336,1.867
			c-3.837,0.143-7.84-0.135-11.633-0.74c-3.031-0.484-6.042-1.137-9.006-1.93c-3.633-0.969-6.706-2.15-9.938-4.1
			c-1.503-0.906-4.853-3.457-6.635-1.912c2.951-2.557,16.209,2.557,21.54,1.188c4.253-1.094,7.656-4.074,10.399-7.379
			c2.986-3.6,6.153-8.463,6.988-13.139c0.728-4.076-0.884-8.02-2.616-11.623c-2.317-4.82-5.183-9.352-8.114-13.818
			c-2.684-4.088-5.713-8.256-6.543-13.188C315.95,402.271,321.752,380.024,340.567,375.845z"/>
		<path fill="#5E5264" d="M346.762,480.899c5.152-0.484,10.75-4.051,15.301-6.617c10.461-5.902,18.134-13.904,25.164-23.695
			c6.007-8.367,10.447-20.973,12.647-31.125c0.956-4.422,0.986-10.023-2.121-13.717c-5.222-6.203-7.505-0.457-8.565,3.371
			c-1.47,5.301-0.093,10.451-1.237,15.953c-1.251,6.012-4.813,16.072-7.86,21.406c-5.873,10.275-13.559,19.027-24.415,24.346
			c-7.722,3.785-23.908,10.564-24.938,11.51C330.736,482.331,343.258,481.228,346.762,480.899z"/>
		<path fill="#94A4CF" d="M325.891,393.032c-4.03,8.098-5.43,16.35-4.648,21.645c0.529,3.578,2.888,11.07,7.917,21.055
			c0.958,1.904,2.357,4.057,3.339,6.094l0.345,0.709c1.751,3.629,3.537,6.463,2.616,11.623c-0.38,2.129-0.709,3.229-1.836,5.496
			c-1.672,3.361-4.226,6.492-5.9,8.51c-4.265,5.143-7.829,5.77-11.611,6.742c-1.021,0.26-16.378-2.145-19.58-1.418
			c0.644,0.307,13.348,5.16,14.688,5.469c2.615,0.605,6.068,2.402,8.993,2.867c4.036,0.646,9.207,0.492,12.355,0.375
			c2.994-0.111,8.236-1.059,10.512-1.896c2.2-0.813,5.366-2.553,7.297-3.949c5.466-3.949,12.689-13.219,16.701-21.279
			c0.773-1.553,2.857-7.281,3.726-9.559c3.854-10.092,4.845-17.889,5.134-27.914c0.141-4.955-1.204-9.539-2.375-13.469
			c-2.911-9.775-9.828-16.57-14.521-20.014c-5.679-4.168-11.556-5.615-17.469-4.301
			C334.778,381.325,329.504,385.771,325.891,393.032z"/>
		<path fill="#725C90" d="M331.787,400.64c-2.976,5.979-0.115,13.18,0.587,17.338c0.342,2.023,8.684,13.92,11.302,19.363
			c1.653,3.441,5.093,10.598,3.604,18.93c-0.509,2.842-2.082,5.58-3.006,8.787c-1.064,3.689-17.639,15.367-20.424,17.143
			c0,0,6.171,0.35,8.717-0.002c14.139,0.586,27.822-11.906,31.898-20.74c0.752-1.627,5.14-10.135,5.831-11.738
			c4.83-11.182,6.663-22.609,6.83-32.83c0.064-4.033-4.894-9.627-6.975-13.197c-4.307-7.385-12.675-12.76-15.065-14.061
			c-4.394-2.393-8.169-2.809-11.781-2.006C338.926,388.599,334.307,395.579,331.787,400.64z"/>
	</g>
	<g>
		<path fill="#E5DFDE" stroke="#000000" stroke-miterlimit="10" d="M335.187,439.788c-2.735-1.135-5.637-5.752-4.221-8.461
			c3.364-6.438,23.887-2.787,26.132,10.984c0.967,5.93-5.095,9.936-3.488,13.541c1.047,2.352,1.633,6.322-0.501,10.984
			c-4.895,10.691-17.833,14.268-28.935,14.922c-26.369,1.549-53.059-18.721-61.673-43.07c-3.107-8.785-4.016-17.412-4.224-26.646
			c-0.286-12.719,13.703-58.928,19.208-67.637c6.446-10.193,27.854-39.061,36.583-47.326c9.152-8.662,35.446-18.104,49.462-16
			c1.21,0.182-10.56,17.379-14.863,23.264c-4.206,5.752-9.182,10.906-13.466,16.604c-7.109,9.457-11.989,20.336-15.456,31.604
			c-1.95,6.33-3.448,12.793-4.658,19.305c-1.323,7.119-0.082,12.975,2.913,19.496c1.711,3.725-0.636,6.539-1.512,10.348
			c-1.685,7.34-1.704,15.268,1.173,22.289C320.91,431.915,327.507,436.603,335.187,439.788z"/>
		<path fill="#D9E0D1" d="M278.203,347.245c-5.821,11.695-18.193,52.947-17.926,64.752c0.243,10.785,1.472,18.568,4.109,26.023
			c8.648,24.441,35.415,43.166,59.672,41.74c7.846-0.461,21.787-2.793,26.979-13.227c0.086-0.174,0.171-0.352,0.252-0.531
			c2.128-4.646,1.055-8.076,0.494-9.334c-0.959-2.15-0.294-4.238,0.639-5.914c1.629-2.926,3.016-6.205,2.702-8.121
			c-1.143-7.012-7.909-11.156-14.108-12.156c-3.927-0.635-7.408,0.113-8.276,1.775c-0.234,0.469-0.179,1.223,0.144,2.082
			c0.647,1.727,5.005,6.664,5.005,6.664s-2.776,0.787-3.714,0.682c-9.984-1.131-15.316-9.5-18.363-16.934
			c-3.531-8.621-2.641-17.537-1.271-23.496c0.287-1.254,0.715-2.402,1.092-3.414c0.901-2.414,1.37-3.867,0.55-5.652
			c-3.446-7.504-4.362-13.695-3.063-20.695c1.33-7.152,2.871-13.541,4.714-19.529c2.022-6.572,4.433-12.686,7.16-18.168
			c2.535-5.092,5.432-9.82,8.609-14.047c2.067-2.75,4.313-5.396,6.481-7.957c2.359-2.783,4.801-5.66,6.969-8.627
			c3.462-4.736,10.804-15.43,13.61-20.322c-14.05-0.404-39.309,10.064-45.216,15.689
			C306.724,306.835,281.626,340.368,278.203,347.245z"/>
		<path fill="#9CB098" d="M334.515,466.622c1.51-1.313,3.294-5.213,3.563-7.168c0.581-4.23-2.233-6.455-6.052-7.258
			c-3.894-0.818-7.793-1.336-11.196-3.545c-13.283-8.621-18.534-25.295-20.466-40.197c-0.568-4.396-0.928-9.064-0.604-13.5
			c1.04-14.225,0.016-28.941,4.982-42.572c2.226-6.104,3.778-12.477,6.525-18.363c13.104-28.088,35.304-36.686,33.379-41.125
			c-1.665-3.84-9.246-4.855-12.913-4.01c-1.445,0.332-9.06,3.609-17.018,10.363c-7.271,6.168-14.766,15.525-19.375,22.395
			c-1.593,2.371-11.577,16.475-14.591,21.383c-8.697,14.168-11.711,31.521-13.151,48.023c-0.409,4.682-1.246,9.428-0.55,14.074
			c1.981,13.242,5.947,24.797,13.973,36.545c2.054,3.004,5.575,7.037,8.365,9.375c3.701,3.102,8.853,7.297,13.063,9.666
			c6.239,3.51,13.32,4.955,20.287,6.744c1.515,0.391,3.104,0.408,4.582,0.447C327.318,467.899,333.02,467.923,334.515,466.622z"/>
		<path fill="#8A7C74" d="M327.462,460.931c-34.019-5.711-44.744-39.732-41.748-71.336c0.803-8.49,3.167-21.311,3.86-27.957
			c0.847-8.109,4.453-20.266,3.315-20.598c-1.184-0.348-8.071,19.326-9.515,23.234c-2.682,7.252-4.07,14.918-4.77,22.76
			c-1.416,15.926-2.064,31.266,5.521,46.201c4.044,7.963,11.005,15.67,17.937,20.889c3.721,2.803,9.006,5.209,13.405,6.672
			c3.289,1.092,12.798,3.348,13.079,1.309C328.613,461.628,327.462,460.931,327.462,460.931z"/>
	</g>
	<g>
		<path fill="#E5DFDE" stroke="#000000" stroke-miterlimit="10" d="M281.277,339.03c-6.133,0.861-16.164,9.271-19.875,14.125
			c-8.255,10.795-13.776,18.57-11.343,32.52c0.723,4.141,5.29,14.01,7.412,17.65c5.164,8.859,16.771,18.063,27.163,16.494
			c5.364-0.809,10.316,0.318,13.395-4.537c2.404-3.793,1.422-12.271-0.315-16.504c-2.356-5.74-5.856-9.84-11.13-12.801
			c-4.244-2.381-6.935-3.266-12.599-0.869c-2.487,1.051-2.952,5.488-2.836,8.035c0.093,2.049,0.522,6.186-2.42,4.416
			c-9.444-5.67-5.497-19.014-2.863-27.355c2.911-9.219,5.992-18.816,11.825-26.672C278.824,342.009,281.277,339.03,281.277,339.03z"
			/>
		<path fill="#D9E0D1" d="M254.458,367.063c-2.876,5.777-3.625,11.41-2.429,18.266c0.675,3.865,5.116,13.463,7.17,16.988
			c4.978,8.539,16.003,16.904,25.136,15.525c1.36-0.205,2.657-0.291,3.91-0.373c4.02-0.266,6.376-0.549,8.093-3.258
			c0.076-0.121,0.146-0.248,0.212-0.379c1.599-3.213,0.943-10.324-0.687-14.297c-2.205-5.367-5.465-9.121-10.26-11.814
			c-3.867-2.17-5.931-2.848-10.84-0.773c-0.357,0.152-0.638,0.596-0.808,0.939c-0.707,1.418-0.878,3.668-0.81,5.166l0.022,0.434
			c0.098,1.859,0.129,3.5-0.5,4.76c-0.517,1.041-1.304,1.457-1.871,1.623c-0.942,0.275-3.487-8.445-3.315-9.736
			c1.368-10.262,1.67-14.258,4.214-22.314c1.896-6.006,2.51-8.406,5.619-14.656c0,0,1.755-7.717,2.112-8.064
			c1.556-1.516-2.215-0.719-0.828-2.746c-4.306-0.328-13.224,8.898-15.609,12.018C259.394,359.073,256.483,362.993,254.458,367.063z
			"/>
	</g>
</g>
<g>
	<path fill="#E9E1EE" stroke="#000000" stroke-miterlimit="10" d="M299.088,295.489c2.948,6.379-3.233,20.799-10.052,24.629
		c-4.55,2.557-15.129,7.719-19.973,6.391c-5.431-1.49-9.038-9.328-6.027-12.975c-4.833-2.332-10.643-12.389,0.995-21.107
		C272.536,286.056,295.651,288.056,299.088,295.489z"/>
	<path fill="#F8ECCF" d="M270.871,322.724c-0.439,0-0.671-0.051-0.75-0.072c-1.624-0.447-3.412-2.23-3.93-4.332
		c-0.842-3.41,3.177-6.17,3.177-6.17l-4.592-2.217c-1.459-0.705-4.143-4.07-4.148-7.453c-0.001-0.977-0.006-3.943,5.155-6.457
		c1.547-0.752,10.555-4.422,17.754-4.422c9.972,0,11.488,4.631,11.921,5.568c1.864,4.033-2.831,16.344-8.38,19.461
		C281.854,319.565,274.556,322.724,270.871,322.724z"/>
</g>
<g>
	<path fill="#98ABBA" d="M307.337,268.907c1.98-4.221,4.236-8.123,5.559-10.84c2.681-5.508,5.581-10.896,8.359-16.355
		c4.144-8.139,8.211-16.672,14.782-23.178c9.495-9.398,24.933-13.918,37.415-18.091c8.715-2.914,17.595-5.923,26.636-7.632
		c12.559-2.376,33.495-6.304,40.452,7.982c3.739,7.68,5.354,16.745,4.02,25.196c-1.499,9.487-8.898,16.069-15.956,21.827
		c-14.279,11.652-25.685,26.859-39.984,38.689c-8.875,7.344-19.237,12.688-30.813,13.875c-9.911,1.018-19.837-1.656-29.394-3.949
		c-7.066-1.693-18.283-1.859-23.274-7.846C300.699,283.261,304.854,274.198,307.337,268.907z"/>
	<g>
		<path fill="#E9E1EE" stroke="#000000" stroke-miterlimit="10" d="M341.985,154.28c-21.875,9.789-38.309,29.379-44.574,52.874
			c-1.964,7.363-2.904,15.494-2.936,23.109c-0.035,8.436,0.676,16.85,1.086,25.27c0.277,5.693,3.073,15.996-4.729,17.896
			c-8.541,2.08-9.607-8.783-15.201-11.992c-14.493-8.313-29.424,7.412-23.845,22.598c4.047,11.016,39.937,14.688,50.125,7.313
			c10.414-7.537,14.271-20.207,18.125-32.145c3.413-10.576,8.872-22.734,18.334-30.334c15.554-12.494,22.575-17.793,43.666-20
			c13.783-1.443,37.15-6.869,50.389-10.946c7.747-2.386,15.133-6.255,11.473-15.775c-2.806-7.298-9.726-11.575-16.163-15.336
			C401.938,151.739,370.816,141.379,341.985,154.28z"/>
		<path fill="#A5B0D4" d="M335.37,161.535c-19.688,8.81-30.694,32.522-36.334,53.667c-1.768,6.627-0.972,11.145-1,18
			c-0.032,7.592,0.096,15.467,1,23c1,8.332-0.978,17.289-8,19c-7.687,1.871-11.966-8.445-17-11.334
			c-13.044-7.479-25.021,5.666-20,19.334c3.643,9.914,36.502,13.244,44.456,5.191c14.266-14.439,16.625-21.432,19.544-33.525
			c4.667-19.334,32.667-45.666,62.919-49.729c6.528-0.877,13.218-2.446,19.748-3.271c12.624-1.594,25.064-4.112,35.668-11.212
			c2.039-1.365,5.841-3.73,4.665-6.788c-2.525-6.568-14.872-15.281-20.666-18.667C397.153,151.637,361.318,149.924,335.37,161.535z"
			/>
	</g>
	<g>
		<path fill="#E9E1EE" stroke="#000000" stroke-miterlimit="10" d="M372.368,338.534c-7.521-1.232-17.842-5.238-24.643-8.666
			c-7.534-3.795-13.806-10.912-21.022-16.334c-4.557-3.422-8.554-7.832-13.787-1.74c-5.729,6.67-1.894,12.52-1.571,18.957
			c0.833,16.688-19.954,22.861-30.957,11c-6.168-6.65-2.27-18.049,0.584-25.273c3.002-7.605,7.969-18.785,15.636-22.713
			c10.063-5.154,20.754-7.994,31.402-4.541c11.358,3.684,24.593,7.537,36.191,4.979c11.627-2.566,20.454-13.643,28.983-21.73
			c6.305-5.977,10.852-13.43,15.785-20.506c7.819-11.211,17.734-20.406,27.579-29.781c6.041-5.754,14.031-14.041,21.784-5.426
			c5.229,5.811,5.078,12.912,3.299,20.154c-3.429,13.953-4.238,24.512-6.281,34.766c-1.734,8.703-3.235,22.527-5.647,30.855
			C444.329,321.093,413.034,345.202,372.368,338.534z"/>
		<path fill="#A5B0D4" d="M289.868,305.202c-3.729,5.594-10.252,21.801-9.998,28c0.333,8.166,5.083,11.75,12.999,12.695
			c8.297,0.992,14.305-4.965,15.917-11.613c1.334-5.5-2.985-17.584,2.158-23.082c10.759-11.5,21.993,6.004,30.48,12.443
			c9.998,7.586,24.582,12.221,36.609,14.057c13.482,2.057,30.47-0.395,42.5-7.834c11.585-7.162,20.604-17.965,26.004-29.809
			c3.307-7.25,4.726-14.646,5.496-22.357c1.169-11.703,6.176-23.025,7.794-34.652c0.902-6.484,2.19-16.346-1.128-22.313
			c-1.438-2.584-5.165-4.477-8.164-4.201c-12.127,1.114-19.341,12.529-26.487,20.959c-5.509,6.498-11.839,12.439-16.205,19.824
			c-2.786,4.711-6.333,9.143-9.643,13.549c-5.831,7.764-18.408,23.896-44,26.5c-15.772,1.605-24-10-43.554-5.223
			C300.173,294.704,293.493,299.765,289.868,305.202z"/>
	</g>
</g>
<g>
	<g>
		<path fill="#E9E1EE" stroke="#000000" stroke-miterlimit="10" d="M436.129,287.8c-9.538,2.99-17.679,10.311-24.343,17.234
			c-2.528,2.627-7.108,8.359-9,11.5c-2.488,4.133-10.25,15-15.5,19c-2.097,1.598-8.042,3.846-8.042,3.846
			c5.542,3.904,19.01,3.891,21.241,3.525c3.801-0.621,12.775-3.713,18.526-6.787c11.149-5.959,25.524-21.959,29.691-30.625
			c2.402-4.998,3.847-14.625,3.847-23.264C447.005,282.229,439.512,286.739,436.129,287.8z"/>
		<path fill="#F8ECCF" d="M435.714,288.901c-8.584,2.691-16.763,9.902-22.761,16.135c-2.275,2.363-6.548,7.922-8.25,10.75
			c-2.24,3.719-10.011,15.146-13.416,19.666c-1.97,2.613-8.001,3.988-8.001,3.988c7.375,1.469,15.247,1.121,16.938,0.844
			c3.421-0.559,13.467-4.662,18.643-7.428c10.034-5.363,24.252-20.521,28.003-28.322c2.162-4.496,2.584-12.748,4.251-19.916
			C446.13,284.618,438.759,287.946,435.714,288.901z"/>
	</g>
	<g>
		<path fill="#E9E1EE" stroke="#000000" stroke-miterlimit="10" d="M458.203,250.866c0,0-7.791,0.971-8.8,1.18
			c-4.782,0.982-9.746,2.131-13.867,4.656c-4.354,2.666-9.323,5.627-12.833,9.332c-5.077,5.361-7.507,11.672-10.834,18.168
			c-1.892,3.693-7.854,14.326-10.099,16.213c-1.777,1.492-9.067,8.453-9.067,8.453c4.118,1.596,5.114,3.746,12.583,4.371
			c6.615,0.553,13.438,0.707,19.716-1.471c3.627-1.258,7.324-3.051,10.523-5.186c4.734-3.156,11.554-6.648,14.763-11.393
			c3.815-5.639,7.554-11.256,10.56-17.656c1.901-4.047,2.325-11.32,3.508-16.332c0.51-2.162-0.584-9.873-0.036-12.025
			C464.901,246.892,458.203,250.866,458.203,250.866z"/>
		<path fill="#F8ECCF" d="M412.618,311.591c-2.07,0-4.348-0.109-7.165-0.346c-4.729-0.395-6.506-1.391-8.565-2.545
			c-0.229-0.129-0.46-0.258-0.697-0.387c2.283-2.164,5.748-5.428,6.866-6.367c3.151-2.648,10.521-16.693,10.593-16.834
			c0.691-1.35,1.346-2.693,1.992-4.021c2.414-4.961,4.694-9.648,8.514-13.682c3.16-3.336,7.75-6.143,11.799-8.619l0.627-0.383
			c3.82-2.34,8.628-3.459,13.225-4.402c0.68-0.141,5.663-0.781,8.645-1.154l0.414-0.051l0.359-0.213
			c0.984-0.584,2.061-1.141,2.938-1.537c-0.004,1.145,0.069,2.578,0.171,4.357c0.11,1.922,0.262,4.553,0.077,5.336
			c-0.443,1.875-0.784,4.063-1.115,6.176c-0.57,3.654-1.16,7.432-2.257,9.766c-2.847,6.063-6.396,11.461-10.405,17.385
			c-2.278,3.367-6.839,6.209-10.863,8.715c-1.178,0.734-2.314,1.443-3.353,2.135c-2.997,2-6.479,3.715-10.069,4.961
			C421.025,311.032,417.189,311.591,412.618,311.591L412.618,311.591z"/>
	</g>
	<g>
		<path fill="#E9E1EE" stroke="#000000" stroke-miterlimit="10" d="M341.214,205.918c0,0,0.95-7.792,1.155-8.804
			c2.336-11.508,8.664-22.034,17.828-29.382c7.901-6.333,17.719-11.161,27.627-13.312c6.741-1.463,13.518-1.036,20.265,0.13
			c12.414,2.146,19.947,3.983,33.168,14.472c0,0-20.496,3.07-29.221,7.178c-7.937,3.737-19.486,14.304-26.834,19.304
			c-5.629,3.83-11.439,4.83-18.121,5.18c-5.144,0.271-10.237,1.018-15.247,2.213c-2.159,0.516-4.292,1.126-6.42,1.761
			C344.876,204.817,341.214,205.918,341.214,205.918z"/>
		<path fill="#F8ECCF" d="M343.575,203.12c0.319-2.535,0.657-5.131,0.754-5.607c2.266-11.163,8.346-21.185,17.119-28.22
			c7.835-6.28,17.353-10.867,26.8-12.917c2.748-0.596,5.579-0.886,8.654-0.886c3.277,0,6.825,0.338,10.846,1.033
			c10.712,1.852,17.742,3.388,28.607,11.283c-6.646,1.168-18.786,3.581-25.172,6.587c-5.278,2.486-12.031,7.825-17.988,12.536
			c-3.355,2.653-6.524,5.16-9.118,6.923c-5.209,3.545-10.604,4.497-17.101,4.838c-5.207,0.272-10.458,1.035-15.607,2.264
			c-2.341,0.56-4.612,1.219-6.526,1.789C344.67,202.793,344.172,202.942,343.575,203.12z"/>
	</g>
	<g>
		<path fill="#E9E1EE" stroke="#000000" stroke-miterlimit="10" d="M375.036,265.948c4.098,0.857,8.604,0.729,12.688,0.016
			c7.37-1.285,14.376-4.281,21.506-6.498c11.676-3.631,47.029-29.533,56.964-40.717c0.33-0.371,8.814-35.45,7.842-27.215
			c-10-5.257-18.926-10.559-40.667,3.631c-12.842,8.382-27.305,21.015-37.32,32.426c-7.307,8.324-12.418,18.736-20.763,26.199
			c-3.259,2.914-7.094,4.844-10.962,6.096C365.614,260.972,372.558,265.429,375.036,265.948z"/>
		<path fill="#F8ECCF" d="M381.156,264.546c-2.028,0-3.949-0.188-5.71-0.555c-1.23-0.258-4.396-2.051-6.852-3.596
			c3.044-1.352,5.732-3.064,8.024-5.113c5.11-4.57,9.044-10.201,12.847-15.646c2.545-3.643,5.176-7.41,8.086-10.727
			c9.961-11.348,24.449-23.936,36.91-32.069c9.069-5.919,16.544-8.796,22.854-8.796c5.587,0,9.979,2.204,14.562,4.614
			c0.345-2.553-11.527,29.66-7.178,24.764c9.595-10.802-44.72,36.607-56.063,40.135c-2.236,0.695-4.483,1.475-6.656,2.227
			c-4.753,1.648-9.668,3.352-14.6,4.211C385.282,264.36,383.188,264.546,381.156,264.546L381.156,264.546z"/>
	</g>
	<g>
		<path fill="#E9E1EE" stroke="#000000" stroke-miterlimit="10" d="M389.453,267.616c11.846-14.344,20.833-25.832,38.333-36.928
			c5.213-3.306,31.091-17.102,42-18.904c2.099,6.75-1.918,27.953-3,31.418c-5.215,16.695-23.89,31.227-39.417,39.592
			c-8.563,4.613-19.294,6.059-28.917,7.094c-9.369,1.006-17.685,2.059-26.716,1.604
			C372.495,288.868,383.785,274.481,389.453,267.616z"/>
		<path fill="#F8ECCF" d="M393.404,266.81c10.661-12.91,22.882-24.025,35.632-33.025c5.938-4.19,28.932-17.127,38.75-18.75
			c-1.25,10-3.581,26.309-6.938,32.834c-7.202,13.998-19.344,25.072-33.318,32.602c-7.707,4.15-17.365,5.451-26.025,6.383
			c-8.433,0.906-15.916,1.854-24.045,1.443C378.143,285.935,388.304,272.987,393.404,266.81z"/>
	</g>
	<g>
		<path fill="#E9E1EE" stroke="#000000" stroke-miterlimit="10" d="M304.036,188.692c2.813-4.145,6.457-11.048,9.667-14.926
			c5.68-6.859,12.454-13.014,20.333-17.232c13.877-7.429,43.219-16.712,74.83-9.899c6.803,1.466,13.349,3.982,19.097,7.949
			c6.016,4.151,13.782,11.867,16.425,17.126c-1.242,0.75-24.277-8.305-39.444-8.62c-12.106-0.251-20.423,0.979-30.907,5.943
			c-11.444,5.42-23.113,18.181-35.312,21.681c-9.575,2.748-19.608,1.5-29.188,3.375c-2.612,0.511-5.725,3.151-8.157,3.16
			C301.566,196.902,302.86,190.425,304.036,188.692z"/>
		<path fill="#F8ECCF" d="M304.218,194.212c0.447-1.72,1.033-3.748,1.473-4.396c1.085-1.598,2.261-3.546,3.505-5.608
			c2.034-3.371,4.137-6.855,6.049-9.165c6.097-7.364,12.737-12.998,19.736-16.744c10.868-5.818,30.037-12.036,51.242-12.036
			c7.578,0,15.055,0.783,22.223,2.328c7.055,1.521,13.239,4.091,18.382,7.64c4.256,2.937,9.73,8,13.208,12.469
			c-0.875-0.256-1.813-0.537-2.742-0.814c-8.239-2.461-22.03-6.581-32.309-6.794c-0.981-0.021-1.938-0.031-2.873-0.031
			c-11.449,0-19.561,1.729-28.932,6.167c-5.057,2.395-10.172,6.185-15.119,9.85c-6.508,4.822-13.238,9.809-19.888,11.717
			c-5.151,1.479-10.634,1.76-15.937,2.033c-4.297,0.222-8.739,0.45-13.084,1.301c-1.459,0.285-2.886,1.024-4.266,1.74
			C304.668,193.981,304.443,194.098,304.218,194.212z"/>
	</g>
	<g>
		<path fill="#E9E1EE" stroke="#000000" stroke-miterlimit="10" d="M339.736,227.491c9.031,0.455,17.347-0.598,26.716-1.604
			c9.623-1.035,20.354-2.48,28.917-7.094c15.527-8.365,55.517-32.066,57.181-38.623c-9.334-14.889-31.789-18.21-45.502-17.303
			c-20.677,1.368-37.749,26.404-49.595,40.748C351.785,210.481,340.495,224.868,339.736,227.491z"/>
		<path fill="#F8ECCF" d="M343.096,225.594c3.015-4.495,10.094-13.673,15.899-20.704c1.524-1.846,3.123-3.852,4.814-5.977
			c11.064-13.89,26.217-32.914,43.37-34.049c1.341-0.089,2.743-0.134,4.168-0.134c13.759,0,31.027,4.13,38.94,15.64
			c-3.681,5.822-35.003,25.424-55.867,36.665c-8.207,4.422-18.851,5.861-28.183,6.864l-2.555,0.277
			c-6.717,0.732-13.062,1.425-19.525,1.425C344.158,225.601,343.448,225.598,343.096,225.594z"/>
	</g>
	<g>
		<path fill="#E9E1EE" stroke="#000000" stroke-miterlimit="10" d="M369.453,221.616c11.846-14.344,21.196-25.279,38.333-36.928
			c12.975-8.82,38.821-12.264,53.062,0.847c-13.479,9.333-37.951,42.894-53.479,51.259c-8.563,4.613-19.52,4.777-28.917,7.094
			c-5.828,1.436-11.166,5.896-20.666,12.146C360.536,239.534,360.536,232.415,369.453,221.616z"/>
		<path fill="#F8ECCF" d="M360.743,250.21c1.913-12.24,2.874-18.385,10.252-27.32c12.62-15.282,21.47-25.368,37.915-36.548
			c6.791-4.616,17.006-7.483,26.66-7.483c6.308,0,15.018,1.188,22.061,6.583c-5.847,4.651-13.159,12.641-20.851,21.048
			c-10.813,11.817-21.993,24.036-30.359,28.544c-5.422,2.92-12.098,3.998-18.554,5.041c-3.291,0.531-6.693,1.082-9.894,1.871
			c-4.782,1.178-9.124,4.15-15.134,8.266c-0.743,0.508-1.526,1.045-2.348,1.604C360.578,251.269,360.661,250.735,360.743,250.21z"/>
	</g>
</g>
<g>
	<g>
		<g>
			<path fill="#E9E1EE" stroke="#000000" stroke-miterlimit="10" d="M577.774,208.048c-3.571-1.039-32.649,3.504-35.563,6.027
				c-14.227,12.327-29.533,27.563-32.679,46.018c-2.276,13.34,1.234,26.865,9.803,34.527c4.507,4.029,12.249,8.566,18.915,8.902
				c11.329,0.574,22.688-2.365,32.823-10.896c9.19-7.738,17.499-22.979,19.099-34.057c2.217-15.361-8.838-26.795-21.19-28.359
				c-4.574-0.58-12.009-0.496-18.101,4.883c-4.795,4.234-12.621,18.199-11.16,23.441c-1.195-1.064-0.21-12.004,0.439-14.107
				c1.625-5.268,10.068-14.426,13.75-16.826c8.877-5.789,29.125-15.066,37.904-16.994L577.774,208.048z"/>
			<path fill="#94A4CF" d="M528.3,233.821c5.468-6.292,11.718-11.904,16.551-16.094c0.528-0.457,1.123-1.004,1.762-1.596
				c1.067-0.985,28.447-9.225,29.726-9.908l6.839,5.145c-2.084,1.748-21.626,9.002-27.266,12.541
				c-6.75,4.238-16.922,15.238-17.625,20.518c-1.067,8.014,0.709,15.625,1.846,15.342c0.851-0.213,2.404-12.486,7.552-17.297
				c4.689-4.383,11.514-10.104,19.826-8.938c10.086,1.416,19.553,12.551,17.68,25.525c-1.148,7.951-6.393,18.615-12.755,25.934
				c-1.312,1.51-2.632,2.828-3.923,3.914c-8.078,6.801-17.775,9.967-28.816,9.408c-5.323-0.27-12.365-4.217-16.571-7.979
				c-7.298-6.527-10.688-18.533-8.63-30.59C515.926,251.343,520.443,242.86,528.3,233.821z"/>
		</g>
		<g>
			<path fill="#E9E1EE" stroke="#000000" stroke-miterlimit="10" d="M579.736,322.989c-5.673,1.99-29.438,2.057-37.11-1.668
				c-0.651-6.578-2.878-15.301-5.748-21.547c15.464,6.533,32.066-4.359,35.527-8.48c-7.227-3.982-10.479-7.01-11.75-16.33
				c-2.52-18.492,17.571-27.67,31.03-20.125C617.223,269.151,604.262,314.382,579.736,322.989z"/>
			<path fill="#94A4CF" d="M601.3,290.495c-2.72,11.971-7.382,25.215-18.649,31.555c-4.809,2.703-31.156,3.139-40.024-0.729
				c-0.577-5.371-3.229-17.133-5.748-22.215c8.122,4.969,30.933,1.42,37.15-7.461c11.503,3.209,15.132-4.064,15.28-10.932
				c-5.943,12.883-20.4,11.256-23.465-2.939c-3.41-15.281,6.937-22.746,16.91-21.918C598.876,257.31,603.498,274.745,601.3,290.495z
				"/>
			<path fill="none" stroke="#000000" stroke-miterlimit="10" d="M589.309,280.714c-0.217,15.906-14.844,14.041-24.082,5.496"/>
		</g>
		<g>
			<path fill="#E9E1EE" stroke="#000000" stroke-miterlimit="10" d="M707.396,247.095c-0.052-0.085-0.113-0.171-0.168-0.257
				c-0.023,0.031-0.047,0.062-0.07,0.093C707.232,246.984,707.309,247.04,707.396,247.095z"/>
			<path fill="#E9E1EE" stroke="#000000" stroke-miterlimit="10" d="M681.685,174.964c-18.429-5.023-45.447-11.385-60.941-12.784
				c-28.277-2.557-57.315,8.908-78.207,14.355c-66.671,17.38-100.511,60.05-83.435,127.544
				c9.018,35.646,51.336,52.982,77.578,55.938c4.224,0.475,9.198,0.678,13.978,0.678c5.617,0,10.963-0.279,14.496-0.729
				l-7.529-59.525c-2.304,0.266-10.171,0.41-14.228-0.047c-10.958-1.234-17.144,1.037-28.135-10.854
				c-27.798-30.072,5.541-59.006,38.337-70.934c16.451-5.983,42.579-10.002,61.751-8.27c19.311,1.743,81.272,19.979,91.853,36.462
				l35.086-48.507C738.551,195.589,727.179,187.364,681.685,174.964z"/>
			<path fill="#E9E1EE" stroke="#000000" stroke-miterlimit="10" d="M707.124,246.907c0.01,0.008,0.022,0.016,0.033,0.023
				c0.023-0.031,0.047-0.062,0.07-0.093c-0.008-0.013-0.017-0.025-0.025-0.039L707.124,246.907z"/>
			<path fill="#D9E0D1" d="M707.16,244.446l32.319-44.685c-5.103-3.444-18.461-11.004-58.321-21.868
				c-18.348-5.001-45.227-11.334-60.595-12.722c-4.704-0.425-9.788-0.641-15.11-0.641c-24.738,0-52.235,12.143-68.795,16.46
				c-65.45,17.063-92.385,57.326-75.618,123.598c8.769,34.662,50.173,51.547,75.863,54.439c3.87,0.436,8.626,0.666,13.754,0.666
				c4.466,0,8.876-0.182,12.257-0.496l-7.036-55.625c-1.463,0.072-3.349,0.117-5.259,0.117c-1.76,0-5.065-0.041-7.446-0.311
				c-11.01-1.24-22.493-7.395-27.911-12.84c-5.726-5.756-24.976-49.131,37.653-72.813c14.396-5.444,35.696-8.796,52.834-8.796
				c3.454,0,6.744,0.14,9.78,0.413C632.573,210.884,692.032,227.271,707.16,244.446z"/>
			<path fill="#9CB098" d="M725.712,202.116c-10.465-4.837-25.921-10.053-46.184-15.575c-19.374-5.281-45.089-11.167-58.865-12.411
				c-4.406-0.398-9.187-0.6-14.21-0.6c-23.793,0-49.324,4.446-65.285,8.607c-60.218,15.699-84.876,57.958-69.433,118.998
				c7.47,29.529,45.236,44.473,67.287,46.955c3.455,0.391,7.942,0.604,12.635,0.604c0.325,0,0.649,0,0.975-0.002l-4.561-36.053
				c-1.689-0.051-3.47-0.146-5.019-0.322c-13.261-1.494-29.693-10.486-35.952-18.41c-16.939-21.445,1.499-71.34,43.396-86.578
				c15.696-5.709,37.776-9.397,56.252-9.397c3.753,0,7.346,0.153,10.68,0.454c12.425,1.121,63.322,13.232,88.865,30.576
				L725.712,202.116z"/>
			<path fill="#8A7C74" d="M725.878,220.979c-15.969-11.551-85.545-28.918-107.652-30.913c-23.11-2.086-53.83,2.291-74.022,7.554
				c-51.762,13.494-71.262,47.002-57.956,99.592c5.142,20.326,35.005,32.891,53.568,34.98c3.176,0.357,7.068,0.5,10.771,0.5
				c4.511,0,8.739-0.211,11.038-0.504l-0.504-3.969c-3.898,0.496-14.206,0.748-20.858-0.002
				c-17.454-1.967-45.459-13.49-50.139-31.986c-6.976-27.572-4.616-49.754,7.013-65.925c9.562-13.297,25.736-22.991,48.076-28.815
				c19.855-5.176,50.018-9.482,72.653-7.441c21.204,1.914,90.473,19.181,105.668,30.171L725.878,220.979z"/>
		</g>
		<g>
			<path fill="#E9E1EE" stroke="#000000" stroke-miterlimit="10" d="M601.78,336.835c-3.021,0.531-6.08,0.842-9.143,0.938
				c-0.412-5.836-3.641-11.602-6.03-17.387c7.667-3.02,13.117-9.275,12.481-13.238c-6.312-4.262-9.121-7.264-10.014-15.572
				c-1.771-16.477,16.282-22.377,28.031-14.328C639.404,292.521,626.173,332.534,601.78,336.835z"/>
			<path fill="#94A4CF" d="M624.741,309.532c-2.711,10.203-7.181,21.32-17.335,25.674c-4.334,1.855-9.095,2.848-14.053,3.104
				c-0.376-4.77-2.611-9.49-4.717-14.215c7.774-1.662,15.125-5.945,15.844-15.205c6.581,1.715,9.565-3.207,9.869-9.211
				c-5.597,10.66-18.382,7.689-20.742-5.082c-2.643-13.762,6.724-19.201,15.552-17.41
				C623.425,280.183,627.088,295.96,624.741,309.532z"/>
			<path fill="none" stroke="#000000" stroke-miterlimit="10" d="M614.35,299.679c-0.593,13.92-13.521,10.725-21.502,2.246"/>
		</g>
		<g>
			<path fill="#E9E1EE" stroke="#000000" stroke-miterlimit="10" d="M621.729,322.243c0.796,6.16,1.009,11.824-1.988,17.842
				c-2.039,4.094-11.063,11.975-17.076,14.311c-4.069,1.582-10.478,0.51-14.798-0.334c-1.729-0.338-6.84-0.953-8.343-1.701
				l-0.122-20.025l2.511-1.559c2.266,2.371,8.537,3.086,11.886,2.246c0.29-0.072,0.59-0.189,0.894-0.328
				c0.028,1.57-0.16,3.146-0.642,4.729c0.481-1.582,0.67-3.158,0.642-4.729c2.666-1.219,5.729-4.785,6.48-7.295
				c-0.751,2.51-3.814,6.076-6.48,7.295c-0.121-6.914-4.483-13.717-6.971-20.568c2.487,6.852,6.85,13.654,6.971,20.568
				c-0.304,0.139-0.604,0.256-0.894,0.328c-3.349,0.84-6.891-1.568-9.156-3.939c-2.821-2.951-3.447-6.969-3.162-10.9
				c0.449-6.211,3.028-13.516,9.588-15.656c2.818-0.92,6.799-1.238,9.786-1.039c3.432,0.229,8.32,3.17,11.255,5.24
				C616.614,309.903,621.25,318.53,621.729,322.243z"/>
			<path fill="#94A4CF" d="M618.56,322.624c0.821,6.354,0.81,11.012-1.683,16.016c-0.194,0.391-0.847,1.51-2.685,3.449
				c-3.759,3.963-9.223,7.975-12.709,9.328c-3.521,1.369-10.43,0.018-13.03-0.49c-0.488-0.096-1.23-0.213-2.088-0.348
				c-0.854-0.135-2.403-0.377-3.658-0.623l-0.518-18.918c3.818,2.078,8.106,2.863,11.609,1.984c0.283-0.07,0.584-0.18,0.894-0.313
				c0.026,1.566-0.162,3.135-0.642,4.713c0.479-1.578,0.668-3.146,0.642-4.713c1.087-0.465,2.281-1.275,3.181-2.223
				c2.585-2.727,3.3-5.088,3.3-5.088c-2.629,2.602-5.009,3.834-6.786,4.297c-1.047-5.889-4.538-11.713-6.665-17.57
				c2.127,5.857,5.618,11.682,6.665,17.57c-0.517,0.133-0.989,0.211-1.393,0.229c-1.935,0.078-4.431-1.344-6.051-3.039
				c-1.806-1.889-2.551-4.65-2.275-8.443c0.324-4.469,1.763-8.354,3.947-10.658c1.005-1.061,2.142-1.787,3.47-2.219
				c2.194-0.717,5.725-1.084,8.584-0.893c2.02,0.137,5.794,1.965,9.614,4.66C613.934,311.905,618.169,319.61,618.56,322.624z"/>
		</g>
		<g>
			<path fill="#E9E1EE" stroke="#000000" stroke-miterlimit="10" d="M592.119,321.767c-2.936-2.068-7.825-5.01-11.257-5.24
				c-2.986-0.199-6.968,0.121-9.784,1.039c-6.561,2.141-9.139,9.447-9.59,15.658c-0.285,3.93,0.341,7.949,3.163,10.898
				c2.266,2.371,5.809,4.781,9.155,3.941c2.829-0.711,6.539-4.828,7.375-7.625c-0.836,2.797-4.546,6.914-7.375,7.625
				c-3.347,0.84-9.62,0.125-11.886-2.246l-2.51,1.557l0.121,20.027c1.503,0.748,6.615,1.363,8.344,1.699
				c4.319,0.846,10.729,1.916,14.798,0.336c6.012-2.336,15.037-10.217,17.076-14.313c2.996-6.018,2.784-11.68,1.987-17.842
				C601.258,333.571,596.623,324.942,592.119,321.767z M586.722,323.126c3.052,8.408,8.932,16.74,6.329,25.297
				C595.653,339.866,589.773,331.534,586.722,323.126z"/>
			<path fill="#94A4CF" d="M590.292,324.372c-3.82-2.693-7.596-4.521-9.614-4.658c-2.86-0.191-6.39,0.176-8.585,0.891
				c-1.328,0.434-2.463,1.16-3.469,2.219c-2.186,2.305-3.624,6.189-3.947,10.66c-0.275,3.791,0.47,6.553,2.275,8.443
				c1.619,1.693,4.115,3.115,6.05,3.037c1.798-0.074,4.786-1.166,8.18-4.525c0,0-0.715,2.363-3.301,5.09
				c-1.154,1.217-2.799,2.215-4.074,2.535c-3.503,0.879-7.789,0.094-11.609-1.986l0.518,18.918c1.255,0.246,2.805,0.49,3.658,0.623
				c0.857,0.135,1.601,0.252,2.089,0.348c2.601,0.51,9.509,1.859,13.03,0.492c3.486-1.355,8.949-5.365,12.708-9.33
				c1.838-1.938,2.49-3.057,2.685-3.449c2.493-5.004,2.505-9.66,1.683-16.016C598.178,334.651,593.941,326.946,590.292,324.372z
				 M586.722,323.126c3.052,8.408,8.932,16.74,6.329,25.297C595.653,339.866,589.773,331.534,586.722,323.126z"/>
		</g>
		<g>
			<path fill="#E9E1EE" stroke="#000000" stroke-miterlimit="10" d="M555.521,373.212c-28.991,6.539-59.777-3.764-75.271-27.678
				c5.34-0.682,20.276-7.355,20.276-7.355s6.96,11.76,14.557,15.996c17.897,9.988,39.933-7.984,39.013-16.27
				c-7.243-4.717-10.403-8.133-10.968-18.006c-1.119-19.582,20.688-27.709,34.172-18.795
				C602.885,318.019,584.767,366.614,555.521,373.212z"/>
			<path fill="#94A4CF" d="M583.621,338.442c-3.834,12.354-9.81,25.9-22.139,31.709c-26.907,12.678-65.738-0.703-81.231-24.617
				c5.34-0.682,20.276-7.355,20.276-7.355s7.919,12.303,15.341,16.74c2.953,2.256,4.727,2.553,8.24,4.664
				c11.41,0.66,33.213-2.871,35.473-20.699c7.719,1.656,11.559-4.404,12.279-11.596c-7.403,7.809-19.552,12.766-21.595-2.354
				c-2.119-11.896,6.186-23.795,16.571-22.182C583.61,305.478,587.222,322.083,583.621,338.442z"/>
			<path fill="none" stroke="#000000" stroke-miterlimit="10" d="M571.86,327.288c-1.536,16.668-16.625,13.072-24.868,4.75"/>
			<path fill="#5E5264" d="M524.515,362.165c-3.951-1.285-7.411-4.357-9.089-7.506c5.421,4.061,28.28,5.555,38.239-13.881
				c0.451-0.887,0.527-2.764,1.478-2.846c0.949-0.086,5.368,1.271,5.059,2.846C556.614,359.022,538.173,366.604,524.515,362.165z"/>
		</g>
		<g>
			<path fill="#E9E1EE" stroke="#000000" stroke-miterlimit="10" d="M510.686,327.735c-0.087-0.512-0.098-1.059-0.16-1.574
				c0.512,3.877,2.52,7.418-1.016,10.564c-3.401,3.027-7.469,3.971-11.082,0.541c-2.021-1.918-3.146-4.385-3.497-6.965
				c-0.799-5.85,2.373-12.273,8.092-14.195c12.599-4.238,27.086,5.039,25.911,18.932c-0.519,6.1-5.812,12.059-10.066,16.041
				c-4.521,4.23-10.269,7.85-16.146,9.758c-11.115,3.609-24.845-1.291-33.719-8.768c-13.543-11.412-23.876-29.887-25.603-47.607
				c-1.033-10.602,2.017-21.012,3.201-31.494c1.411-12.48,10.834-38.891,22.873-51.585c7.039-7.418,14-14.983,21.961-21.444
				c4.892-3.969,23.115-15.657,25.018-17.065c-3.492,4.318-27.623,33.873-30.357,40.901c-7.106,18.27-9.488,43.848-4.019,62.633
				c1.908,6.557,5.633,20.686,18.473,30.861c0.029-0.018,0.06-0.037,0.091-0.055"/>
			<path fill="#94A4CF" d="M459.142,341.815c17.687,16.775,32.154,19.092,43.956,15.475c7.689-2.355,12.594-6.496,16.69-10.816
				c3.565-3.758,6.155-8.887,6.406-11.84c0.545-6.441-2.83-11.127-6.347-13.715c-6.59-4.85-10.803-5.078-17.147-0.932
				c-4.365,2.854-4.727,15.158-1.023,15.768c4.414,0.727,6.853-1.51,8.046-8.572c2.023,1.82,3.29,5.057-0.213,9.543
				c-3.184,4.074-7.469,3.971-11.082,0.541c-2.021-1.92-3.503-6.49-3.503-6.49c-10.666,2.92-22.631-6.902-27.447-14.643
				c-6.047-9.719-9.827-21.725-12.208-33.145c-1.297-6.219-2.23-30.254-1.522-34.982c-4.933,13.27-11.381,45.854-10.348,56.455
				C444.676,317.554,450.647,331.054,459.142,341.815"/>
			<path fill="#AEC5ED" d="M480.75,225.399c-19.083,43.928,5.146,88.029,14.6,94.223l-1.111,11.822
				c-10.669,2.979-21.944-7.57-26.761-15.311c-6.047-9.719-9.827-21.725-12.208-33.145c-1.297-6.219-2.814-30.381-1.522-34.982
				c2.104-7.5,9.427-19.98,15.727-26.624c7.039-7.418,14-14.983,21.961-21.444c2.381-1.931,13.191-9.199,13.191-9.199l0,0
				C496.831,199.749,484.573,216.601,480.75,225.399z"/>
		</g>
	</g>
	<g>
		<path fill="#E9E1EE" stroke="#000000" stroke-miterlimit="10" d="M512.089,214.835c7.704-32.826-21.792-59.034-44.19-62.105
			c-12.414,13.605-21.12,24.166-16.465,50.039c1.677,9.327,27.014,36.174,45.203,40.029
			C505.57,235.905,510.633,221.038,512.089,214.835z"/>
		<path fill="#94A4CF" d="M484.963,230.415c-14.661-9.476-26.397-24.668-27.224-28.265c-3.755-20.873,1.996-29.791,12.886-41.948
			c39.761,15.595,34.205,61.417,23.882,75.033c-2.856-0.99-6.113-2.604-9.541-4.818
			C484.965,230.416,484.965,230.416,484.963,230.415z"/>
		<path fill="#5E5264" d="M471.281,176.679c-5.415,2.337-4.855,13.448-4.247,17.637c0.426,2.944,4.368,14.361,12.9,13.58
			c12.305-1.125,5.36-19.639,3.534-22.166C480.462,181.571,475.847,174.709,471.281,176.679z"/>
	</g>
	<g>
		<g>
			<path fill="#E9E1EE" stroke="#000000" stroke-miterlimit="10" d="M441.392,56.238c-4.737,3.701-17.62,23.672-18.627,32.141
				c5.188,4.1,12.712,11.567,16.422,17.357c2.846-16.545,19.593-25.529,24.93-26.219c-0.548,8.233,0.246,12.604,7.406,18.706
				c14.206,12.101,32.776,0.141,33.689-15.26C506.946,53.74,461.874,40.238,441.392,56.238z"/>
			<path fill="#94A4CF" d="M480.385,55.625c-11.545-4.172-25.212-7.397-36.629-1.333c-4.872,2.587-19.459,24.533-20.991,34.086
				c4.211,3.385,13.504,12.494,16.422,17.357c0.202-9.519,14.678-27.335,25.509-27.776c3.509-11.415,11.591-10.543,17.452-6.962
				c-14.054-1.95-20.487,11.099-10.19,21.34c11.022,11.119,22.891,6.438,27.577-2.405C507.013,75.576,494.831,62.274,480.385,55.625
				z"/>
		</g>
		<g>
			<path fill="#E9E1EE" stroke="#000000" stroke-miterlimit="10" d="M742.62,198.026c-14.66-15.428-31.71-29.448-48.807-41.241
				C642.83,121.62,583.502,112.45,523.37,112.535c-23.436,0.033-69.739,10.333-83.057-10.278
				c-7.718-11.945-4.666-26.897,4.97-37.526c6.206-6.845,27.891-15.929,36.839-15.217l-12.008-22.569l-96.655,24.678
				c0,0,1.364,35.977,3.827,47.422c5.188,24.108,17.577,54.658,37.933,71.192c21.292,17.296,58.748,18.981,85.817,20.297
				c32.374,1.575,60.34-10.872,92-6.051c30.442,4.635,44.548,11.315,71,27.301c6.104,3.689,36.432,30.883,41,36.686
				c0.157,0.2,0.321,0.398,0.48,0.599c7.3-9.589,15.065-18.751,22.031-29.517C732.621,212.224,737.615,205.06,742.62,198.026z"/>
			<path fill="#D9E0D1" d="M741.437,199.688c-13.68-14.438-30.316-28.527-48.759-41.248c-43.42-29.949-96.957-43.889-168.483-43.889
				h-0.821c-5.285,0-11.88,0.547-18.862,1.128c-8.266,0.688-17.634,1.458-26.489,1.458c-13.083,0-31.398-1.43-39.388-13.795
				c-7.729-11.963-5.652-28.02,5.168-39.955c5.692-6.279,24.109-13.717,34.609-15.478l-9.322-18.639L375.523,53.16
				c0.3,7.11,1.614,35.688,3.718,45.464c2.436,11.318,12.318,49.818,37.238,70.061c20.607,16.74,57.236,18.52,83.981,19.819
				l0.672,0.033c1.862,0.09,3.781,0.136,5.703,0.136c12.328,0,24.271-1.872,35.822-3.682c11.372-1.782,23.132-3.625,35.07-3.625
				c5.469,0,10.574,0.373,15.608,1.139c31.614,4.813,46.136,12.097,71.733,27.567c6.132,3.705,36.8,31.141,41.537,37.158
				c0.053,0.067,0.109,0.134,0.163,0.201c6.93-9.002,14.209-17.729,20.777-27.881C732.222,212.801,736.828,206.188,741.437,199.688z
				"/>
			<path fill="#9CB098" d="M735.556,208.041c-13.451-14.446-30.042-28.607-48.556-41.377
				c-60.11-41.46-136.964-41.462-153.964-39.129c-10.883,1.667-29.985,7.179-55,1.781c-15.073-3.252-41.686-6.639-45.681-25.83
				c-2.652-12.741-1.059-33.267,15.681-45.452c5.104-3.715,18.514-8.643,25.85-13.36l-7.199-10.64l-92.58,22.84
				c0.621,12.142,2.379,38.332,3.77,44.795c4.063,18.881,14.187,49.281,35.327,66.454c16.718,13.581,52.294,15.792,80.333,12.661
				c13.25-1.479,32.625-9,47.75-10.028c11.866-0.806,24.567-1.469,37.25-0.52c24,1.797,65.524,15.456,91.707,31.28
				c6.765,4.089,34.62,28.865,42.798,37.877c4.941-6.306,9.899-12.723,14.507-19.843
				C730.235,215.67,732.899,211.838,735.556,208.041z"/>
			<path fill="#8A7C74" d="M728.937,217.549c-17.271-17.543-36.699-33.744-57.87-45.993c-45.53-26.342-95.28-27.294-154.741-18.067
				c-10.146,1.574-20.343,0.892-30.522-0.215c-25.308-2.752-52.874-10.689-64.767-34.739c-6.997-14.149-7.681-24.054-1.415-38.451
				c7.199-16.544,14.932-26.339,21.772-27.582l-0.715-3.936c-10.504,1.908-19.243,17.324-24.726,29.921
				c-6.855,15.751-6.288,28.341,1.107,43.297c12.02,24.305,41.589,35.501,68.742,35.5c1.341,0,21.311,0.641,31.482-0.917
				c54.75-8.385,106.646-7.648,153.001,19.167c21.159,12.241,39.232,27.769,56.344,45.401c0.306-0.462,0.615-0.916,0.918-1.384
				C728.013,218.881,728.474,218.217,728.937,217.549z"/>
		</g>
		<g>
			<path fill="#E9E1EE" stroke="#000000" stroke-miterlimit="10" d="M446.513,19.01c-2.466,1.826-4.796,3.831-6.973,5.987
				c3.952,4.316,5.913,10.625,8.466,16.34c7.467-3.485,15.758-3.135,18.194,0.054c-1.25,7.512-1.005,11.617,4.408,17.982
				c10.737,12.624,27.441,3.584,29.687-10.481C504.556,22.202,466.418,4.27,446.513,19.01z"/>
			<path fill="#94A4CF" d="M482.122,21.136c-9.27-5.053-20.41-9.459-30.557-5.087c-4.329,1.866-8.325,4.638-11.923,8.059
				c3.202,3.556,5.09,8.425,7.068,13.205c6.558-4.497,14.723-6.884,21.936-1.033c3.285-5.954,8.91-4.733,13.476-0.822
				c-11.586-3.275-18.229,8.046-10.586,18.548c8.167,11.386,18.558,8.333,23.334,0.695
				C502.513,42.289,493.586,28.774,482.122,21.136z"/>
		</g>
		<g>
			<path fill="#E9E1EE" stroke="#000000" stroke-miterlimit="10" d="M465.098,11.898c-3.923-4.817-7.885-8.868-14.313-10.835
				c-4.374-1.338-16.303-0.213-22.135,2.542c-3.948,1.865-7.58,7.252-9.94,10.968c-0.944,1.486-4.017,5.618-4.507,7.223
				l14.447,13.869l2.857-0.749c-0.162-3.275,3.636-8.318,6.549-10.17c0.252-0.16,0.543-0.298,0.854-0.423
				c-1.12-1.1-2.393-2.048-3.873-2.788c1.48,0.74,2.753,1.688,3.873,2.788c2.719-1.095,7.415-0.865,9.753,0.318
				c-2.338-1.183-7.034-1.413-9.753-0.318c4.934,4.846,6.867,12.692,10.127,19.212c-3.26-6.52-5.193-14.366-10.127-19.212
				c-0.311,0.125-0.602,0.263-0.854,0.423c-2.913,1.852-3.603,6.08-3.441,9.355c0.199,4.077,2.685,7.296,5.732,9.794
				c4.816,3.947,11.892,7.104,17.959,3.816c2.605-1.413,5.577-4.08,7.487-6.384c2.194-2.649,3.425-8.22,3.943-11.774
				C470.531,24.1,467.461,14.801,465.098,11.898z"/>
			<path fill="#94A4CF" d="M462.64,13.936c-4.045-4.969-7.433-8.166-12.778-9.8c-0.418-0.128-1.679-0.426-4.351-0.426
				c-5.462,0-12.132,1.205-15.514,2.802c-3.416,1.613-7.189,7.556-8.61,9.792c-0.267,0.419-0.692,1.04-1.185,1.754
				c-0.49,0.711-1.381,2.003-2.065,3.083l13.37,13.393c1.12-4.202,3.501-7.852,6.549-9.79c0.246-0.156,0.533-0.3,0.842-0.434
				c-1.117-1.096-2.386-2.04-3.861-2.778c1.476,0.738,2.744,1.682,3.861,2.778c1.086-0.468,2.495-0.778,3.801-0.778
				c3.758,0,5.964,1.106,5.964,1.106c-3.698,0.117-6.229,0.996-7.787,1.968c3.552,4.81,5.374,11.351,8.161,16.925
				c-2.787-5.575-4.609-12.115-8.161-16.925c-0.452,0.282-0.834,0.571-1.124,0.853c-1.389,1.349-2.075,4.139-1.96,6.481
				c0.129,2.61,1.619,5.05,4.561,7.46c3.467,2.841,7.275,4.471,10.45,4.471c1.461,0,2.77-0.324,3.998-0.991
				c2.029-1.099,4.725-3.408,6.554-5.615c1.291-1.559,2.562-5.556,3.235-10.183C467.233,24.667,464.558,16.292,462.64,13.936z"/>
		</g>
		<g>
			<path fill="#E9E1EE" stroke="#000000" stroke-miterlimit="10" d="M445.098,22.898c-3.923-4.817-7.885-8.868-14.313-10.835
				c-4.374-1.338-16.303-0.213-22.135,2.542c-3.948,1.865-7.58,7.252-9.94,10.968c-0.944,1.486-4.017,5.618-4.507,7.223
				l14.447,13.869l2.857-0.749c-0.162-3.275,3.636-8.318,6.549-10.17c0.252-0.16,0.543-0.298,0.854-0.423
				c-1.12-1.1-2.393-2.048-3.873-2.788c1.48,0.74,2.753,1.688,3.873,2.788c2.719-1.095,7.415-0.865,9.753,0.318
				c-2.338-1.183-7.034-1.413-9.753-0.318c4.934,4.846,6.867,12.692,10.127,19.212c-3.26-6.52-5.193-14.366-10.127-19.212
				c-0.311,0.125-0.602,0.263-0.854,0.423c-2.913,1.852-3.603,6.08-3.441,9.355c0.199,4.077,2.685,7.296,5.732,9.794
				c4.816,3.947,11.892,7.104,17.959,3.816c2.605-1.413,5.577-4.08,7.487-6.384c2.194-2.649,3.425-8.22,3.943-11.774
				C450.531,35.1,447.461,25.801,445.098,22.898z"/>
			<path fill="#94A4CF" d="M442.64,24.936c-4.045-4.969-7.433-8.166-12.778-9.8c-0.418-0.128-1.679-0.426-4.351-0.426
				c-5.462,0-12.132,1.205-15.514,2.802c-3.416,1.613-7.189,7.556-8.61,9.792c-0.267,0.419-0.692,1.04-1.185,1.754
				c-0.49,0.711-1.381,2.003-2.065,3.083l13.37,13.393c1.12-4.202,3.501-7.852,6.549-9.79c0.246-0.156,0.533-0.3,0.842-0.434
				c-1.117-1.096-2.386-2.04-3.861-2.778c1.476,0.738,2.744,1.682,3.861,2.778c1.086-0.468,2.495-0.778,3.801-0.778
				c3.758,0,5.964,1.106,5.964,1.106c-3.698,0.117-6.229,0.996-7.787,1.968c3.552,4.81,5.374,11.351,8.161,16.925
				c-2.787-5.575-4.609-12.115-8.161-16.925c-0.452,0.282-0.834,0.571-1.124,0.853c-1.389,1.349-2.075,4.139-1.96,6.481
				c0.129,2.61,1.619,5.05,4.561,7.46c3.467,2.841,7.275,4.471,10.45,4.471c1.461,0,2.77-0.324,3.998-0.991
				c2.029-1.099,4.725-3.408,6.554-5.615c1.291-1.559,2.562-5.556,3.235-10.183C447.233,35.667,444.558,27.292,442.64,24.936z"/>
		</g>
		<g>
			<path id="_x36__1_" fill="#E9E1EE" stroke="#000000" stroke-miterlimit="10" d="M385.762,31.261
				c-20.656,15.304-32.122,42.538-26.526,68.171c3.487-3.15,16.134-8.932,16.134-8.932s-3.129-12.162-1.329-19.962
				c4.238-18.378,27.829-21.73,32.329-15.836c-1.308,7.868-1.052,12.167,4.615,18.833c11.239,13.221,28.725,3.754,31.075-10.977
				C446.52,34.604,406.598,15.823,385.762,31.261z"/>
			<path id="_x32__1_" fill="#94A4CF" d="M423.036,34.535c-9.703-5.292-21.364-9.907-31.986-5.328
				c-23.181,9.995-37.41,44.591-31.814,70.225c3.487-3.15,16.134-8.932,16.134-8.932s-2.908-13.153-1.329-20.962
				c0.329-3.42,1.172-4.798,1.913-8.503c6.166-8.083,20.857-20.475,32.978-10.639c3.438-6.236,9.326-4.958,14.105-0.861
				c-9,0-19,5-11,16c6,9,18,11,23,3C443.036,55.535,435.036,42.535,423.036,34.535z"/>
			<path id="_x31_" fill="#5E5264" d="M374.619,59.118c-1.494,3.471-1.621,7.75-0.676,10.883
				c0.655-6.226,12.905-22.529,30.434-16.837c0.797,0.259,1.98,1.403,2.578,0.819s2.317-4.415,1.184-5.21
				C395.003,39.564,379.786,47.118,374.619,59.118z"/>
		</g>
		<g id="B">
			<path id="_x36_" fill="#E9E1EE" stroke="#000000" stroke-miterlimit="10" d="M393.369,95.535
				c0.312,0.414,0.701,0.799,1.032,1.199c-2.461-3.04-3.648-6.933-8.365-6.533c-4.537,0.384-8.02,2.687-8.018,7.667
				c0.002,2.787,1.018,5.302,2.647,7.333c3.693,4.603,10.538,6.722,15.868,3.896c11.745-6.225,14.982-23.121,4.094-31.828
				c-4.782-3.822-12.749-4.083-18.566-3.735c-6.182,0.37-12.762,2.049-18.191,5c-10.267,5.582-16.159,18.917-16.84,30.5
				c-1.039,17.68,5.255,37.89,16.924,51.336c6.981,8.045,16.635,12.996,25.056,19.35c10.026,7.564,35.674,18.902,53.169,18.9
				c10.226-0.002,20.505,0.152,30.671-1.178c6.246-0.818,27.267-5.998,29.598-6.408c-5.536-0.438-46.931-4.209-53.911-7.062
				c-18.146-7.416-35-22.344-44.866-39.239c-3.444-5.898-11.134-18.323-9.682-34.642c0.034-0.009,0.068-0.018,0.104-0.027"/>
			<path id="_x32_" fill="#94A4CF" d="M347.685,123.245c-0.002-24.377,8.273-36.468,19.019-42.543c7-3.958,13.38-4.667,19.333-4.667
				c5.182,0,10.685,1.649,13,3.5c5.049,4.037,6.126,9.708,5.584,14.042c-1.016,8.119-3.75,11.333-11.125,13.083
				c-5.074,1.204-14.25-7-12.144-10.108c2.51-3.703,5.811-3.934,11.757,0.062c0.071-2.721-1.405-5.868-7.072-6.412
				c-5.146-0.494-8.02,2.687-8.018,7.667c0.002,2.789,2.299,7.01,2.299,7.01c-9.459,5.728-10.565,21.167-8.263,29.99
				c2.891,11.076,9,22.081,15.648,31.667c3.62,5.22,20.417,22.438,24.336,25.177c-13.023-5.552-41.104-23.296-48.085-31.341
				c-8.62-9.934-14.307-23.558-16.271-37.126"/>
			<path id="_x34__1_" fill="#AEC5ED" d="M447.023,187.675c-45.005-16.381-60.332-64.311-58.32-75.431l-9.343-7.329
				c-9.502,5.691-9.608,21.131-7.306,29.953c2.891,11.076,9,22.081,15.648,31.667c3.62,5.22,20.106,22.947,24.336,25.177
				c6.89,3.635,20.984,6.91,30.14,6.908c10.226-0.002,20.505,0.152,30.671-1.178c3.039-0.398,15.753-3.239,15.753-3.239v-0.001
				C476.7,193.657,456.038,190.956,447.023,187.675z"/>
		</g>
	</g>
</g>
<line id="direct" fill="none" stroke="#FF0000" style="display:none" stroke-miterlimit="10" x2="742.288" y2="198.292" x1="705.517" y1="249.068"/>
</svg>
