<svg width="644" height="597" xmlns="http://www.w3.org/2000/svg">

 
 <g id="SvgjsG1684">
   <g id="svg_1">
    <g id="B_18_">
     <path d="m82.771,23.285c-0.623,7.449 0.516,14.706 -0.818,21.477c-1.592,8.057 -1.808,13.27 0.912,21.842c5.213,16.386 21.67,24.722 34.696,27.615c6.304,1.401 10.623,-2.726 14.779,-8.28c5.475,-7.317 6.27,-13.669 5.278,-23.103c-0.786,-7.533 -2.251,-14.356 -6.661,-21.548c-5.326,-8.694 -10.968,-13.705 -17.884,-17.874c-6.062,-3.659 -10.041,-10.485 -10.467,-18.162c-0.178,-3.252 -18.672,4.09 -19.835,18.033z" stroke-miterlimit="10" class="B5 B6" id="_x35__27_"></path>
     <path d="m87.11,65.256c-2.462,-7.738 -2.246,-12.087 -0.779,-19.511c0.875,-4.428 0.804,-8.912 0.736,-13.249c-0.043,-2.882 -0.089,-5.863 0.151,-8.739c0.589,-7.039 7.353,-12.051 11.521,-13.907c0.227,1.058 0.507,2.107 0.848,3.133c2.04,6.103 6.042,11.206 11.276,14.357c7.125,4.296 11.857,9.027 16.331,16.326c1.551,2.531 2.75,5.096 3.665,7.843c1.104,3.306 1.82,6.923 2.324,11.733c0.972,9.287 -0.094,14.113 -4.404,19.876c-4.228,5.653 -6.937,7.388 -10.348,6.633c-5.864,-1.299 -25.448,-6.887 -31.192,-24.099l-0.129,-0.396z" class="B4" id="_x34__12_"></path>
     <path d="m117.304,61.948c-0.496,-1.488 -1.19,-2.788 -1.73,-4.26c-0.355,-0.97 -2.435,-2.814 -2.435,-2.814s-2.131,2.437 -2.722,3.488c-1.592,2.828 -3.705,5.887 -4.405,9.216c-0.413,1.959 -0.03,4.085 0.046,6.055c0.082,2.24 0.693,4.579 1.287,6.682c1.333,4.722 3.876,9.583 8.52,9.577c5.003,-0.007 5.666,-8.351 5.209,-12.704c-0.206,-1.986 -0.567,-4.354 -1.076,-6.179c-0.363,-1.296 -2.361,-8.052 -2.694,-9.061z" class="B1" id="_x31__7_"></path>
    </g>
    <g id="svg_2">
     <path id="svg_3" d="m187.531,90.597c-0.31,-6.276 -6.153,-16.052 -10.48,-20.333c-13.16,-13.027 -37.388,-10.557 -50.434,1.406c-11.017,10.105 -15.648,25.697 -13.259,40.4l21.07,10.566c-0.575,-2.017 -4.085,-19.954 0.571,-27.224c4.514,-7.047 14.929,-8.009 21.378,-2.607c3.121,2.61 4.3,7.475 5.915,10.885c1.92,4.06 3.813,10.848 9.762,10.452c12.935,-0.858 15.886,-15.221 15.477,-23.545z" stroke-miterlimit="10" stroke="rgb(123, 90, 98)" fill="#E5DFDE"></path>
     <path id="svg_4" d="m183.533,90.795c-0.168,-3.492 -2.993,-9.651 -6.716,-14.648c-0.899,-1.207 -1.79,-2.257 -2.581,-3.041c-11.716,-11.601 -33.766,-8.713 -44.916,1.512c-9.2,8.436 -13.812,21.627 -12.292,34.819l6.031,3.027c-2.373,-11.72 2.979,-27.697 12.135,-31.769c4.919,-2.187 9.397,-3.613 14.662,-2.078c7.418,2.171 13.711,8.552 13.104,16.46c0.714,1.423 1.292,2.874 1.826,4.221c0.388,0.976 0.756,1.9 1.123,2.68c0.293,0.629 0.589,1.309 0.897,2.027c0.724,1.684 1.473,3.422 2.402,4.675c1.08,1.44 1.868,1.516 2.58,1.47c12.508,-0.829 11.783,-18.603 11.745,-19.355z" fill="#ABB8AD"></path>
     <path id="svg_5" d="m150.529,77.85c-5.391,-2.219 -11.385,-0.816 -16.007,1.943c-11.652,6.963 -13.835,20.947 -11.458,32.669l6.114,3.069c-0.843,-6.952 -1.145,-16.659 2.452,-22.274c2.632,-4.11 7.047,-6.91 12.119,-7.688c5.486,-0.841 11.021,0.679 15.194,4.166c0.796,0.661 1.536,1.457 2.21,2.361c0.705,0.945 1.29,1.955 1.809,2.977c0.604,-7.903 -5.347,-14.127 -12.433,-17.223z" fill="#73776C"></path>
    </g>
    <g id="svg_6">
     <path id="svg_7" d="m41.205,75.764c0.625,-6.251 6.963,-15.716 11.503,-19.772c13.804,-12.338 37.876,-8.64 50.298,3.973c10.487,10.651 12.906,31.258 9.768,45.818l-21.582,9.484c0.68,-1.99 6.514,-24.521 2.233,-32.018c-4.149,-7.269 -14.5,-8.755 -21.221,-3.693c-3.246,2.445 -4.673,7.246 -6.458,10.567c-2.127,3.961 -4.362,10.642 -10.282,9.942c-12.875,-1.514 -15.092,-16.008 -14.259,-24.301z" stroke-miterlimit="10" stroke="rgb(123, 90, 98)" fill="#E5DFDE"></path>
     <path id="svg_8" d="m45.185,76.164c0.347,-3.475 3.483,-9.484 7.455,-14.285c0.959,-1.16 1.904,-2.166 2.734,-2.906c12.294,-10.992 34.168,-6.983 44.781,3.795c8.759,8.898 12.229,30.091 10.039,43.188l-6.143,2.726c2.971,-11.583 -1.135,-35.604 -10.071,-40.137c-4.8,-2.437 -9.202,-4.091 -14.535,-2.825c-7.527,1.791 -14.129,7.839 -13.927,15.77c-0.785,1.382 -1.439,2.805 -2.04,4.122c-0.436,0.959 -0.851,1.866 -1.254,2.619c-0.331,0.612 -0.66,1.28 -1.002,1.98c-0.81,1.642 -1.646,3.344 -2.641,4.544c-1.145,1.387 -1.938,1.423 -2.652,1.341c-12.446,-1.469 -10.819,-19.177 -10.744,-19.932z" fill="#ABB8AD"></path>
     <path id="svg_9" d="m78.809,64.922c5.5,-1.942 11.412,-0.24 15.888,2.754c11.278,7.545 12.319,29.426 9.353,41.007l-6.265,2.753c1.192,-6.898 2.421,-24.381 -0.884,-30.169c-2.423,-4.237 -6.689,-7.26 -11.711,-8.294c-5.435,-1.121 -11.047,0.117 -15.389,3.387c-0.827,0.621 -1.609,1.377 -2.327,2.246c-0.748,0.908 -1.388,1.888 -1.956,2.884c-0.202,-7.931 6.056,-13.841 13.291,-16.568z" fill="#73776C"></path>
    </g>
   </g>
   <g id="svg_10">
    <path id="svg_11" d="m88.874,248.517c0,0 -44.701,-44.405 -38.497,-82.423c4.934,-30.226 39.874,-49.665 67.163,-33.799c37.176,21.613 20.389,67.359 20.526,66.607l31.985,14.019c7.202,-30.57 -5.198,-121.423 -95.033,-107.185c-29.481,4.676 -61.531,32.07 -66.11,63.184c-3.954,26.879 2.463,52.538 15.104,75.499c6.106,11.084 18.327,33.943 31.886,30.861c13.294,-3.024 32.976,-26.763 32.976,-26.763z" stroke-miterlimit="10" stroke="rgb(123, 90, 98)" fill="#E9E1EE"></path>
    <path id="svg_12" d="m28.437,160.023c8.895,-26.57 31.355,-43.293 58.163,-45.798c21.009,-1.926 39.589,2.941 54.538,17.994c20.352,19.347 23.001,48.462 19.815,74.191c1.997,0.601 4.011,1.171 6.053,1.69c4.781,-24.405 -0.75,-49.362 -15.406,-69.053c-17.965,-24.123 -46.33,-35.091 -75.856,-29.356c-26.791,5.204 -58.494,29.589 -62.947,59.866c-3.573,24.289 1.28,48.9 14.571,73.042c1.537,2.789 3.341,5.905 5.499,8.802c0,0.003 0,0.003 0.002,0.001c6.861,9.218 18.686,18.772 25.828,22.032c3.145,-2.896 5.002,-5.579 8.622,-8.218c-30.107,-24.411 -50.8,-65.528 -38.882,-105.193z" fill="#ABB8AD"></path>
    <path id="svg_13" d="m117.542,132.296c7.639,4.445 12.177,8.245 16.466,14.008c12.271,16.478 8.768,33.311 4.055,52.601c6.363,2.452 16.494,5.567 22.889,7.504c3.186,-25.729 0.539,-54.842 -19.815,-74.191c-14.949,-15.053 -33.529,-19.92 -54.538,-17.994c-26.807,2.505 -49.267,19.228 -58.163,45.798c-11.918,39.666 8.777,80.78 38.885,105.19c1.409,-1.03 3.121,-2.366 4.515,-3.362c5.329,-3.808 13.105,-9.474 17.037,-13.334c-2.737,-4.027 -7.349,-10.552 -10.548,-14.902c-14.905,-20.252 -31.995,-39.178 -28.577,-65.944c2.051,-16.04 10.674,-28.537 25.985,-36.093c14.835,-7.321 28.203,-7.189 41.809,0.719z" fill="#73776C"></path>
   </g>
   <g id="svg_14">
    <g id="svg_15">
     <path id="svg_16" d="m23.485,249.275c-0.675,-2.848 -0.245,-5.952 0.059,-8.811c0.728,-6.82 8.392,-26.319 13.737,-31.548l-11.927,-2.737c-3.683,0.425 -16.373,16.119 -17.83,18.905c-4.661,8.907 -5.524,19.76 -3.992,30.234" stroke-miterlimit="10" stroke="rgb(123, 90, 98)" fill="#E9E1EE"></path>
     <path id="svg_17" d="m23.123,241.446c0.41,-3.819 1.119,-6.655 2.13,-9.83c0.748,-2.354 10.953,-20.744 12.028,-22.699l-11.927,-2.737c-0.833,0.916 -20.409,27.323 -20.388,38.306c0.007,3.152 1.233,7.12 1.334,9.859c5.723,-2.067 11.37,-4.281 17.154,-5.066c-0.966,-3.727 -0.331,-7.833 -0.331,-7.833z" fill="#F8ECCF"></path>
     <path d="m24.363,242.742c-0.171,-4.165 0.896,-8.374 1.517,-12.587c0.276,-1.872 9.148,-21.659 7.229,-22.197c-0.448,-0.128 -3.254,-0.85 -3.254,-0.85s-15.101,33.894 -15.247,42.458c-0.011,0.53 0.052,1.134 0.162,1.793c3.033,-0.975 6.611,-2.17 9.695,-2.546c-0.346,-2.267 -0.008,-3.762 -0.102,-6.071z" class="ring2_1" id="B1_3_"></path>
    </g>
    <g id="B_17_">
     <path d="m91.811,263.656c4.823,-4.546 0.009,-13.988 -5.242,-16.189c-5.983,-2.518 -12.438,0.354 -16.586,4.275c-7.692,7.276 -13.698,21.59 -10.241,33.092c3.934,13.093 14.482,25.055 28.012,24.906c14.266,-0.154 22.022,-8.5 30.246,-20.157c3.665,-5.194 5.881,-10.973 5.394,-17.988c-0.558,-8.002 -6.432,-14.557 -8.735,-22.47c22.827,-20.677 -17.07,-56.542 -37.761,-55.143c-7.922,0.532 -12.788,5.123 -19.063,8.956c-9.405,-5.793 -25.356,-4.495 -32.479,3.241c-5.507,5.98 -11.853,23.961 -6.05,33.572c0.004,0.003 4.473,8.225 9.315,9.213c11.507,2.351 26.738,-14.003 32.211,-14.071c8.755,-0.107 15.175,-0.078 21.077,11.697" class="B5 B6" id="_x35__26_"></path>
     <path d="m90.604,261.885c0.606,-2.255 -2.03,-4.804 -3.384,-6.458c-2.156,-2.64 -4.394,-3.315 -7.497,-3.065c-4.872,0.389 -7.917,4.909 -10.621,8.679c-2.939,4.096 -5.066,7.831 -5.147,13.217c-0.083,5.227 2.538,12.326 5.325,16.757c3.165,5.034 7.25,8.352 12.17,10.813c5.706,2.852 10.859,2.993 16.436,0.702c5.263,-2.162 8.896,-6.534 12.965,-10.705c4.309,-4.417 6.661,-9.379 8.038,-15.644c1.256,-5.728 -1.884,-11.206 -4.383,-16.247c-1.279,-2.587 -6.914,-12.554 -6.478,-15.194c0.478,-2.909 4.662,-4.023 5.353,-6.88c1.429,-5.902 1.648,-17.092 -8.448,-26.84c-4.535,-4.377 -9.183,-7.329 -14.812,-9.392c-5.171,-1.896 -12.079,-4.003 -16.762,-1.068c-2.088,1.305 -4.264,2.716 -6.587,3.673c-1.968,0.81 -4.593,3.058 -6.577,2.914c-1.514,-0.115 -2.98,-1.875 -4.473,-2.433c-9.77,-3.666 -22.759,-1.587 -29.395,6.686c-3.292,4.106 -5.608,9.416 -6.165,14.953c-0.51,5.076 2.013,9.176 5.667,13.094c4.494,4.822 12.184,13.875 26.298,13.672c12.009,-0.172 30.749,-9.444 33.856,-8.103c2.709,1.167 3.826,2.909 5.341,5.598c2.143,3.799 3.297,6.075 2.136,10.404c-0.636,2.354 -3.462,4.562 -2.627,0.607" class="B4" id="_x34__11_"></path>
     <path d="m92.757,252.425c0.705,-2.4 2.164,-3.932 1.601,-6.816c-0.505,-2.597 -2.664,-5.139 -4.128,-7.229c-3.96,-5.649 -8.318,-9.94 -14.693,-11.93c-7.165,-2.238 -14.574,-2.186 -21.352,0.171c-4.872,1.693 -10.098,5.335 -11.205,11.198c1.822,1.344 6.284,-1.939 7.976,-2.604c2.993,-1.185 6.585,-2.002 9.748,-2.344c5.154,-0.562 10.073,0.787 14.365,4.448c2.832,2.419 5.764,5.56 6.84,9.275c3.124,-0.652 7.181,1.87 9.129,4.591c0.024,-0.263 0.221,-0.393 0.287,-0.565" class="B1" id="_x31__6_"></path>
    </g>
    <g id="svg_18">
     <path id="svg_19" d="m32.599,254.571c-4.054,0.256 -9.682,14.587 -10.978,16.888c-6.316,11.238 -2.273,26.541 5.729,38.783c5.783,8.851 14.667,15.327 27.495,17.918c6.744,1.363 17.338,3.222 23.948,1.748c11.244,-2.502 20.413,-7.192 25.067,-15.044c4.218,-7.119 3.105,-18.672 -1.978,-25.95c-7.041,-10.091 -24.511,-14.392 -37.328,-12.247c-4.747,0.793 -11.849,2.722 -14.496,7.597c-2.082,3.838 -3.253,11.239 -1.161,15.364c-1.786,-0.357 -4.745,-4.481 -5.77,-5.906c-2.014,-2.805 -1.824,-5.999 -1.821,-8.901c0.004,-5.71 6.236,-21.884 11.57,-26.132l-20.277,-4.118z" stroke-miterlimit="10" stroke="rgb(123, 90, 98)" fill="#E9E1EE"></path>
     <path id="svg_20" d="m24.002,288.805c1.502,-5.284 12.629,-32.501 13.449,-33.248l15.425,3.132c-0.964,1.612 -10.16,16.786 -10.718,18.743c-0.749,2.64 -1.203,5.005 -1.204,8.203c0,0 -0.31,4.634 2.171,8.086c3.759,5.241 1.419,5.696 4.423,6.302l2.761,0.526c-1.038,-2.05 0.021,-7.178 1.081,-10.901c0.315,-1.11 2.996,-3.061 3.406,-3.824c1.795,-3.302 7.054,-4.812 11.15,-5.5c10.483,-1.755 25.478,1.627 31.432,10.152c3.647,5.223 4.973,13.165 3.228,19.312c-0.36,1.264 -0.845,2.417 -1.436,3.415c-3.707,6.26 -11.143,10.669 -22.1,13.11c-5.283,1.178 -14.415,0.505 -20.707,-0.769c-10.921,-2.208 -21.354,-8.8 -26.577,-16.804c-3.646,-5.57 -7.937,-12.344 -5.784,-19.935z" fill="#F8ECCF"></path>
    </g>
    <g id="svg_21">
     <path id="svg_22" d="m24.961,251.755c-3.73,1.611 -4.195,16.999 -4.634,19.601c-2.161,12.71 6.814,25.75 18.472,34.58c8.43,6.38 18.984,9.478 31.93,7.589c6.809,-0.991 17.407,-2.813 23.133,-6.431c9.74,-6.152 16.789,-13.659 18.522,-22.62c1.565,-8.126 -3.377,-18.626 -10.618,-23.761c-10.035,-7.125 -27.932,-5.279 -39.273,1.063c-4.199,2.35 -10.234,6.561 -11.083,12.044c-0.661,4.314 0.73,11.675 4.093,14.854c-1.801,0.266 -5.981,-2.613 -7.427,-3.612c-2.841,-1.961 -3.739,-5.033 -4.716,-7.767c-1.924,-5.376 -1.515,-22.704 2.075,-28.505l-20.474,2.965z" stroke-miterlimit="10" stroke="rgb(123, 90, 98)" fill="#E9E1EE"></path>
     <path id="svg_23" d="m28.417,286.881c-0.365,-5.48 0.924,-34.859 1.448,-35.835l15.575,-2.256c-0.363,1.845 -3.902,19.231 -3.765,21.263c0.183,2.735 0.557,5.115 1.631,8.127c0,0 1.273,4.464 4.772,6.884c5.307,3.665 3.257,4.883 6.291,4.435l2.776,-0.435c-1.669,-1.58 -2.403,-6.765 -2.661,-10.627c-0.078,-1.15 1.786,-3.889 1.918,-4.75c0.575,-3.711 5.016,-6.912 8.642,-8.937c9.274,-5.188 24.533,-7.066 33.012,-1.049c5.198,3.686 9.122,10.716 9.551,17.09c0.087,1.316 0.022,2.562 -0.196,3.702c-1.381,7.142 -6.892,13.804 -16.385,19.798c-4.572,2.889 -13.397,5.334 -19.75,6.26c-11.023,1.608 -23.071,-1.08 -30.69,-6.848c-5.306,-4.025 -11.634,-8.952 -12.169,-16.822z" fill="#F8ECCF"></path>
     <path d="m90.964,284.894c5.41,2.1 -2.274,7.274 -5.35,10.446c-2.579,2.656 -9.629,6.493 -13.979,7.477c-8.744,1.978 -15.776,1.848 -20.908,-0.079c-4.341,-1.625 -12.962,-7.303 -14.642,-10.679c-3.229,-6.488 -0.637,-37.231 -0.637,-37.231s3.253,-0.443 3.777,-0.505c2.247,-0.269 0.672,17.703 1.124,19.205c1.006,3.383 0.453,6.872 2.279,9.94c1.515,2.537 2.77,5.249 5.359,7.212c4.759,3.618 15.153,8.92 22.525,7.174c4.763,-1.126 18.046,-13.895 20.452,-12.96z" class="ring2_1" id="B1_2_"></path>
    </g>
    <g id="svg_24">
     <path id="svg_25" d="m16.807,269.761c-1.255,3.401 9.351,14.506 10.909,16.607c7.618,10.252 22.611,13.974 36.345,13.1c9.929,-0.631 18.894,-4.865 25.866,-14.055c3.664,-4.836 9.177,-12.563 10.287,-18.588c1.893,-10.243 1.101,-19.81 -4.134,-27.164c-4.75,-6.671 -15.362,-11.052 -23.644,-10.268c-11.482,1.086 -21.663,13.257 -24.448,24.609c-1.032,4.208 -1.921,10.836 1.42,15.207c2.629,3.438 8.736,7.773 13.148,7.969c-0.97,1.279 -5.692,1.794 -7.323,1.968c-3.214,0.348 -5.965,-1.273 -8.526,-2.599c-5.045,-2.615 -17.055,-15.053 -18.86,-21.316l-11.04,14.53z" stroke-miterlimit="10" stroke="rgb(123, 90, 98)" fill="#E9E1EE"></path>
     <path id="svg_26" d="m43.907,292.372c-4.117,-3.628 -24.1,-25.081 -24.457,-26.088l8.399,-11.052c1.068,1.517 11.116,15.902 12.643,17.246c2.057,1.816 3.98,3.263 6.807,4.727c0,0 3.977,2.369 7.934,1.94c6.001,-0.646 5.549,1.455 7.182,-0.697l1.473,-1.995c-2.192,-0.099 -6.336,-3.302 -9.236,-5.858c-0.864,-0.765 -1.609,-3.823 -2.132,-4.51c-2.261,-2.96 -1.676,-7.909 -0.787,-11.538c2.278,-9.285 10.739,-19.875 20.441,-20.798c5.942,-0.562 13.438,1.995 18.232,6.218c0.986,0.877 1.828,1.789 2.495,2.728c4.175,5.862 5.356,13.896 3.508,23.881c-0.885,4.813 -4.817,11.895 -8.232,16.403c-5.94,7.832 -15.574,13.258 -24.547,13.83c-6.256,0.4 -13.805,0.779 -19.723,-4.437z" fill="#F8ECCF"></path>
     <path d="m76.089,256.341c4.106,-0.137 8.348,0.453 10.171,4.379c1.514,3.268 -0.335,10.019 -2.431,13.357c-4.207,6.704 -11.23,10.799 -15.667,13.731c-3.807,2.513 -13.129,6.742 -16.599,5.389c-6.662,-2.599 -28.339,-31.877 -28.339,-31.877s1.778,-2.291 2.067,-2.652c1.25,-1.553 12.972,12.045 14.322,12.833c3.045,1.767 5.16,4.555 8.509,5.604c2.764,0.864 5.492,2.011 8.542,1.822c5.62,-0.351 17.008,-1.055 20.498,-6.76c2.261,-3.69 4.315,-9.305 1.405,-10.663c-2.097,-0.982 -5.592,-5.059 -2.478,-5.163z" class="ring2_1" id="B1_1_"></path>
    </g>
    <g id="svg_27">
     <path id="svg_28" d="m3.535,255.318c0.806,5.524 2.269,10.941 4.218,15.91c4.08,10.396 11.257,17.87 22.474,20.587c5.895,1.43 15.199,3.336 21.338,1.383c10.435,-3.318 19.287,-9.189 24.471,-18.698c4.703,-8.629 3.592,-21.751 -0.846,-29.911c-5.911,-10.873 -17.871,-17.484 -29.679,-14.547c-4.376,1.086 -10.223,3.837 -14.925,8.494c-3.685,3.649 -6.643,7.737 -6.167,12.768c0.184,1.93 1.214,6.418 8.426,14.642" stroke-miterlimit="10" stroke="rgb(123, 90, 98)" fill="#E9E1EE"></path>
     <path id="svg_29" d="m72.028,272.655c0.663,-1.214 1.24,-2.599 1.727,-4.124c2.352,-7.393 0.795,-15.701 -1.823,-21.831c-4.275,-9.999 -16.873,-15.332 -25.119,-13.296c-3.776,0.932 -9.676,3.227 -13.155,6.053c-3.064,2.489 -5.353,5.978 -5.775,7.311c-2.001,6.285 2.663,14.887 4.958,19.179c-2.933,-1.596 -5.85,-4.98 -8.298,-11.412c-0.223,-0.578 -1.137,-5.565 -1.293,-6.164c-5.782,0.783 -11.242,3.177 -16.966,5.244c0.2,5.589 2.124,11.353 3.851,15.75c3.687,9.398 12.242,16.964 21.793,19.279c5.503,1.334 13.637,1.873 18.541,0.309c10.172,-3.233 17.425,-8.719 21.559,-16.298z" fill="#F8ECCF"></path>
     <path d="m52.502,274.921c6.381,-6.815 6.466,-11.944 3.177,-16.353c-2.105,-2.82 -6.389,-3.66 -9.425,-1.462c-2.529,1.832 0.744,7.922 -6.668,10.325c-6.702,2.17 -12.415,-6.717 -14.902,-12.531c-1.319,-3.093 -0.996,-5.511 -0.65,-6.876c-3.083,0.373 -6.357,1.403 -9.392,2.379c0.817,4.879 4.757,13.71 7.225,16.768c3.312,4.111 9.162,11.077 17.038,12.115c3.917,0.518 10.706,-1.279 13.597,-4.365z" class="ring2_1" id="B1"></path>
    </g>
   </g>
   <g id="B_16_">
    <path d="m115.441,232.578c0.395,43.775 44.804,68.18 73.44,65.435c11.246,-20.871 18.821,-36.797 5.244,-68.13c-4.897,-11.289 -44.357,-37.734 -68.023,-37.224c-8.969,11.353 -10.737,31.644 -10.661,39.919z" stroke-miterlimit="10" class="B5 B6" id="_x35__25_"></path>
    <path d="m144.287,204.855c21.002,7.641 40.114,23.373 42.222,27.677c10.954,25.273 6.536,38.252 -3.26,56.839c-53.901,-7.951 -60.881,-67.52 -52.226,-87.786c3.833,0.408 8.35,1.481 13.261,3.268c-0.002,0.005 0.001,0.001 0.003,0.002z" class="B4" id="_x34__10_"></path>
    <path d="m177.457,268.737c5.991,-4.555 1.942,-18.434 -0.077,-23.553c-1.419,-3.596 -9.745,-16.861 -20.068,-13.349c-14.884,5.063 -0.694,26.414 2.33,29.065c4.977,4.371 12.763,11.68 17.815,7.837z" class="B1" id="_x31__5_"></path>
   </g>
   <g id="svg_30">
    <g id="B_14_">
     <path d="m217.553,449.488c-0.241,4.077 4.487,10.401 8.133,12.739c3.072,1.971 10.043,1.853 13.335,0.235l0,0c-3.291,1.618 -10.263,1.736 -13.335,-0.235c-3.646,-2.338 -4.47,-7.613 -4.236,-11.698c0.292,-5.073 3.448,-9.057 7.306,-12.14c6.099,-4.869 15.03,-8.732 22.623,-4.572c3.263,1.786 6.972,5.139 9.352,8.032c2.735,3.321 4.224,10.276 4.836,14.706c0.945,6.806 -3.01,18.364 -6.009,21.954c-4.98,5.963 -10.008,10.971 -18.111,13.353c-5.517,1.622 -20.502,0.101 -27.804,-3.393c-4.948,-2.363 -9.46,-9.109 -12.392,-13.767c-1.172,-1.86 -4.991,-7.042 -5.594,-9.043l18.308,-17.133l3.588,0.962z" stroke-miterlimit="10" class="B5 B6" id="_x35__20_"></path>
     <path d="m244.454,434.051c-4.442,-0.037 -9.703,2.114 -14.448,5.902c-4.133,3.301 -6.34,6.899 -6.558,10.694c-0.102,1.759 -0.164,7.666 3.313,9.895c1.096,0.697 3.141,1.13 5.48,1.148c2.318,0.018 5.975,-0.529 7.294,-1.174l-0.515,1.949c-2.343,1.151 -5.266,1.1 -9.085,1.073c-1.58,-0.012 -3.191,-0.632 -4.25,-1.312c-3.724,-2.389 -7.312,-7.651 -8.133,-12.739l-3.029,1.255l-16.458,15.399c0.837,1.542 2.473,3.929 3.448,5.36c0.597,0.873 1.111,1.626 1.43,2.132c2.028,3.226 6.894,10.534 11.552,13.025c5.967,3.204 18.785,5.136 26.455,3.268c7.627,-1.863 12.233,-6.905 17.073,-12.701c2.708,-3.239 6.279,-14.309 5.565,-20.395c-0.935,-7.916 -2.189,-11.022 -4.401,-13.714c-2.464,-2.989 -7.808,-9.299 -14.733,-9.065z" class="B4" id="_x34__5_"></path>
    </g>
    <g id="b">
     <g id="svg_31">
      <path d="m83.252,440.81c2.363,2.463 4.975,6.837 7.411,9.181c3.832,3.687 8.235,7.25 12.545,10.426c10.125,7.459 21.605,12.321 33.707,15.1c8.2,1.873 14.22,1.501 22.275,-0.457c2.902,-0.707 11.627,-5.743 11.627,-5.743s1.483,-0.173 2.652,0.67c4.576,3.302 10.35,4.05 15.832,4.399c4.908,0.317 9.969,-0.312 14.489,-2.324c4.87,-2.163 8.948,-5.309 11.964,-9.594c8.848,-12.572 10.262,-27.351 0.812,-40.252c-2.734,-3.725 -2.97,-9.833 -6.721,-12.565c-2.758,-2.003 -5.718,-3.682 -8.657,-5.391c-4.936,-2.868 -9.798,-5.9 -14.914,-8.442c-2.051,-1.017 -4.368,-1.273 -6.44,-2.235c-1.331,-0.623 -2.579,-1.798 -4.08,-1.019c-1.292,0.671 -1.845,2.638 -2.076,3.947c-1.091,6.144 -5.056,11.477 -7.845,16.934c-1.132,2.218 -2.231,4.563 -3.777,6.517c-1.342,1.697 -3.07,2.34 -4.842,3.448c-4.632,2.894 -9.712,5.225 -15,7.144c-5.312,1.933 -10.688,3.881 -16.159,5.33c-6.086,1.611 -12.201,2.211 -18.49,2.25c-8.236,0.051 -16.654,-0.332 -24.156,-4.155c-1.076,-0.547 -2.115,-1.187 -3.226,-1.654c-0.382,-0.162 -3.662,-0.417 -3.721,-0.496c-0.001,0.002 4.019,6.093 6.79,8.981z" stroke-miterlimit="10" class="B5 B6" id="_x35__19_"></path>
      <path d="m176.755,394.31c-0.021,0.003 -0.048,0.014 -0.081,0.032c-0.245,0.13 -0.745,0.922 -1.027,2.517c-0.85,4.817 -3.204,4.837 -5.551,8.929c-0.86,1.503 -2.223,3.808 -2.962,5.251l-1.301,2.41c-1.02,2.019 -1.633,3.737 -3.101,5.591c-1.244,1.576 -1.884,2.293 -3.28,3.072c-0.423,0.238 -1.186,0.657 -1.616,0.926c-4.426,2.762 -9.847,5.42 -15.624,7.517c-5.264,1.913 -9.825,3.648 -15.448,5.138c-1.647,0.438 -3.383,0.872 -5.105,1.183c-4.281,0.771 -9.018,1.231 -14.094,1.256c-7.887,0.051 -15.51,0.24 -23.614,-3.886c-0.387,-0.199 -3.387,-1.713 -3.77,-1.921c-0.066,-0.038 -3.648,-0.461 -3.72,-0.495c1.162,1.584 4.364,6.331 5.448,7.46c1.194,1.245 2.989,3.412 4.175,5.01c1.265,1.714 13.533,10.984 18.31,14.504c9.418,6.941 22.155,12.293 34.612,15.145c6.151,1.408 18.5,-1.204 20.04,-1.577c1.911,-0.467 12.506,-5.78 12.506,-5.78s9.474,4.992 14.721,5.328c2.702,0.175 8.466,0.508 10.922,0.07c2.059,-0.375 4.004,-0.963 5.783,-1.755c4.701,-2.092 9.175,-5.776 11.869,-9.605c8.909,-12.661 8.167,-25.126 -0.211,-36.563c-1.306,-1.779 -1.751,-4.572 -2.491,-6.629c-0.914,-2.534 -1.784,-4.934 -3.478,-6.167c-2.421,-1.759 -5.088,-3.31 -7.667,-4.809l-0.822,-0.474c-1.203,-0.702 -2.4,-1.406 -3.597,-2.116c-3.634,-2.148 -7.389,-4.373 -11.198,-6.261c-0.898,-0.445 -1.911,-0.732 -2.99,-1.042c-1.114,-0.318 -2.262,-0.642 -3.404,-1.175c-0.342,-0.16 -0.682,-0.352 -1.02,-0.543c-0.38,-0.212 -1.021,-0.576 -1.214,-0.541z" class="B4" id="_x34__4_"></path>
     </g>
     <path d="m168.114,458.204c-3.051,1.596 -7.025,3.214 -10.246,3.886c-7.911,1.642 -15.202,3.009 -23.181,1.969c-7.164,-0.927 -14.397,-2.264 -21.398,-4.102c-7.282,-1.906 -14.356,-7.24 -20.702,-11.211c-6.107,-3.819 -11.368,-7.84 -13.3,-15.019c-0.647,-0.32 -1.38,-0.462 -1.888,-0.999c9.531,4.571 19.597,7.959 30.292,7.004c7.13,-0.641 14.334,-1.798 21.354,-3.193c5.017,-0.996 9.391,-2.805 14.054,-4.791c4.958,-2.111 10.343,-3.049 15.216,-5.372c4.91,-2.342 7.739,-6.016 9.48,-11.081c2.982,-8.676 5.151,-21.37 17.037,-20.013c5.797,0.662 13.403,3.96 15.785,9.613c2.1,4.994 2.79,9.153 2.235,13.825c-0.217,1.833 -2.218,6.221 -1.038,7.807c1.396,1.875 3.305,3.309 4.606,5.271c1.436,2.172 2.454,4.583 2.909,7.15c0.885,4.98 -0.173,10.429 -2.699,14.8c-4.667,8.083 -15.964,10.759 -24.673,9.178c-4.761,-0.863 -7.481,-3.741 -9.784,-7.783c-1.145,1.269 -2.535,2.261 -4.059,3.061z" class="B2" id="_x32__15_"></path>
     <g id="svg_32">
      <path d="m216.501,416.474c-1.3,5.533 -5.765,11.181 -10.211,14.961c-4.185,3.558 -12.596,3.921 -16.714,0.758c-2.737,-2.097 -4.648,-6.431 -3.536,-10.92c0.58,3.18 2.281,6.291 4.889,8.103c6.795,3.855 15.119,-0.69 18.167,-6.322c4.941,-12.065 2.734,-29.958 -9.155,-33.914c-9.91,-3.296 -23.494,0.429 -30.296,10.457c-0.501,-0.689 -0.666,-1.726 -0.384,-3.071c0.627,-3.034 3.247,-4.969 5.337,-7.052c4.473,-4.467 11.562,-5.741 17.681,-6.197c6.019,-0.445 13.526,3.62 17.601,7.462c4.044,3.808 8.948,15.83 6.621,25.735z" stroke-miterlimit="10" class="B5 B6" id="_x35__17_"></path>
      <path d="m200.92,388.461c10.218,3.601 16.179,22.38 8.635,34.766c-3.055,5.63 -11.144,11.027 -18.915,6.879c-2.609,-1.811 -5.042,-6.3 -4.752,-9.771c0.649,-2.61 2.471,-4.329 5.605,-6.641c0,0 1.979,6.081 4.936,6.733c2.495,0.548 3.948,-3.286 4.618,-5.404c1.078,-3.411 -0.75,-6.969 -2.604,-9.782c-2.687,-4.078 -5.166,-5.906 -9.65,-7.529c-5.587,-2.02 -10.399,1.287 -15.443,2.66c-1.708,0.463 -3.02,0.169 -3.704,-0.774c3.928,-12.058 21.424,-14.613 31.274,-11.137z" class="B4" id="_x34__2_"></path>
     </g>
     <path d="m167.746,376.127c5.368,4.633 8.338,11.374 8.395,19.729c0.059,8.25 -4.888,16.635 -9.802,23.218c-2.925,3.916 -6.976,7.562 -10.966,10.359c-8.673,6.076 -19.986,11.141 -30.366,14.076c-9.944,2.804 -22.071,3.643 -32.021,0.507c-2.607,-0.822 -5.233,-2.002 -7.525,-3.495c-2.599,-1.695 -5.127,-3.952 -7.073,-6.375c-2.408,-2.991 -4.574,-6.369 -6.354,-9.772c-1.422,-2.721 -2.694,-5.527 -3.829,-8.375c-1.393,-3.494 -2.281,-6.662 -2.646,-10.42c-0.173,-1.747 -0.125,-5.958 -2.429,-6.464c3.813,0.838 7.628,14.529 11.911,17.987c3.416,2.76 7.84,3.706 12.127,3.935c4.67,0.244 10.464,-0.12 14.712,-2.241c3.704,-1.85 5.908,-5.5 7.763,-9.043c2.482,-4.737 4.405,-9.741 6.237,-14.756c1.677,-4.596 3.211,-9.515 6.671,-13.125c9.298,-9.711 30.609,-18.343 45.195,-5.745z" stroke-miterlimit="10" class="B5 B6" id="_x35__18_"></path>
     <path d="m87.182,443.829c3.464,3.843 9.668,6.204 14.446,8.323c10.98,4.865 21.981,6.243 34.033,6.031c10.296,-0.175 23.06,-4.143 32.519,-8.442c4.116,-1.872 8.626,-5.192 9.734,-9.889c1.856,-7.894 -4.116,-6.293 -7.821,-4.857c-5.127,1.982 -8.436,6.163 -13.532,8.534c-5.569,2.584 -15.768,5.734 -21.865,6.476c-11.748,1.427 -23.359,0.487 -34.109,-5.045c-7.647,-3.931 -22.748,-12.868 -24.123,-13.127c-0.003,-0.002 8.361,9.383 10.718,11.996z" class="B1" id="_x31__3_"></path>
     <path d="m145.198,374.616c-8.902,1.604 -16.358,5.409 -20.139,9.2c-2.553,2.56 -7.153,8.929 -12.16,18.922c-0.957,1.904 -1.848,4.315 -2.894,6.317l-0.363,0.701c-1.866,3.571 -3.07,6.694 -7.762,9.04c-1.935,0.966 -3.013,1.358 -5.504,1.81c-3.696,0.667 -7.73,0.487 -10.349,0.348c-6.674,-0.348 -9.304,-2.833 -12.342,-5.29c-0.819,-0.66 -8.06,-14.413 -10.557,-16.547c0.14,0.699 3.834,13.787 4.387,15.045c1.073,2.462 1.695,6.301 3.069,8.927c1.893,3.624 5.106,7.678 7.08,10.134c1.876,2.334 5.765,5.975 7.796,7.301c1.966,1.279 5.251,2.782 7.527,3.494c6.428,2.028 18.18,2.282 27.04,0.69c1.708,-0.309 7.545,-2.056 9.894,-2.722c10.396,-2.938 17.243,-6.797 25.454,-12.55c4.059,-2.846 6.932,-6.664 9.384,-9.949c6.105,-8.172 7.426,-17.779 7.386,-23.599c-0.05,-7.045 -2.402,-12.62 -6.984,-16.579c-5.268,-4.554 -11.98,-6.129 -19.963,-4.693z" class="B4" id="_x34__3_"></path>
     <path d="m142.615,383.889c-6.573,1.186 -10.64,7.781 -13.558,10.826c-1.417,1.481 -5.977,15.276 -8.781,20.626c-1.773,3.385 -5.46,10.415 -13.031,14.197c-2.585,1.29 -5.719,1.663 -8.842,2.838c-3.596,1.349 -22.861,-4.971 -25.948,-6.144c0,0 3.402,5.158 5.207,6.99c7.974,11.691 26.165,15.207 35.683,13.2c1.753,-0.367 11.199,-1.928 12.899,-2.333c11.852,-2.802 22.114,-8.156 30.41,-14.125c3.276,-2.357 4.8,-9.675 6.421,-13.475c3.35,-7.866 2.666,-17.789 2.284,-20.482c-0.702,-4.954 -2.625,-8.231 -5.429,-10.647c-3.39,-2.935 -11.75,-2.473 -17.315,-1.471z" class="B2" id="_x32__14_"></path>
    </g>
    <g id="svg_33">
     <path id="svg_34" d="m113.244,409.994c-0.724,-2.87 1.247,-7.957 4.269,-8.438c7.172,-1.148 16.498,17.498 6.792,27.522c-4.177,4.317 -11.01,1.844 -12.941,5.289c-1.264,2.244 -4.097,5.084 -9.111,6.158c-11.498,2.454 -22.094,-5.787 -29.247,-14.301c-16.989,-20.224 -16.668,-53.739 -2.283,-75.187c5.191,-7.74 11.568,-13.619 18.85,-19.302c10.032,-7.825 55.451,-24.199 65.724,-24.985c12.025,-0.916 47.964,-0.984 59.805,1.083c12.413,2.167 35.688,17.619 42.374,30.119c0.575,1.078 -20.25,1.908 -27.539,1.972c-7.126,0.061 -14.23,-0.853 -21.36,-0.885c-11.83,-0.054 -23.471,2.526 -34.58,6.476c-6.242,2.217 -12.321,4.875 -18.264,7.792c-6.501,3.192 -10.459,7.682 -13.9,13.978c-1.964,3.596 -5.624,3.395 -9.201,4.966c-6.895,3.033 -13.267,7.751 -17.18,14.254c-4.419,7.336 -4.241,15.428 -2.208,23.489z" stroke-miterlimit="10" stroke="rgb(123, 90, 98)" fill="#E5DFDE"></path>
     <path id="svg_35" d="m153.445,309.024c-12.854,2.315 -53.333,17.024 -62.644,24.29c-8.504,6.634 -14.013,12.268 -18.419,18.835c-14.439,21.533 -13.474,54.184 2.154,72.789c5.055,6.019 15.252,15.808 26.722,13.741c0.19,-0.035 0.384,-0.069 0.575,-0.112c4.998,-1.07 7.109,-3.978 7.784,-5.18c1.152,-2.053 3.221,-2.765 5.123,-3.018c3.32,-0.44 6.779,-1.288 8.128,-2.684c4.942,-5.103 4.226,-13.005 1.326,-18.572c-1.836,-3.531 -4.514,-5.875 -6.367,-5.58c-0.514,0.093 -1.088,0.586 -1.583,1.36c-1,1.55 -2.355,7.991 -2.355,7.991s-2.291,-1.755 -2.768,-2.569c-5.052,-8.687 -1.527,-17.96 2.618,-24.845c4.804,-7.978 12.489,-12.59 18.086,-15.047c1.177,-0.519 2.354,-0.862 3.391,-1.165c2.475,-0.717 3.921,-1.21 4.863,-2.935c3.96,-7.243 8.38,-11.676 14.767,-14.814c6.533,-3.202 12.579,-5.781 18.484,-7.88c6.479,-2.302 12.822,-4.02 18.848,-5.107c5.598,-1.008 11.119,-1.506 16.408,-1.484c3.442,0.016 6.905,0.238 10.255,0.445c3.639,0.231 7.406,0.474 11.082,0.439c5.866,-0.05 18.825,-0.545 24.426,-1.218c-8.066,-11.513 -31.546,-25.521 -39.585,-26.9c-11.875,-2.036 -53.759,-2.142 -61.319,-0.78z" fill="#D9E0D1"></path>
     <path id="svg_36" d="m91.32,425.481c1.954,0.427 6.15,-0.472 7.876,-1.423c3.742,-2.058 3.845,-5.647 2.208,-9.188c-1.669,-3.612 -3.581,-7.05 -3.841,-11.098c-1.018,-15.803 9.22,-29.972 20.021,-40.42c3.186,-3.083 6.716,-6.159 10.466,-8.547c12.03,-7.661 23.226,-17.271 37.124,-21.427c6.225,-1.861 12.263,-4.422 18.625,-5.734c30.354,-6.26 50.506,6.41 52.92,2.216c2.086,-3.629 -1.63,-10.316 -4.495,-12.752c-1.128,-0.959 -8.306,-5.112 -18.475,-7.463c-9.292,-2.145 -21.271,-2.57 -29.535,-2.165c-2.851,0.136 -20.129,0.552 -25.863,1.065c-16.558,1.487 -32.277,9.43 -46.375,18.128c-3.997,2.469 -8.306,4.633 -11.615,7.965c-9.438,9.496 -16.341,19.579 -20.969,33.029c-1.184,3.443 -2.317,8.677 -2.526,12.31c-0.277,4.824 -0.566,11.458 0.047,16.25c0.911,7.101 3.982,13.644 6.707,20.3c0.592,1.449 1.525,2.735 2.379,3.942c0,0.002 3.384,4.591 5.321,5.012z" fill="#9CB098"></path>
     <path id="svg_37" d="m91.674,416.424c-15.735,-30.695 5.149,-59.615 32.289,-76.087c7.287,-4.426 18.983,-10.185 24.728,-13.598c7.009,-4.162 18.913,-8.53 18.5,-9.641c-0.427,-1.158 -20.319,5.068 -24.317,6.244c-7.418,2.178 -14.397,5.642 -21.103,9.764c-13.622,8.375 -26.315,17.018 -33.765,32.019c-3.972,8.001 -5.997,18.185 -6.041,26.863c-0.026,4.656 1.198,10.332 2.652,14.736c1.09,3.29 4.958,12.263 6.761,11.271c0.423,-0.228 0.296,-1.571 0.296,-1.571z" fill="#8A7C74"></path>
    </g>
    <g id="svg_38">
     <path id="svg_39" d="m161.871,306.583c-4.353,-4.406 -17.091,-7.431 -23.2,-7.509c-13.588,-0.173 -23.123,0.042 -32.859,10.325c-2.89,3.05 -8.078,12.608 -9.731,16.484c-4.02,9.431 -4.473,24.239 2.992,31.637c3.852,3.819 5.907,8.463 11.639,8.036c4.477,-0.34 10.691,-6.188 13.048,-10.107c3.197,-5.319 4.395,-10.575 3.621,-16.575c-0.625,-4.825 -1.52,-7.511 -6.825,-10.623c-2.329,-1.369 -6.166,0.907 -8.138,2.523c-1.588,1.299 -4.651,4.112 -4.989,0.697c-1.091,-10.961 11.97,-15.765 20.231,-18.634c9.135,-3.172 18.672,-6.43 28.456,-6.441c1.899,0.001 5.755,0.187 5.755,0.187z" stroke-miterlimit="10" stroke="rgb(123, 90, 98)" fill="#E5DFDE"></path>
     <path id="svg_40" d="m123.368,301.811c-6.348,1.143 -11.315,3.906 -16.101,8.96c-2.699,2.853 -7.744,12.145 -9.346,15.896c-3.876,9.094 -4.001,22.931 2.56,29.434c0.977,0.967 1.819,1.958 2.631,2.914c2.617,3.067 4.251,4.788 7.45,4.547c0.142,-0.012 0.285,-0.032 0.428,-0.055c3.535,-0.638 8.845,-5.408 11.058,-9.09c2.988,-4.975 4.054,-9.832 3.349,-15.283c-0.566,-4.399 -1.259,-6.459 -5.852,-9.157c-0.336,-0.195 -0.859,-0.157 -1.237,-0.089c-1.56,0.28 -3.466,1.488 -4.629,2.437l-0.331,0.276c-1.433,1.191 -2.731,2.193 -4.118,2.442c-1.144,0.208 -1.947,-0.175 -2.418,-0.531c-0.784,-0.592 4.69,-7.84 5.828,-8.475c9.049,-5.031 12.436,-7.175 20.415,-9.945c5.949,-2.067 8.242,-3.006 15.11,-4.245c0,0 7.238,-3.202 7.733,-3.122c2.142,0.343 -0.745,-2.207 1.707,-2.303c-2.308,-3.65 -15.035,-5.295 -18.961,-5.345c-5.919,-0.076 -10.8,-0.072 -15.276,0.734z" fill="#D9E0D1"></path>
    </g>
   </g>
   <g id="svg_41">
    <g id="B_15_">
     <path d="m349.804,189.015l-6.046,-24.336c1.593,-1.35 7.618,-3.622 9.611,-4.548c4.994,-2.311 12.45,-5.518 17.888,-4.812c8.028,1.039 21.43,7.913 25.178,12.275c5.505,6.405 7.002,13.342 7.937,21.053c0.563,4.644 -2.406,16.495 -6.898,21.694c-2.923,3.386 -7.955,8.411 -12.055,9.712c-3.573,1.13 -8.506,1.93 -12.217,1.65c-8.634,-0.633 -14.027,-8.736 -16.499,-16.136c-1.56,-4.684 -2.042,-9.744 0.472,-14.16c2.025,-3.559 5.587,-7.535 9.916,-7.513c3.65,0.016 9.436,3.904 11.318,7.055l0,0c-1.881,-3.15 -7.668,-7.039 -11.318,-7.055c-4.33,-0.022 -11.737,2.713 -13.753,6.266l-3.534,-1.145z" class="B5 B6" id="_x35__24_"></path>
     <path d="m384.814,218.147c3.321,-1.059 6.061,-2.982 11.151,-9.114c3.909,-4.719 6.934,-15.951 6.423,-20.141c-0.91,-7.496 -2.035,-14.233 -7.42,-19.944c-5.422,-5.738 -17.23,-11.088 -23.979,-11.645c-5.264,-0.442 -13.322,3.042 -16.778,4.646c-0.543,0.253 -1.385,0.607 -2.36,1.015c-1.597,0.671 -4.268,1.783 -5.808,2.622l5.435,21.874l1.859,2.699c3.457,-3.823 9.329,-6.287 13.753,-6.266c1.259,0.003 2.949,0.36 4.281,1.207c3.218,2.059 5.699,3.604 7.039,5.843l-0.626,1.917c-0.757,-1.258 -3.528,-3.706 -5.484,-4.953c-1.973,-1.26 -3.924,-2.006 -5.223,-2.016c-4.131,-0.02 -7.291,4.966 -8.162,6.501c-1.88,3.301 -1.986,7.525 -0.313,12.541c1.922,5.759 5.166,10.424 8.915,12.807c5.685,3.962 13.601,1.574 17.297,0.407z" class="B4" id="_x34__9_"></path>
    </g>
    <g id="b_1_">
     <g id="svg_42">
      <path d="m225.331,128.242c0.092,-0.033 2.982,1.537 3.392,1.608c1.187,0.213 2.405,0.238 3.605,0.367c8.376,0.869 15.648,5.126 22.531,9.649c5.258,3.454 10.062,7.281 14.294,11.946c3.803,4.192 7.255,8.748 10.662,13.26c3.394,4.487 6.39,9.205 8.703,14.151c0.884,1.894 1.984,3.376 2.188,5.529c0.234,2.483 -0.119,5.048 -0.375,7.523c-0.628,6.098 -0.201,12.728 -2.626,18.476c-0.519,1.228 -1.124,3.178 -0.405,4.445c0.837,1.47 2.522,1.162 3.98,1.36c2.262,0.319 4.344,1.367 6.618,1.628c5.676,0.65 11.404,0.751 17.107,1.028c3.396,0.161 6.793,0.363 10.196,0.182c4.634,-0.25 8.154,-5.247 12.475,-6.887c14.945,-5.686 21.797,-18.861 21.209,-34.22c-0.2,-5.236 -1.913,-10.094 -4.823,-14.557c-2.698,-4.146 -6.603,-7.427 -10.894,-9.831c-4.791,-2.69 -10.042,-5.201 -15.678,-4.918c-1.442,0.07 -2.591,-0.88 -2.591,-0.88s-4.583,-8.972 -6.634,-11.143c-5.694,-6.023 -10.543,-9.613 -18.444,-12.499c-11.666,-4.251 -23.944,-6.411 -36.498,-5.658c-5.345,0.321 -10.977,0.917 -16.198,1.926c-3.319,0.643 -7.89,2.893 -11.213,3.672c-3.892,0.917 -10.579,3.845 -10.581,3.843z" stroke-miterlimit="10" class="B5 B6" id="_x35__23_"></path>
      <path d="m290.406,214.482c0.388,0.025 0.778,0.047 1.151,0.097c1.248,0.176 2.388,0.528 3.495,0.867c1.075,0.325 2.08,0.637 3.077,0.751c4.223,0.486 8.584,0.663 12.801,0.836c1.391,0.056 2.779,0.116 4.169,0.181l0.947,0.049c2.98,0.144 6.062,0.292 9.05,0.134c2.092,-0.113 4.126,-1.653 6.273,-3.285c1.739,-1.323 3.631,-3.425 5.694,-4.208c13.251,-5.041 20.653,-15.097 20.062,-30.57c-0.179,-4.68 -1.929,-10.203 -4.737,-14.513c-1.061,-1.635 -2.374,-3.184 -3.898,-4.62c-1.822,-1.703 -6.841,-4.558 -9.204,-5.88c-4.585,-2.574 -15.251,-3.534 -15.251,-3.534s-6,-10.222 -7.35,-11.655c-1.089,-1.148 -10.032,-10.056 -15.96,-12.222c-12.005,-4.379 -25.605,-6.814 -37.283,-6.111c-5.923,0.355 -21.26,1.464 -23.253,2.213c-1.865,0.694 -4.55,1.54 -6.229,1.936c-1.522,0.356 -6.793,2.6 -8.628,3.297c0.079,0.009 3.315,1.6 3.391,1.607c0.434,0.03 3.774,0.393 4.208,0.438c9.045,0.942 15.339,5.25 21.929,9.582c4.247,2.782 7.973,5.744 11.144,8.72c1.277,1.197 2.497,2.506 3.641,3.769c3.91,4.308 6.793,8.244 10.17,12.713c3.707,4.901 6.81,10.081 9.023,14.806c0.215,0.458 0.628,1.225 0.853,1.654c0.748,1.411 0.896,2.364 1.082,4.362c0.223,2.354 -0.198,4.13 -0.44,6.377l-0.218,2.729c-0.166,1.616 -0.276,4.291 -0.37,6.019c-0.257,4.712 1.708,6.005 -0.198,10.513c-0.63,1.491 -0.642,2.428 -0.507,2.671c0.018,0.034 0.034,0.058 0.051,0.07c0.144,0.135 0.88,0.176 1.315,0.207z" class="B4" id="_x34__8_"></path>
     </g>
     <path d="m318.332,160.737c4.131,-2.139 7.979,-3.079 12.444,-1.214c8.169,3.412 16.194,11.799 15.715,21.119c-0.26,5.045 -2.334,10.193 -5.784,13.888c-1.779,1.91 -3.944,3.38 -6.33,4.418c-2.16,0.939 -4.542,1.108 -6.734,1.921c-1.852,0.689 -2.56,5.457 -3.374,7.115c-2.075,4.223 -4.917,7.338 -9.396,10.387c-5.073,3.447 -13.249,2.077 -18.474,-0.517c-10.712,-5.33 -5.629,-17.161 -3.414,-26.063c1.293,-5.197 0.918,-9.82 -1.929,-14.455c-2.826,-4.598 -6.836,-8.314 -9.848,-12.782c-2.832,-4.204 -5.52,-8.101 -9.188,-11.667c-5.132,-4.985 -10.548,-9.877 -16.183,-14.293c-8.456,-6.616 -18.745,-9.248 -29.229,-10.594c0.718,-0.174 1.41,0.103 2.127,0.188c5.525,-4.974 12.127,-5.487 19.328,-5.369c7.486,0.115 16.322,-0.513 23.47,1.849c6.875,2.264 13.673,5.076 20.188,8.194c7.261,3.468 12.637,8.578 18.382,14.26c2.337,2.315 4.793,5.835 6.485,8.834c0.846,1.5 1.473,3.089 1.744,4.781z" class="B2" id="_x32__17_"></path>
     <g id="svg_43">
      <path d="m314.949,235.287c-5.51,1.005 -14.019,0.333 -18.829,-3.311c-4.886,-3.711 -10.143,-8.635 -11.468,-14.816c-0.62,-2.889 -1.767,-5.933 -0.642,-8.824c0.493,-1.28 1.196,-2.06 1.991,-2.366c0.254,12.115 9.627,22.627 19.737,25.252c12.128,3.142 23.711,-10.672 26.127,-23.484c0.504,-6.384 -4.009,-14.723 -11.807,-15.185c-3.173,0.106 -6.293,1.79 -8.509,4.144c1.507,-4.375 5.469,-6.971 8.905,-7.24c5.177,-0.416 12.038,4.46 13.614,9.723c1.676,5.59 2.352,12.759 0.434,18.11c-3.435,9.578 -14.088,16.999 -19.553,17.997z" stroke-miterlimit="10" class="B5 B6" id="_x35__22_"></path>
      <path d="m286.003,205.972c1.088,-0.42 2.347,0.045 3.53,1.364c3.486,3.895 5.725,9.286 11.512,10.632c4.646,1.076 7.721,0.887 12.193,-1.072c3.086,-1.35 6.555,-3.343 7.505,-6.792c0.589,-2.14 1.454,-6.149 -0.937,-7.048c-2.835,-1.06 -7.803,2.965 -7.803,2.965c-1.373,-3.642 -1.967,-6.075 -1.091,-8.618c1.643,-3.074 6.126,-5.514 9.301,-5.615c8.777,0.745 12.63,9.672 12.131,16.06c-0.405,14.495 -15.621,27.015 -26.153,24.48c-10.157,-2.444 -23.449,-14.105 -20.188,-26.356z" class="B4" id="_x34__7_"></path>
     </g>
     <path d="m236.84,195.234c-0.94,-4.915 0.447,-9.874 1.54,-14.642c1.19,-5.205 2.297,-10.449 2.791,-15.774c0.371,-3.983 0.506,-8.246 -1.597,-11.81c-2.411,-4.093 -7.076,-7.549 -11.127,-9.882c-3.722,-2.14 -7.949,-3.752 -12.318,-3.294c-5.474,0.572 -16.122,9.989 -19.777,8.617c2.21,0.83 4.459,-2.729 5.554,-4.104c2.349,-2.952 4.819,-5.129 7.888,-7.306c2.502,-1.77 5.094,-3.432 7.767,-4.942c3.345,-1.887 7,-3.546 10.648,-4.746c2.949,-0.974 6.299,-1.496 9.402,-1.505c2.736,-0.006 5.581,0.43 8.216,1.16c10.054,2.782 19.775,10.081 26.595,17.838c7.114,8.111 13.853,18.515 17.827,28.329c1.828,4.515 3.243,9.781 3.568,14.657c0.543,8.197 0.135,17.921 -4.401,24.813c-4.591,6.982 -10.749,11.023 -17.774,11.99c-19.09,2.639 -32.279,-16.193 -34.802,-29.399z" stroke-miterlimit="10" class="B5 B6" id="_x35__21_"></path>
     <path d="m225.337,128.243c1.295,0.53 18.828,1.244 27.383,2.104c12.03,1.205 22.286,6.726 31.368,14.315c4.713,3.938 11.56,12.131 14.828,17.324c2.987,4.763 3.489,10.073 6.715,14.523c2.328,3.22 6.467,7.812 9.204,0.176c1.626,-4.542 -0.356,-9.783 -2.791,-13.591c-5.6,-8.751 -14.154,-19.026 -22.699,-24.77c-9.997,-6.732 -19.98,-11.558 -31.839,-13.448c-5.161,-0.82 -11.654,-2.212 -16.649,-0.871c-3.401,0.912 -15.524,4.239 -15.52,4.238z" class="B1" id="_x31__4_"></path>
     <path d="m271.204,220.561c6,-0.831 11.006,-4.23 14.878,-10.117c3.2,-4.863 7.316,-13.643 6.638,-23.821c-0.272,-4.09 -0.607,-8.853 -2.464,-13.45c-3.763,-9.293 -7.41,-16.256 -14.536,-24.376c-1.609,-1.836 -5.556,-6.476 -6.822,-7.664c-6.569,-6.156 -16.57,-12.332 -23.067,-14.126c-2.298,-0.64 -5.872,-1.166 -8.217,-1.161c-2.426,0.007 -7.669,0.945 -10.513,1.887c-2.991,0.986 -7.892,2.641 -11.452,4.653c-2.581,1.456 -5.192,4.34 -7.431,5.822c-1.146,0.755 -11.365,9.729 -11.861,10.239c3.255,-0.433 16.811,-8.037 17.856,-8.144c3.885,-0.411 7.445,-1.068 13.234,2.273c2.273,1.308 5.757,3.351 8.496,5.917c1.844,1.737 2.536,2.652 3.635,4.514c2.66,4.521 1.973,7.795 1.596,11.807l-0.076,0.787c-0.21,2.248 -0.775,4.757 -1.006,6.875c-1.234,11.11 -0.837,18.956 -0.087,22.492c1.111,5.238 5.299,12.486 11.898,18.672c5.915,5.547 12.404,7.875 19.301,6.921z" class="B4" id="_x34__6_"></path>
     <path d="m270.105,212.638c3.668,-0.503 7.063,-2.208 10.346,-5.982c1.787,-2.052 7.756,-10.008 9.223,-18.431c0.706,-4.073 3.407,-11.041 1.939,-14.8c-3.715,-9.521 -9.414,-19.595 -17.837,-28.391c-1.206,-1.266 -8.285,-7.712 -9.556,-8.974c-6.896,-6.863 -24.073,-13.806 -37.123,-8.33c-2.51,0.556 -8.17,3.034 -8.17,3.034c3.228,0.695 22.833,5.866 25.116,8.957c1.983,2.683 4.41,4.698 5.877,7.188c4.296,7.293 3.567,15.197 3.215,19.001c-0.558,6.016 -4.233,20.073 -3.85,22.086c0.794,4.141 0.62,11.885 5.491,16.458c4.125,3.866 10.889,8.801 15.329,8.184z" class="B2" id="_x32__16_"></path>
    </g>
    <g id="svg_44">
     <path id="svg_45" d="m233.401,187.487c-0.253,7.587 2.528,15.009 6.665,21.306c2.148,3.262 5.328,5.082 5.02,9.168c-0.536,7.156 0.344,13.074 4.064,19.289c3.4,5.682 7.056,11.219 11.089,16.471c7.174,9.357 15.54,17.852 25.497,24.244c6.001,3.848 12.461,6.946 18.406,10.871c6.083,4.019 23.107,16.039 22.039,16.634c-12.409,6.852 -40.345,7.16 -51.94,2.23c-11.061,-4.707 -41.183,-24.307 -50.776,-31.619c-8.195,-6.246 -37.405,-44.688 -41.568,-56.708c-3.021,-8.729 -5.174,-17.131 -5.321,-26.451c-0.407,-25.822 17.55,-54.123 42.805,-61.852c10.634,-3.255 24.008,-4.408 32.322,3.905c3.624,3.627 4.457,7.552 4.298,10.122c-0.253,3.942 6.825,5.583 7.983,11.476c2.694,13.692 -15.272,24.266 -20.666,19.403c-2.275,-2.046 -1.163,-7.389 1.007,-9.403c-6.091,5.66 -10.641,12.352 -10.924,20.914z" stroke-miterlimit="10" stroke="rgb(123, 90, 98)" fill="#E5DFDE"></path>
     <path id="svg_46" d="m275.031,305.861c7.495,3.217 34.819,4.23 47.849,-1.043c-4.334,-3.61 -14.939,-11.075 -19.835,-14.31c-3.067,-2.025 -6.36,-3.872 -9.539,-5.658c-2.924,-1.646 -5.951,-3.346 -8.848,-5.202c-4.449,-2.857 -8.813,-6.279 -12.962,-10.169c-4.464,-4.187 -8.854,-9.078 -13.039,-14.534c-3.814,-4.975 -7.485,-10.427 -11.226,-16.666c-3.654,-6.11 -4.953,-12.232 -4.336,-20.465c0.147,-1.956 -0.797,-3.156 -2.485,-5.106c-0.705,-0.816 -1.505,-1.745 -2.211,-2.821c-3.361,-5.106 -7.303,-13.155 -6.995,-22.463c0.267,-8.033 2.351,-17.73 11.315,-22.276c0.842,-0.42 3.718,-0.647 3.718,-0.647s-2.365,6.142 -2.369,7.984c-0.004,0.921 0.208,1.645 0.589,2.003c1.394,1.254 4.916,0.743 8.378,-1.219c5.46,-3.094 10.357,-9.338 8.987,-16.307c-0.374,-1.904 -2.815,-4.497 -5.361,-6.673c-1.459,-1.247 -2.808,-2.97 -2.657,-5.319c0.087,-1.375 -0.104,-4.965 -3.716,-8.58c-0.138,-0.139 -0.282,-0.274 -0.422,-0.408c-8.501,-7.971 -22.381,-5.303 -29.897,-3.003c-23.232,7.117 -41.799,33.989 -41.393,59.915c0.126,7.904 1.685,15.631 5.213,25.823c3.861,11.158 29.831,45.517 39.359,54.452c5.605,5.255 40.81,27.941 51.883,32.692z" fill="#D9E0D1"></path>
     <path id="svg_47" d="m227.159,142.962c-1.372,0.55 -2.855,1.121 -4.141,2.017c-5.905,4.101 -12.041,7.922 -16.667,13.387c-3.12,3.689 -6.485,9.412 -8.876,13.612c-1.8,3.16 -3.697,8.17 -4.576,11.704c-3.43,13.805 -3.122,26.02 -0.366,39.122c0.964,4.594 3.404,8.752 5.414,12.998c7.101,14.969 15.972,30.184 29.059,40.434c4.535,3.55 18.807,13.293 21.126,14.961c6.715,4.835 16.998,10.993 25.962,14.247c9.812,3.558 18.095,3.975 19.563,3.782c3.73,-0.488 10.486,-4.075 10.707,-8.255c0.257,-4.833 -23.546,-5.162 -45.614,-26.924c-4.625,-4.56 -8.3,-9.994 -12.512,-14.938c-9.402,-11.049 -13.571,-25.199 -19.5,-38.171c-1.848,-4.044 -3.137,-8.547 -4.135,-12.863c-3.382,-14.643 -4.269,-32.103 5.181,-44.81c2.42,-3.254 5.893,-5.1 9.26,-7.224c3.298,-2.081 5.163,-5.151 3.143,-8.91c-0.932,-1.741 -3.964,-4.776 -5.836,-5.479c-1.857,-0.7 -7.192,1.31 -7.192,1.31z" fill="#9CB098"></path>
     <path id="svg_48" d="m230.326,147.964c-0.974,-1.81 -9.098,3.616 -11.802,5.785c-3.615,2.905 -7.728,7.002 -10.239,10.924c-4.683,7.305 -8.521,16.952 -9.54,25.827c-1.907,16.641 4.043,30.798 10.92,45.234c3.386,7.103 7.359,13.809 12.4,19.67c2.715,3.162 16.022,19.204 17.01,18.464c0.952,-0.706 -6.663,-10.847 -10.281,-18.151c-2.965,-5.989 -9.649,-17.182 -13.356,-24.862c-13.816,-28.581 -15.615,-64.21 14.283,-81.408c0,0 0.837,-1.058 0.605,-1.483z" fill="#8A7C74"></path>
    </g>
    <g id="svg_49">
     <path id="svg_50" d="m223.963,276.824c-8.206,-5.33 -14.436,-13.251 -20.377,-20.878c-5.374,-6.903 -13.722,-18.036 -6.845,-26.639c2.142,-2.683 3.181,1.343 3.808,3.295c0.776,2.429 2.759,6.425 5.459,6.544c6.144,0.276 8.356,-1.495 11.504,-5.204c3.913,-4.61 5.765,-9.674 5.975,-15.876c0.154,-4.575 -1.881,-12.859 -5.453,-15.578c-4.579,-3.476 -8.829,-0.698 -14.137,0.413c-10.288,2.149 -17.961,14.824 -19.718,24.921c-0.72,4.151 -1.565,14.996 -0.797,19.124c2.577,13.924 10.462,19.291 21.959,26.538c5.169,3.254 17.504,7.645 23.553,6.312c-0.002,0 -3.339,-1.936 -4.931,-2.972z" stroke-miterlimit="10" stroke="rgb(123, 90, 98)" fill="#E5DFDE"></path>
     <path id="svg_51" d="m206.405,271.788c3.322,2.095 14.897,7.633 18.819,5.828c-2.007,-1.414 1.803,-1.983 -0.181,-2.861c-0.458,-0.202 -4.791,-6.824 -4.791,-6.824c-5.09,-4.776 -6.502,-6.811 -10.372,-11.781c-5.189,-6.663 -6.865,-10.305 -11.722,-19.448c-0.611,-1.152 -1.263,-10.21 -0.282,-10.281c0.589,-0.044 1.47,0.071 2.318,0.869c1.028,0.962 1.573,2.51 2.128,4.289l0.128,0.41c0.459,1.432 1.402,3.479 2.56,4.566c0.28,0.26 0.699,0.576 1.086,0.596c5.321,0.233 7.024,-1.119 9.891,-4.499c3.557,-4.192 5.304,-8.848 5.501,-14.648c0.144,-4.292 -1.717,-11.185 -4.337,-13.641c-0.107,-0.099 -0.216,-0.196 -0.328,-0.283c-2.553,-1.939 -4.862,-1.383 -8.725,-0.233c-1.201,0.362 -2.448,0.734 -3.793,1.016c-9.041,1.887 -16.461,13.567 -18.156,23.305c-0.695,4.018 -1.515,14.564 -0.801,18.424c1.267,6.843 3.932,11.862 8.638,16.275c3.318,3.107 7.412,5.767 12.419,8.921z" fill="#D9E0D1"></path>
    </g>
   </g>
   <g id="ring2">
    <path d="m207.432,294.866c-3.357,6.176 -18.615,9.827 -25.758,6.647c-4.772,-2.124 -15.227,-7.524 -17.056,-12.206c-2.051,-5.242 2.088,-12.817 6.809,-12.581c-1.015,-5.268 3.582,-15.932 17.525,-11.806c10.19,3.018 22.388,22.753 18.48,29.946z" stroke-miterlimit="10" class="B5 B6" id="_x35__16_"></path>
    <path id="svg_52" d="m168.737,288.499c-0.261,-0.352 -0.361,-0.569 -0.392,-0.643c-0.61,-1.571 -0.249,-4.07 1.126,-5.741c2.231,-2.712 6.847,-1.138 6.847,-1.138l-0.963,-5.004c-0.305,-1.592 0.791,-5.754 3.499,-7.779c0.788,-0.586 3.159,-2.36 8.259,0.28c1.528,0.79 9.852,5.824 14.149,11.599c5.955,7.996 3.146,11.981 2.65,12.887c-2.118,3.902 -14.799,7.49 -20.609,4.9c-5.475,-2.44 -12.365,-6.405 -14.566,-9.361z" fill="#F8ECCF"></path>
   </g>
   <g id="SIDE">
    <path id="svg_53" d="m233.678,285.61c4.568,-0.933 9.047,-1.453 12.016,-2.014c6.016,-1.139 12.073,-2.032 18.11,-3.059c9.001,-1.539 18.276,-3.374 27.419,-1.989c13.206,2.008 26.051,11.69 36.853,19.211c7.543,5.251 15.26,10.574 22.03,16.805c9.403,8.658 25.059,23.106 17.751,37.213c-3.927,7.587 -10.234,14.295 -17.805,18.273c-8.504,4.462 -18.204,2.46 -27.04,0.234c-17.873,-4.494 -36.882,-4.562 -54.906,-8.965c-11.192,-2.733 -21.667,-7.854 -29.532,-16.431c-6.735,-7.342 -10.519,-16.898 -14.385,-25.936c-2.862,-6.678 -9.429,-15.773 -7.606,-23.355c1.619,-6.741 11.368,-8.819 17.095,-9.987z" fill="rgb(206, 213, 208)"></path>
    <g id="SIDE_2_">
     <path d="m346.316,244.947c-20.917,-11.699 -46.445,-13.184 -69.03,-4.179c-7.083,2.825 -14.165,6.925 -20.293,11.45c-6.788,5.007 -13.112,10.604 -19.62,15.96c-4.401,3.619 -10.994,12.016 -17.179,6.892c-6.766,-5.607 1.309,-12.95 0.541,-19.352c-1.987,-16.593 -23.516,-19.174 -32.363,-5.632c-6.421,9.826 12.064,40.806 24.063,44.573c12.268,3.85 24.734,-0.621 36.613,-4.661c10.521,-3.578 23.531,-6.46 35.278,-3.407c19.31,5.015 27.754,7.482 42.117,23.084c9.39,10.194 27.699,25.694 38.872,33.876c6.541,4.791 14.056,8.404 19.503,-0.214c4.183,-6.61 3.479,-14.712 2.65,-22.125c-3.315,-29.694 -13.591,-60.841 -41.152,-76.265z" stroke-miterlimit="10" class="B5 B6" id="_x35__15_"></path>
     <path d="m336.543,243.976c-18.822,-10.532 -44.414,-5.203 -64.745,2.904c-6.369,2.538 -9.519,5.874 -15.035,9.949c-6.109,4.508 -12.346,9.311 -17.85,14.536c-6.085,5.776 -14.451,9.54 -20.02,4.93c-6.092,-5.049 -0.373,-14.643 -1.057,-20.405c-1.793,-14.93 -19.488,-16.685 -27.456,-4.494c-5.776,8.841 11.177,37.186 22.387,38.754c20.1,2.821 27.117,0.537 38.564,-4.344c18.294,-7.8 56.134,-1.065 77.456,20.772c4.603,4.711 9.858,9.144 14.418,13.884c8.817,9.175 18.263,17.653 30.291,21.918c2.315,0.819 6.481,2.459 8.235,-0.312c3.757,-5.946 3.377,-21.055 2.632,-27.725c-2.983,-26.723 -23.013,-56.485 -47.82,-70.367z" class="side" id="_x33__1_"></path>
    </g>
    <g id="SIDE_1_">
     <path d="m216.665,379.352c-3.504,-6.768 -6.454,-17.439 -7.764,-24.943c-1.456,-8.308 0.508,-17.588 0.548,-26.615c0.024,-5.699 1.171,-11.539 -6.837,-12.099c-8.774,-0.611 -11.176,5.961 -16.145,10.063c-12.89,10.633 -30.256,-2.351 -27.312,-18.262c1.655,-8.915 13.124,-12.598 20.622,-14.624c7.892,-2.133 19.825,-4.825 27.552,-1.02c10.147,4.993 18.809,11.87 22.399,22.475c3.826,11.311 8.639,24.227 17.618,32.004c9.002,7.79 23.159,8.259 34.738,10.269c8.558,1.489 17.249,0.684 25.874,0.416c13.66,-0.427 26.957,2.04 40.358,4.336c8.219,1.41 19.639,2.868 17.359,14.232c-1.54,7.665 -7.321,11.786 -14.196,14.683c-13.241,5.583 -22.19,11.239 -31.636,15.726c-8.014,3.806 -20.001,10.855 -28.12,13.893c-18.094,6.77 -56.123,-3.934 -75.058,-40.534z" stroke-miterlimit="10" class="B5 B6" id="_x35__14_"></path>
     <path d="m194.135,293.272c-6.715,0.349 -23.611,4.796 -28.433,8.702c-6.347,5.145 -6.39,11.094 -2.417,18.008c4.159,7.246 12.525,8.506 18.818,5.83c5.209,-2.213 12.325,-12.893 19.803,-12.052c15.649,1.763 8.32,21.227 8.221,31.882c-0.113,12.547 4.879,27.013 10.589,37.755c6.402,12.044 18.51,24.207 31.661,29.412c12.663,5.015 26.716,5.801 39.442,3.057c7.787,-1.678 14.571,-4.955 21.217,-8.945c10.084,-6.048 22.154,-8.795 32.446,-14.438c5.738,-3.153 14.421,-8.005 17.223,-14.233c1.215,-2.695 0.507,-6.814 -1.505,-9.056c-8.138,-9.058 -21.6,-8.032 -32.629,-8.728c-8.502,-0.54 -17.047,-2.068 -25.58,-1.161c-5.444,0.578 -11.113,0.384 -16.624,0.358c-9.71,-0.041 -30.162,-0.496 -47.535,-19.466c-10.703,-11.694 -6.311,-25.226 -21.82,-38.055c-8.304,-6.875 -16.352,-9.209 -22.877,-8.87z" class="side" id="_x33_"></path>
    </g>
   </g>
   <g id="svg_54">
    <g id="svg_55">
     <path id="svg_56" d="m295.434,400.2c-8.091,-5.866 -18.826,-8.023 -28.359,-9.237c-3.616,-0.457 -10.946,-0.71 -14.598,-0.35c-4.799,0.472 -18.152,0.737 -24.498,-1.087c-2.532,-0.728 -7.883,-4.154 -7.883,-4.154c0.176,6.774 8.227,17.572 9.856,19.141c2.768,2.681 10.607,8.032 16.507,10.806c11.435,5.385 32.853,7.36 42.296,5.529c5.442,-1.06 14.029,-5.649 20.954,-10.808c-3.307,-4.444 -11.401,-7.762 -14.275,-9.84z" stroke-miterlimit="10" stroke="rgb(123, 90, 98)" fill="#E9E1EE"></path>
     <path id="svg_57" d="m294.306,400.524c-7.285,-5.278 -17.953,-7.535 -26.536,-8.623c-3.255,-0.413 -10.263,-0.52 -13.548,-0.199c-4.322,0.424 -18.129,1.016 -23.788,0.986c-3.272,-0.02 -7.973,-4.038 -7.973,-4.038c3.226,6.794 8.205,12.9 9.437,14.091c2.491,2.411 11.782,8.019 17.093,10.518c10.291,4.846 30.94,7.199 39.437,5.549c4.899,-0.952 11.766,-5.539 18.513,-8.484c-2.981,-4.004 -10.054,-7.931 -12.635,-9.8z" fill="#F8ECCF"></path>
    </g>
    <g id="svg_58">
     <path id="svg_59" d="m338.243,395.847c0,0 -5.431,-5.669 -6.197,-6.354c-3.646,-3.247 -7.534,-6.543 -12.02,-8.339c-4.737,-1.903 -10.082,-4.118 -15.147,-4.721c-7.333,-0.874 -13.846,0.947 -21.042,2.156c-4.094,0.686 -16.187,2.257 -19.036,1.583c-2.257,-0.532 -12.195,-2.224 -12.195,-2.224c1.176,4.255 0.047,6.336 4.007,12.704c3.508,5.636 7.457,11.199 12.954,14.934c3.172,2.158 6.82,4.051 10.444,5.344c5.357,1.91 12.231,5.294 17.951,5.036c6.806,-0.308 13.543,-0.662 20.472,-2.073c4.383,-0.89 10.467,-4.895 15.196,-6.939c2.036,-0.881 7.566,-6.365 9.622,-7.21c2.178,-0.899 -5.009,-3.897 -5.009,-3.897z" stroke-miterlimit="10" stroke="rgb(123, 90, 98)" fill="#E9E1EE"></path>
     <path id="svg_60" d="m262.318,395.547c-1.243,-1.661 -2.512,-3.553 -4.005,-5.953c-2.507,-4.029 -2.771,-6.048 -3.073,-8.392c-0.036,-0.259 -0.069,-0.521 -0.106,-0.79c3.098,0.54 7.786,1.369 9.204,1.704c4.007,0.948 19.673,-1.529 19.83,-1.554c1.494,-0.253 2.965,-0.529 4.415,-0.801c5.421,-1.03 10.543,-1.998 16.058,-1.344c4.565,0.543 9.559,2.55 13.962,4.319l0.683,0.274c4.157,1.666 7.924,4.854 11.426,7.979c0.518,0.46 4.008,4.074 6.089,6.245l0.288,0.299l0.387,0.162c1.053,0.439 2.145,0.97 2.982,1.441c-0.92,0.678 -2.026,1.592 -3.389,2.737c-1.477,1.235 -3.495,2.929 -4.234,3.248c-1.768,0.764 -3.727,1.798 -5.622,2.793c-3.269,1.724 -6.655,3.51 -9.179,4.022c-6.562,1.339 -13.014,1.716 -20.161,2.036c-4.059,0.183 -9.063,-1.78 -13.477,-3.508c-1.289,-0.505 -2.536,-0.994 -3.715,-1.416c-3.395,-1.208 -6.848,-2.975 -9.992,-5.11c-2.902,-1.981 -5.645,-4.725 -8.371,-8.391l0,0z" fill="#F8ECCF"></path>
    </g>
    <g id="svg_61">
     <path id="svg_62" d="m304.431,275.169c0,0 6.818,-3.892 7.754,-4.332c10.625,-5.001 22.848,-6.211 34.214,-3.247c9.795,2.558 19.534,7.545 27.177,14.209c5.197,4.537 8.903,10.228 11.995,16.333c5.693,11.237 8.717,18.374 8.201,35.25c0,0 -14.704,-14.611 -23.211,-19.152c-7.735,-4.14 -23.112,-7.092 -31.504,-9.998c-6.438,-2.228 -10.708,-6.293 -14.98,-11.44c-3.29,-3.965 -6.929,-7.603 -10.879,-10.91c-1.704,-1.421 -3.467,-2.771 -5.246,-4.095c-0.448,-0.339 -3.521,-2.618 -3.521,-2.618z" stroke-miterlimit="10" stroke="rgb(123, 90, 98)" fill="#E9E1EE"></path>
     <path id="svg_63" d="m308.085,275.393c2.228,-1.261 4.514,-2.541 4.95,-2.745c10.307,-4.85 21.978,-5.96 32.862,-3.121c9.713,2.534 19.074,7.429 26.365,13.784c2.117,1.847 4.04,3.946 5.875,6.411c1.96,2.627 3.806,5.674 5.648,9.315c4.913,9.7 7.88,16.258 8.035,29.688c-4.906,-4.634 -14.092,-12.929 -20.317,-16.259c-5.143,-2.752 -13.458,-4.981 -20.797,-6.944c-4.13,-1.107 -8.033,-2.151 -10.996,-3.18c-5.955,-2.06 -9.937,-5.819 -14.095,-10.823c-3.326,-4.016 -7.072,-7.773 -11.136,-11.169c-1.847,-1.543 -3.73,-2.973 -5.328,-4.167c-0.146,-0.111 -0.563,-0.42 -1.066,-0.79z" fill="#F8ECCF"></path>
    </g>
    <g id="svg_64">
     <path id="svg_65" d="m276.481,338.147c1.757,3.797 4.551,7.337 7.565,10.183c5.43,5.146 12.018,8.975 18.053,13.369c9.886,7.199 51.773,20.086 66.679,21.378c0.492,0.047 33.699,-14.1 26.511,-9.962c-1.755,-11.158 -2.831,-21.486 -27.197,-30.453c-14.391,-5.294 -33.162,-9.351 -48.297,-10.57c-11.036,-0.89 -22.44,1.23 -33.414,-1.007c-4.279,-0.873 -8.12,-2.8 -11.435,-5.152c-0.099,1.682 0.47,9.915 1.535,12.214z" stroke-miterlimit="10" stroke="rgb(123, 90, 98)" fill="#E9E1EE"></path>
     <path id="svg_66" d="m281.261,342.216c-1.213,-1.624 -2.206,-3.28 -2.965,-4.911c-0.528,-1.141 -0.98,-4.75 -1.209,-7.643c2.902,1.637 5.883,2.769 8.895,3.382c6.717,1.37 13.584,1.161 20.219,0.964c4.441,-0.136 9.036,-0.275 13.434,0.077c15.052,1.212 33.797,5.318 47.764,10.455c10.168,3.74 16.94,8.016 20.703,13.078c3.337,4.482 4.192,9.323 4.996,14.435c2.256,-1.247 -30.672,8.468 -24.147,9.033c14.393,1.243 -56.07,-14.01 -65.672,-21c-1.893,-1.38 -3.862,-2.715 -5.763,-4.01c-4.16,-2.829 -8.462,-5.754 -12.099,-9.197c-1.546,-1.465 -2.943,-3.032 -4.156,-4.663l0,0z" fill="#F8ECCF"></path>
    </g>
    <g id="svg_67">
     <path id="svg_68" d="m283.751,350.705c18.58,0.935 33.161,1.284 52.513,8.694c5.766,2.205 32.28,14.727 40.245,22.403c-4.161,5.713 -23.565,15.152 -26.99,16.353c-16.508,5.79 -39.315,-0.513 -55.297,-7.972c-8.815,-4.116 -16.38,-11.859 -22.959,-18.958c-6.404,-6.915 -12.214,-12.958 -17.242,-20.471c2.558,-0.958 20.84,-0.496 29.73,-0.049z" stroke-miterlimit="10" stroke="rgb(123, 90, 98)" fill="#E9E1EE"></path>
     <path id="svg_69" d="m286.757,353.393c16.723,0.843 32.937,4.009 47.772,8.86c6.903,2.26 31.011,12.977 38.177,19.882c-8.767,4.971 -23.241,12.84 -30.479,14.044c-15.529,2.582 -31.662,-0.543 -46.049,-7.256c-7.932,-3.7 -14.745,-10.672 -20.661,-17.061c-5.762,-6.223 -10.992,-11.66 -15.515,-18.426c2.303,-0.861 18.753,-0.445 26.755,-0.043z" fill="#F8ECCF"></path>
    </g>
    <g id="svg_70">
     <path id="svg_71" d="m296.049,235.059c5.006,-0.216 12.72,-1.418 17.745,-1.156c8.894,0.456 17.878,2.214 25.965,6.017c14.246,6.693 39.213,24.683 52.628,54.106c2.886,6.336 4.777,13.086 5.027,20.068c0.261,7.304 -1.289,18.14 -3.927,23.404c-1.344,-0.55 -7.837,-24.435 -16.641,-36.79c-7.028,-9.861 -12.98,-15.796 -23.224,-21.24c-11.185,-5.944 -28.388,-7.681 -38.479,-15.376c-7.923,-6.04 -12.914,-14.83 -20.138,-21.396c-1.968,-1.794 -5.946,-2.711 -7.405,-4.656c0.386,-0.056 6.358,-2.888 8.449,-2.981z" stroke-miterlimit="10" stroke="rgb(123, 90, 98)" fill="#E9E1EE"></path>
     <path id="svg_72" d="m291.731,238.503c1.645,-0.669 3.621,-1.412 4.405,-1.442c1.927,-0.084 4.195,-0.308 6.593,-0.541c3.913,-0.379 7.967,-0.777 10.963,-0.619c9.544,0.492 18.029,2.451 25.215,5.831c11.157,5.241 27.589,16.905 40.253,33.916c4.525,6.073 8.363,12.537 11.407,19.21c2.994,6.571 4.621,13.064 4.85,19.306c0.182,5.169 -0.61,12.586 -2.116,18.042c-0.319,-0.853 -0.655,-1.773 -0.986,-2.683c-2.942,-8.08 -7.878,-21.602 -13.845,-29.975c-0.567,-0.797 -1.134,-1.57 -1.691,-2.323c-6.834,-9.183 -13.067,-14.657 -22.223,-19.524c-4.942,-2.625 -11.036,-4.465 -16.932,-6.24c-7.751,-2.345 -15.77,-4.764 -21.274,-8.956c-4.263,-3.25 -7.761,-7.481 -11.148,-11.57c-2.743,-3.315 -5.581,-6.741 -8.853,-9.721c-1.102,-0.997 -2.548,-1.7 -3.946,-2.38c-0.222,-0.107 -0.45,-0.218 -0.672,-0.331z" fill="#F8ECCF"></path>
    </g>
    <g id="svg_73">
     <path id="svg_74" d="m286.247,286.866c5.026,7.517 10.838,13.556 17.242,20.471c6.573,7.103 14.145,14.846 22.954,18.96c15.984,7.456 58.876,25.381 65.129,22.801c6.368,-16.382 -4.378,-36.376 -13.294,-46.832c-13.445,-15.77 -43.719,-14.514 -62.3,-15.449c-8.894,-0.444 -27.172,-0.912 -29.731,0.049z" stroke-miterlimit="10" stroke="rgb(123, 90, 98)" fill="#E9E1EE"></path>
     <path id="svg_75" d="m289.777,288.426c5.4,-0.263 16.994,-0.069 26.101,0.39c2.389,0.123 4.953,0.204 7.666,0.291c17.749,0.581 42.058,1.377 53.213,14.455c0.871,1.024 1.744,2.12 2.596,3.263c8.216,11.035 15.219,27.353 10.708,40.574c-6.866,0.524 -41.297,-12.893 -62.769,-22.916c-8.45,-3.939 -15.959,-11.623 -22.336,-18.507l-1.75,-1.883c-4.598,-4.949 -8.943,-9.629 -12.803,-14.81c0,0.001 -0.421,-0.57 -0.626,-0.857z" fill="#F8ECCF"></path>
    </g>
    <g id="svg_76">
     <path id="svg_77" d="m308.706,307.195c18.581,0.936 32.935,1.903 52.512,8.693c14.822,5.141 33.021,23.816 31.007,43.068c-15.535,-5.241 -57.069,-4.824 -73.054,-12.287c-8.812,-4.112 -15.485,-12.803 -22.956,-18.956c-4.63,-3.818 -11.396,-5.437 -22.083,-9.326c14.876,-7.646 20.584,-11.896 34.574,-11.192z" stroke-miterlimit="10" stroke="rgb(123, 90, 98)" fill="#E9E1EE"></path>
     <path id="svg_78" d="m280.568,317.282c10.958,-5.774 16.464,-8.673 28.037,-8.089c19.794,0.992 33.167,2.071 51.955,8.586c7.76,2.691 16.16,9.172 21.923,16.915c3.771,5.056 8.017,12.757 7.894,21.625c-7.221,-1.913 -17.998,-3.008 -29.331,-4.155c-15.936,-1.617 -32.413,-3.288 -41.026,-7.309c-5.582,-2.605 -10.432,-7.313 -15.124,-11.871c-2.394,-2.319 -4.863,-4.723 -7.409,-6.821c-3.803,-3.128 -8.779,-4.841 -15.67,-7.199c-0.85,-0.296 -1.749,-0.602 -2.688,-0.927c0.493,-0.257 0.971,-0.508 1.439,-0.755z" fill="#F8ECCF"></path>
    </g>
   </g>
   <g id="svg_79">
    <g id="svg_80">
     <g id="B_13_">
      <path d="m443.994,466.188c-1.303,-3.489 -22.308,-24.097 -26.072,-24.93c-18.383,-4.048 -39.744,-7.226 -56.428,1.275c-12.058,6.134 -20.811,17.027 -21.841,28.475c-0.539,6.024 0.448,14.944 4.157,20.489c6.306,9.432 15.446,16.785 28.34,19.822c11.695,2.75 28.884,0.313 38.724,-5.018c13.643,-7.396 16.215,-23.091 10.097,-33.933c-2.269,-4.014 -6.776,-9.926 -14.729,-11.603c-6.258,-1.316 -22.131,0.745 -25.465,5.047c0.141,-1.595 9.504,-7.335 11.578,-8.073c5.189,-1.844 17.579,-0.539 21.706,0.985c9.947,3.661 29.475,14.36 36.267,20.251l-6.334,-12.787z" stroke-miterlimit="10" class="B5 B6" id="_x35__13_"></path>
      <path d="m393.774,441.893c8.313,0.63 16.55,2.292 22.79,3.667c0.684,0.148 1.479,0.301 2.335,0.462c1.432,0.267 24.388,17.305 25.699,17.922l-0.044,8.559c-2.644,-0.628 -20.134,-11.971 -26.341,-14.383c-7.425,-2.883 -22.323,-4.47 -26.981,-1.882c-7.067,3.929 -12.109,9.899 -11.204,10.643c0.684,0.556 11.45,-5.527 18.385,-4.271c6.318,1.142 14.982,3.198 19.009,10.565c4.89,8.935 1.611,23.179 -9.918,29.424c-7.062,3.831 -18.746,5.987 -28.416,5.253c-1.994,-0.149 -3.84,-0.419 -5.484,-0.809c-10.275,-2.416 -18.609,-8.306 -24.755,-17.492c-2.962,-4.434 -3.997,-12.437 -3.49,-18.058c0.873,-9.753 8.478,-19.638 19.377,-25.189c7.593,-3.872 17.099,-5.314 29.038,-4.411z" class="B2" id="_x32__13_"></path>
     </g>
     <g id="B_12_">
      <path d="m352.97,536.402c-4.987,-3.364 -19.23,-22.385 -20.826,-30.764c4.891,-4.452 10.559,-11.445 13.848,-17.479c4.001,16.309 22.649,23.118 28.024,23.435c-1.124,-8.173 -0.638,-12.596 6.081,-19.181c13.325,-13.063 32.685,-2.425 34.674,12.877c3.77,29.03 -40.251,45.64 -61.801,31.112z" stroke-miterlimit="10" class="B5 B6" id="_x35__12_"></path>
      <path d="m391.913,534.294c-11.23,4.965 -24.632,9.135 -36.454,3.884c-5.036,-2.245 -21.122,-23.117 -23.312,-32.537c3.964,-3.673 11.813,-12.826 14.386,-17.881c0.862,9.485 17.334,25.662 28.17,25.344c4.294,11.142 12.298,9.715 17.89,5.729c-13.88,2.928 -21.21,-9.643 -11.652,-20.581c10.22,-11.853 22.388,-8.013 27.676,0.48c8.465,13.8 -2.762,27.919 -16.704,35.562z" class="B2" id="_x32__12_"></path>
     </g>
     <g id="svg_81">
      <path id="svg_82" d="m487.567,593.587l0.291,-1.328c6.347,-16.842 -14.893,-76.129 -25.396,-93.256c-9.331,-15.222 -27.31,-33.646 -42.753,-43.809c-24.02,-15.808 -56.145,-24.161 -69.913,-5.149c-2.873,3.968 -4.906,9.056 -6.039,15.128c-2.226,11.914 0.504,16.055 4.639,22.321c1.012,1.534 2.084,3.161 3.157,5.002c1.949,3.343 6.643,9.416 8.121,10.983l1.704,1.805l-46.839,45.043l-1.737,-1.801c-2.572,-2.666 -6.105,-6.941 -9.452,-11.438c-2.205,-2.964 -5.376,-7.425 -7.957,-11.852c-13.028,-22.343 -24.634,-66.323 -3.212,-95.903c0.628,-0.867 1.288,-1.725 1.973,-2.565c42.678,-52.448 97.953,-55.864 155.642,-9.615c3.454,2.77 7.338,5.676 11.449,8.756c15.735,11.778 35.32,26.438 47.331,46.048c8.238,13.431 19.336,39.052 26.34,56.912c17.372,44.278 13.915,65.84 13.915,65.84l-61.264,-1.122z" fill="#7B5A62"></path>
      <path id="svg_83" d="m532.583,529.781c-6.973,-17.785 -18.009,-43.254 -26.142,-56.518c-14.834,-24.211 -41.368,-40.654 -58.213,-54.157c-53.76,-43.1 -108.191,-44.762 -152.133,9.24c-23.205,28.52 -11.838,72.818 1.461,95.627c2.141,3.674 4.95,7.785 7.803,11.618c3.355,4.507 6.772,8.63 9.245,11.195l43.248,-41.589c-1.592,-1.688 -6.404,-7.911 -8.463,-11.441c-5.552,-9.523 -11.068,-13.131 -8.095,-29.046c7.519,-40.257 50.639,-30.794 79.791,-11.61c14.623,9.623 33.45,28.177 43.511,44.592c10.135,16.529 32.511,77.122 25.604,95.449l59.865,-0.825c-0.067,-4.608 -0.261,-18.643 -17.482,-62.535z" fill="#E9E1EE"></path>
      <path id="svg_84" d="m492.065,591.704l55.14,-0.764c-0.279,-6.145 -2.196,-21.379 -17.283,-59.834c-6.945,-17.707 -17.917,-43.047 -25.984,-56.201c-2.47,-4.029 -5.335,-8.237 -8.509,-12.503c-14.769,-19.846 -40.932,-34.643 -54.285,-45.352c-52.769,-42.309 -101.152,-39.87 -144.296,13.158c-22.566,27.733 -11.387,71.022 1.639,93.359c1.96,3.365 4.614,7.315 7.676,11.426c2.67,3.585 5.447,7.016 7.715,9.537l40.42,-38.859c-0.932,-1.131 -2.097,-2.618 -3.233,-4.151c-1.052,-1.408 -2.995,-4.087 -4.199,-6.161c-5.578,-9.569 -7.503,-22.457 -6.368,-30.054c1.199,-8.028 24.495,-49.371 80.891,-13.28c12.962,8.297 28.371,23.382 38.608,37.127c2.058,2.771 3.912,5.49 5.503,8.089c8.944,14.595 31.309,72.074 26.565,94.463z" fill="#D9E0D1"></path>
      <path id="svg_85" d="m537.095,581.306c-2.367,-11.284 -7.413,-26.794 -15.087,-46.346c-7.33,-18.692 -17.969,-42.833 -25.197,-54.627c-2.311,-3.772 -5.005,-7.725 -8.003,-11.758c-14.21,-19.084 -33.02,-36.904 -45.887,-47.225c-48.557,-38.926 -97.179,-33.468 -136.915,15.372c-19.226,23.626 -8.661,62.843 2.516,82.011c1.75,3.004 4.256,6.733 7.062,10.498c0.194,0.258 0.384,0.52 0.582,0.781l26.197,-25.191c-0.97,-1.388 -1.957,-2.87 -2.739,-4.215c-6.721,-11.535 -9.32,-30.081 -6.703,-39.833c7.083,-26.395 58.115,-41.401 95.358,-16.894c13.954,9.178 30.099,24.69 41.13,39.507c2.242,3.009 4.267,5.983 6.018,8.837c6.519,10.64 27.197,58.697 28.541,89.542l33.127,-0.459z" fill="#9CB098"></path>
      <path id="svg_86" d="m522.063,592.706c-0.266,-19.707 -27.888,-85.89 -39.491,-104.813c-12.128,-19.781 -33.979,-41.808 -50.263,-54.86c-41.733,-33.462 -80.256,-29.093 -114.491,12.986c-13.233,16.264 -5.479,47.723 3.931,63.857c1.61,2.764 3.819,5.969 6.029,8.938c2.695,3.618 5.392,6.882 6.997,8.552l2.877,-2.772c-2.723,-2.829 -9.078,-10.95 -12.45,-16.735c-8.845,-15.175 -16.323,-44.514 -4.287,-59.316c17.954,-22.061 37.154,-33.415 57.071,-33.747c16.375,-0.269 33.81,6.915 51.822,21.357c16.009,12.838 37.473,34.457 49.358,53.833c11.125,18.149 38.642,84.026 38.9,102.776l3.997,-0.056z" fill="#8A7C74"></path>
     </g>
     <g id="B_11_">
      <path d="m355.032,562.353c-2.236,-2.108 -4.308,-4.376 -6.214,-6.774c4.432,-3.818 7.127,-9.85 10.342,-15.223c7.004,4.348 15.271,4.983 18.072,2.108c-0.352,-7.612 0.381,-11.652 6.51,-17.33c12.154,-11.262 27.672,-0.305 28.23,13.927c1.065,27.004 -38.929,40.288 -56.94,23.292z" stroke-miterlimit="10" class="B5 B6" id="_x35__11_"></path>
      <path d="m390.636,564.464c-9.801,3.918 -21.386,6.971 -30.941,1.426c-4.078,-2.367 -7.715,-5.593 -10.884,-9.416c3.601,-3.154 6.055,-7.761 8.586,-12.273c5.974,5.245 13.801,8.581 21.659,3.627c2.551,6.302 8.284,5.758 13.283,2.417c-11.897,1.875 -17.149,-10.154 -8.312,-19.672c9.463,-10.339 19.415,-6.076 23.252,2.078c6.115,13.23 -4.351,25.588 -16.643,31.813z" class="B2" id="_x32__11_"></path>
     </g>
     <g id="B_10_">
      <path d="m378.644,569.638c-4.466,4.315 -8.882,7.87 -15.494,9.061c-4.505,0.808 -16.219,-1.723 -21.677,-5.153c-3.705,-2.315 -6.667,-8.099 -8.572,-12.066c-0.762,-1.591 -3.32,-6.058 -3.615,-7.71l15.985,-12.057l2.748,1.084c-0.545,3.229 2.627,8.691 5.301,10.878c0.232,0.189 0.504,0.356 0.797,0.517c-1.244,0.959 -2.622,1.752 -4.179,2.31c1.557,-0.557 2.933,-1.349 4.179,-2.31c2.57,1.414 7.258,1.738 9.724,0.842c-2.466,0.896 -7.154,0.572 -9.724,-0.842c5.474,-4.223 8.324,-11.786 12.335,-17.875c-4.011,6.089 -6.865,13.649 -12.335,17.875c-0.294,-0.161 -0.566,-0.328 -0.797,-0.517c-2.674,-2.187 -2.861,-6.466 -2.307,-9.7c0.676,-4.028 3.53,-6.926 6.852,-9.044c5.251,-3.348 12.65,-5.642 18.286,-1.657c2.421,1.711 5.05,4.711 6.677,7.227c1.867,2.892 2.425,8.569 2.518,12.16c0.141,5.501 -4.009,14.376 -6.702,16.977z" stroke-miterlimit="10" class="B5 B6" id="_x35__10_"></path>
      <path d="m376.445,567.321c-4.604,4.457 -8.348,7.224 -13.85,8.216c-0.431,0.078 -1.719,0.223 -4.372,-0.092c-5.419,-0.648 -11.897,-2.636 -15.067,-4.624c-3.204,-2.006 -6.242,-8.352 -7.39,-10.745c-0.212,-0.449 -0.56,-1.112 -0.963,-1.881c-0.406,-0.765 -1.14,-2.154 -1.688,-3.306l14.861,-11.714c0.617,4.303 2.545,8.212 5.345,10.5c0.224,0.183 0.491,0.356 0.783,0.528c-1.24,0.953 -2.613,1.74 -4.167,2.301c1.553,-0.56 2.925,-1.345 4.167,-2.301c1.024,0.596 2.385,1.069 3.681,1.222c3.734,0.448 6.056,-0.389 6.056,-0.389c-3.662,-0.556 -6.067,-1.73 -7.501,-2.877c4.098,-4.358 6.681,-10.635 10.116,-15.837c-3.435,5.201 -6.019,11.48 -10.116,15.837c-0.417,-0.333 -0.759,-0.67 -1.017,-0.981c-1.216,-1.506 -1.568,-4.357 -1.181,-6.668c0.442,-2.579 2.217,-4.821 5.42,-6.868c3.778,-2.407 7.751,-3.573 10.904,-3.198c1.452,0.172 2.713,0.648 3.848,1.458c1.891,1.333 4.294,3.946 5.847,6.354c1.099,1.702 1.884,5.822 2.004,10.493c0.121,4.463 -3.532,12.46 -5.72,14.572z" class="B2" id="_x32__10_"></path>
     </g>
     <g id="B_9_">
      <path d="m355.071,568.029c-4.466,4.315 -8.882,7.87 -15.494,9.061c-4.505,0.808 -16.219,-1.723 -21.677,-5.153c-3.705,-2.315 -6.667,-8.099 -8.572,-12.066c-0.762,-1.591 -3.32,-6.058 -3.615,-7.71l15.985,-12.057l2.748,1.084c-0.545,3.229 2.627,8.691 5.301,10.878c0.232,0.189 0.504,0.356 0.797,0.517c-1.244,0.959 -2.622,1.752 -4.179,2.31c1.557,-0.557 2.933,-1.349 4.179,-2.31c2.57,1.414 7.258,1.738 9.724,0.842c-2.466,0.896 -7.154,0.572 -9.724,-0.842c5.474,-4.223 8.324,-11.786 12.335,-17.875c-4.011,6.089 -6.865,13.649 -12.335,17.875c-0.294,-0.161 -0.566,-0.328 -0.797,-0.517c-2.674,-2.187 -2.861,-6.466 -2.307,-9.7c0.676,-4.028 3.53,-6.926 6.852,-9.044c5.251,-3.348 12.651,-5.643 18.287,-1.658c2.421,1.711 5.049,4.713 6.677,7.227c1.867,2.893 2.424,8.57 2.517,12.161c0.141,5.501 -4.009,14.376 -6.702,16.977z" class="B5 B6" id="_x35__9_"></path>
      <path d="m352.872,565.711c-4.605,4.457 -8.348,7.224 -13.85,8.216c-0.431,0.078 -1.719,0.223 -4.372,-0.092c-5.419,-0.648 -11.897,-2.636 -15.067,-4.624c-3.204,-2.006 -6.242,-8.353 -7.39,-10.745c-0.212,-0.449 -0.56,-1.112 -0.963,-1.881c-0.406,-0.765 -1.14,-2.154 -1.688,-3.306l14.861,-11.714c0.617,4.303 2.545,8.212 5.345,10.5c0.224,0.183 0.491,0.356 0.783,0.528c-1.24,0.953 -2.613,1.74 -4.167,2.301c1.553,-0.56 2.925,-1.345 4.167,-2.301c1.024,0.596 2.385,1.069 3.681,1.222c3.734,0.448 6.056,-0.389 6.056,-0.389c-3.662,-0.556 -6.067,-1.73 -7.501,-2.877c4.098,-4.358 6.681,-10.635 10.116,-15.837c-3.435,5.201 -6.019,11.48 -10.116,15.837c-0.418,-0.333 -0.759,-0.67 -1.017,-0.981c-1.216,-1.506 -1.568,-4.357 -1.181,-6.668c0.442,-2.579 2.217,-4.821 5.42,-6.868c3.778,-2.407 7.751,-3.573 10.904,-3.198c1.452,0.172 2.713,0.648 3.848,1.458c1.891,1.333 4.294,3.946 5.847,6.354c1.099,1.702 1.884,5.822 2.004,10.493c0.121,4.464 -3.532,12.46 -5.72,14.572z" class="B2" id="_x32__9_"></path>
     </g>
     <g id="B_8_">
      <path d="m298.224,546.973c-22.558,-19.35 -32.677,-50.199 -22.749,-76.907c3.736,3.877 18.009,11.87 18.009,11.87s-5.278,12.605 -4.136,21.233c2.674,20.318 30.248,27.262 36.347,21.575c-0.545,-8.63 0.31,-13.205 7.895,-19.55c15.038,-12.592 34.576,0.044 35.48,16.184c1.709,30.623 -48.087,45.108 -70.846,25.595z" class="B5 B6" id="_x35__8_"></path>
      <path d="m342.896,548.745c-12.203,4.299 -26.636,7.599 -38.656,1.178c-26.238,-14.009 -38.694,-53.15 -28.766,-79.857c3.736,3.877 18.007,11.872 18.007,11.872s-5.14,13.699 -4.263,22.3c-0.048,3.716 0.774,5.32 1.174,9.396c6.289,9.547 22.143,24.926 37.789,16.09c3.284,7.183 10.437,6.646 16.634,2.926c-10.682,-1.27 -21.915,-8.061 -11.003,-18.725c8.275,-8.808 22.778,-9.252 27.685,0.043c7.831,15.083 -3.331,27.894 -18.601,34.777z" class="B2" id="_x32__8_"></path>
      <path d="m288.569,515.502c-1.33,-3.935 -0.928,-8.548 0.592,-11.772c-0.019,6.769 12.435,26.001 33.973,22.38c0.979,-0.167 2.529,-1.224 3.163,-0.515c0.638,0.712 2.189,5.067 0.738,5.762c-16.779,8.016 -33.867,-2.248 -38.466,-15.855z" class="B1" id="_x31__2_"></path>
     </g>
     <g id="B_7_">
      <path d="m307.929,483.847c0.355,-0.374 0.789,-0.709 1.168,-1.066c-2.806,2.728 -4.447,6.449 -9.081,5.497c-4.46,-0.926 -7.647,-3.623 -7.054,-8.569c0.333,-2.766 1.638,-5.143 3.501,-6.965c4.215,-4.135 11.261,-5.425 16.216,-1.985c10.924,7.576 12.135,24.735 0.292,32.089c-5.204,3.225 -13.145,2.539 -18.882,1.504c-6.093,-1.103 -12.428,-3.547 -17.465,-7.125c-9.535,-6.757 -13.804,-20.699 -13.107,-32.279c1.063,-17.681 9.713,-37.002 22.896,-48.968c7.889,-7.161 18.059,-10.93 27.174,-16.239c10.855,-6.32 37.662,-14.535 55.038,-12.458c10.151,1.216 20.376,2.279 30.312,4.806c6.105,1.552 26.366,9.195 28.63,9.88c-5.55,-0.226 -43.665,-1.929 -50.934,0.076c-18.901,5.208 -40.842,18.571 -52.641,34.176c-4.12,5.448 -13.229,16.871 -13.722,33.247c0.03,0.013 0.066,0.026 0.096,0.042" stroke-miterlimit="10" class="B5 B6" id="_x35__7_"></path>
      <path d="m265.854,450.913c-2.894,24.204 3.884,37.191 13.837,44.498c6.482,4.76 12.73,6.224 18.64,6.928c5.146,0.616 10.806,-0.368 13.325,-1.928c5.49,-3.411 7.233,-8.913 7.21,-13.284c-0.044,-8.179 -2.377,-11.696 -9.491,-14.308c-4.899,-1.796 -14.982,5.258 -13.259,8.593c2.049,3.975 5.301,4.597 11.68,1.335c-0.253,2.71 -2.093,5.659 -7.781,5.532c-5.169,-0.126 -7.647,-3.623 -7.054,-8.569c0.331,-2.768 3.117,-6.685 3.117,-6.685c-8.716,-6.813 -7.982,-22.275 -4.65,-30.763c4.186,-10.651 11.557,-20.854 19.298,-29.583c4.215,-4.753 22.936,-19.854 27.15,-22.112c-13.589,3.969 -43.576,18.256 -51.463,25.414c-9.739,8.84 -17.004,21.691 -20.559,34.932" class="B2" id="_x32__7_"></path>
      <path d="m372.138,398.723c-46.636,10.927 -67.539,56.696 -66.861,67.977l-10.144,6.168c-8.764,-6.776 -7.036,-22.122 -3.705,-30.608c4.188,-10.653 11.56,-20.854 19.298,-29.583c4.215,-4.753 22.69,-20.398 27.152,-22.11c7.272,-2.794 21.653,-4.371 30.747,-3.285c10.156,1.214 20.376,2.279 30.316,4.809c2.969,0.755 15.252,5.084 15.252,5.084l0,0c-11.882,-0.873 -32.719,-0.639 -42.055,1.548z" class="B4" id="_x34_"></path>
     </g>
    </g>
    <g id="B_6_">
     <path d="m399.326,417.555c30.926,-13.423 34.334,-52.732 23.422,-72.533c-18.326,-1.832 -31.996,-2.509 -49.964,16.677c-6.485,6.912 -12.885,43.267 -5.119,60.161c10.863,3.047 25.814,-1.769 31.661,-4.305z" stroke-miterlimit="10" class="B5 B6" id="_x35__6_"></path>
     <path d="m370.629,405.098c-1.156,-17.419 4.023,-35.905 6.408,-38.714c14.506,-15.478 25.095,-16.193 41.349,-14.713c11.232,41.202 -28.84,64.11 -45.922,63.963c-0.913,-2.884 -1.564,-6.46 -1.835,-10.53c-0.001,-0.003 -0.001,-0.003 0,-0.006z" class="B2" id="_x32__6_"></path>
     <path d="m405.559,362.035c-5.106,-2.949 -13.686,4.137 -16.681,7.126c-2.108,2.097 -8.909,12.078 -3.191,18.46c8.251,9.194 18.955,-7.43 19.891,-10.407c1.539,-4.894 4.288,-12.694 -0.019,-15.179z" class="B1" id="_x31__1_"></path>
    </g>
    <g id="svg_87">
     <g id="B_5_">
      <path d="m484.328,266.86c-5.8,-1.591 -29.512,0.003 -36.906,4.251c-0.193,6.613 -1.684,17.104 -4.116,23.54c14.972,-7.597 32.176,0.471 35.92,4.342c-6.931,4.475 -9.964,7.721 -10.582,17.106c-1.225,18.621 19.461,26.378 32.357,17.912c24.476,-16.061 8.39,-60.277 -16.673,-67.151z" class="B5 B6" id="_x35__5_"></path>
      <path d="m508.104,297.771c-3.547,-11.749 -9.123,-24.641 -20.804,-30.177c-4.988,-2.362 -31.301,-0.955 -39.879,3.518c-0.199,5.4 -1.956,18.297 -4.114,23.541c7.758,-5.525 30.691,-4.554 37.514,3.872c11.252,-4.003 15.378,3.001 16.006,9.84c-6.83,-12.436 -21.136,-9.804 -23.2,4.573c-2.34,15.482 8.506,22.207 18.396,20.684c15.981,-2.579 19.372,-20.296 16.081,-35.851z" class="B2" id="_x32__5_"></path>
     </g>
     <g id="svg_88">
      <path id="svg_89" d="m554.539,533.441c-0.03,-1.36 -0.074,-2.717 -0.122,-4.068c-2.241,-61.891 -30.315,-114.957 -66.291,-163.14c-14.021,-18.778 -49.934,-49.768 -41.356,-72.759c4.975,-13.32 18.79,-19.804 33.069,-18.421c9.194,0.89 29.432,12.859 34.205,20.464l10.934,-23.114l-77.515,-62.79c0,0 -28.044,22.579 -35.753,31.389c-16.239,18.559 -33.348,46.738 -34.451,72.943c-1.161,27.407 19.855,58.456 34.966,80.953c18.068,26.909 44.753,41.91 59.793,70.182c14.462,27.185 17.53,42.489 20.504,73.252c0.686,7.101 -4.887,55.004 -4.954,55.254c12.131,0.321 54.055,1.177 62.682,0.989c1.521,-20.199 3.774,-41.766 4.289,-61.134" fill="#7B5A62"></path>
      <path id="svg_90" d="m547.747,594.537c2.609,-20.5 4.446,-43.428 4.747,-66.128c-1.907,-52.711 -22.695,-103.979 -65.413,-161.35l-0.488,-0.661c-3.158,-4.238 -7.536,-9.202 -12.169,-14.454c-5.486,-6.219 -11.701,-13.275 -16.988,-20.377c-7.813,-10.496 -17.601,-26.04 -12.453,-39.833c4.978,-13.342 19.097,-21.267 35.133,-19.716c8.436,0.819 25.397,11.15 33.081,18.521l9.388,-18.61l-75.043,-60.783c-5.525,4.485 -27.663,22.607 -34.246,30.13c-7.626,8.713 -32.602,39.632 -33.958,71.711c-1.122,26.523 19.322,56.965 34.252,79.192l0.377,0.563c1.043,1.546 2.148,3.114 3.295,4.657c7.361,9.885 15.994,18.347 24.351,26.531c8.218,8.059 16.717,16.389 23.843,25.964c3.266,4.389 6.017,8.705 8.408,13.202c15.02,28.232 17.852,44.229 20.724,73.998c0.693,7.133 -3.875,56.458 -3.893,56.542c11.353,0.179 49.175,0.81 57.052,0.901z" fill="#CED5D0"></path>
      <path id="svg_91" d="m534.485,594.352c1.631,-19.707 2.74,-41.939 1.927,-64.419c1.945,14.729 -9.15,-91.957 -59.009,-142.722c-7.837,-7.735 -23.787,-20.179 -34.396,-43.469c-6.392,-14.033 -14.986,-40.997 -1.982,-55.66c8.635,-9.739 26.053,-20.717 45.825,-14.564c6.03,1.873 17.989,9.687 26.151,12.753l4.239,-12.126l-73.608,-60.62c-9.369,7.746 -29.327,24.797 -33.677,29.769c-12.72,14.537 -31.056,40.812 -32.211,68.023c-0.908,21.52 23.521,47.401 42.774,68.024c9.104,9.746 23.572,22.035 33.433,33.555c7.729,9.034 20.481,22.158 26.162,32.511c13.412,24.431 21.405,61.573 24.345,92.025c2.81,24.551 -0.494,44.659 -1.309,57.335c8.009,0.195 26.706,-0.277 31.336,-0.415z" fill="#9FB9A8"></path>
      <path id="svg_92" d="m522.827,594.144c1.426,-26.288 -0.368,-50.1 -3.186,-74.397c-6.058,-52.25 -25.579,-93.016 -68.491,-135.199c-7.313,-7.199 -12.862,-15.783 -18.047,-24.611c-12.912,-21.944 -23.006,-48.792 -10.813,-72.697c7.167,-14.058 14.703,-20.523 29.994,-24.096c17.565,-4.106 30.04,-3.751 35.121,0.992l2.734,-2.924c-7.807,-7.284 -25.39,-5.088 -38.769,-1.96c-16.725,3.905 -26.484,11.877 -34.065,26.74c-12.316,24.154 -3.639,54.561 12.577,76.342c0.799,1.074 12.211,17.474 19.533,24.703c39.425,38.909 57.518,82.204 63.689,135.4c2.816,24.284 2.858,45.151 1.885,71.582c0.552,-0.03 7.021,0.153 7.838,0.125z" fill="#7C8168"></path>
     </g>
     <g id="B_4_">
      <path d="m517.246,248.735c-2.934,-0.886 -5.938,-1.558 -8.968,-2.019c-1.101,5.749 -4.987,11.089 -8.047,16.55c7.249,3.909 11.927,10.769 10.817,14.628c-6.768,3.482 -9.917,6.13 -11.788,14.276c-3.715,16.147 13.514,24.149 26.137,17.551c23.95,-12.523 15.561,-53.822 -8.151,-60.986z" stroke-miterlimit="10" class="B5 B6" id="_x35__4_"></path>
      <path d="m536.808,278.568c-1.483,-10.454 -4.601,-22.019 -14.169,-27.547c-4.084,-2.359 -8.693,-3.909 -13.584,-4.752c-0.941,4.694 -3.719,9.114 -6.375,13.557c7.526,2.576 14.322,7.696 13.936,16.977c6.732,-0.923 9.115,4.318 8.702,10.318c-4.287,-11.252 -17.338,-9.82 -21.199,2.586c-4.257,13.351 4.4,19.862 13.38,19.129c14.513,-1.277 20.024,-16.511 19.309,-30.268z" class="B2" id="_x32__4_"></path>
     </g>
     <g id="B_3_">
      <path d="m534.048,259.393c1.521,-6.02 2.404,-11.619 0.145,-17.948c-1.537,-4.308 -9.566,-13.203 -15.257,-16.237c-3.856,-2.056 -10.347,-1.75 -14.735,-1.424c-1.757,0.129 -6.904,0.134 -8.484,0.699l-2.496,19.869l2.308,1.846c2.528,-2.089 8.842,-2.052 12.066,-0.823c0.284,0.109 0.564,0.264 0.851,0.435c0.214,-1.554 0.216,-3.142 -0.08,-4.769c0.295,1.627 0.294,3.214 0.08,4.769c2.5,1.527 5.118,5.434 5.57,8.013c-0.451,-2.58 -3.069,-6.487 -5.57,-8.013c-0.942,6.855 -6.082,13.086 -9.364,19.594c3.282,-6.508 8.422,-12.739 9.364,-19.594c-0.287,-0.171 -0.567,-0.326 -0.851,-0.435c-3.223,-1.229 -7.031,0.743 -9.555,2.828c-3.154,2.596 -4.251,6.512 -4.434,10.451c-0.291,6.215 1.402,13.777 7.664,16.681c2.686,1.245 6.6,2.037 9.592,2.193c3.434,0.179 8.639,-2.163 11.799,-3.867c4.844,-2.621 10.473,-10.636 11.387,-14.268z" stroke-miterlimit="10" class="B5 B6" id="_x35__3_"></path>
      <path d="m530.947,258.639c1.567,-6.209 2.109,-10.836 0.227,-16.101c-0.143,-0.411 -0.659,-1.601 -2.252,-3.745c-3.261,-4.379 -8.212,-9.009 -11.513,-10.765c-3.332,-1.779 -10.353,-1.258 -12.994,-1.063c-0.498,0.038 -1.25,0.067 -2.116,0.099c-0.861,0.034 -2.433,0.086 -3.706,0.185l-2.76,18.723c4.041,-1.61 8.389,-1.885 11.766,-0.593c0.269,0.104 0.558,0.247 0.847,0.414c0.218,-1.552 0.214,-3.131 -0.078,-4.755c0.291,1.624 0.295,3.203 0.078,4.755c1.027,0.592 2.117,1.539 2.898,2.588c2.24,3.011 2.671,5.444 2.671,5.444c-2.303,-2.9 -4.519,-4.402 -6.227,-5.071c-1.737,5.718 -5.898,11.088 -8.7,16.651c2.802,-5.563 6.963,-10.933 8.7,-16.651c-0.497,-0.197 -0.957,-0.33 -1.352,-0.393c-1.913,-0.31 -4.565,0.807 -6.371,2.301c-2.015,1.657 -3.084,4.308 -3.264,8.109c-0.205,4.478 0.758,8.503 2.658,11.05c0.871,1.174 1.912,2.031 3.179,2.616c2.099,0.971 5.56,1.755 8.424,1.903c2.02,0.104 5.981,-1.261 10.095,-3.482c3.929,-2.125 9.045,-9.273 9.79,-12.219z" class="B2" id="_x32__3_"></path>
     </g>
     <g id="B_2_">
      <path d="m513.281,249.923c1.523,-6.024 2.404,-11.619 0.148,-17.952c-1.544,-4.307 -9.566,-13.203 -15.264,-16.236c-3.852,-2.053 -10.34,-1.751 -14.73,-1.427c-1.753,0.132 -6.907,0.138 -8.487,0.703l-2.496,19.869l2.31,1.848c2.532,-2.086 8.84,-2.053 12.066,-0.823c0.28,0.106 0.567,0.26 0.851,0.435c0.215,-1.56 0.214,-3.148 -0.077,-4.773c0.291,1.624 0.292,3.213 0.077,4.773c2.503,1.523 5.121,5.43 5.568,8.012c-0.446,-2.582 -3.065,-6.489 -5.568,-8.012c-0.941,6.85 -6.078,13.084 -9.364,19.594c3.286,-6.51 8.423,-12.744 9.364,-19.594c-0.284,-0.175 -0.571,-0.329 -0.851,-0.435c-3.225,-1.23 -7.028,0.739 -9.555,2.828c-3.151,2.592 -4.248,6.508 -4.435,10.444c-0.29,6.222 1.403,13.784 7.661,16.685c2.693,1.244 6.606,2.036 9.598,2.192c3.434,0.179 8.636,-2.159 11.792,-3.866c4.851,-2.623 10.478,-10.634 11.392,-14.265z" stroke-miterlimit="10" class="B5 B6" id="_x35_"></path>
      <path d="m510.18,249.168c1.57,-6.213 2.112,-10.84 0.23,-16.105c-0.146,-0.408 -0.659,-1.601 -2.255,-3.741c-3.261,-4.379 -8.214,-9.011 -11.514,-10.772c-3.335,-1.775 -10.352,-1.251 -12.993,-1.057c-0.498,0.032 -1.247,0.063 -2.118,0.097c-0.861,0.029 -2.431,0.088 -3.701,0.182l-2.762,18.722c4.039,-1.611 8.388,-1.88 11.761,-0.591c0.276,0.103 0.565,0.246 0.854,0.413c0.213,-1.549 0.21,-3.134 -0.08,-4.751c0.294,1.62 0.293,3.202 0.08,4.751c1.027,0.592 2.113,1.536 2.891,2.589c2.247,3.01 2.678,5.442 2.678,5.442c-2.303,-2.9 -4.519,-4.402 -6.231,-5.074c-1.736,5.725 -5.894,11.091 -8.701,16.656c2.807,-5.565 6.965,-10.931 8.701,-16.656c-0.496,-0.19 -0.956,-0.324 -1.355,-0.389c-1.913,-0.31 -4.558,0.806 -6.369,2.297c-2.014,1.664 -3.082,4.315 -3.26,8.112c-0.209,4.475 0.755,8.507 2.655,11.054c0.872,1.169 1.915,2.027 3.182,2.612c2.093,0.972 5.556,1.752 8.417,1.904c2.024,0.107 5.985,-1.259 10.102,-3.483c3.923,-2.12 9.043,-9.266 9.788,-12.212z" class="B2" id="_x32__2_"></path>
     </g>
     <g id="B_1_">
      <path d="m471.14,207.325c-24.61,-7.434 -53.305,-0.365 -70.521,19.431c4.609,0.916 16.801,7.607 16.801,7.607s7.887,-9.774 15.216,-12.988c17.274,-7.573 34.05,9.348 32.01,16.477c-7.095,3.65 -10.389,6.422 -12.353,14.947c-3.894,16.912 14.143,25.281 27.368,18.37c25.081,-13.116 16.303,-56.351 -8.521,-63.844z" stroke-miterlimit="10" class="B5 B6" id="_x35__2_"></path>
      <path d="m490.776,239.175c-1.551,-10.944 -4.815,-23.05 -14.828,-28.839c-21.865,-12.621 -58.108,-3.373 -75.329,16.42c4.609,0.916 16.801,7.607 16.801,7.607s8.809,-10.188 16.017,-13.586c2.942,-1.777 4.551,-1.922 7.963,-3.54c10.163,0.119 28.879,4.504 28.228,20.098c7.054,-0.967 9.543,4.519 9.115,10.799c-5.379,-7.217 -15.359,-12.252 -19.405,0.733c-3.639,10.187 1.928,21.007 11.328,20.241c15.203,-1.349 20.858,-15.53 20.11,-29.933z" class="B2" id="_x32__1_"></path>
      <path d="m442.142,215.02c-3.678,0.876 -7.183,3.326 -9.132,5.955c5.385,-3.191 25.776,-3.101 31.68,14.359c0.266,0.796 0.055,2.426 0.88,2.558c0.825,0.133 4.926,-0.781 4.886,-2.163c-0.458,-16.034 -15.605,-23.729 -28.314,-20.709z" class="B1" id="_x31_"></path>
     </g>
     <g id="B">
      <path d="m424.129,251.809c-0.143,0.494 -0.224,1.039 -0.347,1.543c0.97,-3.791 3.385,-7.067 0.245,-10.609c-3.017,-3.411 -6.943,-4.829 -10.94,-1.853c-2.229,1.665 -3.644,3.981 -4.298,6.502c-1.49,5.71 0.901,12.466 6.351,15.054c12.009,5.701 27.496,-1.789 27.974,-15.726c0.211,-6.117 -4.339,-12.661 -8.09,-17.122c-3.987,-4.736 -9.263,-9.009 -14.873,-11.604c-10.611,-4.9 -24.825,-1.665 -34.523,4.708c-14.798,9.722 -27.252,26.843 -31.069,44.233c-2.287,10.405 -0.491,21.103 -0.56,31.653c-0.08,12.559 6.143,39.902 16.593,53.932c6.111,8.2 12.126,16.536 19.264,23.898c4.384,4.522 21.089,18.292 22.813,19.915c-2.955,-4.701 -24.653,-40.158 -26.529,-47.459c-4.89,-18.985 -2.981,-41.417 4.683,-59.421c2.673,-6.285 8.044,-19.873 22.002,-28.452c0.028,0.02 0.055,0.046 0.082,0.066" stroke-miterlimit="10" class="B5 B6" id="_x35__1_"></path>
      <path d="m374.622,231.708c19.549,-14.556 34.193,-15.136 45.479,-10.146c7.358,3.251 11.731,7.946 15.29,12.722c3.092,4.154 5.059,9.552 4.955,12.515c-0.223,6.458 -4.126,10.71 -7.924,12.864c-7.126,4.032 -11.334,3.763 -17.144,-1.109c-3.993,-3.351 -2.893,-15.612 0.856,-15.778c4.471,-0.199 6.63,2.313 6.969,9.468c2.229,-1.569 3.873,-4.63 0.923,-9.502c-2.678,-4.421 -6.943,-4.829 -10.938,-1.851c-2.233,1.662 -4.249,6.031 -4.249,6.031c-10.244,-4.169 -23.287,4.167 -28.991,11.281c-7.157,8.932 -12.335,20.402 -16.053,31.462c-2.028,6.02 -5.805,29.775 -5.663,34.553c-3.324,-13.762 -5.862,-46.879 -3.575,-57.284c2.817,-12.848 10.352,-25.546 20.059,-35.222" class="B2" id="_x32_"></path>
      <path d="m382.265,349.866c-13.737,-45.878 15.552,-86.798 25.677,-91.823l0.297,-11.87c-10.242,-4.222 -22.686,4.909 -28.389,12.025c-7.16,8.936 -12.338,20.406 -16.058,31.464c-2.026,6.022 -6.397,29.83 -5.661,34.555c1.198,7.699 6.989,20.958 12.458,28.3c6.109,8.199 12.126,16.536 19.264,23.898c2.135,2.198 12,10.701 12,10.701l0.007,-0.001c-6.675,-9.871 -16.849,-28.056 -19.595,-37.249z" class="B4" id="_x34__1_"></path>
     </g>
    </g>
   </g>
  </g>
  <g style="display:none">
  
  
  <polygon id="collider" points="4.953999999999986,195.79899999999998 2.000000000000001,244.844 3.532000000000001,255.318 4.341,260.842 5.804,266.259 7.753,271.228 11.833,281.624 19.347999999999995,298 27.349999999999994,310.242 33.132999999999996,319.093 42.016999999999996,325.569 56.338,372.48500000000007 56.016999999999996,406.00000000000006 81.219,440.90600000000006 94.49499999999999,453.678 98.898,457.241 103.208,460.417 113.333,467.876 124.813,472.738 126.54900000000005,471.09699999999987 136.915,475.517 145.11499999999998,477.39 151.135,477.018 159.19,475.06 162.09199999999998,474.353 178.045,473.28900000000004 183.819,474.03700000000003 208.695,486.10600000000005 213.643,488.46900000000005 220.945,491.963 233.28,491.79400000000004 235.93,493.48400000000004 275.666,527.6229999999999 278.002,535.914 298.22399999999993,546.9730000000001 304.24,549.923 305.71299999999997,552.161 306.008,553.813 308.566,558.28 309.328,559.871 311.233,563.838 314.195,569.622 317.9,571.937 323.358,575.3670000000001 335.072,577.898 358.645,579.5070000000001 363.15,578.6990000000001 373.043,579.3489999999999 374.178,573.9530000000001 378.644,569.638 380.83500000000004,568.3820000000001 381.3369999999999,567.0369999999998 390.636,564.464 413.037,566.0649999999999 413.39400000000006,545.881 418.541,534.32 411.414,524.829 417.082,512.532 462.462,499.00300000000004 472.96500000000003,516.13 492.5220000000001,538.3320000000001 493.2080000000001,545.4330000000001 487.567,593.5870000000002 503.14899999999994,594.767 511.15799999999996,594.9620000000001 541.623,594.7630000000001 548.831,594.7090000000002 550.2500000000001,594.5750000000002 552.288,573.1470000000002 554.0240000000001,552.8090000000002 554.5390000000001,533.4410000000001 554.539,533.441 554.509,532.081 554.465,530.724 554.417,529.373 550.5869999999999,475.698 552.176,467.482 529.7989999999999,424.43 524.102,414.41600000000005 477.403,387.211 487.0809999999999,367.05899999999997 488.12600000000003,366.23300000000006 488.105,342.477 501.001,334.01099999999997 508.004,331.04299999999995 525.477,317.95 525.3969999999999,309.721 532.0120000000001,307.55899999999997 549.347,297.198 540.958,255.899 532.656,237.13699999999997 524.627,228.24199999999996 518.936,225.20799999999997 515.08,223.15199999999996 503.863,218.768 498.16499999999996,215.735 494.313,213.68200000000002 454.083,197.715 446.53,199.891 401.93999999999994,173.99899999999997 396.43499999999995,167.59399999999997 392.68699999999995,163.23199999999997 379.28499999999997,156.35799999999995 377.738,157.86 371.25699999999995,155.31899999999996 365.81899999999996,154.61299999999997 318.26500000000004,136.95799999999997 312.571,130.93499999999997 307.72200000000004,127.34499999999997 299.821,124.45899999999997 288.15500000000003,120.20799999999997 275.877,118.04799999999997 263.32300000000004,118.80099999999997 257.978,119.12199999999997 252.34600000000003,119.71799999999998 247.12500000000003,120.72699999999998 243.80600000000004,121.36999999999998 242.18200000000002,122.26300000000003 240.86200000000008,122.701 240.14700000000008,122.254 238.324,123.70600000000003 235.91200000000003,124.39899999999997 234.26000000000008,123.21399999999998 232.02000000000004,125.31599999999997 229.94499999999994,126.79100000000003 228.20899999999997,127.35099999999996 227.167,127.54800000000003 226.60800000000006,128 225.423,128.209 225.337,128.243 225.33300000000003,128.24399999999997 225.33299999999997,128.24399999999997 225.33100000000005,128.24199999999996 224.5870000000001,128.286 187.531,90.597 187.221,84.321 181.37800000000001,74.54499999999999 177.05100000000002,70.264 162.51999999999998,61.50500000000001 163.89100000000002,57.236999999999995 125.631,32.593999999999994 119.98899999999999,27.583 103.032,12.928999999999998 102.606,5.251999999999999 102.428,1.9999999999999991 83.934,9.341999999999999 66.512,43.653999999999996 52.708,55.992 48.168,60.047999999999995 41.83,69.51299999999999 41.205,75.764 40.372000000000014,84.057 43.483000000000004,94.62700000000001 13.486999999999988,137.80599999999998 8.907999999999987,168.92 4.953999999999986,195.79899999999998" fill="none" stroke="red" stroke-width="3"></polygon>

  <line stroke="#FF0000" y2="594.499211" x2="550.24927" y1="593.499212" x1="487.499353" id="direct"></line>
  <circle stroke="#000000"  r="278" cy="297.999983" cx="282.730942" fill="red" id="boundingCircle"></circle>
 </g>
</svg>