<svg  width="1248.271px" height="472.029px">
	<g><image></image></g>
<g >
	<polygon class="bounding1" stroke-linejoin="round" points="23.786,448.072    19.786,164.072 693.786,164.072 727.786,148.072 746.786,119.072 755.786,91.072 989.786,91.072 989.786,232.072 965.786,312.072    908.786,379.072 820.786,419.072 708.786,443.072  "/>
	<polygon  class="bounding2" stroke-linejoin="round" points="19.786,168.772    694.837,168.772 730.989,151.759 751.066,121.115 759.212,95.772 985.086,95.772 985.086,231.382 961.567,309.777 905.886,375.227    819.303,414.583 708.271,438.375 23.653,443.338  "/>
	<polygon class="bounding3" stroke-linejoin="round" points="19.786,174.44    695.887,173.472 734.192,155.446 755.346,123.159 762.637,100.472 980.385,100.472 980.385,230.693 957.348,307.482    902.986,371.382 817.821,410.094 707.757,433.679 23.52,439.572  "/>
	<polygon class="bounding4" stroke-linejoin="round" points="19.786,179.374    696.938,178.172 737.395,159.133 759.627,125.203 766.064,105.172 975.685,105.172 975.685,230.003 953.13,305.187    900.086,367.537 816.339,405.605 707.242,428.983 23.387,435.072  "/>
	<polygon class="bounding5" stroke-linejoin="round" points="19.786,182.872    697.989,182.872 740.598,162.82 763.907,127.247 769.491,109.872 970.985,109.872 970.985,229.313 948.911,302.892    897.186,363.693 814.856,401.116 706.727,424.286 23.255,429.136  "/>
	<polygon class="bounding6" stroke-linejoin="round" points="19.786,187.672    699.062,187.672 743.87,166.585 768.278,129.335 772.99,114.672 966.185,114.672 966.185,228.608 944.602,300.548 894.224,359.766    813.343,396.531 706.202,419.49 23.119,424.302  "/>
	<polygon class="bounding7" stroke-linejoin="round" points="19.786,192.372    700.113,192.372 747.073,170.272 772.558,131.379 776.416,119.372 961.485,119.372 961.485,227.918 940.384,298.253    891.324,355.922 811.86,392.042 705.687,414.794 22.986,419.568  "/>
	<polygon class="bounding8" stroke-linejoin="round" points="20.536,197.572    701.164,197.073 750.276,173.959 776.839,133.422 779.843,124.073 956.785,124.073 956.785,227.228 936.165,295.958    888.424,352.077 810.378,387.553 705.173,410.097 25.036,414.834  "/>
	<polygon  class="bounding9" stroke-linejoin="round" points="20.536,201.773    702.215,201.773 753.479,177.646 781.119,135.466 783.269,128.773 952.085,128.773 952.085,226.538 931.946,293.664    885.523,348.232 808.895,383.064 704.658,405.401 23.47,410.1  "/>
	<polygon id="bounding" class="bounding9" stroke-linejoin="round" points="19.205,211.473 704.384,211.473    760.09,185.256 789.952,139.683 790.342,138.473 942.385,138.473 942.385,225.115 923.24,288.927 879.538,340.298 805.837,373.799    703.597,395.708 21.866,400.334  "/>
</g>
</svg>