<?xml version="1.0" encoding="iso-8859-1"?>
<!-- Generator: Adobe Illustrator 16.0.2, SVG Export Plug-In . SVG Version: 6.00 Build 0)  -->
<!DOCTYPE svg PUBLIC "-//W3C//DTD SVG 1.1//EN" "http://www.w3.org/Graphics/SVG/1.1/DTD/svg11.dtd">
<svg version="1.1" xmlns="http://www.w3.org/2000/svg" xmlns:xlink="http://www.w3.org/1999/xlink" x="0px" y="0px"
	 width="1841.585px" height="2497.849px" viewBox="0 0 1841.585 2497.849" style="enable-background:new 0 0 1841.585 2497.849;"
	 xml:space="preserve">
<g id="&#x5716;&#x5C64;_1">
	
		<image style="overflow:visible;" width="2400" height="3330" xlink:href="background-image/GYB.jpg"  transform="matrix(0.7501 0 0 0.7501 0 0)">
	</image>
</g>
<g id="&#x5716;&#x5C64;_2">
	<g>
		<path class="bounding1 A6" style="fill:none;stroke:#231815;stroke-miterlimit:10;" d="M595.25,777.074C593.333,762.833,610.333,733.75,618,732v-23
			l36.604-4.625l26.333-11l15.667-15.333l7.333-19V619c1.333-7.667,9.229-17.833,12.563-19.5v-11.667l33.75-5.5l19.688-9.958
			l14.646-14.458l7.917-20.75L792,499c0-8.25,7.75-18.917,11.5-20.083l0.167-11.208l103.625,0.104l0.062,11.063
			c2.333,0.667,12.333,9.333,11.667,20.333v37.333l7,20.667l13.333,15l21.333,9.333l33.334,6v11.667
			c3.334,1.667,10,8.667,11.333,16.333v43.333l7.333,19l15.667,15.333l26.333,11l38,5v23c8.647,2.458,24.333,29.792,23.647,42.458
			L595.25,777.074z"/>
		
		<path class="bounding7 A6" style="fill:none;stroke:#231815;stroke-miterlimit:10;" d="M601.375,777.031c-1.284-5.015,4.125-10.906,7.846-10.818
			C606.75,754,613.125,745.25,619.5,743.5c2.544-8.032,7.711-11.937,13.375-14.25c3.068-4.525,11.543-9.249,18.481-10.993
			c0.354-0.554,0.746-1.094,1.174-1.616c4.88-5.953,13.257-8.106,18.425-8.572c3.186-2.733,7.667-5.104,12.066-6.478
			c3.395-5.317,9.523-9.343,15.555-11.31c0.631-2.738,1.799-5.408,3.487-7.895c2.379-3.502,5.597-6.362,9.168-8.306
			c0.123-1.744,0.421-3.563,0.897-5.441c0.841-3.313,2.279-6.936,4.321-10.112c-1.34-4.132-1.482-8.825-0.256-13.482
			c0.638-2.421,1.603-4.618,2.832-6.528c-0.868-2.996-1.091-6.259-0.598-9.593c0.798-5.396,3.398-10.265,7.201-13.826
			c0.306-3.665,1.634-7.339,3.942-10.709c3.506-5.121,8.651-8.712,14.08-10.001c0.249-0.302,0.511-0.598,0.785-0.886
			c4.241-4.453,10.784-6.42,15.769-7.106c3.497-4.062,8.839-6.506,13.86-7.491c2.776-5.006,7.38-9.761,13.073-12.192
			c0.928-7.601,4.929-14.048,10.221-18.136c0.585-5.124,1.902-9.294,4.216-13.281c-1.395-4.33-1.513-9.084-0.261-13.77
			c0.269-1.006,0.899-3.043,2.066-5.245c-1.926-6.67-1.916-15.345,5.729-23.475c0.289-6.089,8.588-16.8,15.391-17.223
			c5.829-3.688,15.917-2.833,15.917-2.833s10.917-4.417,14.708-2.083c4.875-2.167,14.709,1.5,14.709,1.5
			c5.667-2.917,14.75-1.583,17.917,4.417c11.167-2.333,17.125,6.417,15.375,14.792c8.5,6.375,6.875,13.375,3.625,20.25
			c5.75,2,6.25,14.5,2.423,19.493c4.952,3.007,6.242,11.883,6.827,17.007c5.293,4.088,5.998,10.985,6.927,18.587
			c5.692,2.432,12.296,9.782,15.073,14.788c7.25-2.25,16.5,4.25,18.75,9c8.75-1.25,15.751,8.698,16,9
			c8.563-3,16.875,7.875,14.25,15.688c9.167,2.813,8.334,15.896,3.667,20.479c6.583,2.25,9.75,10.583,3.733,18.02
			c5.155,2.48,7.767,11.813,4.271,18.803c3.572,1.943,6.948,6.394,9.327,9.896c1.688,2.486,3.537,3.708,4.168,6.447
			c7.666-0.833,11.771,3.85,15.166,9.167c6.334-1.333,13.834,4.167,14.834,8.833c7.5-0.333,16.666,2.667,16.539,11.423
			c8.627-3.923,19.662,3.754,16.957,12.082c7.504-2.005,16.17,3.162,15.17,12.828c9,1.5,15.334,13.5,9.969,22.447
			c5.419,1.004,9.698,6.553,9.698,9.08L601.375,777.031z"/>
		<path class="bounding8 A6" style="fill:none;stroke:#231815;stroke-miterlimit:10;" d="M606.75,777.074c0.572-3.853,3.625-7.949,6.466-8.961
			c-0.12-3.583,0.864-7.328,2.202-10.316c2.201-4.913,5.504-8.58,9.406-10.563c1.878-8.142,8.773-12.609,14.088-14.475
			c2.724-4.468,7.832-9.854,15.05-10.949c0.43-0.923,0.985-1.806,1.663-2.632c4.2-5.123,12.28-7.086,16.999-7.205
			c2.855-2.812,8.117-5.741,13.091-7.001c2.943-5.673,10.081-10.072,16.396-11.518c0.297-3.05,1.394-6.067,3.263-8.819
			c2.478-3.647,6-6.468,9.807-8.025c-0.078-2.148,0.195-4.495,0.827-6.985c0.865-3.41,2.531-7.411,4.939-10.536
			c-1.724-3.795-2.097-8.416-0.883-13.024c0.71-2.694,1.898-5.039,3.431-6.892c-1.208-2.906-1.616-6.232-1.108-9.662
			c0.746-5.045,3.376-9.531,7.183-12.53c-0.054-3.482,1.068-7.067,3.303-10.331c3.194-4.665,8.146-7.887,13.06-8.626
			c0.401-0.614,0.869-1.204,1.402-1.763c3.973-4.172,10.757-5.72,15.043-6.081c3.123-4.556,9.226-7.042,14.331-7.639
			c2.421-5.37,7.541-11.158,14.234-12.952c0.169-8.218,4.5-15.12,10.237-18.831c0.544-6.68,2.255-11.135,4.831-15.027
			c-1.726-4.028-2.042-8.633-0.829-13.173c0.503-1.885,1.356-3.97,2.551-5.793c-2.375-6.604-2.47-14.763,5.359-22.289
			c-0.713-3.102,2.912-17.373,15.412-14.977c1.875-4.75,5-6.75,12.5-5.375c9.125-5.25,22-2.75,28.125-0.75
			c4.625-0.875,9.028,1.332,14.25,5c13.625,1.125,15.375,9.875,13.599,16.101c9.651,2.899,7.151,19.524,5.359,22.29
			c6.417,5.234,3.449,14.937,1.724,18.965c2.575,3.893,4.286,8.349,4.83,15.028c5.736,3.711,10.067,10.613,10.237,18.831
			c6.692,1.793,11.812,7.582,14.232,12.952c5.104,0.597,11.208,3.083,14.33,7.639c4.287,0.361,11.071,1.909,15.044,6.081
			c0.533,0.56,1.001,1.149,1.402,1.763c4.913,0.739,9.866,3.961,13.06,8.625c2.235,3.264,3.357,6.848,3.304,10.331
			c3.806,2.999,6.436,7.484,7.182,12.53c0.508,3.43,0.101,6.756-1.108,9.662c1.533,1.854,2.722,4.198,3.431,6.893
			c1.214,4.607,0.841,9.229-0.883,13.023c2.408,3.125,4.073,7.126,4.938,10.535c0.632,2.49,0.904,4.837,0.826,6.985
			c3.807,1.557,7.331,4.378,9.808,8.025c1.869,2.752,2.967,5.769,3.263,8.819c6.314,1.445,13.452,5.844,16.396,11.518
			c4.974,1.26,10.236,4.189,13.091,7.001c4.719,0.119,12.799,2.082,16.999,7.205c0.678,0.826,1.233,1.709,1.663,2.633
			c7.219,1.096,12.327,6.481,15.051,10.949c5.314,1.865,12.209,6.333,14.087,14.475c3.901,1.984,7.205,5.651,9.406,10.564
			c1.261,2.815,2.207,6.303,2.212,9.693c2.644,0.885,5.864,5.012,6.643,7.236L606.75,777.074z"/>
		<path class="bounding9 A6" style="fill:none;stroke:#231815;stroke-miterlimit:10;" d="M614.667,777.074c-1-3.907,5.5-5.574,5.5-5.574
			c-3.133-4.855,1.667-18.5,10.167-19.833c0-11.331,12.667-13.833,12.667-13.833s5.33-12,16-10
			c-1.667-8.333,14.5-11.167,16.667-9.333c-0.5-2.667,9.169-8.167,14.667-8.167c0-5.833,12.167-13.167,18.5-11
			c-3.833-9.667,6.667-19,14-18c-4.5-5,1-19.5,6.167-21.333c-6.5-5.167-3.5-18.333,2.833-19.333
			C725.5,635.5,727.667,623.5,736.167,620c-3.167-8.167,6.833-18,14-15.833c-0.333-6.833,13.5-8.833,16.167-7.833
			c0.5-6.167,11.167-8.834,14.833-7.667c0-4,7-15.667,16.5-13.333c-3-10.833,3.5-18.667,9.333-20.833
			c0.167-9.167,2.167-13.5,6.167-18.333c-5.667-7.333-1.166-17,1.667-18.167c-5.667-10.667-0.833-16.833,4.5-21
			c-2-12.333,8.5-16,15.167-15.333c7.167-6.167,17.229-4.834,21.063-3.167c3.833-1.667,12.833-3,20,3.167
			c6.666-0.667,17.166,3,15.166,15.333c5.334,4.167,10.168,10.333,4.5,21c2.834,1.167,7.334,10.833,1.668,18.167
			c4,4.833,6,9.167,6.166,18.333c5.834,2.167,12.334,10,9.334,20.833c9.5-2.333,16.499,9.333,16.499,13.333
			c3.667-1.167,14.333,1.5,14.833,7.667c2.667-1,16.5,1,16.167,7.833c7.167-2.167,17.167,7.667,14,15.833
			c8.5,3.5,10.667,15.5,4.333,20.667c6.334,1,9.334,14.167,2.834,19.333c5.167,1.833,10.666,16.333,6.166,21.333
			c7.334-1,17.834,8.333,14,18c6.334-2.167,18.5,5.167,18.5,11c5.498,0,15.167,5.5,14.667,8.167c2.167-1.833,18.333,1,16.667,9.333
			c10.67-2,16,10,16,10s12.666,2.502,12.666,13.833c8.5,1.333,13.3,14.978,10.167,19.833c0,0,3.858-0.542,5.189,3.265
			L614.667,777.074z"/>
		<polygon style="display:none;fill:none;stroke:#231815;stroke-miterlimit:10;" points="637.333,750.333 727.333,687.667 745.333,615.667 
			804,575.667 825.244,545.541 834.577,489.541 873.333,488.333 884,549.667 924.667,589.667 970,615.667 975.334,675 1006,709.667 
			1074,749 1074,774.862 637.333,774.862"/>
	</g>
	<g>
		<path style="fill:none;stroke:#231815;stroke-miterlimit:10;" d="M1252.334,774.862c-1.917-14.24,15.083-43.324,22.75-45.074v-23
			l36.604-4.625l26.333-11l15.667-15.333l7.333-19v-40.042c1.333-7.667,9.229-17.833,12.563-19.5v-11.667l33.75-5.5l19.688-9.958
			l14.646-14.458l7.917-20.75l-0.5-38.167c0-8.25,7.75-18.917,11.5-20.083l0.167-11.208l103.625,0.104l0.062,11.063
			c2.333,0.667,12.333,9.333,11.667,20.333v37.333l7,20.667l13.333,15l21.333,9.333l33.334,6v11.667
			c3.334,1.667,10,8.667,11.333,16.333v43.333l7.333,19l15.667,15.333l26.333,11l38,5v23c8.647,2.458,24.333,29.792,23.647,42.458
			L1252.334,774.862z"/>
		<path style="fill:none;stroke:#231815;stroke-miterlimit:10;" d="M1263.834,774.862c0.571-3.853,3.625-7.949,6.466-8.961
			c-0.119-3.583,0.864-7.328,2.202-10.316c2.2-4.913,5.505-8.58,9.405-10.563c1.879-8.142,8.773-12.609,14.088-14.475
			c2.725-4.468,7.832-9.854,15.051-10.949c0.43-0.923,0.985-1.806,1.662-2.632c4.201-5.123,12.281-7.086,17-7.205
			c2.854-2.812,8.117-5.741,13.09-7.001c2.943-5.673,10.082-10.072,16.396-11.518c0.297-3.05,1.394-6.067,3.263-8.819
			c2.478-3.647,6.001-6.468,9.807-8.025c-0.077-2.148,0.194-4.495,0.827-6.985c0.865-3.41,2.53-7.411,4.938-10.536
			c-1.724-3.795-2.097-8.416-0.884-13.024c0.711-2.694,1.898-5.039,3.432-6.892c-1.209-2.906-1.616-6.232-1.109-9.662
			c0.746-5.045,3.377-9.531,7.184-12.53c-0.055-3.482,1.068-7.067,3.303-10.331c3.193-4.665,8.146-7.887,13.06-8.626
			c0.401-0.614,0.869-1.204,1.401-1.763c3.974-4.172,10.758-5.72,15.044-6.081c3.122-4.556,9.226-7.042,14.331-7.639
			c2.42-5.37,7.541-11.158,14.233-12.952c0.169-8.218,4.5-15.12,10.237-18.831c0.543-6.68,2.254-11.135,4.83-15.027
			c-1.727-4.028-2.042-8.633-0.828-13.173c0.503-1.885,1.355-3.97,2.551-5.793c-2.375-6.604-2.471-14.763,5.359-22.289
			c-0.714-3.102,2.911-17.373,15.411-14.977c1.875-4.75,5-6.75,12.5-5.375c9.125-5.25,22-2.75,28.125-0.75
			c4.625-0.875,9.028,1.332,14.25,5c13.625,1.125,15.375,9.875,13.599,16.101c9.651,2.899,7.151,19.524,5.359,22.29
			c6.417,5.234,3.449,14.937,1.724,18.965c2.575,3.893,4.286,8.349,4.83,15.028c5.736,3.711,10.067,10.613,10.237,18.831
			c6.692,1.793,11.812,7.582,14.232,12.952c5.104,0.597,11.208,3.083,14.33,7.639c4.287,0.361,11.071,1.909,15.044,6.081
			c0.533,0.56,1.001,1.149,1.402,1.763c4.913,0.739,9.866,3.961,13.06,8.625c2.235,3.264,3.357,6.848,3.304,10.331
			c3.806,2.999,6.436,7.484,7.182,12.53c0.508,3.43,0.101,6.756-1.108,9.662c1.533,1.854,2.722,4.198,3.431,6.893
			c1.214,4.607,0.841,9.229-0.883,13.023c2.408,3.125,4.073,7.126,4.938,10.535c0.632,2.49,0.904,4.837,0.826,6.985
			c3.807,1.557,7.331,4.378,9.808,8.025c1.869,2.752,2.967,5.769,3.263,8.819c6.314,1.445,13.452,5.844,16.396,11.518
			c4.974,1.26,10.236,4.189,13.091,7.001c4.719,0.119,12.799,2.082,16.999,7.205c0.678,0.826,1.233,1.709,1.663,2.633
			c7.219,1.096,12.327,6.481,15.051,10.949c5.314,1.865,12.209,6.333,14.087,14.475c3.901,1.984,7.205,5.651,9.406,10.564
			c1.261,2.815,2.207,6.303,2.212,9.693c2.644,0.885,5.864,5.012,6.643,7.236L1263.834,774.862z"/>
		<path style="fill:none;stroke:#231815;stroke-miterlimit:10;" d="M1258.459,774.819c-1.284-5.015,4.125-10.906,7.847-10.818
			c-2.472-12.212,3.903-20.962,10.278-22.712c2.544-8.032,7.711-11.937,13.375-14.25c3.067-4.525,11.543-9.249,18.481-10.993
			c0.354-0.554,0.746-1.094,1.174-1.616c4.881-5.953,13.258-8.106,18.426-8.572c3.186-2.733,7.666-5.104,12.066-6.478
			c3.395-5.317,9.522-9.343,15.555-11.31c0.631-2.738,1.799-5.408,3.486-7.895c2.379-3.502,5.598-6.362,9.168-8.306
			c0.123-1.744,0.422-3.563,0.898-5.441c0.84-3.313,2.279-6.936,4.32-10.112c-1.34-4.132-1.482-8.825-0.256-13.482
			c0.637-2.421,1.603-4.618,2.831-6.528c-0.868-2.996-1.091-6.259-0.599-9.593c0.799-5.396,3.398-10.265,7.201-13.826
			c0.306-3.665,1.635-7.339,3.941-10.709c3.507-5.121,8.652-8.712,14.08-10.001c0.25-0.302,0.512-0.598,0.785-0.886
			c4.241-4.453,10.785-6.42,15.77-7.106c3.497-4.062,8.839-6.506,13.859-7.491c2.777-5.006,7.381-9.761,13.073-12.192
			c0.929-7.601,4.929-14.048,10.222-18.136c0.584-5.124,1.902-9.294,4.216-13.281c-1.395-4.33-1.513-9.084-0.261-13.77
			c0.27-1.006,0.899-3.043,2.066-5.245c-1.926-6.67-1.916-15.345,5.729-23.475c0.289-6.089,8.589-16.8,15.392-17.223
			c5.829-3.688,15.917-2.833,15.917-2.833s10.916-4.417,14.707-2.083c4.876-2.167,14.709,1.5,14.709,1.5
			c5.667-2.917,14.75-1.583,17.917,4.417c11.167-2.333,17.125,6.417,15.375,14.792c8.5,6.375,6.875,13.375,3.625,20.25
			c5.75,2,6.25,14.5,2.423,19.493c4.952,3.007,6.242,11.883,6.827,17.007c5.293,4.088,5.998,10.985,6.927,18.587
			c5.692,2.432,12.296,9.782,15.073,14.788c7.25-2.25,16.5,4.25,18.75,9c8.75-1.25,15.751,8.698,16,9
			c8.563-3,16.875,7.875,14.25,15.688c9.167,2.813,8.334,15.896,3.667,20.479c6.583,2.25,9.75,10.583,3.733,18.02
			c5.155,2.48,7.767,11.813,4.271,18.803c3.572,1.943,6.948,6.394,9.327,9.896c1.688,2.486,3.537,3.708,4.168,6.447
			c7.666-0.833,11.771,3.85,15.166,9.167c6.334-1.333,13.834,4.167,14.834,8.833c7.5-0.333,16.666,2.667,16.539,11.423
			c8.627-3.923,19.662,3.754,16.957,12.082c7.504-2.005,16.17,3.162,15.17,12.828c9,1.5,15.334,13.5,9.969,22.447
			c5.419,1.004,9.698,6.553,9.698,9.08L1258.459,774.819z"/>
		<path style="fill:none;stroke:#231815;stroke-miterlimit:10;" d="M1271.751,774.862c-1-3.907,5.5-5.574,5.5-5.574
			c-3.133-4.855,1.666-18.5,10.166-19.833c0-11.331,12.667-13.833,12.667-13.833s5.329-12,16-10
			c-1.667-8.333,14.501-11.167,16.667-9.333c-0.5-2.667,9.169-8.167,14.666-8.167c0-5.833,12.167-13.167,18.5-11
			c-3.833-9.667,6.667-19,14-18c-4.5-5,1-19.5,6.167-21.333c-6.5-5.167-3.5-18.333,2.833-19.333
			c-6.333-5.167-4.166-17.167,4.334-20.667c-3.167-8.167,6.833-18,14-15.833c-0.334-6.833,13.5-8.833,16.166-7.833
			c0.5-6.167,11.168-8.834,14.834-7.667c0-4,7-15.667,16.5-13.333c-3-10.833,3.5-18.667,9.333-20.833
			c0.167-9.167,2.167-13.5,6.167-18.333c-5.667-7.333-1.166-17,1.666-18.167c-5.666-10.667-0.832-16.833,4.5-21
			c-2-12.333,8.5-16,15.167-15.333c7.167-6.167,17.229-4.834,21.063-3.167c3.833-1.667,12.833-3,20,3.167
			c6.666-0.667,17.166,3,15.166,15.333c5.334,4.167,10.168,10.333,4.5,21c2.834,1.167,7.334,10.833,1.668,18.167
			c4,4.833,6,9.167,6.166,18.333c5.834,2.167,12.334,10,9.334,20.833c9.5-2.333,16.499,9.333,16.499,13.333
			c3.667-1.167,14.333,1.5,14.833,7.667c2.667-1,16.5,1,16.167,7.833c7.167-2.167,17.167,7.667,14,15.833
			c8.5,3.5,10.667,15.5,4.333,20.667c6.334,1,9.334,14.167,2.834,19.333c5.167,1.833,10.666,16.333,6.166,21.333
			c7.334-1,17.834,8.333,14,18c6.334-2.167,18.5,5.167,18.5,11c5.498,0,15.167,5.5,14.667,8.167c2.167-1.833,18.333,1,16.667,9.333
			c10.67-2,16,10,16,10s12.666,2.502,12.666,13.833c8.5,1.333,13.3,14.978,10.167,19.833c0,0,3.858-0.542,5.189,3.265
			L1271.751,774.862z"/>
		<polygon style="fill:none;stroke:#231815;stroke-miterlimit:10;" points="1294.417,748.122 1384.417,685.456 1402.417,613.456 
			1461.084,573.456 1482.327,543.329 1491.661,487.329 1530.417,486.122 1541.084,547.456 1581.751,587.456 1627.084,613.456 
			1632.418,672.789 1663.084,707.456 1731.084,746.789 1731.084,772.651 1294.417,772.651 		"/>
	</g>
	<polygon style="fill:none;stroke:#231815;stroke-miterlimit:10;" points="524.109,946.605 1086.581,946.605 1095.085,774.765 
		524.109,774.862 	"/>
	<polygon style="fill:none;stroke:#231815;stroke-miterlimit:10;" points="1841.085,946.605 1278.613,946.605 1270.109,774.765 
		1841.085,774.862 	"/>
	<polygon style="fill:none;stroke:#231815;stroke-miterlimit:10;" points="1086.581,957.105 1283.071,957.105 1283.071,1753.565 
		1080.581,1753.565 	"/>
	<path style="fill:none;stroke:#231815;stroke-miterlimit:10;" d="M1126.382,1080.535c37.368-52.785,91.368-34.285,113.868-2.535
		c20.25,7.75,46.777,37.391,39.75,78c6.5,26-8.5,65.5-39.5,76c-18,42-86.5,45-113.5,0.25c-22.2-2.019-49.703-42.128-38.118-73.715
		C1082.5,1135.5,1088.081,1097.014,1126.382,1080.535z"/>
	<path style="fill:none;stroke:#231815;stroke-miterlimit:10;" d="M1126.382,1482.285c37.368-52.785,91.368-34.285,113.868-2.535
		c20.25,7.75,46.777,37.391,39.75,78c6.5,26-8.5,65.5-39.5,76c-18,42-86.5,45-113.5,0.25c-22.2-2.019-49.703-42.129-38.118-73.715
		C1082.5,1537.25,1088.081,1498.764,1126.382,1482.285z"/>
</g>
</svg>
