<?xml version="1.0" encoding="iso-8859-1"?>
<!-- Generator: Adobe Illustrator 16.0.2, SVG Export Plug-In . SVG Version: 6.00 Build 0)  -->
<!DOCTYPE svg PUBLIC "-//W3C//DTD SVG 1.1//EN" "http://www.w3.org/Graphics/SVG/1.1/DTD/svg11.dtd">
<svg version="1.1" xmlns="http://www.w3.org/2000/svg" xmlns:xlink="http://www.w3.org/1999/xlink" x="0px" y="0px" width="1224px"
	 height="767.25px" viewBox="0 0 1224 767.25" style="enable-background:new 0 0 1224 767.25;" xml:space="preserve">
<!-- <g id="image">
	
		<image style="overflow:visible;" width="1632" height="1023" xlink:href="104598059/09-1 &#x4E03;&#x92EA;&#x4F5C;&#x91CD;&#x6831;&#x51FA;&#x4E0A;&#x6602;&#x5077;&#x5FC3;&#x8DF3;&#x5167;&#x7576;&#x4E2D;&#x65BD;&#x9A0E;&#x6793;&#x6831;A.jpg"  transform="matrix(0.75 0 0 0.75 0 4.882813e-004)">
	</image>
</g> -->
<g id="dougon_x5F_body">
	<polygon fill="#cecece" points=" 724.667,758.109 724.667,742.7760000000001 734.667,732.109 743.3340000000001,718.109 743.3340000000001,696.7760000000001 760.667,696.7760000000001 785.3340000000001,688.109 800.667,672.109 808.667,654.7760000000001 808.667,625.4420000000001 809.26,616.7760000000001 814.667,610.109 814.667,606.109 814.667,596.109 834.667,593.442 854,586.775 874.667,568.775 880,555.442 880,524.109 880,512.7760000000001 890.667,503.44300000000004 890.667,474.77600000000007 879.3340000000001,474.77600000000007 881.3340000000001,468.77600000000007 884.667,461.44300000000004 890.667,458.11 887.3340000000001,447.44300000000004 906.667,444.11 914,444.11 924,444.11 924,437.44300000000004 935.333,441.44300000000004 949.333,440.77600000000007 964,430.109 970.667,408.77599999999995 977.3340000000001,412.77599999999995 985.3340000000001,408.77599999999995 985.3340000000001,404.109 985.3340000000001,398.109 996,383.625 989.333,373.441 1022.6659999999999,362.774 990.6659999999999,321.44100000000003 992.6659999999999,310.77400000000006 997.333,304.77400000000006 1001.333,300.1070000000001 1000,291.4400000000001 1080,262.1070000000001 1048.667,217.44000000000008 1050.667,208.77300000000008 1056,202.77300000000008 1060,196.77300000000008 1059.333,188.10600000000008 1092.6660000000002,188.10600000000008 1122.6660000000002,178.77300000000008 1143.333,124.10600000000008 1122,113.442 1054.667,113.442 1051.3339999999998,104.109 1060.0009999999997,94.109 1061.3339999999998,65.442 1046,68.775 1043.333,13.442000000000007 667.3330000000001,13.442000000000007 667.3330000000001,22.10900000000001 615.3330000000001,24.77600000000001 615.3330000000001,85.44300000000001 394.66600000000005,86.11000000000001 394.66600000000005,216.11 243.333,216.11 243.333,270.77700000000004 227.333,268.77700000000004 227.333,298.11 235.333,307.44300000000004 238.666,320.11 166.666,318.777 145.333,327.44399999999996 167.333,383.62799999999993 196,392.7779999999999 229.333,392.7779999999999 226,400.109 236,412.109 238.667,452.109 246,467.442 260,481.442 286,490.77500000000003 312.66700000000003,495.442 354.66700000000003,494.77500000000003 354.66700000000003,503.442 361.334,514.775 365.334,523.442 364,552.109 372,570.109 386.667,582.7760000000001 410.667,592.109 441.33399999999995,598.109 480,598.109 480,606.109 486.667,614.7760000000001 490,627.442 490,654.776 498.667,673.442 513.334,684.776 535.334,694.1089999999999 568.001,698.1089999999999 588.001,698.776 587.334,718.1089999999999 598,728.776 605.333,740.776 606.6659999999999,758.1089999999999 724.667,758.1089999999999"></polygon>
</g>
</svg>
