<svg version="1.1" xmlns="http://www.w3.org/2000/svg" xmlns:xlink="http://www.w3.org/1999/xlink" x="0px" y="0px"
	width="297.58" height="297.294" viewBox="0 0 297.58 297.294" style="enable-background:new 0 0 297.58 297.294;"
	xml:space="preserve">
	<g id="IMAGE">
		
			<!-- <image style="display:none;" width="1426" height="1044" xlink:href="../CA753F7.jpeg"  transform="matrix(0.2086 0 0 0.2084 0 17)">
		</image> -->
	</g>
	<g id="&#x6D77;&#x77F3;&#x69B4;&#x83EF;">
		<g id="invisible" style="display:none;">
			<circle class="boundingCircle" style="display:inline;fill:#6E86B1;" cx="148.932" cy="148.648" r="148.648"/>
		</g>
		<g id="&#x82B1;&#x67F1;">
			<path id="_x35__13_" style="fill:#F7F5F1;stroke:#000000;stroke-miterlimit:10;" d="M140.282,49.544c0,0-2.25-3.875-5.875-3.75
				c-7.375,0.375-8.895,8.869-8.5,13c0.25,3.125,4.4,27.145,21.375,25.875c18.375-1.375,22.086-18.25,22.086-22.875
				c0-7.875-4.228-10.402-6.263-11.305c-4.023-1.783-8.323-0.57-8.323-0.57s-3.281-5.25-7.078-5.5S140.282,49.544,140.282,49.544z"/>
			<path id="_x34__13_" style="fill:#ACBCBD;" d="M140.644,53.058c-0.024-0.926,1.438-4.175,6.964-4.175
				c3.723,0,5.299,3.817,5.299,3.817s2.281-0.621,2.799-0.642c1.092-0.044,2.002,0.15,3,0.5c1.972,0.691,3.718,1.61,4.688,3.563
				c1.416,2.851,1.566,1.822,1.182,5.625c-0.106,1.053-2.796,9.858-4.009,11.688c-1.018,1.535-5.923,6.438-9.239,7.186
				c-1.865,0.421-3.993,0.591-5.934,0.203c-1.999-0.399-7.631-3.52-10.001-5.89c-1.874-1.874-2.813-3.183-3.686-5.499
				c-0.71-1.885-2.191-5.961-2.311-8c-0.073-1.246-0.291-7.347,0.639-8.936c0.993-1.696,3.084-2.636,5.047-2.439
				C135.914,50.141,139.082,51.183,140.644,53.058z"/>
			<path id="_x32__13_" style="fill:#778581;" d="M142.828,59.182c0.761-0.559,1.617-0.978,2.41-1.183
				c1.201-0.311,3.006-0.088,4.199,0.201c1.175,0.284,2.199,0.886,3.063,1.726c1.625,1.578,2.905,3.748,3.582,5.902
				c0.755,2.401,1.473,6.21,0.273,8.572c-1.354,2.668-4.069,4.78-7.114,4.787c-2.012,0.004-4.999-0.78-6.32-2.195
				c-2.078-2.227-3.032-5.499-3.205-8.695c-0.11-2.038,0.32-4.559,0.995-6.489C141.061,60.81,141.87,59.886,142.828,59.182z"/>
		</g>
		<g id="C4">
			<g id="Down">
				<g id="R_2_">
					<g>
						<path id="_x35__12_" class="C4 C6" d="M221.654,172.538
							c-2.196-16.019-29.779-26.115-47.234-24.857c-16.941,1.22-40.407,10.212-51.691,22.688c0,0,36.295,18.041,39.787,36.298
							c1.104,5.775,4.91,10.67,7.394,15.995c0.231,0.497,8.436-0.295,13.913-4.958c9.478-8.068,18.435-13.729,25.281-19.278
							c-4.699-6.438-8.811-13.219-10.397-21.683c1.587,8.464,5.698,15.244,10.397,21.683
							C217.941,191.26,223.264,184.279,221.654,172.538z"/>
						<path id="_x34__12_" class="C3" d="M198.707,176.742c1.313,7.004,4.351,12.857,8.023,18.317
							c0.531-0.552,0.902-0.979,1.025-1.203c2.842-5.201,4.541-11.428,3.811-17.53c-1.184-9.885-13.766-18.253-25.918-19.755
							c-14.489-1.791-25.354-0.281-41.508,8.37c-4.466,2.393-8.892,4.949-11.567,8.569c6.048,1.022,8.746,0.103,13.998,2.152
							c5.761,2.249,15.423,9.826,18.469,14.256c5.999,8.72,5.031,15.079,10.299,24.259c2.268,3.955,6.509,0.704,13.958-4.505
							c6.232-4.356,14.532-11.597,17.435-14.613C203.058,189.599,200.02,183.746,198.707,176.742z"/>
						<path id="_x32__12_" class="C2" d="M198.707,176.742c0.519,2.768,1.321,5.346,2.312,7.8
							c0.938-5.484-0.055-11.05-4.244-15.939c-5.279-6.16-13.451-9.092-21.193-9.185c-7.829-0.095-15.044,1.741-22.102,4.869
							c-3.883,1.722-8.239,4.671-12.389,5.615c0,0,4.672-1.067,10.483,0.703c5.543,1.691,11.939,7.304,15.183,10.947
							c7.674,8.637,6.698,21.182,11.695,31.144c0.811,0.291,5.524-4.202,6.263-4.772c2.809-2.162,5.502-4.441,7.877-7.021
							c1.956-2.122,3.697-4.447,5.107-7.075c1.594-2.97,2.777-6.114,3.319-9.285C200.028,182.087,199.226,179.509,198.707,176.742z"
							/>
						<path id="_x31__9_" class="C1" d="M186.623,177.992c-2.021-2.779-8.667-11.5-33.414-9.5
							c14.497,3,18.934,4.229,24.497,11.5c6.573,8.589,5,21.25,1.299,30.946c4.201-4.196,8.817-17.742,8.992-20.446
							C188.02,190.148,190.418,183.207,186.623,177.992z"/>
					</g>
					<g id="A_2_">
						<path id="_x35__10_" class="A5 A6" d="M155.015,199.061c-1.346,1.696-2.699,4.09-3.082,6.282c-0.565,3.245,0.141,6.945,1.464,9.955c0.712,1.621,1.706,3.289,2.871,4.621
							c4.083,4.672,9.449,5.313,14.359,4.487c1.824-0.308,10.116-4.552,15.535-10.308c5.108-5.426,7.542-13.062,7.324-14.722
							c-0.633-4.825-10.417-11.75-21.693-9.707C167.624,190.664,157.677,195.717,155.015,199.061z"/>
						<path id="_x34__10_" class="A4" d="M162.056,195.634c-1.26,0.649-2.5,1.723-3.412,2.813
							c-3.495,4.156-5.392,11.234-2.63,16.387c1.452,2.705,4.05,4.888,6.978,5.768c2.346,0.706,5.708,0.795,7.508,0.669
							c4.935-0.348,8.816-2.25,12.339-5.181c1.966-1.633,9.561-13.445,7.263-17.456c-3.939-6.874-11.264-7.87-19.204-7.146
							C169.468,191.619,163.324,194.982,162.056,195.634z"/>
						<path id="_x32__10_" class="A2" d="M160.409,204.102c-2.748,6.689,2.47,12.956,8.816,14.438
							c4.486,1.048,9.001,0.267,12.402-2.697c3.259-2.842,5.417-12.176,2.708-17.21c-3.669-6.82-9.602-6.361-17.124-1.521
							C164.504,198.901,161.503,201.439,160.409,204.102z"/>
						<path id="_x31__7_" class="A1" d="M169.667,198.742c-5.17,2.816-4.819,7.164-4.249,10.618
							c0.255,1.542,1.335,4.229,4.203,5.547c2.904,1.336,6.224,0.905,9.134,0.721c0.589-0.037,3.467-2.613,3.925-3.939
							c1.582-4.589,0.568-8.832-1.257-10.955C179.362,198.335,174.741,195.976,169.667,198.742z"/>
						<path id="_x35__9_" class="A5 A6" d="M185.571,186.081
							c-1.641-0.136-3.254-0.523-4.871-0.87c-2.018-0.434-4.04-0.799-6.113-0.491c-2.375,0.349-5.432,2.116-7.226,3.834
							c-8.148,7.806-4.66,24.054,1.672,31.929c5.907,7.346,13.736,8.302,20.916,6.943c3.963-0.751,7.728-2.206,10.863-3.687
							c6.608-3.124,12.255-7.744,16.706-12.432c-6.748-9.785-14.535-18.669-17.858-30.689
							C195.465,183.845,190.711,186.5,185.571,186.081z"/>
						<path id="_x34__9_" class="A4" d="M185.683,186.667c-1.639-0.133-3.254-0.524-4.87-0.87
							c-0.281,0.196-2.983,0.291-5.365,2.035c-4.732,3.466-7.936,8.543-8.891,13.63c-0.551,2.938,0.897,7.838,2.528,11.855
							c1.976,4.869,8.433,11.136,14.34,13.205c5.194,1.819,14.365-0.715,17.5-2.195c6.691-3.163,12.4-7.859,16.876-12.607
							c-6.708-9.799-14.527-18.644-17.983-30.552C195.613,184.414,190.843,187.091,185.683,186.667z"/>
						<path id="_x32__9_" class="A2" d="M191.327,187.436c-4.221,1.462-6.278,1.819-9.05,3.366
							c-5.509,3.073-10.731,7.998-10.194,15.546c0.717,10.07,10.937,14.803,18.883,15.158c9.628,0.429,19.601-2.558,26.786-9.857
							c-6.543-9.545-14.135-18.189-17.697-29.659C197.266,184.269,194.533,186.328,191.327,187.436z"/>
						<path id="_x31__6_" class="A1" d="M189.292,193.299c-6.375,3.642-18.344,10.194-6.584,17.338
							c4.572,2.779,10.035,3.313,15.125,3.745c6.151,0.521,12.417-1.883,18.285-5.08c-5.53-7.792-11.489-15.18-15.006-24.269
							C197.586,187.998,193.767,190.741,189.292,193.299z"/>
						<path id="_x35__8_" class="A5 A6" d="M187.869,188.446
							c-1.823,2.155-3.654,5.2-4.171,7.99c-0.766,4.127,0.19,8.835,1.981,12.663c0.964,2.063,2.31,4.184,3.887,5.878
							c5.529,5.943,12.794,6.759,19.441,5.71c2.469-0.391,13.697-5.79,21.033-13.112c6.917-6.903,10.211-16.618,9.917-18.728
							c-0.857-6.139-14.104-14.946-29.37-12.35C204.941,177.76,191.473,184.192,187.869,188.446z"/>
						<path id="_x34__8_" class="A4" d="M197.402,184.085c-1.706,0.825-3.384,2.19-4.62,3.576
							c-4.731,5.287-7.299,14.291-3.56,20.845c1.966,3.443,5.484,6.218,9.447,7.338c3.177,0.898,7.729,1.013,10.165,0.853
							c6.683-0.443,11.936-2.864,16.706-6.591c2.662-2.079,12.945-17.104,9.833-22.206c-5.333-8.744-15.25-10.01-26-9.09
							C207.438,178.975,199.119,183.254,197.402,184.085z"/>
						<path id="_x32__8_" class="A2" d="M195.172,194.859c-3.722,8.507,3.344,16.48,11.937,18.365
							c6.073,1.332,12.187,0.34,16.791-3.433c4.413-3.614,7.333-15.487,3.667-21.892c-4.967-8.677-13-8.093-23.183-1.936
							C200.716,188.239,196.654,191.468,195.172,194.859z"/>
						<path id="_x31__5_" class="A1" d="M207.707,188.037c-7,3.583-6.524,9.115-5.751,13.509
							c0.346,1.961,1.807,5.377,5.689,7.056c3.932,1.699,8.427,1.152,12.368,0.917c0.798-0.048,4.694-3.324,5.313-5.013
							c2.141-5.836,0.77-11.234-1.702-13.936C220.833,187.521,214.577,184.52,207.707,188.037z"/>
					</g>
					<g id="B_2_">
						<path id="_x35__11_" class="B5 B6" d="M167.783,148.325
							c-0.313-0.062,12.722-0.874,14.898-1.038c13.28-0.994,21.19-1.25,34.312,1.012c10.375,1.79,19.861,8.834,23.756,18.924
							c3.482,9.024,2.907,21.367-3.129,29.717c-6.269,8.672-17.626,8.276-24.506,1.629c-2.953-2.853-5.465-6.952-4.409-11.445
							c1.155-4.909,3.409-8.091,7.383-10.618c1.208-0.767,3.22-2.041,5.592-2.29c-1.936-6.549-3.756-10.404-9.572-12.783
							C203.811,158.038,184.458,151.592,167.783,148.325z"/>
						<path id="_x34__11_" class="B4" d="M171.217,148.647c13.063-2.823,37.064-2.081,46.814,1.021
							c9.745,3.101,14.067,9.361,16.503,13.097c1.341,2.055,2.489,4.349,3.201,6.714c1.812,6.017,1.267,12.039,0.85,14.68
							c-0.561,3.554-2.377,6.955-4.494,9.602c-1.891,2.363-7.072,6.568-12.589,5.541c-3.072-0.574-7.282-2.42-9.124-4.949
							c-3.077-4.225-1.51-9.32,1.76-13.794c2.861-3.914,11.025-5.529,13.242-1.101c1.4,2.798,0.67,9.221-2.563,10.745
							c-0.984,0.465-3.112,0.45-3.99,0.288c1.127,1.695,2.13,2.192,4.08,2.206c3.549,0.026,6.362-6.481,5.964-8.958
							c-0.358-2.237-2.259-5.884-3.869-7.71c-1.333-1.513-5.323-1.814-5.323-1.814s0.202-3.915-0.875-5.313
							c-1.263-1.646-1.634-3.177-3.217-4.489c-1.822-1.509-3.213-2.378-5.34-3.462c-0.606-0.31-5.417-2-8.458-3.298
							C202.084,156.924,176.853,150.275,171.217,148.647z"/>
						<path id="_x32__11_" class="B2" d="M221.63,174.498c2.333,0.483,6.844,2.782,7.598,3.942
							c1.015,1.558,1.099,3.754,1.645,5.299c4.471-7.311-1.848-19.848-6.782-23.839c-2.895-2.34-7.852-5.409-11.544-6.095
							c-4.064-0.754-38.306-6.658-39.724-4.705c2.918,0.921,16.514,4.107,21.175,5.363c4.395,1.184,8.69,3.029,12.522,4.289
							C221.94,163.825,221.039,171.432,221.63,174.498z"/>
						<path id="_x31__8_" class="B1" d="M193.998,154.463c2.277,0.55,11.731,3.173,15.561,4.43
							c6.521,2.14,11.163,7.821,11.872,12.821l1.042,2.833c2.167,0.483,4.619,1.828,7,4.833c0.453-0.47,0.618-2.557,0.48-3.179
							c-0.701-3.193-1.046-5.549-2.979-8.59c-0.681-1.072-1.668-1.89-2.602-2.738c-2.44-2.217-4.908-4.1-8.103-6.021
							c-1.08-0.649-3.289-1.594-4.445-2.096c-0.846-0.37-26.632-8.162-38.018-7.238C179.063,150.513,191.441,153.847,193.998,154.463
							z"/>
					</g>
				</g>
				<g id="L_1_">
					<g>
						<path id="_x35__35_" class="C5 C6" d="M75.36,172.538
							c2.196-16.019,29.779-26.115,47.234-24.857c16.941,1.22,40.407,10.212,51.691,22.688c0,0-36.295,18.041-39.787,36.298
							c-1.104,5.775-4.91,10.67-7.394,15.995c-0.231,0.497-8.436-0.295-13.913-4.958c-9.478-8.068-18.435-13.729-25.281-19.278
							c4.699-6.438,8.811-13.219,10.397-21.683c-1.587,8.464-5.698,15.244-10.397,21.683C79.073,191.26,73.75,184.279,75.36,172.538z
							"/>
						<path id="_x34__35_" class="C4" d="M98.308,176.742c-1.313,7.004-4.351,12.857-8.023,18.317
							c-0.531-0.552-0.902-0.979-1.025-1.203c-2.842-5.201-4.541-11.428-3.811-17.53c1.184-9.885,13.766-18.253,25.918-19.755
							c14.489-1.791,25.354-0.281,41.508,8.37c4.466,2.393,8.892,4.949,11.567,8.569c-6.048,1.022-8.746,0.103-13.998,2.152
							c-5.762,2.249-15.423,9.826-18.469,14.256c-5.999,8.72-5.031,15.079-10.299,24.259c-2.268,3.955-6.509,0.704-13.958-4.505
							c-6.232-4.356-14.532-11.597-17.435-14.613C93.957,189.599,96.994,183.746,98.308,176.742z"/>
						<path id="_x32__35_" class="C2" d="M98.308,176.742c-0.519,2.768-1.321,5.346-2.312,7.8
							c-0.938-5.484,0.055-11.05,4.244-15.939c5.279-6.16,13.451-9.092,21.193-9.185c7.829-0.095,15.044,1.741,22.102,4.869
							c3.883,1.722,8.239,4.671,12.389,5.615c0,0-4.673-1.067-10.483,0.703c-5.542,1.691-11.938,7.304-15.182,10.947
							c-7.674,8.637-6.698,21.182-11.695,31.144c-0.811,0.291-5.524-4.202-6.263-4.772c-2.809-2.162-5.502-4.441-7.877-7.021
							c-1.956-2.122-3.697-4.447-5.107-7.075c-1.594-2.97-2.777-6.114-3.319-9.285C96.986,182.087,97.789,179.509,98.308,176.742z"/>
						<path id="_x31__27_" class="C1" d="M110.391,177.992c2.021-2.779,8.667-11.5,33.414-9.5
							c-14.497,3-18.934,4.229-24.497,11.5c-6.573,8.589-5,21.25-1.299,30.946c-4.201-4.196-8.817-17.742-8.992-20.446
							C108.994,190.148,106.596,183.207,110.391,177.992z"/>
					</g>
					<g id="A_7_">
						<path id="_x35__34_" class="A5 A6" d="M142,199.061
							c1.346,1.696,2.699,4.09,3.082,6.282c0.564,3.245-0.141,6.945-1.464,9.955c-0.712,1.621-1.706,3.289-2.871,4.621
							c-4.083,4.672-9.449,5.313-14.359,4.487c-1.824-0.308-10.116-4.552-15.535-10.308c-5.108-5.426-7.542-13.062-7.324-14.722
							c0.633-4.825,10.417-11.75,21.693-9.707C129.39,190.664,139.337,195.717,142,199.061z"/>
						<path id="_x34__34_" class="A4" d="M134.958,195.634c1.26,0.649,2.5,1.723,3.412,2.813
							c3.495,4.156,5.392,11.234,2.63,16.387c-1.452,2.705-4.05,4.888-6.978,5.768c-2.346,0.706-5.708,0.795-7.508,0.669
							c-4.935-0.348-8.816-2.25-12.339-5.181c-1.966-1.633-9.561-13.445-7.263-17.456c3.939-6.874,11.264-7.87,19.204-7.146
							C127.546,191.619,133.69,194.982,134.958,195.634z"/>
						<path id="_x32__34_" class="A2" d="M136.605,204.102c2.748,6.689-2.47,12.956-8.816,14.438
							c-4.486,1.048-9.001,0.267-12.402-2.697c-3.259-2.842-5.417-12.176-2.708-17.21c3.669-6.82,9.602-6.361,17.124-1.521
							C132.51,198.901,135.511,201.439,136.605,204.102z"/>
						<path id="_x31__26_" class="A1" d="M127.347,198.742c5.17,2.816,4.819,7.164,4.249,10.618
							c-0.255,1.542-1.335,4.229-4.203,5.547c-2.904,1.336-6.224,0.905-9.134,0.721c-0.589-0.037-3.467-2.613-3.925-3.939
							c-1.582-4.589-0.568-8.832,1.257-10.955C117.652,198.335,122.273,195.976,127.347,198.742z"/>
						<path id="_x35__33_" class="A5 A6" d="M111.443,186.081
							c1.641-0.136,3.254-0.523,4.871-0.87c2.018-0.434,4.04-0.799,6.113-0.491c2.375,0.349,5.432,2.116,7.226,3.834
							c8.148,7.806,4.66,24.054-1.672,31.929c-5.907,7.346-13.736,8.302-20.916,6.943c-3.963-0.751-7.728-2.206-10.863-3.687
							c-6.608-3.124-12.255-7.744-16.706-12.432c6.748-9.785,14.535-18.669,17.858-30.689
							C101.549,183.845,106.303,186.5,111.443,186.081z"/>
						<path id="_x34__33_" class="A4" d="M111.331,186.667c1.639-0.133,3.254-0.524,4.87-0.87
							c0.281,0.196,2.983,0.291,5.365,2.035c4.732,3.466,7.936,8.543,8.891,13.63c0.551,2.938-0.897,7.838-2.528,11.855
							c-1.976,4.869-8.433,11.136-14.34,13.205c-5.194,1.819-14.365-0.715-17.5-2.195c-6.691-3.163-12.4-7.859-16.876-12.607
							c6.708-9.799,14.527-18.644,17.983-30.552C101.401,184.414,106.171,187.091,111.331,186.667z"/>
						<path id="_x32__33_" class="A2" d="M105.687,187.436c4.221,1.462,6.278,1.819,9.05,3.366
							c5.509,3.073,10.731,7.998,10.194,15.546c-0.717,10.07-10.937,14.803-18.883,15.158c-9.628,0.429-19.601-2.558-26.786-9.857
							c6.543-9.545,14.135-18.189,17.697-29.659C99.749,184.269,102.481,186.328,105.687,187.436z"/>
						<path id="_x31__25_" class="A1" d="M107.723,193.299c6.375,3.642,18.344,10.194,6.584,17.338
							c-4.572,2.779-10.035,3.313-15.125,3.745c-6.151,0.521-12.417-1.883-18.285-5.08c5.53-7.792,11.489-15.18,15.006-24.269
							C99.428,187.998,103.247,190.741,107.723,193.299z"/>
						<path id="_x35__32_" class="A5 A6" d="M109.146,188.446
							c1.823,2.155,3.654,5.2,4.171,7.99c0.766,4.127-0.19,8.835-1.981,12.663c-0.964,2.063-2.31,4.184-3.887,5.878
							c-5.529,5.943-12.794,6.759-19.441,5.71c-2.469-0.391-13.697-5.79-21.033-13.112c-6.917-6.903-10.211-16.618-9.917-18.728
							c0.857-6.139,14.104-14.946,29.37-12.35C92.073,177.76,105.541,184.192,109.146,188.446z"/>
						<path id="_x34__32_" class="A4" d="M99.612,184.085c1.706,0.825,3.384,2.19,4.62,3.576
							c4.731,5.287,7.299,14.291,3.56,20.845c-1.966,3.443-5.484,6.218-9.447,7.338c-3.177,0.898-7.729,1.013-10.165,0.853
							c-6.683-0.443-11.936-2.864-16.706-6.591c-2.662-2.079-12.945-17.104-9.833-22.206c5.333-8.744,15.25-10.01,26-9.09
							C89.576,178.975,97.895,183.254,99.612,184.085z"/>
						<path id="_x32__32_" class="A2" d="M101.842,194.859c3.722,8.507-3.344,16.48-11.937,18.365
							c-6.073,1.332-12.187,0.34-16.791-3.433c-4.413-3.614-7.333-15.487-3.667-21.892c4.967-8.677,13-8.093,23.183-1.936
							C96.298,188.239,100.36,191.468,101.842,194.859z"/>
						<path id="_x31__24_" class="A1" d="M89.308,188.037c7,3.583,6.524,9.115,5.751,13.509
							c-0.346,1.961-1.807,5.377-5.689,7.056c-3.932,1.699-8.427,1.152-12.368,0.917c-0.798-0.048-4.694-3.324-5.313-5.013
							c-2.141-5.836-0.77-11.234,1.702-13.936C76.182,187.521,82.437,184.52,89.308,188.037z"/>
					</g>
					<g id="B_7_">
						<path id="_x35__31_" class="B5 B6" d="M129.231,148.325
							c0.313-0.062-12.722-0.874-14.898-1.038c-13.28-0.994-21.19-1.25-34.312,1.012c-10.375,1.79-19.861,8.834-23.756,18.924
							c-3.482,9.024-2.907,21.367,3.129,29.717c6.269,8.672,17.626,8.276,24.506,1.629c2.953-2.853,5.465-6.952,4.409-11.445
							c-1.155-4.909-3.409-8.091-7.383-10.618c-1.208-0.767-3.22-2.041-5.592-2.29c1.936-6.549,3.756-10.404,9.572-12.783
							C93.203,158.038,112.556,151.592,129.231,148.325z"/>
						<path id="_x34__31_" class="B4" d="M125.797,148.647c-13.063-2.823-37.064-2.081-46.814,1.021
							c-9.745,3.101-14.067,9.361-16.503,13.097c-1.341,2.055-2.489,4.349-3.201,6.714c-1.812,6.017-1.267,12.039-0.85,14.68
							c0.561,3.554,2.377,6.955,4.494,9.602c1.891,2.363,7.072,6.568,12.589,5.541c3.072-0.574,7.282-2.42,9.124-4.949
							c3.077-4.225,1.51-9.32-1.76-13.794c-2.861-3.914-11.025-5.529-13.242-1.101c-1.4,2.798-0.67,9.221,2.563,10.745
							c0.984,0.465,3.112,0.45,3.99,0.288c-1.127,1.695-2.13,2.192-4.08,2.206c-3.549,0.026-6.362-6.481-5.964-8.958
							c0.358-2.237,2.259-5.884,3.869-7.71c1.333-1.513,5.323-1.814,5.323-1.814s-0.202-3.915,0.875-5.313
							c1.263-1.646,1.634-3.177,3.217-4.489c1.822-1.509,3.213-2.378,5.34-3.462c0.606-0.31,5.417-2,8.458-3.298
							C94.93,156.924,120.161,150.275,125.797,148.647z"/>
						<path id="_x32__31_" class="B2" d="M75.384,174.498c-2.333,0.483-6.844,2.782-7.598,3.942
							c-1.015,1.558-1.099,3.754-1.645,5.299c-4.471-7.311,1.848-19.848,6.782-23.839c2.895-2.34,7.852-5.409,11.544-6.095
							c4.064-0.754,38.306-6.658,39.724-4.705c-2.918,0.921-16.514,4.107-21.175,5.363c-4.395,1.184-8.69,3.029-12.522,4.289
							C75.074,163.825,75.976,171.432,75.384,174.498z"/>
						<path id="_x31__23_" class="B1" d="M103.017,154.463c-2.277,0.55-11.731,3.173-15.561,4.43
							c-6.521,2.14-11.163,7.821-11.872,12.821l-1.042,2.833c-2.167,0.483-4.619,1.828-7,4.833c-0.453-0.47-0.618-2.557-0.48-3.179
							c0.701-3.193,1.046-5.549,2.979-8.59c0.681-1.072,1.668-1.89,2.602-2.738c2.44-2.217,4.908-4.1,8.103-6.021
							c1.08-0.649,3.289-1.594,4.445-2.096c0.846-0.37,26.632-8.162,38.018-7.238C117.951,150.513,105.573,153.847,103.017,154.463z"
							/>
					</g>
				</g>
			</g>
			<g id="Mid">
				<g id="R_1_">
					<g id="C_1_">
						<path id="_x35__7_" class="C5 C6" d="M272.207,183.492
							c3.339-3.836,7.661-9.005,10.295-13.5c10.147-17.319,15.412-41.499-9.187-56c-16.34-9.633-27.458-7.629-38.858-6
							c-12.25,1.75-24.907,7.673-33.5,16.25c-4.675,4.665-9.719,11.36-12.75,17.25c-3.206,6.229-2.524,13.146,0.107,19.766
							c11.423-6.379,23.165-15.028,36.129-17.811c15.622-3.353,27.33,6.862,32.561,20.924c3.393,9.123,4.29,18.921,5.167,28.54
							C267.38,189.086,267.008,189.465,272.207,183.492z"/>
						<path id="_x34__7_" class="C4" d="M275.479,172.214c7.563-13.978,11.245-32.175-0.606-44.246
							c-3.64-3.707-8.165-7.007-12.636-9.643c-13.536-7.979-30.902-8.946-45.24-2.561c-4.143,1.846-8.027,4.527-11.278,7.696
							c-4.442,4.329-9.164,9.995-12.012,15.53c-1.613,3.134-2.456,6.511-2.64,10.02c-0.052,0.993,0.469,6.018-0.36,6.48
							c9.139-5.103,22.628-13.024,33-15.25c14.521-3.117,27.675,6.617,31.75,12c5.512,7.28,9.915,26.333,10.5,32.75
							c-0.03-0.33,3.612-3.636,4.062-4.234C271.944,178.191,273.806,175.306,275.479,172.214z"/>
						<path id="_x32__7_" class="C2" d="M273.168,160.281c0.252-4.563,0.164-9.137-0.144-13.377
							c-0.732-10.094-5.182-19.632-14.112-24.896c-7.554-4.453-16.46-6.533-25.19-6.469c-7.195,0.053-13.854,2.875-19.751,6.828
							c-5.526,3.704-11.682,8.064-14.964,14.312c0.11-0.22,0.217-0.442,0.333-0.658c-2.046,4.066-5.176,9.354-5.135,14.013
							c7.311-4.082,25.703-14.761,34-16.541c11.617-2.493,26.24,10.186,29.5,14.492c4.41,5.824,10.033,25.373,10.5,30.507
							c0.055,0.598,2.443-2.599,2.587-3.095C272.149,170.711,272.88,165.502,273.168,160.281z"/>
						<path id="_x31__4_" class="C1" d="M263,140.72c-5.767-11.47-19.843-18.673-32.293-18.034
							c-12.492,0.641-27.589,8.204-31.567,21.024c-0.096,0.087-0.102,0.082-0.019-0.015c5.017-5.879,12.419-9.381,19.548-11.964
							c7.628-2.764,15.979-5.104,23.983-2.435c7.005,2.335,13.941,8.687,17.349,15.229c1.068,2.051,1.75,5.692,4.752,5.459
							C265.818,147.177,264.296,143.3,263,140.72z"/>
					</g>
					<g id="B_1_">
						<path id="_x35__6_" class="B5 B6" d="M245.345,136.61
							c-1.331,1.415-2.404,3.019-3.226,4.446c-3.545,6.164-3.925,13.352-3.487,16.668c0.232,1.753,1.092,5.907,2.252,8.499
							c0.99,2.208,2.964,5.031,3.347,5.482c0.553,0.651,5.619,6.012,8.225,7.346c-0.578-3.921-1.741-7.458-1.34-11.504
							c0.321-3.247,1.205-6.474,2.04-9.623c0.792-2.988,1.902-6.402,4.641-8.171c0.667-0.43,1.39-0.764,2.103-1.112
							c0.891-0.437,1.764-0.897,2.484-1.607c0.824-0.813,1.541-2.318,1.785-3.44c1.107-5.092-4.465-9.742-8.957-10.646
							C251.023,132.104,247.758,134.047,245.345,136.61z"/>
						<path id="_x34__6_" class="B4" d="M261.949,147.198c0.92-2.585,0.834-5.287-0.123-7.34
							c-0.553-1.185-2.386-2.472-4.061-3.397c-2.029-1.123-6.147-1.431-8.961-0.434c-2.476,0.877-5.349,4.428-6.17,5.856
							c-3.547,6.165-3.925,13.352-3.487,16.668c0.23,1.754,1.091,5.907,2.252,8.499c0.989,2.209,2.963,5.032,3.346,5.483
							c0.552,0.651,5.619,6.012,8.225,7.345c-0.579-3.92-1.742-7.456-1.341-11.503c0.32-3.248,1.205-6.474,2.04-9.623
							c0.792-2.988,1.902-6.404,4.64-8.171c0.667-0.431,1.391-0.765,2.104-1.113C260.469,149.319,261.484,148.5,261.949,147.198z"/>
						<path id="_x32__6_" class="B2" d="M254.483,148.319c1.506-3.124,4.509-8.062-1.978-7.961
							c-2.509,0.039-5.227,0.935-7.3,2.265c-3.519,2.259-5.128,7.423-6.806,11.364c-0.111,4.134,0.747,8.386,2.479,12.058
							c1.177,2.495,2.838,5.294,4.777,7.278c2.087,2.138,4.395,4.008,6.819,5.748c-1.361-5.69-2.797-11.835-1.886-17.411
							C251.343,157.037,252.243,152.96,254.483,148.319z"/>
						<path id="_x31__3_" class="B1" d="M242.4,153.206c0.578-2.179,1.185-3.933,2.381-5.846
							c1.142-1.827,3.87-4.097,6.045-4.639c1.121-0.278,2.625-0.012,2.551,1.397c-0.058,1.101-1.87,2.024-2.643,2.616
							c-4.652,3.563-3.417,12.679-4.695,13.691C246.039,160.426,242.088,154.379,242.4,153.206z"/>
						<path id="_x35__5_" class="B5 B6" d="M265.111,157.147
							c1.564-1.875,2.329-4.396,2.433-6.81c0.051-1.215-0.123-2.742-0.667-3.848c-0.805-1.635-2.326-3.038-3.899-3.921
							c-0.847-0.476-1.835-0.876-2.792-1.068c-3.35-0.675-5.962,0.88-7.892,2.931c-1.065,1.132-5.753,6.261-4.98,13.568"/>
						<path id="_x34__5_" class="B4" d="M247.552,157.141c0.231-0.47,0.285-1.247,0.422-1.821
							c0.14-0.59,0.343-1.129,0.501-1.709c0.921-3.372,2.326-5.564,4.896-7.829c0.765-0.673,2.299-1.786,3.581-2.278
							c1.598-0.612,3.473-0.534,5.004,0.17c2.916,1.341,4.373,5.137,4.162,8.184c-0.055,0.795-0.26,1.697-0.611,2.418
							c-0.361,0.737-0.549,1.724-1.139,2.298c-0.494,0.479-1.122,0.967-1.789,1.533"/>
						<path id="_x32__5_" class="B2" d="M248.254,159.132c-0.175-0.385-0.146-0.928-0.175-1.342
							c-0.114-1.622-0.062-3.411,0.544-4.943c0.5-1.265,1.516-2.23,2.521-3.104c1.243-1.08,3.028-2.711,4.732-2.652
							c0.795,0.026,1.784,0.427,2.4,1.023c1.381,1.34,1.907,3.308,1.11,5.004c-0.204,0.436-0.479,0.873-0.784,1.245
							c-0.326,0.399-0.68,0.79-1.054,1.145c-0.974,0.926-1.995,1.865-2.507,3.133c-0.208,0.51-0.395,1.057-0.541,1.584
							c-0.124,0.446-0.214,1.002-0.07,1.454"/>
						<path id="_x35__4_" class="B5 B6" d="M253.186,172.511
							c-0.021-0.08-0.147-0.589-0.033-0.156c1.171,4.746,6.237,7.623,10.923,6.424c4.641-1.188,8.021-5.627,7.963-10.537
							c-0.03-2.511-0.464-5.109-1.366-7.334c-0.858-2.118-3.275-3.659-4.763-5.341c-4.621-5.225-9.766-2.105-15.704-2.158
							c-5.382-0.048-10.005,3.907-12.891,8.091c-5.354,7.763-6.063,22.329,0.237,29.804c6.995,8.299,18.861,11.573,29.319,9.401
							c2.064-0.429,4.144-1.076,5.892-2.288c1.734-1.203,2.818-3.196,4.656-4.237c1.58-0.895,3.548-0.765,5.16-1.618
							c1.594-0.844,2.972-2.158,4.153-3.492c8.607-9.717,6.893-22.191,6.306-34.16c-0.132-2.69-0.697-5.081-0.666-7.668
							c0.034-2.838-0.296-5.687-0.933-8.453c-0.39-1.692-0.558-5.072-2.259-5.94c0.466,0.237,0.336,6.052,0.366,6.641
							c0.206,4.017,0.532,8.08-0.053,12.08c-1.561,10.669-10.932,20.248-19.91,25.554c-1.069,0.632-2.232,0.91-3.379,1.494
							C260.566,181.489,254.698,178.266,253.186,172.511z"/>
						<path id="_x34__4_" class="B4" d="M254.387,173.724c5.569,3.115,18.266-1.076,13.819-11.465
							c-2-4.673-14.375-8.807-21.625-4.673c-8.332,4.75-12.282,15.736-10.5,23.655c1.125,5,7.377,12.109,10.125,13.613
							c13.5,7.387,24.859,0.889,29.75-1.988c6.452-3.796,12.125-10,14.402-17.167c1.048-3.299,0.348-17.609-0.902-20.085
							c-0.875,4.306-11.943,16.237-13.561,17.646c-1.755,1.528-4.015,2.771-6.051,3.754c-2.417,1.168-5.153,1.637-7.787,1.871
							C258.668,179.188,254.885,176.672,254.387,173.724z"/>
						<path id="_x32__4_" class="B2" d="M254.387,173.724c3.817,0.979,10.906-3.251,8.919-8.325
							c-2.115-5.397-9.541-3.924-13.401-2.107c-5.856,2.755-7.556,8.632-6.42,14.754c0.645,3.475,2.459,7.307,5.029,9.803
							c8.971,8.713,22.902,0.52,25.152-1.569c3.541-3.287,6.31-9.388,7.49-12.415c0.601-1.539,0.825-4.817,0.825-7.107
							c-2.015,2.621-3.525,4.179-5.143,5.588c-1.755,1.528-11.561,6.308-14.194,6.542
							C259.254,179.188,256.114,177.67,254.387,173.724z"/>
					</g>
					<g id="A_1_">
						<path class="A5 A6" d="M199.207,133.239c-0.583-4.497,0.833-13.803,4.25-17.217
							c3.775-3.772,9.654-8.961,14.888-10.577c6.476-2,13.525-3.791,19.946-4.873c7.843-1.322,15.278-2.188,23.078-1.572
							c4.831,0.382,9.547,2.33,13.438,5.184c5.257,3.857,9.228,10.839,8.508,17.365c-0.747,6.779-7.736,10.189-14.209,8.727
							c-4.022-0.908-7.05-3.888-7.174-8.055c-0.156-5.289,2.865-5.727,6.619-8.229c0.238-0.159-2.094-3.913-4.24-4.335
							c-2.303-0.453-7.021-0.973-9.354-1c-6.92-0.081-13.599,0.953-20.496,1.83c-5.486,0.697-10.328,1.719-15.504,3.506
							c-5.305,1.831-9.25,5.747-13.583,10.58C203.861,126.258,200.623,130.072,199.207,133.239z"/>
						<path class="A4" d="M200.457,129.017c0.131-1.241,1.015-9.53,1.75-10.611c3.861-5.675,9.148-9.971,14.238-12.235
							c2.38-1.06,5.031-1.705,7.2-2.276c7.425-1.955,19.192-4.15,21.552-4.353c7.083-0.609,18.124-0.744,24.009,1.753
							c1.548,0.656,5.688,2.899,6.945,3.974c3.197,2.736,4.694,7.137,5.367,8.724c0.903,2.137,0.162,5.157-0.189,7.291
							c-0.313,1.907-1.967,5.876-5.653,7.072c-2.053,0.666-5.239,0.993-7.233,0.189c-3.334-1.344-6.204-4.013-4.231-10.109
							c1.147-3.546,5.183-4.616,8.067-2.886c1.824,1.094,3.63,4.864,2.215,6.736c-0.433,0.57-1.721,1.242-2.308,1.434
							c1.273,0.573,2.053,0.527,3.233-0.088c2.148-1.12,1.569-5.603,0.463-6.84c-0.998-1.118-2.816-3.145-4.426-3.636
							c-1.333-0.407-1.92-1.556-2.333-2.167c-0.492-0.729-3.027-2.57-4.167-2.997c-3.179-1.193-6.606-1.229-9.956-1.206
							c-2.675,0.019-5.354-0.095-8.026,0.06c-2.595,0.149-9.466,0.752-12.393,1.146c-2.065,0.278-8.207,1.752-10.266,2.073
							c-1.52,0.236-6.507,2.061-7.871,2.802c-5.238,2.848-7.043,4.497-10.788,9.263c-1.224,1.558-2.42,3.137-3.634,4.702
							C201.499,127.508,200.821,128.231,200.457,129.017z"/>
					</g>
				</g>
				<g id="L_2_">
					<g id="C_3_">
						<path id="_x35__26_" class="C5 C6" d="M24.808,183.492
							c-3.339-3.836-7.661-9.005-10.295-13.5c-10.147-17.319-15.412-41.499,9.187-56c16.34-9.633,27.458-7.629,38.858-6
							c12.25,1.75,24.907,7.673,33.5,16.25c4.675,4.665,9.719,11.36,12.75,17.25c3.206,6.229,2.524,13.146-0.107,19.766
							c-11.423-6.379-23.165-15.028-36.129-17.811c-15.622-3.353-27.33,6.862-32.561,20.924c-3.393,9.123-4.29,18.921-5.167,28.54
							C29.634,189.086,30.006,189.465,24.808,183.492z"/>
						<path id="_x34__26_" class="C4" d="M21.535,172.214c-7.563-13.978-11.245-32.175,0.606-44.246
							c3.64-3.707,8.165-7.007,12.636-9.643c13.536-7.979,30.902-8.946,45.24-2.561c4.143,1.846,8.027,4.527,11.278,7.696
							c4.442,4.329,9.164,9.995,12.012,15.53c1.613,3.134,2.456,6.511,2.64,10.02c0.052,0.993-0.469,6.018,0.36,6.48
							c-9.139-5.103-22.628-13.024-33-15.25c-14.521-3.117-27.675,6.617-31.75,12c-5.512,7.28-9.915,26.333-10.5,32.75
							c0.03-0.33-3.612-3.636-4.062-4.234C25.07,178.191,23.208,175.306,21.535,172.214z"/>
						<path id="_x32__26_" class="C2" d="M23.846,160.281c-0.252-4.563-0.164-9.137,0.144-13.377
							c0.732-10.094,5.182-19.632,14.112-24.896c7.554-4.453,16.46-6.533,25.19-6.469c7.195,0.053,13.854,2.875,19.751,6.828
							c5.526,3.704,11.682,8.064,14.964,14.312c-0.11-0.22-0.217-0.442-0.333-0.658c2.046,4.066,5.176,9.354,5.135,14.013
							c-7.311-4.082-25.703-14.761-34-16.541c-11.617-2.493-26.24,10.186-29.5,14.492c-4.41,5.824-10.033,25.373-10.5,30.507
							c-0.055,0.598-2.443-2.599-2.587-3.095C24.865,170.711,24.134,165.502,23.846,160.281z"/>
						<path id="_x31__19_" class="C1" d="M34.015,140.72c5.767-11.47,19.843-18.673,32.293-18.034
							c12.492,0.641,27.589,8.204,31.567,21.024c0.096,0.087,0.102,0.082,0.019-0.015c-5.017-5.879-12.419-9.381-19.548-11.964
							c-7.628-2.764-15.979-5.104-23.983-2.435c-7.005,2.335-13.941,8.687-17.349,15.229c-1.068,2.051-1.75,5.692-4.752,5.459
							C31.196,147.177,32.718,143.3,34.015,140.72z"/>
					</g>
					<g id="B_5_">
						<path id="_x35__25_" class="B5 B6" d="M51.669,136.61
							c1.331,1.415,2.404,3.019,3.226,4.446c3.545,6.164,3.925,13.352,3.487,16.668c-0.232,1.753-1.092,5.907-2.252,8.499
							c-0.99,2.208-2.964,5.031-3.347,5.482c-0.553,0.651-5.619,6.012-8.225,7.346c0.578-3.921,1.741-7.458,1.34-11.504
							c-0.321-3.247-1.205-6.474-2.04-9.623c-0.792-2.988-1.902-6.402-4.641-8.171c-0.667-0.43-1.39-0.764-2.103-1.112
							c-0.891-0.437-1.764-0.897-2.484-1.607c-0.824-0.813-1.541-2.318-1.785-3.44c-1.107-5.092,4.465-9.742,8.957-10.646
							C45.991,132.104,49.256,134.047,51.669,136.61z"/>
						<path id="_x34__25_" class="B4" d="M35.065,147.198c-0.92-2.585-0.834-5.287,0.123-7.34
							c0.553-1.185,2.386-2.472,4.061-3.397c2.029-1.123,6.147-1.431,8.961-0.434c2.476,0.877,5.349,4.428,6.17,5.856
							c3.547,6.165,3.925,13.352,3.487,16.668c-0.23,1.754-1.091,5.907-2.252,8.499c-0.989,2.209-2.963,5.032-3.346,5.483
							c-0.552,0.651-5.619,6.012-8.225,7.345c0.579-3.92,1.742-7.456,1.341-11.503c-0.32-3.248-1.205-6.474-2.04-9.623
							c-0.792-2.988-1.902-6.404-4.64-8.171c-0.667-0.431-1.391-0.765-2.104-1.113C36.545,149.319,35.53,148.5,35.065,147.198z"/>
						<path id="_x32__25_" class="B2" d="M42.531,148.319c-1.506-3.124-4.509-8.062,1.978-7.961
							c2.509,0.039,5.227,0.935,7.3,2.265c3.519,2.259,5.128,7.423,6.806,11.364c0.111,4.134-0.747,8.386-2.479,12.058
							c-1.177,2.495-2.838,5.294-4.777,7.278c-2.087,2.138-4.395,4.008-6.819,5.748c1.361-5.69,2.797-11.835,1.886-17.411
							C45.671,157.037,44.771,152.96,42.531,148.319z"/>
						<path id="_x31__18_" class="B1" d="M54.614,153.206c-0.578-2.179-1.185-3.933-2.381-5.846
							c-1.142-1.827-3.87-4.097-6.045-4.639c-1.121-0.278-2.625-0.012-2.551,1.397c0.058,1.101,1.87,2.024,2.643,2.616
							c4.652,3.563,3.417,12.679,4.695,13.691C50.975,160.426,54.926,154.379,54.614,153.206z"/>
						<path id="_x35__24_" class="B5 B6" d="M31.903,157.147
							c-1.564-1.875-2.329-4.396-2.433-6.81c-0.051-1.215,0.123-2.742,0.667-3.848c0.805-1.635,2.326-3.038,3.899-3.921
							c0.847-0.476,1.835-0.876,2.792-1.068c3.35-0.675,5.962,0.88,7.892,2.931c1.065,1.132,5.753,6.261,4.98,13.568"/>
						<path id="_x34__24_" class="B4" d="M49.462,157.141c-0.231-0.47-0.285-1.247-0.422-1.821
							c-0.14-0.59-0.343-1.129-0.501-1.709c-0.921-3.372-2.326-5.564-4.896-7.829c-0.765-0.673-2.299-1.786-3.581-2.278
							c-1.598-0.612-3.473-0.534-5.004,0.17c-2.916,1.341-4.373,5.137-4.162,8.184c0.055,0.795,0.26,1.697,0.611,2.418
							c0.361,0.737,0.549,1.724,1.139,2.298c0.494,0.479,1.122,0.967,1.789,1.533"/>
						<path id="_x32__24_" class="B2" d="M48.76,159.132c0.175-0.385,0.146-0.928,0.175-1.342
							c0.114-1.622,0.062-3.411-0.544-4.943c-0.5-1.265-1.516-2.23-2.521-3.104c-1.243-1.08-3.028-2.711-4.732-2.652
							c-0.795,0.026-1.784,0.427-2.4,1.023c-1.381,1.34-1.907,3.308-1.11,5.004c0.204,0.436,0.479,0.873,0.784,1.245
							c0.326,0.399,0.68,0.79,1.054,1.145c0.974,0.926,1.995,1.865,2.507,3.133c0.208,0.51,0.395,1.057,0.541,1.584
							c0.124,0.446,0.214,1.002,0.07,1.454"/>
						<path id="_x35__23_" class="B5 B6" d="M43.828,172.511
							c0.021-0.08,0.147-0.589,0.033-0.156c-1.171,4.746-6.237,7.623-10.923,6.424c-4.641-1.188-8.021-5.627-7.963-10.537
							c0.03-2.511,0.464-5.109,1.366-7.334c0.858-2.118,3.275-3.659,4.763-5.341c4.621-5.225,9.766-2.105,15.704-2.158
							c5.382-0.048,10.005,3.907,12.891,8.091c5.354,7.763,6.063,22.329-0.237,29.804c-6.995,8.299-18.861,11.573-29.319,9.401
							c-2.064-0.429-4.144-1.076-5.892-2.288c-1.734-1.203-2.818-3.196-4.656-4.237c-1.58-0.895-3.548-0.765-5.16-1.618
							c-1.594-0.844-2.972-2.158-4.153-3.492c-8.607-9.717-6.893-22.191-6.306-34.16c0.132-2.69,0.697-5.081,0.666-7.668
							c-0.034-2.838,0.296-5.687,0.933-8.453c0.39-1.692,0.558-5.072,2.259-5.94c-0.466,0.237-0.336,6.052-0.366,6.641
							c-0.206,4.017-0.532,8.08,0.053,12.08c1.561,10.669,10.932,20.248,19.91,25.554c1.069,0.632,2.232,0.91,3.379,1.494
							C36.448,181.489,42.316,178.266,43.828,172.511z"/>
						<path id="_x34__23_" class="B4" d="M42.627,173.724c-5.569,3.115-18.266-1.076-13.819-11.465
							c2-4.673,14.375-8.807,21.625-4.673c8.332,4.75,12.282,15.736,10.5,23.655c-1.125,5-7.377,12.109-10.125,13.613
							c-13.5,7.387-24.859,0.889-29.75-1.988c-6.452-3.796-12.125-10-14.402-17.167c-1.048-3.299-0.348-17.609,0.902-20.085
							c0.875,4.306,11.943,16.237,13.561,17.646c1.755,1.528,4.015,2.771,6.051,3.754c2.417,1.168,5.153,1.637,7.787,1.871
							C38.346,179.188,42.129,176.672,42.627,173.724z"/>
						<path id="_x32__23_" class="B2" d="M42.627,173.724c-3.817,0.979-10.906-3.251-8.919-8.325
							c2.115-5.397,9.541-3.924,13.401-2.107c5.856,2.755,7.556,8.632,6.42,14.754c-0.645,3.475-2.459,7.307-5.029,9.803
							c-8.971,8.713-22.902,0.52-25.152-1.569c-3.541-3.287-6.31-9.388-7.49-12.415c-0.601-1.539-0.825-4.817-0.825-7.107
							c2.015,2.621,3.525,4.179,5.143,5.588c1.755,1.528,11.561,6.308,14.194,6.542C37.76,179.188,40.9,177.67,42.627,173.724z"/>
					</g>
					<g id="A_5_">
						<path class="A5 A6" d="M97.808,133.239c0.583-4.497-0.833-13.803-4.25-17.217
							c-3.775-3.772-9.654-8.961-14.888-10.577c-6.476-2-13.525-3.791-19.946-4.873C50.88,99.25,43.445,98.383,35.646,99
							c-4.831,0.382-9.547,2.33-13.438,5.184c-5.257,3.857-9.228,10.839-8.508,17.365c0.747,6.779,7.736,10.189,14.209,8.727
							c4.022-0.908,7.05-3.888,7.174-8.055c0.156-5.289-2.865-5.727-6.619-8.229c-0.238-0.159,2.094-3.913,4.24-4.335
							c2.303-0.453,7.021-0.973,9.354-1c6.92-0.081,13.599,0.953,20.496,1.83c5.486,0.697,10.328,1.719,15.504,3.506
							c5.305,1.831,9.25,5.747,13.583,10.58C93.153,126.258,96.391,130.072,97.808,133.239z"/>
						<path class="A4" d="M96.558,129.017c-0.131-1.241-1.015-9.53-1.75-10.611c-3.861-5.675-9.148-9.971-14.238-12.235
							c-2.38-1.06-5.031-1.705-7.2-2.276c-7.425-1.955-19.192-4.15-21.552-4.353c-7.083-0.609-18.124-0.744-24.009,1.753
							c-1.548,0.656-5.688,2.899-6.945,3.974c-3.197,2.736-4.694,7.137-5.367,8.724c-0.903,2.137-0.162,5.157,0.189,7.291
							c0.313,1.907,1.967,5.876,5.653,7.072c2.053,0.666,5.239,0.993,7.233,0.189c3.334-1.344,6.204-4.013,4.231-10.109
							c-1.147-3.546-5.183-4.616-8.067-2.886c-1.824,1.094-3.63,4.864-2.215,6.736c0.433,0.57,1.721,1.242,2.308,1.434
							c-1.273,0.573-2.053,0.527-3.233-0.088c-2.148-1.12-1.569-5.603-0.463-6.84c0.998-1.118,2.816-3.145,4.426-3.636
							c1.333-0.407,1.92-1.556,2.333-2.167c0.492-0.729,3.027-2.57,4.167-2.997c3.179-1.193,6.606-1.229,9.956-1.206
							c2.675,0.019,5.354-0.095,8.026,0.06c2.595,0.149,9.466,0.752,12.393,1.146c2.065,0.278,8.207,1.752,10.266,2.073
							c1.52,0.236,6.507,2.061,7.871,2.802c5.238,2.848,7.043,4.497,10.788,9.263c1.224,1.558,2.42,3.137,3.634,4.702
							C95.516,127.508,96.193,128.231,96.558,129.017z"/>
					</g>
				</g>
			</g>
			<g id="Up">
				<g id="R">
					<g id="C">
						<path id="_x35__3_" class="C5 C6" d="M231.893,84.178
							c-11.414-12.396-26.592-27.329-44.062-24.436c-19.625,3.25-31.354,16.905-31.375,38c-0.018,19,10.673,28.061,16.375,31.5
							c0-0.001,7.329-8.015,9.249-10.498c4.842-6.265,10.975-11.666,18.015-15.336c7.745-4.038,16.34-5.438,24.728-7.532
							c4.367-1.09,8.464-3.157,12.643-4.797C237.918,90.901,234.773,87.306,231.893,84.178z"/>
						<path id="_x34__3_" class="C4" d="M218.457,82.742c-8.82-6.627-21.727-15.356-33.418-13.421
							c-8.417,1.394-16.894,7.779-20.335,15.5c-4.103,9.204-1.258,20.109,3.003,29.671c1.178,2.643,2.5,5.25,5.02,6.688
							c1.941-3.859,1.664-5.489,4.316-8.92c2.905-3.759,10.94-10.317,15.164-12.519c4.647-2.423,10.218-4.112,15.25-5.368
							c2.62-0.654,19.25-4.273,19.25-4.273S223.292,86.375,218.457,82.742z"/>
						<path id="_x32__3_" class="C2" d="M211.854,81.861c-2.981-2.122-6.591-3.869-7.551-4.262
							c-6.143-2.516-13.028-3.445-19.598-2.357c-12.316,2.039-20.137,15.803-18.118,27.624c0.411,2.404,4.369,11.626,4.369,11.626
							s4.48-7.24,7-11c2.405-3.588,6.706-6.082,10.317-8.355c4.547-2.862,9.858-3.822,15.1-4.51
							c3.164-0.416,16.583-1.909,16.583-1.909S215.234,84.268,211.854,81.861z"/>
						<path id="_x31__2_" class="C1" d="M207.579,83.229c-1.873-0.92-3.976-1.627-5.771-2.123
							c-4.537-1.252-9.397-1.196-13.971-0.146c-6.302,1.446-13.16,5.23-15.447,11.465c-3.479,9.488-2.933,11.566-1.183,16.066
							c3.443-8.145,7.042-14.925,14.75-19.774c7.751-4.877,18.969-1.618,27.5-1.226c-1.38-0.063-2.274-1.933-3.25-2.678
							C209.439,84.229,208.54,83.701,207.579,83.229z"/>
					</g>
					<g id="B">
						<path id="_x35__2_" class="B5 B6" d="M258.786,93.958
							c-0.435-3.861-1.491-7.57-2.606-10.672c-4.811-13.384-15.281-23.262-20.906-26.887c-2.973-1.916-10.42-5.979-15.875-7.563
							c-4.647-1.349-11.509-1.992-12.692-1.992c-1.708,0-16.437,0.79-21.843,3.038c6.727,4.191,13.624,6.995,19.277,12.841
							c4.537,4.692,8.313,10.215,12.036,15.563c3.532,5.074,7.304,11.187,6.456,17.649c-0.207,1.573-0.634,3.108-1.024,4.647
							c-0.487,1.922-0.914,3.851-0.762,5.866c0.174,2.31,1.541,5.352,2.935,7.174c6.333,8.278,20.637,5.797,27.826,0.119
							C258.312,108.448,259.573,100.953,258.786,93.958z"/>
						<path id="_x34__1_" class="B4" d="M222.598,106.791c2.75,4.75,6.984,8.113,11.353,9.31
							c2.522,0.69,6.857-0.44,10.435-1.794c4.338-1.641,10.137-7.524,12.259-13.107c1.865-4.908,0.167-13.887-0.948-16.988
							c-4.811-13.385-15.281-23.262-20.906-26.887c-2.973-1.916-10.42-5.979-15.875-7.563c-4.647-1.349-11.509-1.992-12.692-1.992
							c-1.708,0-16.437,0.791-21.843,3.039c6.727,4.19,13.624,6.994,19.277,12.84c4.537,4.692,8.313,10.216,12.036,15.563
							c3.532,5.074,7.304,11.187,6.456,17.649c-0.207,1.573-0.634,3.108-1.024,4.647C221.279,101.79,221.213,104.399,222.598,106.791
							z"/>
						<path id="_x33_" class="B3" d="M223.126,91.46c1.037,4.149,1.234,6.152,2.425,8.908
							c2.368,5.478,6.36,10.777,12.944,10.669c8.787-0.145,13.46-9.74,14.204-17.381c0.915-9.395-1.198-19.328-7.35-26.684
							c-6.742-8.062-16.476-14.265-26.615-16.992c-5.329-1.433-11.744-2.52-17.281-2.132c-5.961,0.417-11.799,1.517-17.59,2.959
							c16.846,6.486,25.069,16.707,33.513,29.653C219.762,84.119,222.127,87.464,223.126,91.46z"/>
						<path id="_x32__1_" class="B2" d="M228.107,93.742c2.813,6.342,7.848,18.236,14.699,7.287
							c2.664-4.256,3.43-9.494,4.083-14.377c1.11-8.288-2.774-17.112-6.615-24.771c-6.16-5.52-13.753-9.714-21.595-11.823
							c-5.329-1.433-11.744-2.52-17.281-2.132c-5.961,0.417-11.799,1.517-17.59,2.959c10.44,5.29,21.667,11.052,28.993,19.655
							C218.875,77.673,223.926,84.32,228.107,93.742z"/>
						<path id="_x31__1_" class="B1" d="M237.29,67.992c2.574,3.701,4.463,6.896,5.833,11.195
							c1.309,4.106,1.239,11.204-0.75,15.222c-1.025,2.07-3.378,4.017-5.432,2.082c-1.604-1.512-0.667-5.472-0.569-7.416
							c0.585-11.705-9.269-31.012-9.416-31.226C226.957,57.849,235.903,65.998,237.29,67.992z"/>
						<path id="_x35__1_" class="B5 B6" d="M204.561,86.093
							c0.833,4.813,3.689,9.24,7.238,12.521c1.785,1.65,4.339,3.36,6.73,3.962c3.533,0.89,7.641,0.384,11.024-0.872
							c1.822-0.676,3.711-1.666,5.241-2.875c5.364-4.236,6.373-10.232,5.743-15.828c-0.348-3.089-2.103-16.876-14.247-25.152"/>
						<path id="_x34__2_" class="B4" d="M227.29,59.325c0.417,0.961,1.532,2.049,2.231,3
							c0.717,0.976,1.278,1.984,1.958,2.977c3.95,5.767,5.476,10.748,5.602,17.598c0.038,2.036-0.25,5.817-1.159,8.407
							c-1.133,3.229-3.678,5.987-6.734,7.411c-5.818,2.711-13.491,0.021-17.864-4.24c-1.144-1.114-2.253-2.594-2.896-4.063
							c-0.658-1.505-1.919-3.065-2.031-4.712c-0.093-1.369-0.023-2.961-0.023-4.711"/>
						<path id="_x33__1_" class="B3" d="M209.123,82.117c1.705,3.551,4.926,8.746,8.532,10.559
							c7.197,3.618,14.379-1.772,16.367-8.807c2.506-8.871-1.671-18.554-8.024-24.752"/>
						<path id="_x32__2_" class="B2" d="M218.54,51.117c0.813,0.23,1.603,0.978,2.272,1.47
							c2.621,1.926,5.281,4.321,6.834,7.226c1.283,2.399,1.44,5.198,1.472,7.862c0.039,3.292,0.216,8.128-2.079,10.651
							c-1.07,1.177-2.958,2.167-4.667,2.333c-3.829,0.374-7.51-1.371-9.068-4.781c-0.4-0.875-0.71-1.861-0.885-2.808
							c-0.187-1.013-0.323-2.059-0.381-3.088c-0.152-2.682-0.263-5.454-1.532-7.877c-0.511-0.976-1.1-1.967-1.716-2.875
							c-0.521-0.766-1.252-1.623-2.126-1.989"/>
					</g>
					<g id="A">
						<path id="_x35_" class="A5 A6" d="M159.832,78.617c0-2.5,0.434-5.175,1.916-7.782
							c1.635-2.877,3.535-5.608,5.291-8.364c2.32-3.643,5.255-6.894,8.75-9.452c1.986-1.454,4.252-2.603,6.577-3.413
							c8.746-3.047,19.146-1.937,26.615,3.706c6.68,5.046,11.725,14.179,10.811,22.716c-0.949,8.868-9.829,13.329-18.055,11.415
							c-3.53-0.821-7.278-2.725-8.465-6.403c-1.298-4.02-0.985-7.254,0.938-10.735c0.584-1.058,2.875-3.42,4.582-4.591
							c-4.395-3.909-13.127-3.458-16.02-2.847c-4.588,0.971-7.92,3.829-11.563,6.706c-1.819,1.437-3.7,2.783-5.534,4.201
							C163.88,75.158,159.832,78.617,159.832,78.617z"/>
						<path id="_x34_" class="A4" d="M161.832,75.367c0.167-1.623,1.358-3.62,2.142-5.126
							c1.352-2.599,3.058-4.898,4.434-7.512c4.236-8.049,14.863-12.784,17.861-13.049c9-0.796,14.036,1.813,17.563,3.484
							c1.941,0.92,3.841,2.094,5.438,3.5c4.063,3.578,6.322,8.145,7.176,10.22c1.149,2.795,1.27,6.004,0.824,8.795
							c-0.398,2.494-2.5,7.688-7.184,9.252c-2.609,0.871-6.656,1.3-9.191,0.248c-4.235-1.757-7.881-5.25-5.375-13.225
							c1.458-4.639,6.583-6.04,10.25-3.775c2.317,1.432,4.612,6.364,2.813,8.813c-0.548,0.746-2.185,1.625-2.93,1.875
							c1.617,0.75,2.607,0.69,4.107-0.115c2.73-1.465,1.994-7.329,0.589-8.948c-1.269-1.462-4.347-3.295-6.391-3.938
							c-1.694-0.533-3.295-0.625-3.82-1.424c-0.626-0.953-1.917-2.017-3.364-2.576c-1.7-0.656-3.269-1.47-5.066-1.753
							c-2.067-0.326-4.076-0.292-6.188-0.184c-2.609,0.133-5.445,0.666-7.874,1.688c-3.216,1.353-5.937,3.666-8.707,5.75
							c-1.519,1.144-2.951,2.408-4.232,3.811c-0.566,0.62-1.01,1.333-1.465,2.036C162.869,73.789,162.41,74.085,161.832,75.367z"/>
						<path id="_x32_" class="A2" d="M200.698,64.753c0.499,0.726,3.345,0.934,4.438,1.453
							c1.471,0.699,2.427,1.064,3.532,1.949c0.177-7.137-10.154-12.346-15.708-13.158c-3.259-0.477-8.422-0.616-11.556,0.433
							c-3.449,1.155-5.49,2.479-8.032,4.405c-2.325,1.762-4.402,4.363-6.281,6.656c-1.469,1.792-4.781,6.875-5,8.875
							c2.31-2.379,4.065-5.462,6.875-7.702c3.14-2.504,7.156-5.528,10.563-6.54c6.06-1.8,13.156-1.8,19.325,1.756L200.698,64.753z"/>
						<path id="_x31_" class="A1" d="M161.832,75.367c1.946-2.974,4.193-5.462,7.002-7.702
							c3.14-2.504,7.156-5.528,10.563-6.54c6.06-1.8,13.156-1.8,19.325,1.756l1.845,1.873c0.499,0.726,3.651,1.122,4.744,1.642
							c0.138-0.527-0.369-1.543-0.75-1.935c-1.833-1.88-3.713-3.777-6.101-4.944c-0.999-0.488-2.119-0.663-3.21-0.884
							c-2.855-0.578-5.583-0.903-8.886-0.953c-1.115-0.017-3.229,0.227-4.338,0.348c-1.393,0.151-2.866,0.497-4.161,1.043
							c-2.016,0.851-3.995,1.893-5.907,2.953c-2.537,1.406-4.247,3.854-5.788,6.236c-0.844,1.305-1.792,2.533-2.65,3.826
							c-0.36,0.542-0.45,0.925-0.809,1.469C162.496,73.879,162.105,75.085,161.832,75.367z"/>
					</g>
				</g>
				<g id="L">
					<g id="C_4_">
						<path id="_x35__30_" class="C5 C6" d="M65.121,84.178
							c11.414-12.396,26.592-27.329,44.062-24.436c19.625,3.25,31.354,16.905,31.375,38c0.018,19-10.673,28.061-16.375,31.5
							c0-0.001-7.329-8.015-9.249-10.498c-4.842-6.265-10.975-11.666-18.015-15.336c-7.745-4.038-16.34-5.438-24.728-7.532
							c-4.367-1.09-8.464-3.157-12.643-4.797C59.096,90.901,62.241,87.306,65.121,84.178z"/>
						<path id="_x34__30_" class="C4" d="M78.558,82.742c8.82-6.627,21.727-15.356,33.418-13.421
							c8.417,1.394,16.894,7.779,20.335,15.5c4.103,9.204,1.258,20.109-3.003,29.671c-1.178,2.643-2.5,5.25-5.02,6.688
							c-1.941-3.859-1.664-5.489-4.316-8.92c-2.905-3.759-10.94-10.317-15.164-12.519c-4.647-2.423-10.218-4.112-15.25-5.368
							c-2.62-0.654-19.25-4.273-19.25-4.273S73.722,86.375,78.558,82.742z"/>
						<path id="_x32__30_" class="C2" d="M85.16,81.861c2.981-2.122,6.591-3.869,7.551-4.262
							c6.143-2.516,13.028-3.445,19.598-2.357c12.316,2.039,20.137,15.803,18.118,27.624c-0.411,2.404-4.369,11.626-4.369,11.626
							s-4.48-7.24-7-11c-2.405-3.588-6.706-6.082-10.317-8.355c-4.547-2.862-9.858-3.822-15.1-4.51
							c-3.164-0.416-16.583-1.909-16.583-1.909S81.78,84.268,85.16,81.861z"/>
						<path id="_x31__22_" class="C1" d="M89.435,83.229c1.873-0.92,3.976-1.627,5.771-2.123
							c4.537-1.252,9.397-1.196,13.971-0.146c6.302,1.446,13.16,5.23,15.447,11.465c3.479,9.488,2.933,11.566,1.183,16.066
							c-3.443-8.145-7.042-14.925-14.75-19.774c-7.751-4.877-18.969-1.618-27.5-1.226c1.38-0.063,2.274-1.933,3.25-2.678
							C87.575,84.229,88.475,83.701,89.435,83.229z"/>
					</g>
					<g id="B_6_">
						<path id="_x35__29_" class="B5 B6" d="M38.229,93.958
							c0.435-3.861,1.491-7.57,2.606-10.672C45.646,69.902,56.116,60.025,61.741,56.4c2.973-1.916,10.42-5.979,15.875-7.563
							c4.647-1.349,11.509-1.992,12.692-1.992c1.708,0,16.437,0.79,21.843,3.038c-6.727,4.191-13.624,6.995-19.277,12.841
							c-4.537,4.692-8.313,10.215-12.036,15.563c-3.532,5.074-7.304,11.187-6.456,17.649c0.207,1.573,0.634,3.108,1.024,4.647
							c0.487,1.922,0.914,3.851,0.762,5.866c-0.174,2.31-1.541,5.352-2.935,7.174c-6.333,8.278-20.637,5.797-27.826,0.119
							C38.702,108.448,37.441,100.953,38.229,93.958z"/>
						<path id="_x34__29_" class="B4" d="M74.416,106.791c-2.75,4.75-6.984,8.113-11.353,9.31
							c-2.522,0.69-6.857-0.44-10.435-1.794c-4.338-1.641-10.137-7.524-12.259-13.107c-1.865-4.908-0.167-13.887,0.948-16.988
							c4.811-13.385,15.281-23.262,20.906-26.887c2.973-1.916,10.42-5.979,15.875-7.563c4.647-1.349,11.509-1.992,12.692-1.992
							c1.708,0,16.437,0.791,21.843,3.039c-6.727,4.19-13.624,6.994-19.277,12.84c-4.537,4.692-8.313,10.216-12.036,15.563
							c-3.532,5.074-7.304,11.187-6.456,17.649c0.207,1.573,0.634,3.108,1.024,4.647C75.735,101.79,75.801,104.399,74.416,106.791z"
							/>
						<path id="_x33__5_" class="B3" d="M73.888,91.46c-1.037,4.149-1.234,6.152-2.425,8.908
							c-2.368,5.478-6.36,10.777-12.944,10.669c-8.787-0.145-13.46-9.74-14.204-17.381c-0.915-9.395,1.198-19.328,7.35-26.684
							c6.742-8.062,16.476-14.265,26.615-16.992c5.329-1.433,11.744-2.52,17.281-2.132c5.961,0.417,11.799,1.517,17.59,2.959
							c-16.846,6.486-25.069,16.707-33.513,29.653C77.252,84.119,74.887,87.464,73.888,91.46z"/>
						<path id="_x32__29_" class="B2" d="M68.907,93.742c-2.813,6.342-7.848,18.236-14.699,7.287
							c-2.664-4.256-3.43-9.494-4.083-14.377c-1.11-8.288,2.774-17.112,6.615-24.771c6.16-5.52,13.753-9.714,21.595-11.823
							c5.329-1.433,11.744-2.52,17.281-2.132c5.961,0.417,11.799,1.517,17.59,2.959c-10.44,5.29-21.667,11.052-28.993,19.655
							C78.139,77.673,73.088,84.32,68.907,93.742z"/>
						<path id="_x31__21_" class="B1" d="M59.724,67.992c-2.574,3.701-4.463,6.896-5.833,11.195
							c-1.309,4.106-1.239,11.204,0.75,15.222c1.025,2.07,3.378,4.017,5.432,2.082c1.604-1.512,0.667-5.472,0.569-7.416
							c-0.585-11.705,9.269-31.012,9.416-31.226C70.058,57.849,61.111,65.998,59.724,67.992z"/>
						<path id="_x35__28_" class="B5 B6" d="M92.454,86.093
							c-0.833,4.813-3.689,9.24-7.238,12.521c-1.785,1.65-4.339,3.36-6.73,3.962c-3.533,0.89-7.641,0.384-11.024-0.872
							c-1.822-0.676-3.711-1.666-5.241-2.875c-5.364-4.236-6.373-10.232-5.743-15.828c0.348-3.089,2.103-16.876,14.247-25.152"/>
						<path id="_x34__28_" class="B4" d="M69.724,59.325c-0.417,0.961-1.532,2.049-2.231,3
							c-0.717,0.976-1.278,1.984-1.958,2.977c-3.95,5.767-5.476,10.748-5.602,17.598c-0.038,2.036,0.25,5.817,1.159,8.407
							c1.133,3.229,3.678,5.987,6.734,7.411c5.818,2.711,13.491,0.021,17.864-4.24c1.144-1.114,2.253-2.594,2.896-4.063
							c0.658-1.505,1.919-3.065,2.031-4.712c0.093-1.369,0.023-2.961,0.023-4.711"/>
						<path id="_x33__4_" class="B3" d="M87.891,82.117c-1.705,3.551-4.926,8.746-8.532,10.559
							c-7.197,3.618-14.379-1.772-16.367-8.807c-2.506-8.871,1.671-18.554,8.024-24.752"/>
						<path id="_x32__28_" class="B2" d="M78.474,51.117c-0.813,0.23-1.603,0.978-2.272,1.47
							c-2.621,1.926-5.281,4.321-6.834,7.226c-1.283,2.399-1.44,5.198-1.472,7.862c-0.039,3.292-0.216,8.128,2.079,10.651
							c1.07,1.177,2.958,2.167,4.667,2.333c3.829,0.374,7.51-1.371,9.068-4.781c0.4-0.875,0.71-1.861,0.885-2.808
							c0.187-1.013,0.323-2.059,0.381-3.088c0.152-2.682,0.263-5.454,1.532-7.877c0.511-0.976,1.1-1.967,1.716-2.875
							c0.521-0.766,1.252-1.623,2.126-1.989"/>
					</g>
					<g id="A_6_">
						<path id="_x35__27_" class="A5 A6" d="M137.183,78.617
							c0-2.5-0.434-5.175-1.916-7.782c-1.635-2.877-3.535-5.608-5.291-8.364c-2.32-3.643-5.255-6.894-8.75-9.452
							c-1.986-1.454-4.252-2.603-6.577-3.413c-8.746-3.047-19.146-1.937-26.615,3.706c-6.68,5.046-11.725,14.179-10.811,22.716
							c0.949,8.868,9.829,13.329,18.055,11.415c3.53-0.821,7.278-2.725,8.465-6.403c1.298-4.02,0.985-7.254-0.938-10.735
							c-0.584-1.058-2.875-3.42-4.582-4.591c4.395-3.909,13.127-3.458,16.02-2.847c4.588,0.971,7.92,3.829,11.563,6.706
							c1.819,1.437,3.7,2.783,5.534,4.201C133.134,75.158,137.183,78.617,137.183,78.617z"/>
						<path id="_x34__27_" class="A4" d="M135.183,75.367c-0.167-1.623-1.358-3.62-2.142-5.126
							c-1.352-2.599-3.058-4.898-4.434-7.512c-4.236-8.049-14.863-12.784-17.861-13.049c-9-0.796-14.036,1.813-17.563,3.484
							c-1.941,0.92-3.841,2.094-5.438,3.5c-4.063,3.578-6.322,8.145-7.176,10.22c-1.149,2.795-1.27,6.004-0.824,8.795
							c0.398,2.494,2.5,7.688,7.184,9.252c2.609,0.871,6.656,1.3,9.191,0.248c4.235-1.757,7.881-5.25,5.375-13.225
							c-1.458-4.639-6.583-6.04-10.25-3.775c-2.317,1.432-4.612,6.364-2.813,8.813c0.548,0.746,2.185,1.625,2.93,1.875
							c-1.617,0.75-2.607,0.69-4.107-0.115c-2.73-1.465-1.994-7.329-0.589-8.948c1.269-1.462,4.347-3.295,6.391-3.938
							c1.694-0.533,3.295-0.625,3.82-1.424c0.626-0.953,1.917-2.017,3.364-2.576c1.7-0.656,3.269-1.47,5.066-1.753
							c2.067-0.326,4.076-0.292,6.188-0.184c2.609,0.133,5.445,0.666,7.874,1.688c3.216,1.353,5.937,3.666,8.707,5.75
							c1.519,1.144,2.951,2.408,4.232,3.811c0.566,0.62,1.01,1.333,1.465,2.036C134.145,73.789,134.604,74.085,135.183,75.367z"/>
						<path id="_x32__27_" class="A2" d="M96.316,64.753c-0.499,0.726-3.345,0.934-4.438,1.453
							c-1.471,0.699-2.427,1.064-3.532,1.949c-0.177-7.137,10.154-12.346,15.708-13.158c3.259-0.477,8.422-0.616,11.556,0.433
							c3.449,1.155,5.49,2.479,8.032,4.405c2.325,1.762,4.402,4.363,6.281,6.656c1.469,1.792,4.781,6.875,5,8.875
							c-2.31-2.379-4.065-5.462-6.875-7.702c-3.14-2.504-7.156-5.528-10.563-6.54c-6.06-1.8-13.156-1.8-19.325,1.756L96.316,64.753z"
							/>
						<path id="_x31__20_" class="A1" d="M135.183,75.367c-1.946-2.974-4.193-5.462-7.002-7.702
							c-3.14-2.504-7.156-5.528-10.563-6.54c-6.06-1.8-13.156-1.8-19.325,1.756l-1.845,1.873c-0.499,0.726-3.651,1.122-4.744,1.642
							c-0.138-0.527,0.369-1.543,0.75-1.935c1.833-1.88,3.713-3.777,6.101-4.944c0.999-0.488,2.119-0.663,3.21-0.884
							c2.855-0.578,5.583-0.903,8.886-0.953c1.115-0.017,3.229,0.227,4.338,0.348c1.393,0.151,2.866,0.497,4.161,1.043
							c2.016,0.851,3.995,1.893,5.907,2.953c2.537,1.406,4.247,3.854,5.788,6.236c0.844,1.305,1.792,2.533,2.65,3.826
							c0.36,0.542,0.45,0.925,0.809,1.469C134.518,73.879,134.909,75.085,135.183,75.367z"/>
					</g>
				</g>
			</g>
		</g>
		<g id="&#x82B1;&#x74E3;3">
			<g>
				<path class="A5 A6" d="M94.054,114.337c-1.521-4.387,7.023-12.251,11.251-13.344
					c4.228-1.092,10.286-1.566,12.137,6.211c1.606,6.753-2.815,11.327-7.043,12.418C106.171,120.718,96.336,120.92,94.054,114.337z"
					/>
				<path class="ring3" d="M96.408,113.529c-1.217-3.509,5.619-9.801,9.001-10.675c3.382-0.873,8.229-1.253,9.709,4.969
					c1.285,5.402-2.252,9.062-5.635,9.935C106.102,118.634,98.234,118.795,96.408,113.529z"/>
			</g>
			<g>
				<path class="A5 A6" d="M84.702,125.668c-1.596-4.36,7.232-12.306,11.553-13.421
					c4.32-1.117,11.681-1.817,13.528,5.961c1.604,6.754-5.69,10.762-10.011,11.877C95.452,131.204,86.989,131.917,84.702,125.668z"/>
				<path class="ring3" d="M87.214,124.775c-1.277-3.488,5.786-9.845,9.242-10.737c3.456-0.894,9.345-1.454,10.822,4.769
					c1.283,5.403-4.552,8.609-8.009,9.502C95.813,129.203,89.043,129.774,87.214,124.775z"/>
			</g>
			<g>
				<path class="A5 A6" d="M96.308,124.179c6.307,4.236,6,12,0.657,18.758
					c-3.083,3.9-7.157,7.408-14.49,2.574c-5.795-3.82-1.825-13.138,1.5-16.832C87.127,125.175,91.475,120.932,96.308,124.179z"/>
				<path class="ring3" d="M95.1,126.431c5.046,3.39,4.8,9.601,0.525,15.007c-2.466,3.12-5.726,5.927-11.592,2.06
					c-4.636-3.057-1.459-10.511,1.2-13.466C87.755,127.228,91.233,123.833,95.1,126.431z"/>
			</g>
			<g>
				<path class="A5 A6" d="M104.199,167.759c-4.772,1.523-15.98-7.646-17.492-12.383
					c-1.513-4.734-1.304-13.545,6.958-15.998c7.173-2.131,14.913,4.697,16.31,9.467C111.586,154.349,108.972,166.234,104.199,167.759
					z"/>
				<path class="ring3" d="M103.002,164.898c-3.818,1.219-12.784-6.117-13.993-9.906c-1.21-3.787-1.043-10.836,5.566-12.799
					c5.738-1.704,11.93,3.758,13.048,7.574C108.912,154.169,106.82,163.677,103.002,164.898z"/>
			</g>
			<g>
				<path class="A5 A6" d="M125.625,172.422c-2.91,4.985-16.023,5.179-20.316,2.673
					c-4.293-2.506-9.515-7.072-4.359-15.558c4.477-7.369,12.447-5.827,16.74-3.321C121.983,158.722,128.535,167.436,125.625,172.422z
					"/>
				<path class="ring3" d="M123.015,171.019c-2.328,3.988-12.818,4.144-16.253,2.139s-7.612-5.658-3.487-12.446
					c3.582-5.896,9.958-4.661,13.392-2.657C120.102,160.059,125.343,167.031,123.015,171.019z"/>
			</g>
			<g>
				<path class="A5 A6" d="M139.642,176.451c-2.342,4.014-12.325,4.09-16.619,1.584
					c-4.293-2.504-9.837-6.613-4.566-12.625c4.75-5.418,7.707-4.174,12-1.668C134.75,166.246,141.985,172.437,139.642,176.451z"/>
				<path class="ring3" d="M137.229,175.242c-1.874,3.211-9.86,3.272-13.295,1.268c-3.435-2.003-7.87-5.291-3.653-10.1
					c3.8-4.335,6.166-3.34,9.6-1.335C133.315,167.078,139.103,172.031,137.229,175.242z"/>
			</g>
			<g>
				<path class="A5 A6" d="M205.964,118.191c2.621-7.186-7.344-13.357-12.156-14.6
					c-4.813-1.244-12.672-1.16-14.502,6.622c-1.588,6.758,5.289,10.769,10.102,12.011C194.22,123.47,203.575,124.744,205.964,118.191
					z"/>
				<path class="ring3" d="M203.318,117.175c2.097-5.748-5.875-10.686-9.725-11.68c-3.85-0.995-10.137-0.928-11.602,5.298
					c-1.27,5.406,4.231,8.615,8.082,9.608C193.923,121.399,201.407,122.417,203.318,117.175z"/>
			</g>
			<g>
				<path class="A5 A6" d="M212.854,129.357c1.759-5.404-8.344-12.592-13.156-13.836
					c-4.813-1.243-11.672-1.925-13.502,5.857c-1.588,6.758,5.289,10.77,10.101,12.012
					C201.11,134.636,210.308,137.179,212.854,129.357z"/>
				<path class="ring3" d="M210.185,128.441c1.407-4.323-6.675-10.073-10.525-11.068s-9.337-1.54-10.801,4.686
					c-1.271,5.406,4.231,8.616,8.08,9.609C200.79,132.665,208.148,134.699,210.185,128.441z"/>
			</g>
			<g>
				<path class="A5 A6" d="M201.163,126.587c-6.308,4.236-6,12-0.657,18.758
					c3.083,3.9,7.157,7.408,14.49,2.574c5.795-3.82,1.825-13.137-1.5-16.832C210.343,127.583,205.996,123.341,201.163,126.587z"/>
				<path class="ring3" d="M202.371,128.839c-5.046,3.39-4.8,9.601-0.526,15.007c2.466,3.12,5.726,5.927,11.592,2.06
					c4.636-3.057,1.46-10.51-1.2-13.466C209.715,129.636,206.237,126.243,202.371,128.839z"/>
			</g>
			<g>
				<path class="A5 A6" d="M192.497,169.919c4.427,1.414,15.091-7.93,16.603-12.666
					c1.513-4.734,1.503-13.48-6.165-15.746c-6.658-1.965-14.032,4.979-15.438,9.746C185.875,156.753,188.069,168.505,192.497,169.919
					z"/>
				<path class="ring3" d="M193.682,167.058c3.542,1.132,12.073-6.344,13.282-10.133c1.21-3.787,1.203-10.784-4.932-12.597
					c-5.327-1.571-11.226,3.983-12.35,7.797C188.384,156.526,190.14,165.927,193.682,167.058z"/>
			</g>
			<g>
				<path class="A5 A6" d="M173.079,174.943c2.343,4.014,14.791,3.066,19.084,0.561
					s9.644-6.852,5.463-13.666c-3.63-5.918-11.337-3.924-15.63-1.418C177.702,162.925,170.736,170.927,173.079,174.943z"/>
				<path class="ring3" d="M175.638,173.518c1.875,3.211,11.833,2.453,15.267,0.448c3.435-2.005,7.715-5.481,4.371-10.933
					c-2.904-4.734-9.07-3.14-12.504-1.135C179.336,163.904,173.764,170.305,175.638,173.518z"/>
			</g>
			<g>
				<path class="A5 A6" d="M157.829,177.859c2.343,4.014,14.791,3.066,19.084,0.561
					c4.293-2.504,9.644-6.852,5.463-13.666c-3.63-5.916-11.337-3.922-15.63-1.416C162.452,165.841,155.486,173.845,157.829,177.859z"
					/>
				<path class="ring3" d="M160.388,176.434c1.875,3.211,11.833,2.453,15.267,0.448c3.435-2.003,7.715-5.481,4.371-10.933
					c-2.904-4.732-9.07-3.138-12.504-1.133C164.086,166.82,158.514,173.223,160.388,176.434z"/>
			</g>
			<g>
				<path class="A5 A6" d="M149.337,167.949c4.75,0.125,9.459,3.035,10.328,4.063
					c5.625,6.652-1.705,13.41-4.453,14.188c-2.329,0.66-6.047,3.063-6.047,3.063s-4.5-2.832-7.25-3.063
					c-2.847-0.236-11.314-6.826-4.996-14.268c1.913-2.252,6.121-3.857,10.871-3.982H149.337z"/>
				<path class="ring3" d="M149.106,170.08c3.8,0.101,7.567,2.429,8.263,3.25c4.5,5.322-1.364,10.729-3.563,11.351
					c-1.863,0.528-4.837,2.45-4.837,2.45s-3.6-2.266-5.8-2.45c-2.277-0.189-9.051-5.461-3.997-11.414
					c1.53-1.802,4.896-3.086,8.697-3.187H149.106z"/>
			</g>
		</g>
		<g id="&#x82B1;&#x74E3;2">
			<g>
				<path id="_x35__14_" class="A5 A6" d="M137.181,159.248
					c4-2.884,3.484-11.198,0-14.125c-3.125-2.625-10.5-9.5-15.125-14.25c-4.116-4.228-9.25-6.625-19.125-6
					c-9.875,0.626-12.75,12.874-12.75,12.875c0,0,7.375,2.625,8.75,9c1.228,5.69,11.5,14,18.5,15.25
					C121.173,162.666,133.137,162.164,137.181,159.248z"/>
				<path id="_x34__14_" class="ring2_2" d="M94.457,137.117c1.484,0.484,3.889,2.263,4.65,2.966
					c1.525,1.409,2.588,3.254,3.756,4.906c2.309,3.268,4.243,6.618,7.969,8.472c3.521,1.751,7.055,3.159,11.003,3.159
					c7.435,0,13.019-6.381,13.278-7.723c0.296-1.536-6.313-6.908-8.006-8.314c-1.562-1.297-7.175-6.759-9.028-7.587
					c-1.808-0.809-4.1-1.772-5.997-2.254c-4.168-1.06-7.236-1.672-11.403-0.027C97.588,131.933,94.457,137.117,94.457,137.117z"/>
				<path id="_x32__14_" class="ring2_1" d="M103.306,135.248c5.125-1.125,18.75,0.375,25.5,11.5
					c1.805,2.975-11.802,2.221-12.933,1.498C111.95,145.724,105.968,140.333,103.306,135.248z"/>
			</g>
			<g>
				<path id="_x35__15_" class="A5 A6" d="M159.681,159.498
					c-4-2.884-1.519-9.38-0.25-13.75c1.191-4.105,9.25-8.75,13.875-13.5c4.116-4.228,11.059-5.77,20.934-5.145
					s12.75,12.875,12.75,12.875s-7.375,2.625-8.75,9c-1.228,5.69-12.559,12.77-19.559,14.02
					C174.938,163.666,163.724,162.414,159.681,159.498z"/>
				<path id="_x34__15_" class="ring2_2" d="M202.747,137.112c-1.078-0.078-3.179,1.565-4.005,2.165
					c-1.382,1.001-2.255,2.928-3.318,4.313c-1.105,1.438-1.861,3.171-2.936,4.656c-1.171,1.619-2.645,2.549-4.253,3.652
					c-1.568,1.076-2.851,2.503-4.653,3.188c-1.711,0.65-3.725,0.993-5.493,1.163c-3.678,0.353-8.303-0.427-11.354-2.413
					c-2.51-1.634-6.8-4.907-4.128-8.088c2.496-2.97,6.679-3.803,9.473-6.5c3.098-2.991,5.563-6.234,9.753-7.756
					c3.728-1.354,7.575-1.461,11.597-1.652c2.422-0.116,3.887,0.406,5.747,2.177C200.644,133.414,202.747,137.112,202.747,137.112z"
					/>
				<path id="_x32__15_" class="ring2_1" d="M194.806,136.623c-3.184-4.98-8.375-6.125-26.605,9.875
					c-2.615,2.295,17.98-1.125,21.321-3.98C191.51,140.818,193.806,139.373,194.806,136.623z"/>
			</g>
			<g>
				<path id="_x35__16_" class="A5 A6" d="M142.832,145.464
					c-1.751,0.707-3.475,1.506-5.122,2.309c-3.428,1.671-6.115,4.223-7.906,7.563c-1.999,3.726-2.279,7.475-0.256,11.308
					c2.204,4.178,5.574,5.3,10.034,4.848c3.701-0.376,7.638-1.94,11.122-0.871c1.88,0.577,5.816,1.784,7.654,1.722
					c3.528-0.12,7.502-2.757,8.912-4.601c1.293-1.69,1.992-3.875,2.188-5.813c0.412-4.076-1.01-6.284-3.625-9.315
					c-2.272-2.635-6.549-5.728-9.724-7.159c-1.717-0.773-7.144-1.619-7.144-1.619S144.563,144.764,142.832,145.464z"/>
				<path id="_x34__16_" class="ring2_1" d="M144.972,158.412c1.312,1.572,3.708,1.816,5.596,1.189
					c1.715-0.569,2.669-2.623,2.576-4.422c-0.082-1.572-0.441-3.025-0.922-4.5c-0.383-1.174-0.696-2.716-1.531-3.68
					c-0.974-0.181-1.727-0.299-1.727-0.299s-1.388,0.327-3.121,0.834c-1.01,1.463-1.651,3.42-2.089,5.082
					C143.203,154.706,143.54,156.695,144.972,158.412z"/>
				<path id="_x32__16_" class="ring2_2" d="M154.68,147.997c-0.803-0.362-2.617-0.743-3.989-0.997
					c0.835,0.964,1.148,2.506,1.531,3.68c0.481,1.475,0.84,2.928,0.922,4.5c0.093,1.799-0.861,3.853-2.576,4.422
					c-1.887,0.627-4.284,0.383-5.596-1.189c-1.433-1.717-1.769-3.706-1.218-5.795c0.438-1.662,1.079-3.619,2.089-5.082
					c-2.043,0.598-4.566,1.445-5.882,2.316c-2.545,1.684-7.254,8.016-5.129,13.328c1.404,3.51,3.429,5.056,6.554,4.992
					c2.975-0.061,5.099-1.69,8.009-1.867c2.063-0.125,6.383,1.694,8.216,1.402c4.097-0.652,5.745-5.465,5.659-8.09
					C163.086,154.041,157.219,149.142,154.68,147.997z"/>
			</g>
		</g>
		<g id="&#x5B50;&#x623F;">
			<g>
				<g id="_x35__19_">
					<g>
						<path class="A5" d="M155.19,76.942c-0.069-4.208-0.309-12.056-6.357-12.056c-4.258,0-5.835,4.599-6.137,8.043
							c-0.356,4.07-0.174,8.174-0.542,12.247c-0.098,1.081-0.231,2.159-0.449,3.222c-0.089,0.433-0.33,2.48-0.709,2.692
							c1.541-0.862,2.551-3.133,2.795-4.519c0.619-3.514,0.529-7,0.51-10.571c-0.012-2.192-0.088-4.8,0.858-6.834
							c1.204-2.589,4.679-3.027,6.653-1.049c1.382,1.385,1.315,5.694,1.307,7.537c-0.021,4.595-0.161,6.917,0.187,11.377
							c0.065,0.832,0.791,2.37,1.465,2.905c0.525,0.417,1.115,0.538,1.717,0.606C155.051,86.132,155.266,81.506,155.19,76.942z"/>
					</g>
					<g>
						<path class="A6" style="fill:none;" d="M155.19,76.942c-0.069-4.208-0.309-12.056-6.357-12.056
							c-4.258,0-5.835,4.599-6.137,8.043c-0.356,4.07-0.174,8.174-0.542,12.247c-0.098,1.081-0.231,2.159-0.449,3.222
							c-0.089,0.433-0.33,2.48-0.709,2.692c1.541-0.862,2.551-3.133,2.795-4.519c0.619-3.514,0.529-7,0.51-10.571
							c-0.012-2.192-0.088-4.8,0.858-6.834c1.204-2.589,4.679-3.027,6.653-1.049c1.382,1.385,1.315,5.694,1.307,7.537
							c-0.021,4.595-0.161,6.917,0.187,11.377c0.065,0.832,0.791,2.37,1.465,2.905c0.525,0.417,1.115,0.538,1.717,0.606
							C155.051,86.132,155.266,81.506,155.19,76.942z"/>
					</g>
				</g>
				<g id="_x32__17_">
					<g>
						<path class="heart_1" d="M175.811,105.815c-3.15-2.463-12.125-6.861-18.109-13.008c-0.501-0.515-0.897-1.296-1.212-2.264
							c-0.603-0.068-1.192-0.189-1.717-0.606c-0.675-0.535-1.4-2.073-1.465-2.905c-0.348-4.46-0.207-6.782-0.187-11.377
							c0.008-1.843,0.075-6.152-1.307-7.537c-1.974-1.979-5.449-1.541-6.653,1.049c-0.946,2.034-0.87,4.642-0.858,6.834
							c0.019,3.571,0.109,7.057-0.51,10.571c-0.244,1.386-1.255,3.656-2.795,4.519c-0.28,0.717-0.615,1.303-1.018,1.717
							c-5.984,6.146-14.959,10.545-18.11,13.007c-6.738,5.266-15.492,21.933,0.303,33.501c4.47,3.274,18.578,8.778,26.117,8.778
							c6.916,0,20.765-5.504,25.235-8.778C189.32,127.747,182.55,111.08,175.811,105.815z"/>
					</g>
					<g>
						<path class="heart_2 A6" style="fill:none;" d="M175.811,105.815c-3.15-2.463-12.125-6.861-18.109-13.008
							c-0.501-0.515-0.897-1.296-1.212-2.264c-0.603-0.068-1.192-0.189-1.717-0.606c-0.675-0.535-1.4-2.073-1.465-2.905
							c-0.348-4.46-0.207-6.782-0.187-11.377c0.008-1.843,0.075-6.152-1.307-7.537c-1.974-1.979-5.449-1.541-6.653,1.049
							c-0.946,2.034-0.87,4.642-0.858,6.834c0.019,3.571,0.109,7.057-0.51,10.571c-0.244,1.386-1.255,3.656-2.795,4.519
							c-0.28,0.717-0.615,1.303-1.018,1.717c-5.984,6.146-14.959,10.545-18.11,13.007c-6.738,5.266-15.492,21.933,0.303,33.501
							c4.47,3.274,18.578,8.778,26.117,8.778c6.916,0,20.765-5.504,25.235-8.778C189.32,127.747,182.55,111.08,175.811,105.815z"/>
					</g>
				</g>
			</g>
			<g>
				<path id="_x35__17_" class="A5 A6" d="M137.864,83.014
					c-0.084-0.356-0.206-0.705-0.412-1.03c-0.16-0.252-0.351-0.465-0.559-0.648c-1.339-1.013-3.569-1.026-3.569-1.026
					c1.277,0.412,2.194,1.036,2.571,1.761c0.641,1.231,0.051,2.19-0.708,3.235c-0.776,1.069-1.683,1.231-2.628,2.104
					c-1.083,0.999-1.912,1.074-2.935-0.005c-1.593-1.68-3.612-1.499-3.36-3.985c0.149-1.475,1.11-2.098,1.11-2.098
					s-2-3.333,0.898-3.935c1.24-0.257,2.644,0.098,3.852-0.315c1.276-0.436,3.643-2.068,4.953-2.477
					c3.547-1.106,7.855,2.061,7.13,6.643c-0.417,2.634-1.165,5.251-2.417,7.584c-1.184,2.206-2.726,4.018-4.52,5.75
					c-1.813,1.75-10.847,6.685-13.229,8.417c-2.166,1.575-4.976,5.151-6.437,7.916c-1.396,2.642-2.814,5.515-2.938,8.556
					c-0.128,3.159,0.7,6.569,1.914,9.406c2.361,5.516,7.142,9.675,11.5,13.625c3.475,3.149,6.125,3.873,11.873,3.501
					c0.117-0.008,0.231-0.005,0.347-0.003c-10.878-2.673-19.387-10.874-22.76-22.842c-3.127-11.092,10.984-21.594,15.298-22.975
					c6.475-2.074,17.867-17.53,11.117-25.28c-2.829-3.248-6.589-3.754-8.932-1.764c-1.619,1.375-3.547,2.263-5.113,1.975
					c-3.275-0.603-6.057,2.413-5.571,5.285c-1.7,2.155-0.89,4.707,3.238,8.537c4.128,3.829,5.504,0.479,7.811-0.958
					c0.063-0.039,0.113-0.087,0.173-0.128C136.164,87.376,138.15,85.63,137.864,83.014z"/>
				<path id="_x35__18_" class="A5 A6" d="M159.71,146.496
					c2.073-0.518,8.248-3.11,10.122-4.254c2.756-1.682,5.639-4.661,7.875-7.5c2.305-2.927,4.057-8.813,4.5-10.493
					c0.488-1.854,0.225-4.156,0.125-6.132c-0.185-3.644-2.04-7.015-4-10.125c-1.127-1.79-2.738-2.992-4.334-4.32
					c-1.822-1.518-3.39-3.049-5.583-4.022c-2.448-1.086-7.293-3.802-9.082-5.907c-1.333-1.569-4.063-5.352-4.844-7.125
					c-1.448-3.288-1.427-7.753,0.997-10.597c2.153-2.527,7.813-2.935,10.128-0.934c1.468,1.269,3.015,2.088,5.101,1.912
					c1.035-0.087,1.689-0.63,2.247,0.615c0.404,0.901-0.141,1.859,0.247,2.753c0.462,1.066,1.154,0.91,0.465,2.222
					c-0.281,0.534-0.972,1.31-1.435,1.81c-0.98,1.059-2.389,2.939-3.906,2.996c-3.729,0.141-4.156-5.529-1.677-7.029
					c-0.771,0.091-1.969,0.333-2.813,0.974c-0.207,0.182-0.396,0.395-0.555,0.645c-0.205,0.324-0.326,0.672-0.41,1.026
					c-0.29,2.617,1.698,4.364,2.301,4.829c0.061,0.04,0.111,0.089,0.174,0.128c2.307,1.437,2.727,3.23,6.855-0.599
					c4.128-3.83,4.7-5.57,3-7.726c0.486-2.872-1.103-5.142-4.378-4.539c-1.565,0.288-3.495-0.6-5.113-1.975
					c-2.341-1.99-5.611-2.867-10.198,0.637c-10.339,7.899,2.996,24.373,9.47,26.408c5.47,1.72,18.552,11.919,15.298,22.975
					c-3.659,12.434-11.961,20.984-25.101,23.213c0.329,0.167,0.664,0.324,1.023,0.381C157.341,146.92,158.698,146.748,159.71,146.496
					z"/>
				<path id="_x34__17_" class="heart_1 A6" d="M185.061,99.295
					c-3.643-4.468-11.214-7.978-14.916-8.217c-2.163-0.239-4.794-3.111-4.794-3.111s-0.068-0.047-0.174-0.128
					c-1.796-1.206-2.703-3.139-2.301-4.829c0.003-0.029,0.002-0.058,0.006-0.087c0.09-0.701,0.466-1.209,0.959-1.584
					c0.91-0.801,2.169-0.99,2.925-1.028c0.14-0.076,0.283-0.147,0.44-0.195c-0.157,0.048-0.3,0.119-0.44,0.195
					c0.385-0.02,0.648-0.002,0.648-0.002s-0.308,0.002-0.76,0.056c-2.479,1.5-2.053,7.169,1.677,7.029
					c1.517-0.057,2.925-1.938,3.906-2.996c0.462-0.5,1.154-1.275,1.435-1.81c0.689-1.312-0.003-1.155-0.465-2.222
					c-0.388-0.895,0.157-1.852-0.247-2.753c-0.558-1.245-1.212-0.702-2.247-0.615c-2.085,0.176-3.633-0.644-5.101-1.912
					c-2.314-2.001-7.975-1.593-10.128,0.934c-2.423,2.844-2.444,7.309-0.997,10.597c0.781,1.773,3.51,5.556,4.844,7.125
					c1.789,2.105,6.634,4.821,9.082,5.907c2.194,0.974,3.761,2.505,5.583,4.022c1.597,1.328,3.207,2.53,4.334,4.32
					c1.96,3.11,3.816,6.481,4,10.125c0.1,1.976,0.363,4.278-0.125,6.132c-0.443,1.681-2.195,7.566-4.5,10.493
					c-2.236,2.839-5.119,5.818-7.875,7.5c-1.874,1.144-8.048,3.736-10.122,4.254c-1.012,0.252-2.369,0.425-3.503,0.246
					c-0.359-0.057-0.694-0.214-1.023-0.381c-2.036,0.346-4.179,0.551-6.449,0.583c-2.93,0.042-5.751-0.295-8.434-0.954
					c-0.115-0.002-0.23-0.005-0.347,0.003c-5.748,0.372-8.398-0.352-11.873-3.501c-4.358-3.95-9.139-8.109-11.5-13.625
					c-1.214-2.837-2.042-6.247-1.914-9.406c0.124-3.041,1.542-5.914,2.938-8.556c1.461-2.765,4.271-6.341,6.437-7.916
					c2.382-1.732,11.417-6.667,13.229-8.417c1.794-1.732,3.336-3.544,4.52-5.75c1.253-2.333,2.001-4.95,2.417-7.584
					c0.725-4.583-3.583-7.75-7.13-6.643c-1.31,0.409-3.677,2.041-4.953,2.477c-1.208,0.413-2.611,0.058-3.852,0.315
					c-2.898,0.601-0.898,3.935-0.898,3.935s-0.961,0.623-1.11,2.098c-0.252,2.486,1.768,2.306,3.36,3.985
					c1.023,1.079,1.853,1.004,2.935,0.005c0.945-0.873,1.852-1.035,2.628-2.104c0.759-1.045,1.349-2.004,0.708-3.235
					c-0.377-0.725-1.293-1.349-2.571-1.761c0,0,2.196-0.179,3.569,1.026c0.496,0.377,0.873,0.885,0.964,1.588
					c0.004,0.031,0.003,0.061,0.006,0.091c0.4,1.689-0.507,3.621-2.302,4.825c-0.105,0.081-0.173,0.128-0.173,0.128
					s-2.63,2.872-4.794,3.111c-3.701,0.239-14.187,3.749-17.83,8.217c-5.658,6.94-11.008,17.87-3.48,33.665
					c7.527,15.796,25.948,15.432,39.627,15.433c14.665,0.001,32.101,0.363,39.629-15.433
					C196.069,117.166,190.718,106.237,185.061,99.295z"/>
			</g>
		</g>
		<g id="&#x82B1;&#x854A;_1_">
			<path class="bud A6" d="M140.729,115.414c-2.194,0.591-5.006,5.181,0.898,9.046
				c3.797,2.485,5.248,10.909,3.797,11.807c-1.45,0.897,0.345,2.555,1.519,1.302c0.84-0.898,1.381-7.378-0.276-10.209
				s-6.947-6.218-5.773-7.805c1.174-1.589,1.286-0.066,1.838-1.586C143.396,116.141,141.512,115.203,140.729,115.414z"/>
			<path class="bud A6" d="M135.299,116.91c-2.194,0.591-5.007,5.18,0.897,9.045
				c3.797,2.485,5.248,10.909,3.797,11.807c-1.45,0.898,0.345,2.556,1.519,1.302c0.84-0.897,1.381-7.378-0.276-10.208
				c-1.657-2.832-6.947-6.218-5.773-7.806c1.173-1.588,1.286-0.066,1.838-1.585C137.965,117.636,136.082,116.698,135.299,116.91z"/>
			<path class="bud A6" d="M123.329,122.801c0.005-0.674,0.207-2.14,1.726-2.071
				c1.519,0.069,1.519,1.175,1.45,2.141c-0.069,0.967-0.644,3.102,0.421,5.662c0.891,2.141,2.747,4.776,4.619,6.836
				c2.106,2.317,3.551,4.478,4.972,4.833c3.038,0.76-0.13,3.38-0.504,2.529c-0.808-1.839-6.452-7.112-7.919-8.743
				C125.449,131.049,123.307,125.702,123.329,122.801z"/>
			<path class="bud A6" d="M129.474,123.699c0,0-2.21-2.83-0.76-3.521
				c1.45-0.69,2.668,1.478,2.762,1.622c1.194,1.853,5.507,8.803,6.624,16.219c0.557,3.702-0.279,3.086-0.279,3.086l-1.167,0.201
				c0.001,0.026-0.699-8.446-2.762-11.052C131.967,127.823,129.474,123.699,129.474,123.699z"/>
			<path class="bud A6" d="M152.188,114.469c2.194,0.591,3.732,6.259-0.204,9.782
				c-3.978,3.562-5.041,11.601-3.591,12.498s-0.345,2.555-1.519,1.301c-0.84-0.896-1.381-7.377,0.276-10.208
				c1.657-2.831,6.047-7.645,4.873-9.232c-1.173-1.589-1.286-0.066-1.838-1.586C149.521,115.197,151.404,114.258,152.188,114.469z"/>
			<path class="bud A6" d="M157.618,115.964c2.194,0.592,5.007,5.181-0.897,9.046
				c-3.798,2.485-5.248,10.909-3.798,11.807c1.45,0.898-0.345,2.555-1.519,1.302c-0.84-0.898-1.381-7.377,0.276-10.209
				c1.657-2.831,6.947-6.218,5.774-7.805c-1.174-1.589-1.286-0.066-1.838-1.586C154.951,116.692,156.834,115.754,157.618,115.964z"/>
			<path class="bud A6" d="M174.623,122.006c-0.005-0.675-0.207-2.141-1.726-2.071
				c-1.519,0.068-1.519,1.173-1.45,2.141c0.069,0.966,0.644,3.101-0.421,5.661c-0.891,2.141-2.747,4.776-4.619,6.836
				c-2.106,2.317-3.55,4.478-4.972,4.833c-3.038,0.76,0.13,3.379,0.504,2.528c0.808-1.838,6.452-7.111,7.92-8.742
				C172.503,130.254,174.645,124.906,174.623,122.006z"/>
			<path class="bud A6" d="M168.478,122.904c0,0,2.209-2.831,0.76-3.521
				c-1.45-0.69-2.668,1.478-2.762,1.622c-1.194,1.853-5.507,8.803-6.624,16.219c-0.558,3.701,0.278,3.086,0.278,3.086l1.167,0.201
				c0,0.026,0.699-8.446,2.762-11.052C165.985,127.027,168.478,122.904,168.478,122.904z"/>
			<path class="bud A6" d="M162.647,116.91c2.194,0.591,5.008,5.18-0.897,9.045
				c-3.798,2.485-5.248,10.909-3.798,11.807c1.45,0.898-0.345,2.556-1.519,1.302c-0.84-0.897-1.381-7.378,0.276-10.208
				c1.657-2.832,6.947-6.218,5.774-7.806c-1.174-1.588-1.286-0.066-1.838-1.585C159.98,117.636,161.863,116.698,162.647,116.91z"/>
		</g>
		<g id="&#x82B1;&#x74E3;1">
			<g>
				<path class="ring1_2 A6" d="M153.802,147.675c0,0,8.5-3.189,12.333-6.189
					c2.271-1.777,8.479-5.666,10.669-10.182c1.193-2.463,3.145-4.235,5.061-4.545c1.844-0.298,2.75,1.893,2.75,1.893
					s2.75-7.333,7.25-4.333s-5.146,17.499-13.092,22.003C171.07,150.687,153.802,147.675,153.802,147.675z"/>
				<path class="ring1_1" d="M165.718,148.444c4.653,0.008,9.627-0.519,12.888-2.366c1.133-0.643,2.301-1.488,3.457-2.475
					c0,0,1.616-2.262-0.753-3.103c-1.263-0.448-4.673,2.381-6.092,3.491C173.301,145.492,165.718,148.444,165.718,148.444z"/>
			</g>
			<g>
				<path class="ring1_2 A6" d="M144.635,147.431c0,0-12.75-4.939-16.417-8.272
					c-2.134-1.939-5.333-5.083-7.522-9.599c-1.194-2.463-3.145-4.234-5.061-4.545c-1.844-0.297-2.75,1.893-2.75,1.893
					s-2.75-7.332-7.25-4.332s2.417,15.199,9.614,20.357C124.051,149.242,144.635,147.431,144.635,147.431z"/>
				<path class="ring1_1" d="M133.635,147.672c0,0-5.572-1.844-9.833-4.362c-3.5-2.068-5.417-4.902-7.917-4.985
					s-3.145,0.259-3.25,0.917C111.718,144.992,133.635,147.672,133.635,147.672z"/>
			</g>
			<g>
				<path class="ring1_2 A6" d="M142.885,137.653c0,0-1.496-1.38-3.905-1.335
					c-4.902,0.134-4.483,4.994-4.221,6.466c0.167,1.112,1.5,7.397,12.779,7.376c12.224-0.023,14.013-6.688,14.013-8.334
					c0-2.805-2.143-3.515-3.495-3.836c-2.674-0.636-5.531-0.203-5.531-0.203s-2.182-1.87-4.705-1.959
					C145.294,135.739,142.885,137.653,142.885,137.653z"/>
				<path class="ring1_1" d="M147.539,150.478c-3.365,0-6.979-6.495,0.473-6.486
					C153.549,143.999,152.788,150.478,147.539,150.478z"/>
			</g>
		</g>
	</g>
</svg>