<?xml version="1.0" encoding="utf-8"?>
<!-- Generator: Adobe Illustrator 16.0.2, SVG Export Plug-In . SVG Version: 6.00 Build 0)  -->
<!DOCTYPE svg PUBLIC "-//W3C//DTD SVG 1.1//EN" "http://www.w3.org/Graphics/SVG/1.1/DTD/svg11.dtd" [
	<!ENTITY st0 "fill:#484A6B;">
	<!ENTITY st1 "fill:#C4C8CE;stroke:#000000;stroke-miterlimit:10;">
	<!ENTITY st2 "fill:#ACBCBD;">
	<!ENTITY st3 "fill:#FFFFFF;stroke:#000000;stroke-miterlimit:10;">
	<!ENTITY st4 "fill:#E18261;">
	<!ENTITY st5 "fill:#869BC7;">
	<!ENTITY st6 "fill:#86C23B;">
	<!ENTITY st7 "fill:#EC6423;">
	<!ENTITY st8 "fill:#899DA9;">
	<!ENTITY st9 "fill:#545276;">
	<!ENTITY st10 "fill:#F7E980;stroke:#000000;stroke-miterlimit:10;">
	<!ENTITY st11 "fill:#F2EE6C;stroke:#000000;stroke-miterlimit:10;">
	<!ENTITY st12 "fill:#F7E980;">
	<!ENTITY st13 "fill:#5D6063;">
	<!ENTITY st14 "fill:none;stroke:#000000;stroke-miterlimit:10;">
	<!ENTITY st15 "fill:#FFFFFF;">
	<!ENTITY st16 "fill:#F7F5F1;stroke:#000000;stroke-miterlimit:10;">
	<!ENTITY st17 "fill:#9E4A52;">
	<!ENTITY st18 "fill:#9EB0C8;">
	<!ENTITY st19 "fill:#6E86B1;">
	<!ENTITY st20 "fill:#D26E62;">
	<!ENTITY st21 "display:none;">
	<!ENTITY st22 "fill:#A3B4B2;">
	<!ENTITY st23 "fill:#778581;">
	<!ENTITY st24 "fill:#3A7C38;stroke:#000000;stroke-miterlimit:10;">
]>
<svg version="1.1" xmlns="http://www.w3.org/2000/svg" xmlns:xlink="http://www.w3.org/1999/xlink" x="0px" y="0px"
	 width="297.58px" height="297.294px" viewBox="0 0 297.58 297.294" style="enable-background:new 0 0 297.58 297.294;"
	 xml:space="preserve">
<g id="IMAGE" style="&st21;">
	
		<image style="display:inline;overflow:visible;" width="1426" height="1044" xlink:href="../CA753F7.jpeg"  transform="matrix(0.2086 0 0 0.2084 0 17)">
	</image>
</g>
<g id="海石榴華">
	<g id="invisible">
		<circle id="boundingCircle" style="&st19;" cx="148.932" cy="148.648" r="148.648"/>
	</g>
	<g id="花柱">
		<g>
			<path style="&st16;" d="M140.282,49.544c0,0-2.25-3.875-5.875-3.75c-7.375,0.375-8.895,8.869-8.5,13
				c0.25,3.125,4.4,27.145,21.375,25.875c18.375-1.375,22.086-18.25,22.086-22.875c0-7.875-4.228-10.402-6.263-11.305
				c-4.023-1.783-8.323-0.57-8.323-0.57s-3.281-5.25-7.078-5.5S140.282,49.544,140.282,49.544z"/>
			<path style="&st2;" d="M140.644,53.058c-0.024-0.926,1.438-4.175,6.964-4.175c3.723,0,5.299,3.817,5.299,3.817
				s2.281-0.621,2.799-0.642c1.092-0.044,2.002,0.15,3,0.5c1.972,0.691,3.718,1.61,4.688,3.563c1.416,2.851,1.566,1.822,1.182,5.625
				c-0.106,1.053-2.796,9.858-4.009,11.688c-1.018,1.535-5.923,6.438-9.239,7.186c-1.865,0.421-3.993,0.591-5.934,0.203
				c-1.999-0.399-7.631-3.52-10.001-5.89c-1.874-1.874-2.813-3.183-3.686-5.499c-0.71-1.885-2.191-5.961-2.311-8
				c-0.073-1.246-0.291-7.347,0.639-8.936c0.993-1.696,3.084-2.636,5.047-2.439C135.914,50.141,139.082,51.183,140.644,53.058z"/>
			<path style="&st23;" d="M142.828,59.182c0.761-0.559,1.617-0.978,2.41-1.183c1.201-0.311,3.006-0.088,4.199,0.201
				c1.175,0.284,2.199,0.886,3.063,1.726c1.625,1.578,2.905,3.748,3.582,5.902c0.755,2.401,1.473,6.21,0.273,8.572
				c-1.354,2.668-4.069,4.78-7.114,4.787c-2.012,0.004-4.999-0.78-6.32-2.195c-2.078-2.227-3.032-5.499-3.205-8.695
				c-0.11-2.038,0.32-4.559,0.995-6.489C141.061,60.81,141.87,59.886,142.828,59.182z"/>
		</g>
	</g>
	<g id="花瓣4">
		<g id="下">
			<g id="花瓣_2_">
				<g>
					<path style="&st1;" d="M221.654,172.538c-2.196-16.019-29.779-26.115-47.234-24.857c-16.941,1.22-40.407,10.212-51.691,22.688
						c0,0,36.295,18.041,39.787,36.298c1.104,5.775,4.91,10.67,7.394,15.995c0.231,0.497,8.436-0.295,13.913-4.958
						c9.478-8.068,18.435-13.729,25.281-19.278c-4.699-6.438-8.811-13.219-10.397-21.683c1.587,8.464,5.698,15.244,10.397,21.683
						C217.941,191.26,223.264,184.279,221.654,172.538z"/>
					<path style="&st22;" d="M198.707,176.742c1.313,7.004,4.351,12.857,8.023,18.317c0.531-0.552,0.902-0.979,1.025-1.203
						c2.842-5.201,4.541-11.428,3.811-17.53c-1.184-9.885-13.766-18.253-25.918-19.755c-14.489-1.791-25.354-0.281-41.508,8.37
						c-4.466,2.393-8.892,4.949-11.567,8.569c6.048,1.022,8.746,0.103,13.998,2.152c5.761,2.249,15.423,9.826,18.469,14.256
						c5.999,8.72,5.031,15.079,10.299,24.259c2.268,3.955,6.509,0.704,13.958-4.505c6.232-4.356,14.532-11.597,17.435-14.613
						C203.058,189.599,200.02,183.746,198.707,176.742z"/>
					<path style="&st8;" d="M198.707,176.742c0.519,2.768,1.321,5.346,2.312,7.8c0.938-5.484-0.055-11.05-4.244-15.939
						c-5.279-6.16-13.451-9.092-21.193-9.185c-7.829-0.095-15.044,1.741-22.102,4.869c-3.883,1.722-8.239,4.671-12.389,5.615
						c0,0,4.672-1.067,10.483,0.703c5.543,1.691,11.939,7.304,15.183,10.947c7.674,8.637,6.698,21.182,11.695,31.144
						c0.811,0.291,5.524-4.202,6.263-4.772c2.809-2.162,5.502-4.441,7.877-7.021c1.956-2.122,3.697-4.447,5.107-7.075
						c1.594-2.97,2.777-6.114,3.319-9.285C200.028,182.087,199.226,179.509,198.707,176.742z"/>
					<path style="&st13;" d="M186.623,177.992c-2.021-2.779-8.667-11.5-33.414-9.5c14.497,3,18.934,4.229,24.497,11.5
						c6.573,8.589,5,21.25,1.299,30.946c4.201-4.196,8.817-17.742,8.992-20.446C188.02,190.148,190.418,183.207,186.623,177.992z"/>
				</g>
				<g>
					<path style="&st3;" d="M155.015,199.061c-1.346,1.696-2.699,4.09-3.082,6.282c-0.565,3.245,0.141,6.945,1.464,9.955
						c0.712,1.621,1.706,3.289,2.871,4.621c4.083,4.672,9.449,5.313,14.359,4.487c1.824-0.308,10.116-4.552,15.535-10.308
						c5.108-5.426,7.542-13.062,7.324-14.722c-0.633-4.825-10.417-11.75-21.693-9.707
						C167.624,190.664,157.677,195.717,155.015,199.061z"/>
					<path style="&st4;" d="M162.056,195.634c-1.26,0.649-2.5,1.723-3.412,2.813c-3.495,4.156-5.392,11.234-2.63,16.387
						c1.452,2.705,4.05,4.888,6.978,5.768c2.346,0.706,5.708,0.795,7.508,0.669c4.935-0.348,8.816-2.25,12.339-5.181
						c1.966-1.633,9.561-13.445,7.263-17.456c-3.939-6.874-11.264-7.87-19.204-7.146
						C169.468,191.619,163.324,194.982,162.056,195.634z"/>
					<path style="&st20;" d="M160.409,204.102c-2.748,6.689,2.47,12.956,8.816,14.438c4.486,1.048,9.001,0.267,12.402-2.697
						c3.259-2.842,5.417-12.176,2.708-17.21c-3.669-6.82-9.602-6.361-17.124-1.521C164.504,198.901,161.503,201.439,160.409,204.102
						z"/>
					<path style="&st17;" d="M169.667,198.742c-5.17,2.816-4.819,7.164-4.249,10.618c0.255,1.542,1.335,4.229,4.203,5.547
						c2.904,1.336,6.224,0.905,9.134,0.721c0.589-0.037,3.467-2.613,3.925-3.939c1.582-4.589,0.568-8.832-1.257-10.955
						C179.362,198.335,174.741,195.976,169.667,198.742z"/>
				</g>
				<g>
					<path style="&st16;" d="M185.571,186.081c-1.641-0.136-3.254-0.523-4.871-0.87c-2.018-0.434-4.04-0.799-6.113-0.491
						c-2.375,0.349-5.432,2.116-7.226,3.834c-8.148,7.806-4.66,24.054,1.672,31.929c5.907,7.346,13.736,8.302,20.916,6.943
						c3.963-0.751,7.728-2.206,10.863-3.687c6.608-3.124,12.255-7.744,16.706-12.432c-6.748-9.785-14.535-18.669-17.858-30.689
						C195.465,183.845,190.711,186.5,185.571,186.081z"/>
					<path style="&st4;" d="M185.683,186.667c-1.639-0.133-3.254-0.524-4.87-0.87c-0.281,0.196-2.983,0.291-5.365,2.035
						c-4.732,3.466-7.936,8.543-8.891,13.63c-0.551,2.938,0.897,7.838,2.528,11.855c1.976,4.869,8.433,11.136,14.34,13.205
						c5.194,1.819,14.365-0.715,17.5-2.195c6.691-3.163,12.4-7.859,16.876-12.607c-6.708-9.799-14.527-18.644-17.983-30.552
						C195.613,184.414,190.843,187.091,185.683,186.667z"/>
					<path style="&st20;" d="M191.327,187.436c-4.221,1.462-6.278,1.819-9.05,3.366c-5.509,3.073-10.731,7.998-10.194,15.546
						c0.717,10.07,10.937,14.803,18.883,15.158c9.628,0.429,19.601-2.558,26.786-9.857c-6.543-9.545-14.135-18.189-17.697-29.659
						C197.266,184.269,194.533,186.328,191.327,187.436z"/>
					<path style="&st17;" d="M189.292,193.299c-6.375,3.642-18.344,10.194-6.584,17.338c4.572,2.779,10.035,3.313,15.125,3.745
						c6.151,0.521,12.417-1.883,18.285-5.08c-5.53-7.792-11.489-15.18-15.006-24.269
						C197.586,187.998,193.767,190.741,189.292,193.299z"/>
					<path style="&st0;" d="M193.551,201.396c-2.017,0.014-6.169-0.801-7.63,1.137c-1.866,2.481,0.298,5.054,2.504,6.095
						c4.28,2.021,11.621,1.636,15.782-0.135c3.024-1.285,5.482-2.832,7.926-4.722c-1.44-1.993-2.86-3.997-4.217-6.038
						C203.002,199.777,197.831,201.363,193.551,201.396z"/>
				</g>
				<g>
					<path style="&st3;" d="M187.869,188.446c-1.823,2.155-3.654,5.2-4.171,7.99c-0.766,4.127,0.19,8.835,1.981,12.663
						c0.964,2.063,2.31,4.184,3.887,5.878c5.529,5.943,12.794,6.759,19.441,5.71c2.469-0.391,13.697-5.79,21.033-13.112
						c6.917-6.903,10.211-16.618,9.917-18.728c-0.857-6.139-14.104-14.946-29.37-12.35
						C204.941,177.76,191.473,184.192,187.869,188.446z"/>
					<path style="&st4;" d="M197.402,184.085c-1.706,0.825-3.384,2.19-4.62,3.576c-4.731,5.287-7.299,14.291-3.56,20.845
						c1.966,3.443,5.484,6.218,9.447,7.338c3.177,0.898,7.729,1.013,10.165,0.853c6.683-0.443,11.936-2.864,16.706-6.591
						c2.662-2.079,12.945-17.104,9.833-22.206c-5.333-8.744-15.25-10.01-26-9.09C207.438,178.975,199.119,183.254,197.402,184.085z"
						/>
					<path style="&st20;" d="M195.172,194.859c-3.722,8.507,3.344,16.48,11.937,18.365c6.073,1.332,12.187,0.34,16.791-3.433
						c4.413-3.614,7.333-15.487,3.667-21.892c-4.967-8.677-13-8.093-23.183-1.936C200.716,188.239,196.654,191.468,195.172,194.859z
						"/>
					<path style="&st17;" d="M207.707,188.037c-7,3.583-6.524,9.115-5.751,13.509c0.346,1.961,1.807,5.377,5.689,7.056
						c3.932,1.699,8.427,1.152,12.368,0.917c0.798-0.048,4.694-3.324,5.313-5.013c2.141-5.836,0.77-11.234-1.702-13.936
						C220.833,187.521,214.577,184.52,207.707,188.037z"/>
				</g>
				<g>
					<path style="&st3;" d="M168.685,148.353c-0.313-0.062,12.722-0.874,14.898-1.038c13.28-0.994,21.19-1.25,34.312,1.012
						c10.375,1.79,19.861,8.834,23.756,18.924c3.482,9.024,2.907,21.367-3.129,29.717c-6.269,8.672-17.626,8.276-24.506,1.629
						c-2.953-2.853-5.465-6.952-4.409-11.445c1.155-4.909,3.409-8.091,7.383-10.618c1.208-0.767,3.22-2.041,5.592-2.29
						c-1.936-6.549-3.309-11.158-9.125-13.537C205.159,157.312,185.36,151.621,168.685,148.353z"/>
					<path style="&st18;" d="M173.429,148.157c13.063-2.823,35.753-1.563,45.503,1.54c9.745,3.101,14.067,9.361,16.503,13.097
						c1.341,2.055,2.489,4.349,3.201,6.714c1.812,6.017,1.267,12.039,0.85,14.68c-0.561,3.554-2.377,6.955-4.494,9.602
						c-1.891,2.363-7.072,6.568-12.589,5.541c-3.072-0.574-7.282-2.42-9.124-4.949c-3.077-4.225-1.51-9.32,1.76-13.794
						c2.861-3.914,11.025-5.529,13.242-1.101c1.4,2.798,0.67,9.221-2.563,10.745c-0.984,0.465-3.112,0.45-3.99,0.288
						c1.127,1.695,2.13,2.192,4.08,2.206c3.549,0.026,6.362-6.481,5.964-8.958c-0.358-2.237-2.259-5.884-3.869-7.71
						c-1.333-1.513-5.323-1.814-5.323-1.814s0.202-3.915-0.875-5.313c-1.263-1.646-1.634-3.177-3.217-4.489
						c-1.822-1.509-2.906-2.65-5.033-3.734c-0.606-0.31-5.608-3.22-8.754-3.55C200.748,156.739,176.936,149.169,173.429,148.157z"/>
					<path style="&st19;" d="M222.531,174.526c2.333,0.483,6.844,2.782,7.598,3.942c1.015,1.558,1.099,3.754,1.645,5.299
						c4.471-7.311-1.848-19.848-6.782-23.839c-2.895-2.34-7.852-5.409-11.544-6.095c-4.064-0.754-37.323-6.24-38.741-4.287
						c2.918,0.921,15.531,3.689,20.192,4.945c4.395,1.184,9.567,2.636,13.287,4.194C223.832,165.242,221.94,171.46,222.531,174.526z
						"/>
					<path style="&st9;" d="M194.899,154.492c2.277,0.55,10.228,2.785,14.058,4.042c6.521,2.14,12.667,8.209,13.375,13.209
						l1.042,2.833c2.167,0.483,4.619,1.828,7,4.833c0.453-0.47,0.618-2.557,0.48-3.179c-0.701-3.193-1.046-5.549-2.979-8.59
						c-0.681-1.072-1.668-1.89-2.602-2.738c-2.44-2.217-4.908-4.1-8.103-6.021c-1.08-0.649-3.289-1.594-4.445-2.096
						c-0.846-0.37-26.632-8.162-38.018-7.238C179.964,150.542,192.343,153.875,194.899,154.492z"/>
				</g>
			</g>
			<g id="花瓣_3_">
				<g>
					<path style="&st1;" d="M75.867,171.538c2.196-16.019,29.779-26.115,47.234-24.857c16.941,1.22,40.407,10.212,51.691,22.688
						c0,0-36.295,18.041-39.787,36.298c-1.104,5.775-4.91,10.67-7.394,15.995c-0.231,0.497-8.436-0.295-13.913-4.958
						c-9.478-8.068-18.435-13.729-25.281-19.278c4.699-6.438,8.811-13.219,10.397-21.683c-1.587,8.464-5.698,15.244-10.397,21.683
						C79.581,190.26,74.258,183.279,75.867,171.538z"/>
					<path style="&st22;" d="M98.815,175.742c-1.313,7.004-4.351,12.857-8.023,18.317c-0.531-0.552-0.902-0.979-1.025-1.203
						c-2.842-5.201-4.541-11.428-3.811-17.53c1.184-9.885,13.766-18.253,25.918-19.755c14.489-1.791,25.354-0.281,41.508,8.37
						c4.466,2.393,8.892,4.949,11.567,8.569c-6.048,1.022-8.746,0.103-13.998,2.152c-5.761,2.249-15.423,9.826-18.469,14.256
						c-5.999,8.72-5.031,15.079-10.299,24.259c-2.268,3.955-6.509,0.704-13.958-4.505c-6.232-4.356-14.532-11.597-17.435-14.613
						C94.464,188.599,97.501,182.746,98.815,175.742z"/>
					<path style="&st8;" d="M98.815,175.742c-0.519,2.768-1.321,5.346-2.312,7.8c-0.938-5.484,0.055-11.05,4.244-15.939
						c5.279-6.16,13.451-9.092,21.193-9.185c7.829-0.095,15.044,1.741,22.102,4.869c3.883,1.722,8.239,4.671,12.389,5.615
						c0,0-4.672-1.067-10.483,0.703c-5.543,1.691-11.939,7.304-15.183,10.947c-7.674,8.637-6.698,21.182-11.695,31.144
						c-0.811,0.291-5.524-4.202-6.263-4.772c-2.809-2.162-5.502-4.441-7.877-7.021c-1.956-2.122-3.697-4.447-5.107-7.075
						c-1.594-2.97-2.777-6.114-3.319-9.285C97.494,181.087,98.296,178.509,98.815,175.742z"/>
					<path style="&st13;" d="M110.898,176.992c2.021-2.779,8.667-11.5,33.414-9.5c-14.497,3-18.934,4.229-24.497,11.5
						c-6.573,8.589-5,21.25-1.299,30.946c-4.201-4.196-8.817-17.742-8.992-20.446C109.501,189.148,107.104,182.207,110.898,176.992z
						"/>
				</g>
				<g>
					<path style="&st3;" d="M142.507,198.061c1.346,1.696,2.699,4.09,3.082,6.282c0.565,3.245-0.141,6.945-1.464,9.955
						c-0.712,1.621-1.706,3.289-2.871,4.621c-4.083,4.672-9.449,5.313-14.359,4.487c-1.824-0.308-10.116-4.552-15.535-10.308
						c-5.108-5.426-7.542-13.062-7.324-14.722c0.633-4.825,10.417-11.75,21.693-9.707
						C129.897,189.664,139.845,194.717,142.507,198.061z"/>
					<path style="&st4;" d="M135.465,194.634c1.26,0.649,2.5,1.723,3.412,2.813c3.495,4.156,5.392,11.234,2.63,16.387
						c-1.452,2.705-4.05,4.888-6.978,5.768c-2.346,0.706-5.708,0.795-7.508,0.669c-4.935-0.348-8.816-2.25-12.339-5.181
						c-1.966-1.633-9.561-13.445-7.263-17.456c3.939-6.874,11.264-7.87,19.204-7.146
						C128.053,190.619,134.197,193.982,135.465,194.634z"/>
					<path style="&st20;" d="M137.113,203.102c2.748,6.689-2.47,12.956-8.816,14.438c-4.486,1.048-9.001,0.267-12.402-2.697
						c-3.259-2.842-5.417-12.176-2.708-17.21c3.669-6.82,9.602-6.361,17.124-1.521C133.018,197.901,136.018,200.439,137.113,203.102
						z"/>
					<path style="&st17;" d="M127.854,197.742c5.17,2.816,4.819,7.164,4.249,10.618c-0.255,1.542-1.335,4.229-4.203,5.547
						c-2.904,1.336-6.224,0.905-9.134,0.721c-0.589-0.037-3.467-2.613-3.925-3.939c-1.582-4.589-0.568-8.832,1.257-10.955
						C118.16,197.335,122.78,194.976,127.854,197.742z"/>
				</g>
				<g>
					<path style="&st16;" d="M111.95,185.081c1.641-0.136,3.254-0.523,4.871-0.87c2.018-0.434,4.04-0.799,6.113-0.491
						c2.375,0.349,5.432,2.116,7.226,3.834c8.148,7.806,4.66,24.054-1.672,31.929c-5.907,7.346-13.736,8.302-20.916,6.943
						c-3.963-0.751-7.728-2.206-10.863-3.687c-6.608-3.124-12.255-7.744-16.706-12.432c6.748-9.785,14.535-18.669,17.858-30.689
						C102.056,182.845,106.81,185.5,111.95,185.081z"/>
					<path style="&st4;" d="M111.838,185.667c1.639-0.133,3.254-0.524,4.87-0.87c0.281,0.196,2.983,0.291,5.365,2.035
						c4.732,3.466,7.936,8.543,8.891,13.63c0.551,2.938-0.897,7.838-2.528,11.855c-1.976,4.869-8.433,11.136-14.34,13.205
						c-5.194,1.819-14.365-0.715-17.5-2.195c-6.691-3.163-12.4-7.859-16.876-12.607c6.708-9.799,14.527-18.644,17.983-30.552
						C101.909,183.414,106.679,186.091,111.838,185.667z"/>
					<path style="&st20;" d="M106.194,186.436c4.221,1.462,6.278,1.819,9.05,3.366c5.509,3.073,10.731,7.998,10.194,15.546
						c-0.717,10.07-10.937,14.803-18.883,15.158c-9.628,0.429-19.601-2.558-26.786-9.857c6.543-9.545,14.135-18.189,17.697-29.659
						C100.256,183.269,102.989,185.328,106.194,186.436z"/>
					<path style="&st17;" d="M108.23,192.299c6.375,3.642,18.344,10.194,6.584,17.338c-4.572,2.779-10.035,3.313-15.125,3.745
						c-6.151,0.521-12.417-1.883-18.285-5.08c5.53-7.792,11.489-15.18,15.006-24.269C99.935,186.998,103.754,189.741,108.23,192.299
						z"/>
					<path style="&st0;" d="M103.971,200.396c2.017,0.014,6.169-0.801,7.63,1.137c1.866,2.481-0.298,5.054-2.504,6.095
						c-4.28,2.021-11.621,1.636-15.782-0.135c-3.024-1.285-5.482-2.832-7.926-4.722c1.44-1.993,2.86-3.997,4.217-6.038
						C94.519,198.777,99.691,200.363,103.971,200.396z"/>
				</g>
				<g>
					<path style="&st3;" d="M109.653,187.446c1.823,2.155,3.654,5.2,4.171,7.99c0.766,4.127-0.19,8.835-1.981,12.663
						c-0.964,2.063-2.31,4.184-3.887,5.878c-5.529,5.943-12.794,6.759-19.441,5.71c-2.469-0.391-13.697-5.79-21.033-13.112
						c-6.917-6.903-10.211-16.618-9.917-18.728c0.857-6.139,14.104-14.946,29.37-12.35
						C92.581,176.76,106.048,183.192,109.653,187.446z"/>
					<path style="&st4;" d="M100.119,183.085c1.706,0.825,3.384,2.19,4.62,3.576c4.731,5.287,7.299,14.291,3.56,20.845
						c-1.966,3.443-5.484,6.218-9.447,7.338c-3.177,0.898-7.729,1.013-10.165,0.853c-6.683-0.443-11.936-2.864-16.706-6.591
						c-2.662-2.079-12.945-17.104-9.833-22.206c5.333-8.744,15.25-10.01,26-9.09C90.083,177.975,98.402,182.254,100.119,183.085z"/>
					<path style="&st20;" d="M102.349,193.859c3.722,8.507-3.344,16.48-11.937,18.365c-6.073,1.332-12.187,0.34-16.791-3.433
						c-4.413-3.614-7.333-15.487-3.667-21.892c4.967-8.677,13-8.093,23.183-1.936C96.805,187.239,100.867,190.468,102.349,193.859z"
						/>
					<path style="&st17;" d="M89.815,187.037c7,3.583,6.524,9.115,5.751,13.509c-0.346,1.961-1.807,5.377-5.689,7.056
						c-3.932,1.699-8.427,1.152-12.368,0.917c-0.798-0.048-4.694-3.324-5.313-5.013c-2.141-5.836-0.77-11.234,1.702-13.936
						C76.689,186.521,82.944,183.52,89.815,187.037z"/>
				</g>
				<g>
					<path style="&st3;" d="M128.837,147.353c0.313-0.062-12.722-0.874-14.898-1.038c-13.28-0.994-21.19-1.25-34.312,1.012
						c-10.375,1.79-19.861,8.834-23.756,18.924c-3.482,9.024-2.907,21.367,3.129,29.717c6.269,8.672,17.626,8.276,24.506,1.629
						c2.953-2.853,5.465-6.952,4.409-11.445c-1.155-4.909-3.409-8.091-7.383-10.618c-1.208-0.767-3.22-2.041-5.592-2.29
						c1.936-6.549,3.309-11.158,9.125-13.537C92.362,156.312,112.162,150.621,128.837,147.353z"/>
					<path style="&st18;" d="M124.092,147.157c-13.063-2.823-35.753-1.563-45.503,1.54c-9.745,3.101-14.067,9.361-16.503,13.097
						c-1.341,2.055-2.489,4.349-3.201,6.714c-1.812,6.017-1.267,12.039-0.85,14.68c0.561,3.554,2.377,6.955,4.494,9.602
						c1.891,2.363,7.072,6.568,12.589,5.541c3.072-0.574,7.282-2.42,9.124-4.949c3.077-4.225,1.51-9.32-1.76-13.794
						c-2.861-3.914-11.025-5.529-13.242-1.101c-1.4,2.798-0.67,9.221,2.563,10.745c0.984,0.465,3.112,0.45,3.99,0.288
						c-1.127,1.695-2.13,2.192-4.08,2.206c-3.549,0.026-6.362-6.481-5.964-8.958c0.358-2.237,2.259-5.884,3.869-7.71
						c1.333-1.513,5.323-1.814,5.323-1.814s-0.202-3.915,0.875-5.313c1.263-1.646,1.634-3.177,3.217-4.489
						c1.822-1.509,2.906-2.65,5.033-3.734c0.606-0.31,5.608-3.22,8.754-3.55C96.773,155.739,120.585,148.169,124.092,147.157z"/>
					<path style="&st19;" d="M74.99,173.526c-2.333,0.483-6.844,2.782-7.598,3.942c-1.015,1.558-1.099,3.754-1.645,5.299
						c-4.471-7.311,1.848-19.848,6.782-23.839c2.895-2.34,7.852-5.409,11.544-6.095c4.064-0.754,37.323-6.24,38.741-4.287
						c-2.918,0.921-15.531,3.689-20.192,4.945c-4.395,1.184-9.567,2.636-13.287,4.194C73.69,164.242,75.582,170.46,74.99,173.526z"
						/>
					<path style="&st9;" d="M102.623,153.492c-2.277,0.55-10.228,2.785-14.058,4.042c-6.521,2.14-12.667,8.209-13.375,13.209
						l-1.042,2.833c-2.167,0.483-4.619,1.828-7,4.833c-0.453-0.47-0.618-2.557-0.48-3.179c0.701-3.193,1.046-5.549,2.979-8.59
						c0.681-1.072,1.668-1.89,2.602-2.738c2.44-2.217,4.908-4.1,8.103-6.021c1.08-0.649,3.289-1.594,4.445-2.096
						c0.846-0.37,26.632-8.162,38.018-7.238C117.557,149.542,105.179,152.875,102.623,153.492z"/>
				</g>
			</g>
		</g>
		<g id="中">
			<g>
				<g>
					<path style="&st1;" d="M272.207,183.492c3.339-3.836,7.661-9.005,10.295-13.5c10.147-17.319,15.412-41.499-9.187-56
						c-16.34-9.633-27.458-7.629-38.858-6c-12.25,1.75-24.907,7.673-33.5,16.25c-4.675,4.665-9.719,11.36-12.75,17.25
						c-3.206,6.229-2.524,13.146,0.107,19.766c11.423-6.379,23.165-15.028,36.129-17.811c15.622-3.353,27.33,6.862,32.561,20.924
						c3.393,9.123,4.29,18.921,5.167,28.54C267.38,189.086,267.008,189.465,272.207,183.492z"/>
					<path style="&st22;" d="M275.479,172.214c7.563-13.978,11.245-32.175-0.606-44.246c-3.64-3.707-8.165-7.007-12.636-9.643
						c-13.536-7.979-30.902-8.946-45.24-2.561c-4.143,1.846-8.027,4.527-11.278,7.696c-4.442,4.329-9.164,9.995-12.012,15.53
						c-1.613,3.134-2.456,6.511-2.64,10.02c-0.052,0.993,0.469,6.018-0.36,6.48c9.139-5.103,22.628-13.024,33-15.25
						c14.521-3.117,27.675,6.617,31.75,12c5.512,7.28,9.915,26.333,10.5,32.75c-0.03-0.33,3.612-3.636,4.062-4.234
						C271.944,178.191,273.806,175.306,275.479,172.214z"/>
					<path style="&st8;" d="M273.168,160.281c0.252-4.563,0.164-9.137-0.144-13.377c-0.732-10.094-5.182-19.632-14.112-24.896
						c-7.554-4.453-16.46-6.533-25.19-6.469c-7.195,0.053-13.854,2.875-19.751,6.828c-5.526,3.704-11.682,8.064-14.964,14.312
						c0.11-0.22,0.217-0.442,0.333-0.658c-2.046,4.066-5.176,9.354-5.135,14.013c7.311-4.082,25.703-14.761,34-16.541
						c11.617-2.493,26.24,10.186,29.5,14.492c4.41,5.824,10.033,25.373,10.5,30.507c0.055,0.598,2.443-2.599,2.587-3.095
						C272.149,170.711,272.88,165.502,273.168,160.281z"/>
					<path style="&st13;" d="M263,140.72c-5.767-11.47-19.843-18.673-32.293-18.034c-12.492,0.641-27.589,8.204-31.567,21.024
						c-0.096,0.087-0.102,0.082-0.019-0.015c5.017-5.879,12.419-9.381,19.548-11.964c7.628-2.764,15.979-5.104,23.983-2.435
						c7.005,2.335,13.941,8.687,17.349,15.229c1.068,2.051,1.75,5.692,4.752,5.459C265.818,147.177,264.296,143.3,263,140.72z"/>
				</g>
				<g>
					<g>
						<path style="&st16;" d="M245.345,136.61c-1.331,1.415-2.404,3.019-3.226,4.446c-3.545,6.164-3.925,13.352-3.487,16.668
							c0.232,1.753,1.092,5.907,2.252,8.499c0.99,2.208,2.964,5.031,3.347,5.482c0.553,0.651,5.619,6.012,8.225,7.346
							c-0.578-3.921-1.741-7.458-1.34-11.504c0.321-3.247,1.205-6.474,2.04-9.623c0.792-2.988,1.902-6.402,4.641-8.171
							c0.667-0.43,1.39-0.764,2.103-1.112c0.891-0.437,1.764-0.897,2.484-1.607c0.824-0.813,1.541-2.318,1.785-3.44
							c1.107-5.092-4.465-9.742-8.957-10.646C251.023,132.104,247.758,134.047,245.345,136.61z"/>
						<path style="&st18;" d="M261.239,146.198c0.92-2.585,0.834-5.287-0.123-7.34c-0.553-1.185-2.386-2.472-4.06-3.397
							c-2.029-1.123-6.147-1.431-8.961-0.434c-2.476,0.877-5.349,4.428-6.17,5.856c-3.547,6.165-3.925,13.352-3.487,16.668
							c0.23,1.754,1.091,5.907,2.252,8.499c0.989,2.209,2.963,5.032,3.346,5.483c0.552,0.651,5.619,6.012,8.225,7.345
							c-0.579-3.92-1.742-7.456-1.341-11.503c0.32-3.248,1.205-6.474,2.04-9.623c0.792-2.988,1.902-6.404,4.64-8.171
							c0.667-0.431,1.391-0.765,2.104-1.113C259.76,148.319,260.775,147.5,261.239,146.198z"/>
						<path style="&st19;" d="M255.225,150.956c1.246-1.737,1.946-2.461,2.611-3.807c1.323-2.675,2.051-5.91-0.119-8.386
							c-2.898-3.304-8.068-1.981-11.222,0.207c-3.877,2.69-6.981,6.71-7.795,11.435c-0.893,5.178-0.109,10.896,2.132,15.644
							c1.178,2.496,2.839,5.293,4.777,7.278c2.088,2.138,4.395,4.007,6.819,5.748c-2.978-8.521-1.741-14.961,0.463-22.369
							C253.514,154.613,254.024,152.629,255.225,150.956z"/>
						<path style="&st9;" d="M254.483,148.319c1.506-3.124,4.413-8.891-1.978-7.961c-2.483,0.36-4.728,1.763-6.801,3.093
							c-3.519,2.259-5.626,6.595-7.304,10.536c-0.111,4.134,0.747,8.386,2.479,12.058c1.177,2.495,2.838,5.294,4.777,7.278
							c2.087,2.138,4.395,4.008,6.819,5.748c-1.361-5.69-2.797-11.835-1.886-17.411C251.343,157.037,252.243,152.96,254.483,148.319
							z"/>
						<path style="&st0;" d="M242.4,153.206c0.578-2.179,1.185-3.933,2.381-5.846c1.142-1.827,3.87-4.097,6.045-4.639
							c1.121-0.278,2.625-0.012,2.551,1.397c-0.058,1.101-1.87,2.024-2.643,2.616c-4.652,3.563-8.825,13.566-8.859,13.691
							C241.875,160.426,242.088,154.379,242.4,153.206z"/>
					</g>
					<g>
						<path style="&st3;" d="M266.111,158.147c1.564-1.875,2.329-4.396,2.433-6.81c0.051-1.215-0.123-2.742-0.667-3.848
							c-0.805-1.635-2.326-3.038-3.899-3.921c-0.847-0.476-1.835-0.876-2.792-1.068c-3.35-0.675-5.962,0.88-7.892,2.931
							c-1.065,1.132-5.753,6.261-4.98,13.568"/>
						<path style="&st19;" d="M248.552,158.141c0.231-0.47,0.285-1.247,0.422-1.821c0.14-0.59,0.343-1.129,0.501-1.709
							c0.921-3.372,2.326-5.564,4.896-7.829c0.765-0.673,2.299-1.786,3.581-2.278c1.598-0.612,3.472-0.534,5.004,0.17
							c2.916,1.341,4.373,5.137,4.162,8.184c-0.055,0.795-0.26,1.697-0.611,2.418c-0.361,0.737-0.549,1.724-1.139,2.298
							c-0.494,0.479-1.122,0.967-1.789,1.533"/>
						<path style="&st18;" d="M263.119,157.694c0.803-1.799,1.74-4.708,1.266-6.669c-0.949-3.914-5.328-4.908-8.653-3.391
							c-4.192,1.914-6.532,6.64-6.84,11.066"/>
						<path style="&st9;" d="M248.254,164.132c-0.175-0.385-0.146-0.928-0.175-1.342c-0.114-1.622-0.062-3.411,0.544-4.943
							c0.5-1.265,1.516-2.23,2.521-3.104c1.243-1.08,3.028-2.711,4.732-2.652c0.795,0.026,1.784,0.427,2.4,1.023
							c1.381,1.34,1.907,3.308,1.11,5.004c-0.204,0.436-0.479,0.873-0.784,1.245c-0.326,0.399-0.68,0.79-1.054,1.145
							c-0.974,0.926-1.995,1.865-2.507,3.133c-0.208,0.51-0.395,1.057-0.541,1.584c-0.124,0.446-0.214,1.002-0.07,1.454"/>
					</g>
					<g>
						<path style="&st16;" d="M253.186,172.511c-0.021-0.08-0.147-0.589-0.033-0.156c1.171,4.746,6.237,7.623,10.923,6.424
							c4.641-1.188,8.021-5.627,7.963-10.537c-0.03-2.511-0.464-5.109-1.366-7.334c-0.858-2.118-3.275-3.659-4.763-5.341
							c-4.621-5.225-9.766-2.105-15.704-2.158c-5.382-0.048-10.005,3.907-12.891,8.091c-5.354,7.763-6.063,22.329,0.237,29.804
							c6.995,8.299,18.861,11.573,29.319,9.401c2.064-0.429,4.144-1.076,5.892-2.288c1.734-1.203,2.818-3.196,4.656-4.237
							c1.58-0.895,3.548-0.765,5.16-1.618c1.594-0.844,2.972-2.158,4.153-3.492c8.607-9.717,6.893-22.191,6.306-34.16
							c-0.132-2.69-0.697-5.081-0.666-7.668c0.034-2.838-0.296-5.687-0.933-8.453c-0.39-1.692-0.558-5.072-2.259-5.94
							c0.466,0.237,0.336,6.052,0.366,6.641c0.206,4.017,0.532,8.08-0.053,12.08c-1.561,10.669-10.932,20.248-19.91,25.554
							c-1.069,0.632-2.232,0.91-3.379,1.494C260.566,181.489,254.698,178.266,253.186,172.511z"/>
						<path style="&st5;" d="M254.387,173.724c5.569,3.115,18.266-1.076,13.819-11.465c-2-4.673-14.375-8.807-21.625-4.673
							c-8.332,4.75-12.282,15.736-10.5,23.655c1.125,5,7.377,12.109,10.125,13.613c13.5,7.387,24.859,0.889,29.75-1.988
							c6.452-3.796,12.125-10,14.402-17.167c1.048-3.299,0.348-17.609-0.902-20.085c-0.875,4.306-11.943,16.237-13.561,17.646
							c-1.755,1.528-4.015,2.771-6.051,3.754c-2.417,1.168-5.153,1.637-7.787,1.871C258.668,179.188,254.885,176.672,254.387,173.724z"/>
						<path style="&st9;" d="M254.387,173.724c3.817,0.979,10.906-3.251,8.919-8.325c-2.115-5.397-9.541-3.924-13.401-2.107
						c-5.856,2.755-7.556,8.632-6.42,14.754c0.645,3.475,2.459,7.307,5.029,9.803c8.971,8.713,22.902,0.52,25.152-1.569
						c3.541-3.287,6.31-9.388,7.49-12.415c0.601-1.539,0.825-4.817,0.825-7.107c-2.015,2.621-3.525,4.179-5.143,5.588
						c-1.755,1.528-11.561,6.308-14.194,6.542C259.254,179.188,256.114,177.67,254.387,173.724z"/>
					</g>
				</g>
				<g>
					<path style="&st3;" d="M199.207,133.239c-0.583-4.497,0.833-13.803,4.25-17.217c3.775-3.772,9.654-8.961,14.888-10.577
						c6.476-2,13.525-3.791,19.946-4.873c7.843-1.322,15.278-2.188,23.078-1.572c4.831,0.382,9.547,2.33,13.438,5.184
						c5.257,3.857,9.228,10.839,8.508,17.365c-0.747,6.779-7.736,10.189-14.209,8.727c-4.022-0.908-7.05-3.888-7.174-8.055
						c-0.156-5.289,2.865-5.727,6.619-8.229c0.238-0.159-2.094-3.913-4.24-4.335c-2.303-0.453-7.021-0.973-9.354-1
						c-6.92-0.081-13.599,0.953-20.496,1.83c-5.486,0.697-10.328,1.719-15.504,3.506c-5.305,1.831-9.25,5.747-13.583,10.58
						C203.861,126.258,200.623,130.072,199.207,133.239z"/>
					<path style="&st4;" d="M200.457,129.017c0.131-1.241,1.015-9.53,1.75-10.611c3.861-5.675,9.148-9.971,14.238-12.235
						c2.38-1.06,5.031-1.705,7.2-2.276c7.425-1.955,19.192-4.15,21.552-4.353c7.083-0.609,18.124-0.744,24.009,1.753
						c1.548,0.656,5.688,2.899,6.945,3.974c3.197,2.736,4.694,7.137,5.367,8.724c0.903,2.137,0.162,5.157-0.189,7.291
						c-0.313,1.907-1.967,5.876-5.653,7.072c-2.053,0.666-5.239,0.993-7.233,0.189c-3.334-1.344-6.204-4.013-4.231-10.109
						c1.147-3.546,5.183-4.616,8.067-2.886c1.824,1.094,3.63,4.864,2.215,6.736c-0.433,0.57-1.721,1.242-2.308,1.434
						c1.273,0.573,2.053,0.527,3.233-0.088c2.148-1.12,1.569-5.603,0.463-6.84c-0.998-1.118-2.816-3.145-4.426-3.636
						c-1.333-0.407-1.92-1.556-2.333-2.167c-0.492-0.729-3.027-2.57-4.167-2.997c-3.179-1.193-6.606-1.229-9.956-1.206
						c-2.675,0.019-5.354-0.095-8.026,0.06c-2.595,0.149-9.466,0.752-12.393,1.146c-2.065,0.278-8.207,1.752-10.266,2.073
						c-1.52,0.236-6.507,2.061-7.871,2.802c-5.238,2.848-7.043,4.497-10.788,9.263c-1.224,1.558-2.42,3.137-3.634,4.702
						C201.499,127.508,200.821,128.231,200.457,129.017z"/>
				</g>
			</g>
			<g>
				<g>
					<path style="&st1;" d="M26.657,184.845c-3.339-3.836-7.661-9.005-10.295-13.5c-10.147-17.319-15.412-41.499,9.187-56
						c16.34-9.633,27.458-7.629,38.858-6c12.25,1.75,24.906,7.673,33.5,16.25c4.675,4.665,9.719,11.36,12.75,17.25
						c3.206,6.229,2.523,13.146-0.107,19.766c-11.423-6.379-23.165-15.028-36.129-17.811c-15.622-3.353-27.33,6.862-32.561,20.924
						c-3.393,9.123-4.29,18.921-5.167,28.54C31.483,190.44,31.855,190.819,26.657,184.845z"/>
					<path style="&st22;" d="M23.385,173.568c-7.563-13.978-11.245-32.175,0.606-44.246c3.64-3.707,8.165-7.007,12.636-9.643
						c13.536-7.979,30.902-8.946,45.24-2.561c4.143,1.846,8.026,4.527,11.277,7.696c4.442,4.329,9.164,9.995,12.013,15.53
						c1.612,3.134,2.456,6.511,2.64,10.02c0.052,0.993-0.469,6.018,0.36,6.48c-9.139-5.103-22.629-13.024-33-15.25
						c-14.521-3.117-27.675,6.617-31.75,12c-5.512,7.28-9.915,26.333-10.5,32.75c0.03-0.33-3.612-3.636-4.062-4.234
						C26.92,179.544,25.058,176.66,23.385,173.568z"/>
					<path style="&st8;" d="M25.695,161.634c-0.252-4.563-0.164-9.137,0.144-13.377c0.732-10.094,5.182-19.632,14.112-24.896
						c7.554-4.453,16.46-6.533,25.19-6.469c7.195,0.053,13.854,2.875,19.751,6.828c5.526,3.704,11.683,8.064,14.964,14.312
						c-0.11-0.22-0.217-0.442-0.333-0.658c2.046,4.066,5.176,9.354,5.135,14.013c-7.312-4.082-25.703-14.761-34-16.541
						c-11.617-2.493-26.24,10.186-29.5,14.492c-4.41,5.824-10.033,25.373-10.5,30.507c-0.055,0.598-2.443-2.599-2.587-3.095
						C26.715,172.065,25.983,166.856,25.695,161.634z"/>
					<path style="&st13;" d="M35.864,142.074c5.767-11.47,19.843-18.673,32.293-18.034c12.492,0.641,27.589,8.204,31.566,21.024
						c0.096,0.087,0.103,0.082,0.02-0.015c-5.018-5.879-12.419-9.381-19.548-11.964c-7.628-2.764-15.979-5.104-23.983-2.435
						c-7.005,2.335-13.941,8.687-17.349,15.229c-1.068,2.051-1.75,5.692-4.752,5.459C33.046,148.531,34.567,144.654,35.864,142.074z
						"/>
				</g>
				<g>
					<g>
						<path style="&st16;" d="M53.519,137.963c1.331,1.415,2.404,3.019,3.226,4.446c3.545,6.164,3.925,13.352,3.487,16.668
							c-0.232,1.753-1.092,5.907-2.252,8.499c-0.99,2.208-2.964,5.031-3.347,5.482c-0.553,0.651-5.619,6.012-8.225,7.346
							c0.578-3.921,1.741-7.458,1.34-11.504c-0.321-3.247-1.205-6.474-2.04-9.623c-0.792-2.988-1.902-6.402-4.641-8.171
							c-0.667-0.43-1.39-0.764-2.103-1.112c-0.891-0.437-1.764-0.897-2.484-1.607c-0.824-0.813-1.541-2.318-1.785-3.44
							c-1.107-5.092,4.465-9.742,8.957-10.646C47.841,133.458,51.106,135.401,53.519,137.963z"/>
						<path style="&st18;" d="M37.625,147.551c-0.92-2.585-0.834-5.287,0.123-7.34c0.553-1.185,2.386-2.472,4.06-3.397
							c2.029-1.123,6.147-1.431,8.961-0.434c2.476,0.877,5.349,4.428,6.17,5.856c3.547,6.165,3.925,13.352,3.487,16.668
							c-0.23,1.754-1.091,5.907-2.252,8.499c-0.989,2.209-2.963,5.032-3.346,5.483c-0.552,0.651-5.619,6.012-8.225,7.345
							c0.579-3.92,1.742-7.456,1.341-11.503c-0.32-3.248-1.205-6.474-2.04-9.623c-0.792-2.988-1.902-6.404-4.64-8.171
							c-0.667-0.431-1.391-0.765-2.104-1.113C39.104,149.672,38.088,148.853,37.625,147.551z"/>
						<path style="&st19;" d="M43.639,152.309c-1.246-1.737-1.946-2.461-2.611-3.807c-1.323-2.675-2.051-5.91,0.119-8.386
							c2.898-3.304,8.068-1.981,11.222,0.207c3.877,2.69,6.981,6.71,7.795,11.435c0.893,5.178,0.109,10.896-2.132,15.644
							c-1.178,2.496-2.839,5.293-4.777,7.278c-2.088,2.138-4.395,4.007-6.819,5.748c2.978-8.521,1.741-14.961-0.463-22.369
							C45.35,155.966,44.839,153.983,43.639,152.309z"/>
						<path style="&st9;" d="M44.38,149.672c-1.506-3.124-4.413-8.891,1.978-7.961c2.483,0.36,4.728,1.763,6.801,3.093
							c3.519,2.259,5.626,6.595,7.304,10.536c0.111,4.134-0.747,8.386-2.479,12.058c-1.177,2.495-2.838,5.294-4.777,7.278
							c-2.087,2.138-4.395,4.008-6.819,5.748c1.361-5.69,2.797-11.835,1.886-17.411C47.521,158.39,46.621,154.314,44.38,149.672z"/>
						<path style="&st0;" d="M56.464,154.559c-0.578-2.179-1.185-3.933-2.381-5.846c-1.142-1.827-3.87-4.097-6.045-4.639
							c-1.121-0.278-2.625-0.012-2.551,1.397c0.058,1.101,1.87,2.024,2.643,2.616c4.652,3.563,8.825,13.566,8.859,13.691
							C56.988,161.78,56.776,155.733,56.464,154.559z"/>
					</g>
					<g>
						<path style="&st3;" d="M32.753,159.5c-1.564-1.875-2.329-4.396-2.433-6.81c-0.051-1.215,0.123-2.742,0.667-3.848
							c0.805-1.635,2.326-3.038,3.899-3.921c0.847-0.476,1.835-0.876,2.792-1.068c3.35-0.675,5.962,0.88,7.892,2.931
							c1.065,1.132,5.753,6.261,4.98,13.568"/>
						<path style="&st19;" d="M50.312,159.495c-0.231-0.47-0.285-1.247-0.422-1.821c-0.14-0.59-0.343-1.129-0.501-1.709
							c-0.921-3.372-2.326-5.564-4.896-7.829c-0.765-0.673-2.299-1.786-3.581-2.278c-1.598-0.612-3.472-0.534-5.004,0.17
							c-2.916,1.341-4.373,5.137-4.162,8.184c0.055,0.795,0.26,1.697,0.611,2.418c0.361,0.737,0.549,1.724,1.139,2.298
							c0.494,0.479,1.122,0.967,1.789,1.533"/>
						<path style="&st18;" d="M35.745,159.047c-0.803-1.799-1.74-4.708-1.266-6.669c0.949-3.914,5.328-4.908,8.653-3.391
							c4.192,1.914,6.532,6.64,6.84,11.066"/>
						<path style="&st9;" d="M50.61,165.486c0.175-0.385,0.146-0.928,0.175-1.342c0.114-1.622,0.062-3.411-0.544-4.943
							c-0.5-1.265-1.516-2.23-2.521-3.104c-1.243-1.08-3.028-2.711-4.732-2.652c-0.795,0.026-1.784,0.427-2.4,1.023
							c-1.381,1.34-1.907,3.308-1.11,5.004c0.204,0.436,0.479,0.873,0.784,1.245c0.326,0.399,0.68,0.79,1.054,1.145
							c0.974,0.926,1.995,1.865,2.507,3.133c0.208,0.51,0.395,1.057,0.541,1.584c0.124,0.446,0.214,1.002,0.07,1.454"/>
					</g>
					<g>
						<path style="&st16;" d="M45.678,173.865c0.021-0.08,0.147-0.589,0.033-0.156c-1.171,4.746-6.237,7.623-10.923,6.424
							c-4.641-1.188-8.021-5.627-7.963-10.537c0.03-2.511,0.464-5.109,1.366-7.334c0.858-2.118,3.275-3.659,4.763-5.341
							c4.621-5.225,9.766-2.105,15.704-2.158c5.382-0.048,10.005,3.907,12.891,8.091c5.354,7.763,6.063,22.329-0.237,29.804
							c-6.995,8.299-18.861,11.573-29.319,9.401c-2.064-0.429-4.144-1.076-5.892-2.288c-1.734-1.203-2.818-3.196-4.656-4.237
							c-1.58-0.895-3.548-0.765-5.16-1.618c-1.594-0.844-2.972-2.158-4.153-3.492c-8.607-9.717-6.893-22.191-6.306-34.16
							c0.132-2.69,0.697-5.081,0.666-7.668c-0.034-2.838,0.296-5.687,0.933-8.453c0.39-1.692,0.558-5.072,2.259-5.94
							c-0.466,0.237-0.336,6.052-0.366,6.641c-0.206,4.017-0.532,8.08,0.053,12.08c1.561,10.669,10.932,20.248,19.91,25.554
							c1.069,0.632,2.232,0.91,3.379,1.494C38.297,182.842,44.166,179.62,45.678,173.865z"/>
						<path style="&st5;" d="M44.477,175.078c-5.569,3.115-18.266-1.076-13.819-11.465c2-4.673,14.375-8.807,21.625-4.673
							c8.332,4.75,12.282,15.736,10.5,23.655c-1.125,5-7.377,12.109-10.125,13.613c-13.5,7.387-24.859,0.889-29.75-1.988
							c-6.452-3.796-12.125-10-14.402-17.167c-1.048-3.299-0.348-17.609,0.902-20.085c0.875,4.306,11.943,16.237,13.561,17.646
							c1.755,1.528,4.015,2.771,6.051,3.754c2.417,1.168,5.153,1.637,7.787,1.871C40.195,180.542,43.979,178.026,44.477,175.078z"/>
						<path style="&st9;" d="M44.477,175.078c-3.817,0.979-10.906-3.251-8.919-8.325c2.115-5.397,9.541-3.924,13.401-2.107
							c5.856,2.755,7.556,8.632,6.42,14.754c-0.645,3.475-2.459,7.307-5.029,9.803c-8.971,8.713-22.902,0.52-25.152-1.569
							c-3.541-3.287-6.31-9.388-7.49-12.415c-0.601-1.539-0.825-4.817-0.825-7.107c2.015,2.621,3.525,4.179,5.143,5.588
							c1.755,1.528,11.561,6.308,14.194,6.542C39.609,180.542,42.75,179.024,44.477,175.078z"/>
					</g>
				</g>
				<g>
					<path style="&st3;" d="M99.657,134.592c0.583-4.497-0.834-13.803-4.25-17.217c-3.775-3.772-9.654-8.961-14.888-10.577
						c-6.476-2-13.525-3.791-19.946-4.873c-7.843-1.322-15.278-2.188-23.078-1.572c-4.831,0.382-9.547,2.33-13.438,5.184
						c-5.257,3.857-9.228,10.839-8.508,17.365c0.747,6.779,7.736,10.189,14.209,8.727c4.022-0.908,7.05-3.888,7.174-8.055
						c0.156-5.289-2.865-5.727-6.619-8.229c-0.238-0.159,2.094-3.913,4.24-4.335c2.303-0.453,7.021-0.973,9.354-1
						c6.92-0.081,13.599,0.953,20.496,1.83c5.486,0.697,10.328,1.719,15.504,3.506c5.305,1.831,9.25,5.747,13.583,10.58
						C95.003,127.612,98.24,131.425,99.657,134.592z"/>
					<path style="&st4;" d="M98.407,130.371c-0.132-1.241-1.015-9.53-1.75-10.611c-3.861-5.675-9.148-9.971-14.238-12.235
						c-2.38-1.06-5.031-1.705-7.2-2.276c-7.425-1.955-19.192-4.15-21.552-4.353c-7.083-0.609-18.124-0.744-24.009,1.753
						c-1.548,0.656-5.688,2.899-6.945,3.974c-3.197,2.736-4.694,7.137-5.367,8.724c-0.903,2.137-0.162,5.157,0.189,7.291
						c0.313,1.907,1.967,5.876,5.653,7.072c2.053,0.666,5.239,0.993,7.233,0.189c3.334-1.344,6.204-4.013,4.231-10.109
						c-1.147-3.546-5.183-4.616-8.067-2.886c-1.824,1.094-3.63,4.864-2.215,6.736c0.433,0.57,1.721,1.242,2.308,1.434
						c-1.273,0.573-2.053,0.527-3.233-0.088c-2.148-1.12-1.569-5.603-0.463-6.84c0.998-1.118,2.816-3.145,4.426-3.636
						c1.333-0.407,1.92-1.556,2.333-2.167c0.492-0.729,3.027-2.57,4.167-2.997c3.179-1.193,6.606-1.229,9.956-1.206
						c2.675,0.019,5.354-0.095,8.026,0.06c2.595,0.149,9.466,0.752,12.393,1.146c2.065,0.278,8.207,1.752,10.266,2.073
						c1.52,0.236,6.507,2.061,7.871,2.802c5.237,2.848,7.043,4.497,10.787,9.263c1.225,1.558,2.42,3.137,3.634,4.702
						C97.365,128.862,98.042,129.584,98.407,130.371z"/>
				</g>
			</g>
		</g>
		<g id="上">
			<g id="花瓣">
				<g>
					<path style="&st1;" d="M231.893,84.178c-11.414-12.396-26.592-27.329-44.062-24.436c-19.625,3.25-31.354,16.905-31.375,38
						c-0.018,19,10.673,28.061,16.375,31.5c0-0.001,7.329-8.015,9.249-10.498c4.842-6.265,10.975-11.666,18.015-15.336
						c7.745-4.038,16.34-5.438,24.728-7.532c4.367-1.09,8.464-3.157,12.643-4.797C237.918,90.901,234.773,87.306,231.893,84.178z"/>
					<path style="&st22;" d="M218.457,82.742c-8.82-6.627-21.727-15.356-33.418-13.421c-8.417,1.394-16.894,7.779-20.335,15.5
						c-4.103,9.204-1.258,20.109,3.003,29.671c1.178,2.643,2.5,5.25,5.02,6.688c1.941-3.859,1.664-5.489,4.316-8.92
						c2.905-3.759,10.94-10.317,15.164-12.519c4.647-2.423,10.218-4.112,15.25-5.368c2.62-0.654,19.25-4.273,19.25-4.273
						S223.292,86.375,218.457,82.742z"/>
					<path style="&st8;" d="M211.854,81.861c-2.981-2.122-6.591-3.869-7.551-4.262c-6.143-2.516-13.028-3.445-19.598-2.357
						c-12.316,2.039-20.137,15.803-18.118,27.624c0.411,2.404,4.369,11.626,4.369,11.626s4.48-7.24,7-11
						c2.405-3.588,6.706-6.082,10.317-8.355c4.547-2.862,9.858-3.822,15.1-4.51c3.164-0.416,16.583-1.909,16.583-1.909
						S215.234,84.268,211.854,81.861z"/>
					<path style="&st13;" d="M207.579,83.229c-1.873-0.92-3.976-1.627-5.771-2.123c-4.537-1.252-9.397-1.196-13.971-0.146
						c-6.302,1.446-13.16,5.23-15.447,11.465c-3.479,9.488-2.933,11.566-1.183,16.066c3.443-8.145,7.042-14.925,14.75-19.774
						c7.751-4.877,18.969-1.618,27.5-1.226c-1.38-0.063-2.274-1.933-3.25-2.678C209.439,84.229,208.54,83.701,207.579,83.229z"/>
				</g>
				<g>
					<path style="&st16;" d="M258.786,93.958c-0.435-3.861-1.491-7.57-2.606-10.672c-4.811-13.384-15.281-23.262-20.906-26.887
						c-2.973-1.916-10.42-5.979-15.875-7.563c-4.647-1.349-11.509-1.992-12.692-1.992c-1.708,0-16.437,0.79-21.843,3.038
						c6.727,4.191,13.624,6.995,19.277,12.841c4.537,4.692,8.313,10.215,12.036,15.563c3.532,5.074,7.304,11.187,6.456,17.649
						c-0.207,1.573-0.634,3.108-1.024,4.647c-0.487,1.922-0.914,3.851-0.762,5.866c0.174,2.31,1.541,5.352,2.935,7.174
						c6.333,8.278,20.637,5.797,27.826,0.119C258.312,108.448,259.573,100.953,258.786,93.958z"/>
					<path style="&st18;" d="M223.598,105.791c2.75,4.75,6.984,8.113,11.353,9.31c2.522,0.69,6.857-0.44,10.435-1.794
						c4.338-1.641,10.137-7.524,12.259-13.107c1.865-4.908,0.167-13.887-0.948-16.988c-4.811-13.385-15.281-23.262-20.906-26.887
						c-2.973-1.916-10.42-5.979-15.875-7.563c-4.647-1.349-11.509-1.992-12.692-1.992c-1.708,0-16.437,0.791-21.843,3.039
						c6.727,4.19,13.624,6.994,19.277,12.84c4.537,4.692,8.313,10.216,12.036,15.563c3.532,5.074,7.304,11.187,6.456,17.649
						c-0.207,1.573-0.634,3.108-1.024,4.647C222.279,100.79,222.213,103.399,223.598,105.791z"/>
					<path style="&st19;" d="M224.126,90.46c1.037,4.149,1.234,6.152,2.425,8.908c2.368,5.478,6.36,10.777,12.944,10.669
						c8.787-0.145,13.46-9.74,14.204-17.381c0.915-9.395-1.198-19.328-7.35-26.684c-6.742-8.062-16.476-14.265-26.615-16.992
						c-5.329-1.433-11.744-2.52-17.281-2.132c-5.961,0.417-11.799,1.517-17.59,2.959c16.846,6.486,25.069,16.707,33.513,29.653
						C220.762,83.119,223.127,86.464,224.126,90.46z"/>
					<path style="&st9;" d="M229.107,92.742c2.813,6.342,7.848,18.236,14.699,7.287c2.664-4.256,3.43-9.494,4.083-14.377
						c1.11-8.288-2.774-17.112-6.615-24.771c-6.16-5.52-13.753-9.714-21.595-11.823c-5.329-1.433-11.744-2.52-17.281-2.132
						c-5.961,0.417-11.799,1.517-17.59,2.959c10.44,5.29,21.667,11.052,28.993,19.655C219.875,76.673,224.926,83.32,229.107,92.742z
						"/>
					<path style="&st0;" d="M237.29,67.992c2.574,3.701,4.463,6.896,5.833,11.195c1.309,4.106,1.239,11.204-0.75,15.222
						c-1.025,2.07-3.378,4.017-5.432,2.082c-1.604-1.512-0.667-5.472-0.569-7.416c0.585-11.705-9.269-31.012-9.416-31.226
						C226.957,57.849,235.903,65.998,237.29,67.992z"/>
				</g>
				<g>
					<path style="&st3;" d="M204.561,86.093c0.833,4.813,3.689,9.24,7.238,12.521c1.785,1.65,4.339,3.36,6.73,3.962
						c3.533,0.89,7.641,0.384,11.024-0.872c1.822-0.676,3.711-1.666,5.241-2.875c5.364-4.236,6.373-10.232,5.743-15.828
						c-0.348-3.089-2.103-16.876-14.247-25.152"/>
					<path style="&st19;" d="M227.29,59.325c0.417,0.961,1.532,2.049,2.231,3c0.717,0.976,1.278,1.984,1.958,2.977
						c3.95,5.767,5.476,10.748,5.602,17.598c0.038,2.036-0.25,5.817-1.159,8.407c-1.133,3.229-3.678,5.987-6.734,7.411
						c-5.818,2.711-13.491,0.021-17.864-4.24c-1.144-1.114-2.253-2.594-2.896-4.063c-0.658-1.505-1.919-3.065-2.031-4.712
						c-0.093-1.369-0.023-2.961-0.023-4.711"/>
					<path style="&st18;" d="M209.123,82.117c1.705,3.551,4.926,8.746,8.532,10.559c7.197,3.618,14.379-1.772,16.367-8.807
						c2.506-8.871-1.671-18.554-8.024-24.752"/>
					<path style="&st9;" d="M218.54,51.117c0.813,0.23,1.603,0.978,2.272,1.47c2.621,1.926,5.281,4.321,6.834,7.226
						c1.283,2.399,1.44,5.198,1.472,7.862c0.039,3.292,0.216,8.128-2.079,10.651c-1.07,1.177-2.958,2.167-4.667,2.333
						c-3.829,0.374-7.51-1.371-9.068-4.781c-0.4-0.875-0.71-1.861-0.885-2.808c-0.187-1.013-0.323-2.059-0.381-3.088
						c-0.152-2.682-0.263-5.454-1.532-7.877c-0.511-0.976-1.1-1.967-1.716-2.875c-0.521-0.766-1.252-1.623-2.126-1.989"/>
				</g>
				<g>
					<path style="&st3;" d="M159.832,78.617c0-2.5,0.434-5.175,1.916-7.782c1.635-2.877,3.535-5.608,5.291-8.364
						c2.32-3.643,5.255-6.894,8.75-9.452c1.986-1.454,4.252-2.603,6.577-3.413c8.746-3.047,19.146-1.937,26.615,3.706
						c6.68,5.046,11.725,14.179,10.811,22.716c-0.949,8.868-9.829,13.329-18.055,11.415c-3.53-0.821-7.278-2.725-8.465-6.403
						c-1.298-4.02-0.985-7.254,0.938-10.735c0.584-1.058,2.875-3.42,4.582-4.591c-4.395-3.909-13.127-3.458-16.02-2.847
						c-4.588,0.971-7.92,3.829-11.563,6.706c-1.819,1.437-3.7,2.783-5.534,4.201C163.88,75.158,159.832,78.617,159.832,78.617z"/>
					<path style="&st4;" d="M161.832,75.367c0.167-1.623,1.358-3.62,2.142-5.126c1.352-2.599,3.058-4.898,4.434-7.512
						c4.236-8.049,14.863-12.784,17.861-13.049c9-0.796,14.036,1.813,17.563,3.484c1.941,0.92,3.841,2.094,5.438,3.5
						c4.063,3.578,6.322,8.145,7.176,10.22c1.149,2.795,1.27,6.004,0.824,8.795c-0.398,2.494-2.5,7.688-7.184,9.252
						c-2.609,0.871-6.656,1.3-9.191,0.248c-4.235-1.757-7.881-5.25-5.375-13.225c1.458-4.639,6.583-6.04,10.25-3.775
						c2.317,1.432,4.612,6.364,2.813,8.813c-0.548,0.746-2.185,1.625-2.93,1.875c1.617,0.75,2.607,0.69,4.107-0.115
						c2.73-1.465,1.994-7.329,0.589-8.948c-1.269-1.462-4.347-3.295-6.391-3.938c-1.694-0.533-3.295-0.625-3.82-1.424
						c-0.626-0.953-1.917-2.017-3.364-2.576c-1.7-0.656-3.269-1.47-5.066-1.753c-2.067-0.326-4.076-0.292-6.188-0.184
						c-2.609,0.133-5.445,0.666-7.874,1.688c-3.216,1.353-5.937,3.666-8.707,5.75c-1.519,1.144-2.951,2.408-4.232,3.811
						c-0.566,0.62-1.01,1.333-1.465,2.036C162.869,73.789,162.41,74.085,161.832,75.367z"/>
					<path style="&st20;" d="M200.698,64.753c0.499,0.726,3.345,0.934,4.438,1.453c1.471,0.699,2.427,1.064,3.532,1.949
						c0.177-7.137-10.154-12.346-15.708-13.158c-3.259-0.477-8.422-0.616-11.556,0.433c-3.449,1.155-5.49,2.479-8.032,4.405
						c-2.325,1.762-4.402,4.363-6.281,6.656c-1.469,1.792-4.781,6.875-5,8.875c2.31-2.379,4.065-5.462,6.875-7.702
						c3.14-2.504,7.156-5.528,10.563-6.54c6.06-1.8,13.156-1.8,19.325,1.756L200.698,64.753z"/>
					<path style="&st17;" d="M161.832,75.367c1.946-2.974,4.193-5.462,7.002-7.702c3.14-2.504,7.156-5.528,10.563-6.54
						c6.06-1.8,13.156-1.8,19.325,1.756l1.845,1.873c0.499,0.726,3.651,1.122,4.744,1.642c0.138-0.527-0.369-1.543-0.75-1.935
						c-1.833-1.88-3.713-3.777-6.101-4.944c-0.999-0.488-2.119-0.663-3.21-0.884c-2.855-0.578-5.583-0.903-8.886-0.953
						c-1.115-0.017-3.229,0.227-4.338,0.348c-1.393,0.151-2.866,0.497-4.161,1.043c-2.016,0.851-3.995,1.893-5.907,2.953
						c-2.537,1.406-4.247,3.854-5.788,6.236c-0.844,1.305-1.792,2.533-2.65,3.826c-0.36,0.542-0.45,0.925-0.809,1.469
						C162.496,73.879,162.105,75.085,161.832,75.367z"/>
				</g>
			</g>
			<g id="花瓣_1_">
				<g>
					<path style="&st1;" d="M65.27,83.678c11.414-12.396,26.592-27.329,44.062-24.436c19.625,3.25,31.354,16.905,31.375,38
						c0.018,19-10.673,28.061-16.375,31.5c0,0-7.329-8.014-9.249-10.498c-4.842-6.264-10.975-11.666-18.015-15.336
						c-7.745-4.037-16.34-5.438-24.728-7.531c-4.367-1.09-8.464-3.158-12.643-4.797C59.245,90.402,62.39,86.806,65.27,83.678z"/>
					<path style="&st22;" d="M78.707,82.242c8.82-6.627,21.727-15.356,33.418-13.421c8.417,1.394,16.894,7.779,20.335,15.5
						c4.103,9.204,1.258,20.11-3.003,29.67c-1.178,2.643-2.5,5.25-5.02,6.689c-1.941-3.859-1.664-5.49-4.316-8.92
						c-2.905-3.76-10.94-10.318-15.164-12.52c-4.647-2.422-10.218-4.111-15.25-5.367c-2.62-0.654-19.25-4.273-19.25-4.273
						S73.871,85.876,78.707,82.242z"/>
					<path style="&st8;" d="M85.309,81.362c2.981-2.122,6.591-3.869,7.551-4.262c6.143-2.516,13.028-3.445,19.598-2.357
						c12.316,2.039,20.137,15.802,18.118,27.625c-0.411,2.404-4.369,11.625-4.369,11.625s-4.48-7.24-7-11
						c-2.405-3.588-6.706-6.082-10.317-8.355c-4.547-2.861-9.858-3.822-15.1-4.51c-3.164-0.416-16.583-1.908-16.583-1.908
						S81.929,83.768,85.309,81.362z"/>
					<path style="&st13;" d="M89.584,82.729c1.873-0.92,3.976-1.627,5.771-2.123c4.537-1.252,9.397-1.196,13.971-0.146
						c6.302,1.446,13.16,5.23,15.447,11.465c3.479,9.488,2.933,11.566,1.183,16.066c-3.443-8.145-7.042-14.924-14.75-19.773
						c-7.751-4.877-18.969-1.619-27.5-1.227c1.38-0.063,2.274-1.932,3.25-2.677C87.724,83.73,88.624,83.202,89.584,82.729z"/>
				</g>
				<g>
					<path style="&st16;" d="M38.313,93.997c0.435-3.861,1.491-7.57,2.606-10.672C45.729,69.94,56.2,60.063,61.825,56.438
						c2.973-1.916,10.42-5.979,15.875-7.563c4.647-1.349,11.509-1.992,12.692-1.992c1.708,0,16.437,0.79,21.843,3.038
						c-6.727,4.191-13.624,6.995-19.277,12.841c-4.537,4.692-8.313,10.215-12.036,15.563c-3.532,5.074-7.304,11.187-6.456,17.649
						c0.207,1.573,0.634,3.108,1.024,4.647c0.487,1.922,0.914,3.851,0.762,5.866c-0.174,2.31-1.541,5.352-2.935,7.174
						c-6.333,8.278-20.637,5.797-27.826,0.119C38.786,108.486,37.525,100.991,38.313,93.997z"/>
					<path style="&st18;" d="M73.5,105.829c-2.75,4.75-6.984,8.113-11.353,9.31c-2.522,0.69-6.857-0.44-10.435-1.794
						c-4.338-1.641-10.137-7.524-12.259-13.107c-1.865-4.908-0.167-13.887,0.948-16.988c4.811-13.385,15.281-23.262,20.906-26.887
						c2.973-1.916,10.42-5.979,15.875-7.563c4.647-1.349,11.509-1.992,12.692-1.992c1.708,0,16.437,0.791,21.843,3.039
						c-6.727,4.19-13.624,6.994-19.277,12.84c-4.537,4.692-8.313,10.216-12.036,15.563c-3.532,5.074-7.304,11.187-6.456,17.649
						c0.207,1.573,0.634,3.108,1.024,4.647C74.819,100.828,74.885,103.437,73.5,105.829z"/>
					<path style="&st19;" d="M72.972,90.499c-1.037,4.149-1.234,6.152-2.425,8.908c-2.368,5.478-6.36,10.777-12.944,10.669
						c-8.787-0.145-13.46-9.74-14.204-17.381c-0.915-9.395,1.198-19.328,7.35-26.684c6.742-8.062,16.476-14.265,26.615-16.992
						c5.329-1.433,11.744-2.52,17.281-2.132c5.961,0.417,11.799,1.517,17.59,2.959c-16.846,6.486-25.069,16.707-33.513,29.653
						C76.336,83.157,73.971,86.502,72.972,90.499z"/>
					<path style="&st9;" d="M67.991,92.78c-2.813,6.342-7.848,18.236-14.699,7.287c-2.664-4.256-3.43-9.494-4.083-14.377
						c-1.11-8.288,2.774-17.112,6.615-24.771c6.16-5.52,13.753-9.714,21.595-11.823c5.329-1.433,11.744-2.52,17.281-2.132
						c5.961,0.417,11.799,1.517,17.59,2.959c-10.44,5.29-21.667,11.052-28.993,19.655C77.223,76.711,72.172,83.358,67.991,92.78z"/>
					<path style="&st0;" d="M59.808,68.03c-2.574,3.701-4.463,6.896-5.833,11.195c-1.309,4.106-1.239,11.204,0.75,15.222
						c1.025,2.07,3.378,4.017,5.432,2.082c1.604-1.512,0.667-5.472,0.569-7.416c-0.585-11.705,9.269-31.012,9.416-31.226
						C70.142,57.887,61.195,66.036,59.808,68.03z"/>
				</g>
				<g>
					<path style="&st3;" d="M92.538,86.131c-0.833,4.813-3.689,9.24-7.238,12.521c-1.785,1.65-4.339,3.36-6.73,3.962
						c-3.533,0.89-7.641,0.384-11.024-0.872c-1.822-0.676-3.711-1.666-5.241-2.875c-5.364-4.236-6.373-10.232-5.743-15.828
						c0.348-3.089,2.103-16.876,14.247-25.152"/>
					<path style="&st19;" d="M69.808,59.363c-0.417,0.961-1.532,2.049-2.231,3c-0.717,0.976-1.278,1.984-1.958,2.977
						c-3.95,5.767-5.476,10.748-5.602,17.598c-0.038,2.036,0.25,5.817,1.159,8.407c1.133,3.229,3.678,5.987,6.734,7.411
						c5.818,2.711,13.491,0.021,17.864-4.24c1.144-1.114,2.253-2.594,2.896-4.063c0.658-1.505,1.919-3.065,2.031-4.712
						c0.093-1.369,0.023-2.961,0.023-4.711"/>
					<path style="&st18;" d="M87.975,82.155c-1.705,3.551-4.926,8.746-8.532,10.559c-7.197,3.618-14.379-1.772-16.367-8.807
						c-2.506-8.871,1.671-18.554,8.024-24.752"/>
					<path style="&st9;" d="M78.558,51.155c-0.813,0.23-1.603,0.978-2.272,1.47c-2.621,1.926-5.281,4.321-6.834,7.226
						c-1.283,2.399-1.44,5.198-1.472,7.862c-0.039,3.292-0.216,8.128,2.079,10.651c1.07,1.177,2.958,2.167,4.667,2.333
						c3.829,0.374,7.51-1.371,9.068-4.781c0.4-0.875,0.71-1.861,0.885-2.808c0.187-1.013,0.323-2.059,0.381-3.088
						c0.152-2.682,0.263-5.454,1.532-7.877c0.511-0.976,1.1-1.967,1.716-2.875c0.521-0.766,1.252-1.623,2.126-1.989"/>
				</g>
				<g>
					<path style="&st3;" d="M137.267,78.655c0-2.5-0.434-5.175-1.916-7.782c-1.635-2.877-3.535-5.608-5.291-8.364
						c-2.32-3.643-5.255-6.894-8.75-9.452c-1.986-1.454-4.252-2.603-6.577-3.413c-8.746-3.047-19.146-1.937-26.615,3.706
						c-6.68,5.046-11.725,14.179-10.811,22.716c0.949,8.868,9.829,13.329,18.055,11.415c3.53-0.821,7.278-2.725,8.465-6.403
						c1.298-4.02,0.985-7.254-0.938-10.735c-0.584-1.058-2.875-3.42-4.582-4.591c4.395-3.909,13.127-3.458,16.02-2.847
						c4.588,0.971,7.92,3.829,11.563,6.706c1.819,1.437,3.7,2.783,5.534,4.201C133.218,75.196,137.267,78.655,137.267,78.655z"/>
					<path style="&st4;" d="M135.267,75.405c-0.167-1.623-1.358-3.62-2.142-5.126c-1.352-2.599-3.058-4.898-4.434-7.512
						c-4.236-8.049-14.863-12.784-17.861-13.049c-9-0.796-14.036,1.813-17.563,3.484c-1.941,0.92-3.841,2.094-5.438,3.5
						c-4.063,3.578-6.322,8.145-7.176,10.22c-1.149,2.795-1.27,6.004-0.824,8.795c0.398,2.494,2.5,7.688,7.184,9.252
						c2.609,0.871,6.656,1.3,9.191,0.248c4.235-1.757,7.881-5.25,5.375-13.225c-1.458-4.639-6.583-6.04-10.25-3.775
						c-2.317,1.432-4.612,6.364-2.813,8.813c0.548,0.746,2.185,1.625,2.93,1.875c-1.617,0.75-2.607,0.69-4.107-0.115
						c-2.73-1.465-1.994-7.329-0.589-8.948c1.269-1.462,4.347-3.295,6.391-3.938c1.694-0.533,3.295-0.625,3.82-1.424
						c0.626-0.953,1.917-2.017,3.364-2.576c1.7-0.656,3.269-1.47,5.066-1.753c2.067-0.326,4.076-0.292,6.188-0.184
						c2.609,0.133,5.445,0.666,7.874,1.688c3.216,1.353,5.937,3.666,8.707,5.75c1.519,1.144,2.951,2.408,4.232,3.811
						c0.566,0.62,1.01,1.333,1.465,2.036C134.229,73.827,134.688,74.124,135.267,75.405z"/>
				</g>
			</g>
		</g>
	</g>
	<g id="花瓣3">
		<g>
			<path style="&st16;" d="M94.054,114.337c-1.521-4.387,7.023-12.251,11.251-13.344c4.228-1.092,10.286-1.566,12.137,6.211
				c1.606,6.753-2.815,11.327-7.043,12.418C106.171,120.718,96.336,120.92,94.054,114.337z"/>
			<path style="&st12;" d="M96.408,113.529c-1.217-3.509,5.619-9.801,9.001-10.675c3.382-0.873,8.229-1.253,9.709,4.969
				c1.285,5.402-2.252,9.062-5.635,9.935C106.102,118.634,98.234,118.795,96.408,113.529z"/>
		</g>
		<g>
			<path style="&st16;" d="M84.702,125.668c-1.596-4.36,7.232-12.306,11.553-13.421c4.32-1.117,11.681-1.817,13.528,5.961
				c1.604,6.754-5.69,10.762-10.011,11.877C95.452,131.204,86.989,131.917,84.702,125.668z"/>
			<path style="&st12;" d="M87.214,124.775c-1.277-3.488,5.786-9.845,9.242-10.737c3.456-0.894,9.345-1.454,10.822,4.769
				c1.283,5.403-4.552,8.609-8.009,9.502C95.813,129.203,89.043,129.774,87.214,124.775z"/>
		</g>
		<g>
			<path style="&st16;" d="M96.308,124.179c6.307,4.236,6,12,0.657,18.758c-3.083,3.9-7.157,7.408-14.49,2.574
				c-5.795-3.82-1.825-13.138,1.5-16.832C87.127,125.175,91.475,120.932,96.308,124.179z"/>
			<path style="&st12;" d="M95.1,126.431c5.046,3.39,4.8,9.601,0.525,15.007c-2.466,3.12-5.726,5.927-11.592,2.06
				c-4.636-3.057-1.459-10.511,1.2-13.466C87.755,127.228,91.233,123.833,95.1,126.431z"/>
		</g>
		<g>
			<path style="&st16;" d="M104.199,167.759c-4.772,1.523-15.98-7.646-17.492-12.383c-1.513-4.734-1.304-13.545,6.958-15.998
				c7.173-2.131,14.913,4.697,16.31,9.467C111.586,154.349,108.972,166.234,104.199,167.759z"/>
			<path style="&st12;" d="M103.002,164.898c-3.818,1.219-12.784-6.117-13.993-9.906c-1.21-3.787-1.043-10.836,5.566-12.799
				c5.738-1.704,11.93,3.758,13.048,7.574C108.912,154.169,106.82,163.677,103.002,164.898z"/>
		</g>
		<g>
			<path style="&st16;" d="M125.625,172.422c-2.91,4.985-16.023,5.179-20.316,2.673c-4.293-2.506-9.515-7.072-4.359-15.558
				c4.477-7.369,12.447-5.827,16.74-3.321C121.983,158.722,128.535,167.436,125.625,172.422z"/>
			<path style="&st12;" d="M123.015,171.019c-2.328,3.988-12.818,4.144-16.253,2.139s-7.612-5.658-3.487-12.446
				c3.582-5.896,9.958-4.661,13.392-2.657C120.102,160.059,125.343,167.031,123.015,171.019z"/>
		</g>
		<g>
			<path style="&st16;" d="M139.642,176.451c-2.342,4.014-12.325,4.09-16.619,1.584c-4.293-2.504-9.837-6.613-4.566-12.625
				c4.75-5.418,7.707-4.174,12-1.668C134.75,166.246,141.985,172.437,139.642,176.451z"/>
			<path style="&st12;" d="M137.229,175.242c-1.874,3.211-9.86,3.272-13.295,1.268c-3.435-2.003-7.87-5.291-3.653-10.1
				c3.8-4.335,6.166-3.34,9.6-1.335C133.315,167.078,139.103,172.031,137.229,175.242z"/>
		</g>
		<g>
			<path style="&st16;" d="M205.964,118.191c2.621-7.186-7.344-13.357-12.156-14.6c-4.813-1.244-12.672-1.16-14.502,6.622
				c-1.588,6.758,5.289,10.769,10.102,12.011C194.22,123.47,203.575,124.744,205.964,118.191z"/>
			<path style="&st12;" d="M203.318,117.175c2.097-5.748-5.875-10.686-9.725-11.68c-3.85-0.995-10.137-0.928-11.602,5.298
				c-1.27,5.406,4.231,8.615,8.082,9.608C193.923,121.399,201.407,122.417,203.318,117.175z"/>
		</g>
		<g>
			<path style="&st16;" d="M212.854,129.357c1.759-5.404-8.344-12.592-13.156-13.836c-4.813-1.243-11.672-1.925-13.502,5.857
				c-1.588,6.758,5.289,10.77,10.101,12.012C201.11,134.636,210.308,137.179,212.854,129.357z"/>
			<path style="&st12;" d="M210.185,128.441c1.407-4.323-6.675-10.073-10.525-11.068s-9.337-1.54-10.801,4.686
				c-1.271,5.406,4.231,8.616,8.08,9.609C200.79,132.665,208.148,134.699,210.185,128.441z"/>
		</g>
		<g>
			<path style="&st16;" d="M201.163,126.587c-6.308,4.236-6,12-0.657,18.758c3.083,3.9,7.157,7.408,14.49,2.574
				c5.795-3.82,1.825-13.137-1.5-16.832C210.343,127.583,205.996,123.341,201.163,126.587z"/>
			<path style="&st12;" d="M202.371,128.839c-5.046,3.39-4.8,9.601-0.526,15.007c2.466,3.12,5.726,5.927,11.592,2.06
				c4.636-3.057,1.46-10.51-1.2-13.466C209.715,129.636,206.237,126.243,202.371,128.839z"/>
		</g>
		<g>
			<path style="&st16;" d="M192.497,169.919c4.427,1.414,15.091-7.93,16.603-12.666c1.513-4.734,1.503-13.48-6.165-15.746
				c-6.658-1.965-14.032,4.979-15.438,9.746C185.875,156.753,188.069,168.505,192.497,169.919z"/>
			<path style="&st12;" d="M193.682,167.058c3.542,1.132,12.073-6.344,13.282-10.133c1.21-3.787,1.203-10.784-4.932-12.597
				c-5.327-1.571-11.226,3.983-12.35,7.797C188.384,156.526,190.14,165.927,193.682,167.058z"/>
		</g>
		<g>
			<path style="&st16;" d="M173.079,174.943c2.343,4.014,14.791,3.066,19.084,0.561s9.644-6.852,5.463-13.666
				c-3.63-5.918-11.337-3.924-15.63-1.418C177.702,162.925,170.736,170.927,173.079,174.943z"/>
			<path style="&st12;" d="M175.638,173.518c1.875,3.211,11.833,2.453,15.267,0.448c3.435-2.005,7.715-5.481,4.371-10.933
				c-2.904-4.734-9.07-3.14-12.504-1.135C179.336,163.904,173.764,170.305,175.638,173.518z"/>
		</g>
		<g>
			<path style="&st16;" d="M157.829,177.859c2.343,4.014,14.791,3.066,19.084,0.561c4.293-2.504,9.644-6.852,5.463-13.666
				c-3.63-5.916-11.337-3.922-15.63-1.416C162.452,165.841,155.486,173.845,157.829,177.859z"/>
			<path style="&st12;" d="M160.388,176.434c1.875,3.211,11.833,2.453,15.267,0.448c3.435-2.003,7.715-5.481,4.371-10.933
				c-2.904-4.732-9.07-3.138-12.504-1.133C164.086,166.82,158.514,173.223,160.388,176.434z"/>
		</g>
		<g>
			<path style="&st16;" d="M149.337,167.949c4.75,0.125,9.459,3.035,10.328,4.063c5.625,6.652-1.705,13.41-4.453,14.188
				c-2.329,0.66-6.047,3.063-6.047,3.063s-4.5-2.832-7.25-3.063c-2.847-0.236-11.314-6.826-4.996-14.268
				c1.913-2.252,6.121-3.857,10.871-3.982H149.337z"/>
			<path style="&st12;" d="M149.106,170.08c3.8,0.101,7.567,2.429,8.263,3.25c4.5,5.322-1.364,10.729-3.563,11.351
				c-1.863,0.528-4.837,2.45-4.837,2.45s-3.6-2.266-5.8-2.45c-2.277-0.189-9.051-5.461-3.997-11.414
				c1.53-1.802,4.896-3.086,8.697-3.187H149.106z"/>
		</g>
	</g>
	<g id="花瓣2">
		<g>
			<path style="&st16;" d="M137.181,159.248c4-2.884,3.484-11.198,0-14.125c-3.125-2.625-10.5-9.5-15.125-14.25
				c-4.116-4.228-9.25-6.625-19.125-6c-9.875,0.626-12.75,12.874-12.75,12.875c0,0,7.375,2.625,8.75,9
				c1.228,5.69,11.5,14,18.5,15.25C121.173,162.666,133.137,162.164,137.181,159.248z"/>
			<path style="&st5;" d="M94.457,137.117c1.484,0.484,3.889,2.263,4.65,2.966c1.525,1.409,2.588,3.254,3.756,4.906
				c2.309,3.268,4.243,6.618,7.969,8.472c3.521,1.751,7.055,3.159,11.003,3.159c7.435,0,13.019-6.381,13.278-7.723
				c0.296-1.536-6.313-6.908-8.006-8.314c-1.562-1.297-7.175-6.759-9.028-7.587c-1.808-0.809-4.1-1.772-5.997-2.254
				c-4.168-1.06-7.236-1.672-11.403-0.027C97.588,131.933,94.457,137.117,94.457,137.117z"/>
			<path style="&st9;" d="M103.306,135.248c5.125-1.125,18.75,0.375,25.5,11.5c1.805,2.975-11.802,2.221-12.933,1.498
				C111.95,145.724,105.968,140.333,103.306,135.248z"/>
		</g>
		<g>
			<path style="&st16;" d="M159.681,159.498c-4-2.884-1.519-9.38-0.25-13.75c1.191-4.105,9.25-8.75,13.875-13.5
				c4.116-4.228,11.059-5.77,20.934-5.145s12.75,12.875,12.75,12.875s-7.375,2.625-8.75,9c-1.228,5.69-12.559,12.77-19.559,14.02
				C174.938,163.666,163.724,162.414,159.681,159.498z"/>
			<path style="&st5;" d="M202.747,137.112c-1.078-0.078-3.179,1.565-4.005,2.165c-1.382,1.001-2.255,2.928-3.318,4.313
				c-1.105,1.438-1.861,3.171-2.936,4.656c-1.171,1.619-2.645,2.549-4.253,3.652c-1.568,1.076-2.851,2.503-4.653,3.188
				c-1.711,0.65-3.725,0.993-5.493,1.163c-3.678,0.353-8.303-0.427-11.354-2.413c-2.51-1.634-6.8-4.907-4.128-8.088
				c2.496-2.97,6.679-3.803,9.473-6.5c3.098-2.991,5.563-6.234,9.753-7.756c3.728-1.354,7.575-1.461,11.597-1.652
				c2.422-0.116,3.887,0.406,5.747,2.177C200.644,133.414,202.747,137.112,202.747,137.112z"/>
			<path style="&st9;" d="M194.806,136.623c-3.184-4.98-8.375-6.125-26.605,9.875c-2.615,2.295,17.98-1.125,21.321-3.98
				C191.51,140.818,193.806,139.373,194.806,136.623z"/>
		</g>
		<g>
			<path style="&st16;" d="M142.832,145.464c-1.751,0.707-3.475,1.506-5.122,2.309c-3.428,1.671-6.115,4.223-7.906,7.563
				c-1.999,3.726-2.279,7.475-0.256,11.308c2.204,4.178,5.574,5.3,10.034,4.848c3.701-0.376,7.638-1.94,11.122-0.871
				c1.88,0.577,5.816,1.784,7.654,1.722c3.528-0.12,7.502-2.757,8.912-4.601c1.293-1.69,1.992-3.875,2.188-5.813
				c0.412-4.076-1.01-6.284-3.625-9.315c-2.272-2.635-6.549-5.728-9.724-7.159c-1.717-0.773-7.144-1.619-7.144-1.619
				S144.563,144.764,142.832,145.464z"/>
			<path style="&st9;" d="M144.972,158.412c1.312,1.572,3.708,1.816,5.596,1.189c1.715-0.569,2.669-2.623,2.576-4.422
				c-0.082-1.572-0.441-3.025-0.922-4.5c-0.383-1.174-0.696-2.716-1.531-3.68c-0.974-0.181-1.727-0.299-1.727-0.299
				s-1.388,0.327-3.121,0.834c-1.01,1.463-1.651,3.42-2.089,5.082C143.203,154.706,143.54,156.695,144.972,158.412z"/>
			<path style="&st5;" d="M154.68,147.997c-0.803-0.362-2.617-0.743-3.989-0.997c0.835,0.964,1.148,2.506,1.531,3.68
				c0.481,1.475,0.84,2.928,0.922,4.5c0.093,1.799-0.861,3.853-2.576,4.422c-1.887,0.627-4.284,0.383-5.596-1.189
				c-1.433-1.717-1.769-3.706-1.218-5.795c0.438-1.662,1.079-3.619,2.089-5.082c-2.043,0.598-4.566,1.445-5.882,2.316
				c-2.545,1.684-7.254,8.016-5.129,13.328c1.404,3.51,3.429,5.056,6.554,4.992c2.975-0.061,5.099-1.69,8.009-1.867
				c2.063-0.125,6.383,1.694,8.216,1.402c4.097-0.652,5.745-5.465,5.659-8.09C163.086,154.041,157.219,149.142,154.68,147.997z"/>
		</g>
	</g>
	<g id="子房">
		<g>
			<g>
				<g>
					<path style="&st15;" d="M155.19,76.942c-0.069-4.208-0.309-12.056-6.357-12.056c-4.258,0-5.835,4.599-6.137,8.043
						c-0.356,4.07-0.174,8.174-0.542,12.247c-0.098,1.081-0.231,2.159-0.449,3.222c-0.089,0.433-0.33,2.48-0.709,2.692
						c1.541-0.862,2.551-3.133,2.795-4.519c0.619-3.514,0.529-7,0.51-10.571c-0.012-2.192-0.088-4.8,0.858-6.834
						c1.204-2.589,4.679-3.027,6.653-1.049c1.382,1.385,1.315,5.694,1.307,7.537c-0.021,4.595-0.161,6.917,0.187,11.377
						c0.065,0.832,0.791,2.37,1.465,2.905c0.525,0.417,1.115,0.538,1.717,0.606C155.051,86.132,155.266,81.506,155.19,76.942z"/>
				</g>
				<g>
					<path style="&st14;" d="M155.19,76.942c-0.069-4.208-0.309-12.056-6.357-12.056c-4.258,0-5.835,4.599-6.137,8.043
						c-0.356,4.07-0.174,8.174-0.542,12.247c-0.098,1.081-0.231,2.159-0.449,3.222c-0.089,0.433-0.33,2.48-0.709,2.692
						c1.541-0.862,2.551-3.133,2.795-4.519c0.619-3.514,0.529-7,0.51-10.571c-0.012-2.192-0.088-4.8,0.858-6.834
						c1.204-2.589,4.679-3.027,6.653-1.049c1.382,1.385,1.315,5.694,1.307,7.537c-0.021,4.595-0.161,6.917,0.187,11.377
						c0.065,0.832,0.791,2.37,1.465,2.905c0.525,0.417,1.115,0.538,1.717,0.606C155.051,86.132,155.266,81.506,155.19,76.942z"/>
				</g>
			</g>
			<g>
				<g>
					<path style="&st6;" d="M175.811,105.815c-3.15-2.463-12.125-6.861-18.109-13.008c-0.501-0.515-0.897-1.296-1.212-2.264
						c-0.603-0.068-1.192-0.189-1.717-0.606c-0.675-0.535-1.4-2.073-1.465-2.905c-0.348-4.46-0.207-6.782-0.187-11.377
						c0.008-1.843,0.075-6.152-1.307-7.537c-1.974-1.979-5.449-1.541-6.653,1.049c-0.946,2.034-0.87,4.642-0.858,6.834
						c0.019,3.571,0.109,7.057-0.51,10.571c-0.244,1.386-1.255,3.656-2.795,4.519c-0.28,0.717-0.615,1.303-1.018,1.717
						c-5.984,6.146-14.959,10.545-18.11,13.007c-6.738,5.266-15.492,21.933,0.303,33.501c4.47,3.274,18.578,8.778,26.117,8.778
						c6.916,0,20.765-5.504,25.235-8.778C189.32,127.747,182.55,111.08,175.811,105.815z"/>
				</g>
				<g>
					<path style="&st14;" d="M175.811,105.815c-3.15-2.463-12.125-6.861-18.109-13.008c-0.501-0.515-0.897-1.296-1.212-2.264
						c-0.603-0.068-1.192-0.189-1.717-0.606c-0.675-0.535-1.4-2.073-1.465-2.905c-0.348-4.46-0.207-6.782-0.187-11.377
						c0.008-1.843,0.075-6.152-1.307-7.537c-1.974-1.979-5.449-1.541-6.653,1.049c-0.946,2.034-0.87,4.642-0.858,6.834
						c0.019,3.571,0.109,7.057-0.51,10.571c-0.244,1.386-1.255,3.656-2.795,4.519c-0.28,0.717-0.615,1.303-1.018,1.717
						c-5.984,6.146-14.959,10.545-18.11,13.007c-6.738,5.266-15.492,21.933,0.303,33.501c4.47,3.274,18.578,8.778,26.117,8.778
						c6.916,0,20.765-5.504,25.235-8.778C189.32,127.747,182.55,111.08,175.811,105.815z"/>
				</g>
			</g>
		</g>
		<g>
			<path style="&st3;" d="M137.864,83.014c-0.084-0.356-0.206-0.705-0.412-1.03c-0.16-0.252-0.351-0.465-0.559-0.648
				c-1.339-1.013-3.569-1.026-3.569-1.026c1.277,0.412,2.194,1.036,2.571,1.761c0.641,1.231,0.051,2.19-0.708,3.235
				c-0.776,1.069-1.683,1.231-2.628,2.104c-1.083,0.999-1.912,1.074-2.935-0.005c-1.593-1.68-3.612-1.499-3.36-3.985
				c0.149-1.475,1.11-2.098,1.11-2.098s-2-3.333,0.898-3.935c1.24-0.257,2.644,0.098,3.852-0.315
				c1.276-0.436,3.643-2.068,4.953-2.477c3.547-1.106,7.855,2.061,7.13,6.643c-0.417,2.634-1.165,5.251-2.417,7.584
				c-1.184,2.206-2.726,4.018-4.52,5.75c-1.813,1.75-10.847,6.685-13.229,8.417c-2.166,1.575-4.976,5.151-6.437,7.916
				c-1.396,2.642-2.814,5.515-2.938,8.556c-0.128,3.159,0.7,6.569,1.914,9.406c2.361,5.516,7.142,9.675,11.5,13.625
				c3.475,3.149,6.125,3.873,11.873,3.501c0.117-0.008,0.231-0.005,0.347-0.003c-10.878-2.673-19.387-10.874-22.76-22.842
				c-3.127-11.092,10.984-21.594,15.298-22.975c6.475-2.074,17.867-17.53,11.117-25.28c-2.829-3.248-6.589-3.754-8.932-1.764
				c-1.619,1.375-3.547,2.263-5.113,1.975c-3.275-0.603-6.057,2.413-5.571,5.285c-1.7,2.155-0.89,4.707,3.238,8.537
				c4.128,3.829,5.504,0.479,7.811-0.958c0.063-0.039,0.113-0.087,0.173-0.128C136.164,87.376,138.15,85.63,137.864,83.014z"/>
			<path style="&st3;" d="M159.71,146.496c2.073-0.518,8.248-3.11,10.122-4.254c2.756-1.682,5.639-4.661,7.875-7.5
				c2.305-2.927,4.057-8.813,4.5-10.493c0.488-1.854,0.225-4.156,0.125-6.132c-0.185-3.644-2.04-7.015-4-10.125
				c-1.127-1.79-2.738-2.992-4.334-4.32c-1.822-1.518-3.39-3.049-5.583-4.022c-2.448-1.086-7.293-3.802-9.082-5.907
				c-1.333-1.569-4.063-5.352-4.844-7.125c-1.448-3.288-1.427-7.753,0.997-10.597c2.153-2.527,7.813-2.935,10.128-0.934
				c1.468,1.269,3.015,2.088,5.101,1.912c1.035-0.087,1.689-0.63,2.247,0.615c0.404,0.901-0.141,1.859,0.247,2.753
				c0.462,1.066,1.154,0.91,0.465,2.222c-0.281,0.534-0.972,1.31-1.435,1.81c-0.98,1.059-2.389,2.939-3.906,2.996
				c-3.729,0.141-4.156-5.529-1.677-7.029c-0.771,0.091-1.969,0.333-2.813,0.974c-0.207,0.182-0.396,0.395-0.555,0.645
				c-0.205,0.324-0.326,0.672-0.41,1.026c-0.29,2.617,1.698,4.364,2.301,4.829c0.061,0.04,0.111,0.089,0.174,0.128
				c2.307,1.437,2.727,3.23,6.855-0.599c4.128-3.83,4.7-5.57,3-7.726c0.486-2.872-1.103-5.142-4.378-4.539
				c-1.565,0.288-3.495-0.6-5.113-1.975c-2.341-1.99-5.611-2.867-10.198,0.637c-10.339,7.899,2.996,24.373,9.47,26.408
				c5.47,1.72,18.552,11.919,15.298,22.975c-3.659,12.434-11.961,20.984-25.101,23.213c0.329,0.167,0.664,0.324,1.023,0.381
				C157.341,146.92,158.698,146.748,159.71,146.496z"/>
			<path style="&st24;" d="M185.061,99.295c-3.643-4.468-11.214-7.978-14.916-8.217c-2.163-0.239-4.794-3.111-4.794-3.111
				s-0.068-0.047-0.174-0.128c-1.796-1.206-2.703-3.139-2.301-4.829c0.003-0.029,0.002-0.058,0.006-0.087
				c0.09-0.701,0.466-1.209,0.959-1.584c0.91-0.801,2.169-0.99,2.925-1.028c0.14-0.076,0.283-0.147,0.44-0.195
				c-0.157,0.048-0.3,0.119-0.44,0.195c0.385-0.02,0.648-0.002,0.648-0.002s-0.308,0.002-0.76,0.056
				c-2.479,1.5-2.053,7.169,1.677,7.029c1.517-0.057,2.925-1.938,3.906-2.996c0.462-0.5,1.154-1.275,1.435-1.81
				c0.689-1.312-0.003-1.155-0.465-2.222c-0.388-0.895,0.157-1.852-0.247-2.753c-0.558-1.245-1.212-0.702-2.247-0.615
				c-2.085,0.176-3.633-0.644-5.101-1.912c-2.314-2.001-7.975-1.593-10.128,0.934c-2.423,2.844-2.444,7.309-0.997,10.597
				c0.781,1.773,3.51,5.556,4.844,7.125c1.789,2.105,6.634,4.821,9.082,5.907c2.194,0.974,3.761,2.505,5.583,4.022
				c1.597,1.328,3.207,2.53,4.334,4.32c1.96,3.11,3.816,6.481,4,10.125c0.1,1.976,0.363,4.278-0.125,6.132
				c-0.443,1.681-2.195,7.566-4.5,10.493c-2.236,2.839-5.119,5.818-7.875,7.5c-1.874,1.144-8.048,3.736-10.122,4.254
				c-1.012,0.252-2.369,0.425-3.503,0.246c-0.359-0.057-0.694-0.214-1.023-0.381c-2.036,0.346-4.179,0.551-6.449,0.583
				c-2.93,0.042-5.751-0.295-8.434-0.954c-0.115-0.002-0.23-0.005-0.347,0.003c-5.748,0.372-8.398-0.352-11.873-3.501
				c-4.358-3.95-9.139-8.109-11.5-13.625c-1.214-2.837-2.042-6.247-1.914-9.406c0.124-3.041,1.542-5.914,2.938-8.556
				c1.461-2.765,4.271-6.341,6.437-7.916c2.382-1.732,11.417-6.667,13.229-8.417c1.794-1.732,3.336-3.544,4.52-5.75
				c1.253-2.333,2.001-4.95,2.417-7.584c0.725-4.583-3.583-7.75-7.13-6.643c-1.31,0.409-3.677,2.041-4.953,2.477
				c-1.208,0.413-2.611,0.058-3.852,0.315c-2.898,0.601-0.898,3.935-0.898,3.935s-0.961,0.623-1.11,2.098
				c-0.252,2.486,1.768,2.306,3.36,3.985c1.023,1.079,1.853,1.004,2.935,0.005c0.945-0.873,1.852-1.035,2.628-2.104
				c0.759-1.045,1.349-2.004,0.708-3.235c-0.377-0.725-1.293-1.349-2.571-1.761c0,0,2.196-0.179,3.569,1.026
				c0.496,0.377,0.873,0.885,0.964,1.588c0.004,0.031,0.003,0.061,0.006,0.091c0.4,1.689-0.507,3.621-2.302,4.825
				c-0.105,0.081-0.173,0.128-0.173,0.128s-2.63,2.872-4.794,3.111c-3.701,0.239-14.187,3.749-17.83,8.217
				c-5.658,6.94-11.008,17.87-3.48,33.665c7.527,15.796,25.948,15.432,39.627,15.433c14.665,0.001,32.101,0.363,39.629-15.433
				C196.069,117.166,190.718,106.237,185.061,99.295z"/>
		</g>
	</g>
	<g id="花蕊">
		<path style="&st11;" d="M140.729,115.414c-2.194,0.591-5.006,5.181,0.898,9.046c3.797,2.485,5.248,10.909,3.797,11.807
			c-1.45,0.897,0.345,2.555,1.519,1.302c0.84-0.898,1.381-7.378-0.276-10.209s-6.947-6.218-5.773-7.805
			c1.174-1.589,1.286-0.066,1.838-1.586C143.396,116.141,141.512,115.203,140.729,115.414z"/>
		<path style="&st11;" d="M135.299,116.91c-2.194,0.591-5.007,5.18,0.897,9.045c3.797,2.485,5.248,10.909,3.797,11.807
			c-1.45,0.898,0.345,2.556,1.519,1.302c0.84-0.897,1.381-7.378-0.276-10.208c-1.657-2.832-6.947-6.218-5.773-7.806
			c1.173-1.588,1.286-0.066,1.838-1.585C137.965,117.636,136.082,116.698,135.299,116.91z"/>
		<path style="&st11;" d="M123.329,122.801c0.005-0.674,0.207-2.14,1.726-2.071c1.519,0.069,1.519,1.175,1.45,2.141
			c-0.069,0.967-0.644,3.102,0.421,5.662c0.891,2.141,2.747,4.776,4.619,6.836c2.106,2.317,3.551,4.478,4.972,4.833
			c3.038,0.76-0.13,3.38-0.504,2.529c-0.808-1.839-6.452-7.112-7.919-8.743C125.449,131.049,123.307,125.702,123.329,122.801z"/>
		<path style="&st11;" d="M129.474,123.699c0,0-2.21-2.83-0.76-3.521c1.45-0.69,2.668,1.478,2.762,1.622
			c1.194,1.853,5.507,8.803,6.624,16.219c0.557,3.702-0.279,3.086-0.279,3.086l-1.167,0.201c0.001,0.026-0.699-8.446-2.762-11.052
			C131.967,127.823,129.474,123.699,129.474,123.699z"/>
		<path style="&st11;" d="M152.188,114.469c2.194,0.591,3.732,6.259-0.204,9.782c-3.978,3.562-5.041,11.601-3.591,12.498
			s-0.345,2.555-1.519,1.301c-0.84-0.896-1.381-7.377,0.276-10.208c1.657-2.831,6.047-7.645,4.873-9.232
			c-1.173-1.589-1.286-0.066-1.838-1.586C149.521,115.197,151.404,114.258,152.188,114.469z"/>
		<path style="&st11;" d="M157.618,115.964c2.194,0.592,5.007,5.181-0.897,9.046c-3.798,2.485-5.248,10.909-3.798,11.807
			c1.45,0.898-0.345,2.555-1.519,1.302c-0.84-0.898-1.381-7.377,0.276-10.209c1.657-2.831,6.947-6.218,5.774-7.805
			c-1.174-1.589-1.286-0.066-1.838-1.586C154.951,116.692,156.834,115.754,157.618,115.964z"/>
		<path style="&st11;" d="M174.623,122.006c-0.005-0.675-0.207-2.141-1.726-2.071c-1.519,0.068-1.519,1.173-1.45,2.141
			c0.069,0.966,0.644,3.101-0.421,5.661c-0.891,2.141-2.747,4.776-4.619,6.836c-2.106,2.317-3.55,4.478-4.972,4.833
			c-3.038,0.76,0.13,3.379,0.504,2.528c0.808-1.838,6.452-7.111,7.92-8.742C172.503,130.254,174.645,124.906,174.623,122.006z"/>
		<path style="&st11;" d="M168.478,122.904c0,0,2.209-2.831,0.76-3.521c-1.45-0.69-2.668,1.478-2.762,1.622
			c-1.194,1.853-5.507,8.803-6.624,16.219c-0.558,3.701,0.278,3.086,0.278,3.086l1.167,0.201c0,0.026,0.699-8.446,2.762-11.052
			C165.985,127.027,168.478,122.904,168.478,122.904z"/>
		<path style="&st11;" d="M162.647,116.91c2.194,0.591,5.008,5.18-0.897,9.045c-3.798,2.485-5.248,10.909-3.798,11.807
			c1.45,0.898-0.345,2.556-1.519,1.302c-0.84-0.897-1.381-7.378,0.276-10.208c1.657-2.832,6.947-6.218,5.774-7.806
			c-1.174-1.588-1.286-0.066-1.838-1.585C159.98,117.636,161.863,116.698,162.647,116.91z"/>
	</g>
	<g id="花瓣1">
		<g>
			<path style="&st10;" d="M153.802,147.675c0,0,8.5-3.189,12.333-6.189c2.271-1.777,8.479-5.666,10.669-10.182
				c1.193-2.463,3.145-4.235,5.061-4.545c1.844-0.298,2.75,1.893,2.75,1.893s2.75-7.333,7.25-4.333s-5.146,17.499-13.092,22.003
				C171.07,150.687,153.802,147.675,153.802,147.675z"/>
			<path style="&st7;" d="M165.718,148.444c4.653,0.008,9.627-0.519,12.888-2.366c1.133-0.643,2.301-1.488,3.457-2.475
				c0,0,1.616-2.262-0.753-3.103c-1.263-0.448-4.673,2.381-6.092,3.491C173.301,145.492,165.718,148.444,165.718,148.444z"/>
		</g>
		<g>
			<path style="&st10;" d="M144.635,147.431c0,0-12.75-4.939-16.417-8.272c-2.134-1.939-5.333-5.083-7.522-9.599
				c-1.194-2.463-3.145-4.234-5.061-4.545c-1.844-0.297-2.75,1.893-2.75,1.893s-2.75-7.332-7.25-4.332s2.417,15.199,9.614,20.357
				C124.051,149.242,144.635,147.431,144.635,147.431z"/>
			<path style="&st7;" d="M133.635,147.672c0,0-5.572-1.844-9.833-4.362c-3.5-2.068-5.417-4.902-7.917-4.985
				s-3.145,0.259-3.25,0.917C111.718,144.992,133.635,147.672,133.635,147.672z"/>
		</g>
		<g>
			<path style="&st10;" d="M142.885,137.653c0,0-1.496-1.38-3.905-1.335c-4.902,0.134-4.483,4.994-4.221,6.466
				c0.167,1.112,1.5,7.397,12.779,7.376c12.224-0.023,14.013-6.688,14.013-8.334c0-2.805-2.143-3.515-3.495-3.836
				c-2.674-0.636-5.531-0.203-5.531-0.203s-2.182-1.87-4.705-1.959C145.294,135.739,142.885,137.653,142.885,137.653z"/>
			<path style="&st7;" d="M147.539,150.478c-3.365,0-6.979-6.495,0.473-6.486C153.549,143.999,152.788,150.478,147.539,150.478z"/>
		</g>
	</g>
</g>
</svg>
