<?xml version="1.0" encoding="iso-8859-1"?>
<!-- Generator: Adobe Illustrator 16.0.2, SVG Export Plug-In . SVG Version: 6.00 Build 0)  -->
<!DOCTYPE svg PUBLIC "-//W3C//DTD SVG 1.1//EN" "http://www.w3.org/Graphics/SVG/1.1/DTD/svg11.dtd">
<svg version="1.1" id="&#x5716;&#x5C64;_1" xmlns="http://www.w3.org/2000/svg" xmlns:xlink="http://www.w3.org/1999/xlink" x="0px"
	 y="0px" width="72.781px" height="67.603px" viewBox="0 0 72.781 67.603" style="enable-background:new 0 0 72.781 67.603;"
	 xml:space="preserve">
<g>
	<path style="fill:#F7F5F1;stroke:#000000;stroke-miterlimit:10;" d="M24.788,8.627c0,0-3.522-6.525-9.523-6.503
		C3.048,2.366,0.1,16.335,0.542,23.188c0.253,5.181,5.887,45.119,34.026,43.886c30.459-1.333,37.46-29.051,37.697-36.7
		c0.402-13.025-6.459-17.42-9.777-19.016c-6.563-3.155-13.737-1.37-13.737-1.37S43.592,1.138,37.325,0.53
		C31.059-0.077,24.788,8.627,24.788,8.627z"/>
	<path style="fill:#ACBCBD;" d="M25.209,14.456c0.007-1.532,2.591-6.832,11.731-6.548c6.158,0.191,8.569,6.584,8.569,6.584
		s3.804-0.91,4.66-0.919c1.808-0.018,3.304,0.351,4.938,0.982c3.224,1.243,6.064,2.851,7.569,6.131
		c2.193,4.786,2.497,3.092,1.665,9.362c-0.229,1.735-5.127,16.162-7.226,19.125c-1.763,2.484-10.127,10.342-15.649,11.409
		c-3.105,0.602-6.634,0.773-9.823,0.033c-3.287-0.763-12.442-6.214-16.24-10.254c-3.001-3.194-4.49-5.408-5.813-9.282
		c-1.079-3.153-3.319-9.971-3.412-13.349c-0.057-2.063-0.105-12.165,1.514-14.745c1.729-2.755,5.235-4.202,8.472-3.776
		C17.535,9.391,22.721,11.276,25.209,14.456z"/>
	<path style="fill:#778581;" d="M28.507,24.696c1.288-0.885,2.726-1.534,4.048-1.833c2.001-0.452,4.975,0.008,6.934,0.548
		c1.929,0.529,3.592,1.578,4.977,3.01c2.605,2.693,4.612,6.346,5.621,9.946c1.127,4.009,2.118,10.345,0.014,14.189
		c-2.375,4.345-6.973,7.697-12.009,7.552c-3.328-0.095-8.229-1.546-10.341-3.954c-3.323-3.787-4.733-9.248-4.855-14.544
		c-0.077-3.374,0.763-7.522,1.979-10.68C25.501,27.297,26.885,25.811,28.507,24.696z"/>
</g>
<line id="direct" style="display:none;fill:none;stroke:#FF0000;stroke-miterlimit:10;" x1="37.325" y1="0.53" x2="34.567" y2="67.074"/>
</svg>
